<svg xmlns="http://www.w3.org/2000/svg" viewBox="0 0 1020 564" width="1020" height="564">
<rect x="0" y="0" width="1020" height="564" fill="white"/>
<rect x="20" y="476" width="144" height="48" fill="#e8e8e8"/>
<rect x="20" y="368" width="144" height="108" fill="#e8e8e8"/>
<rect x="680" y="452" width="120" height="72" fill="#e8e8e8"/>
<rect x="680" y="368" width="120" height="84" fill="#e8e8e8"/>
<rect x="20" y="284" width="144" height="84" fill="#e8e8e8"/>
<rect x="164" y="284" width="516" height="84" fill="#e8e8e8"/>
<rect x="20" y="20" width="216" height="264" fill="#e8e8e8"/>
<rect x="236" y="20" width="252" height="264" fill="#e8e8e8"/>
<rect x="488" y="20" width="312" height="264" fill="#e8e8e8"/>
<rect x="164" y="368" width="516" height="156" fill="#f0f0f0"/>
<rect x="800" y="200" width="120" height="168" fill="none" stroke="black" stroke-width="0.5" stroke-dasharray="4 2"/>
<rect x="-76" y="20" width="96" height="504" fill="none" stroke="black" stroke-width="0.5" stroke-dasharray="4 2"/>
<line x1="20" y1="20" x2="800" y2="20" stroke="black" stroke-width="2.5" stroke-linecap="square"/>
<line x1="20" y1="524" x2="800" y2="524" stroke="black" stroke-width="2.5" stroke-linecap="square"/>
<line x1="20" y1="524" x2="20" y2="20" stroke="black" stroke-width="2.5" stroke-linecap="square"/>
<line x1="800" y1="524" x2="800" y2="506" stroke="black" stroke-width="2.5" stroke-linecap="square"/>
<line x1="800" y1="470" x2="800" y2="350" stroke="black" stroke-width="2.5" stroke-linecap="square"/>
<line x1="800" y1="314" x2="800" y2="20" stroke="black" stroke-width="2.5" stroke-linecap="square"/>
<line x1="20" y1="284" x2="62" y2="284" stroke="black" stroke-width="1.5" stroke-linecap="square"/>
<line x1="98" y1="284" x2="140" y2="284" stroke="black" stroke-width="1.5" stroke-linecap="square"/>
<line x1="140" y1="284" x2="236" y2="284" stroke="black" stroke-width="1.5" stroke-linecap="square"/>
<line x1="140" y1="284" x2="140" y2="242" stroke="black" stroke-width="1.5" stroke-linecap="square"/>
<line x1="140" y1="206" x2="140" y2="188" stroke="black" stroke-width="1.5" stroke-linecap="square"/>
<line x1="140" y1="188" x2="236" y2="188" stroke="black" stroke-width="1.5" stroke-linecap="square"/>
<line x1="236" y1="284" x2="236" y2="188" stroke="black" stroke-width="1.5" stroke-linecap="square"/>
<line x1="236" y1="188" x2="236" y2="20" stroke="black" stroke-width="1.5" stroke-linecap="square"/>
<line x1="236" y1="284" x2="266" y2="284" stroke="black" stroke-width="1.5" stroke-linecap="square"/>
<line x1="302" y1="284" x2="488" y2="284" stroke="black" stroke-width="1.5" stroke-linecap="square"/>
<line x1="236" y1="200" x2="266" y2="200" stroke="black" stroke-width="1.5" stroke-linecap="square"/>
<line x1="302" y1="200" x2="386" y2="200" stroke="black" stroke-width="1.5" stroke-linecap="square"/>
<line x1="422" y1="200" x2="488" y2="200" stroke="black" stroke-width="1.5" stroke-linecap="square"/>
<line x1="332" y1="284" x2="332" y2="200" stroke="black" stroke-width="1.5" stroke-linecap="square"/>
<line x1="488" y1="284" x2="488" y2="200" stroke="black" stroke-width="1.5" stroke-linecap="square"/>
<line x1="488" y1="200" x2="488" y2="20" stroke="black" stroke-width="1.5" stroke-linecap="square"/>
<line x1="488" y1="284" x2="566" y2="284" stroke="black" stroke-width="1.5" stroke-linecap="square"/>
<line x1="602" y1="284" x2="680" y2="284" stroke="black" stroke-width="1.5" stroke-linecap="square"/>
<line x1="680" y1="284" x2="680" y2="254" stroke="black" stroke-width="1.5" stroke-linecap="square"/>
<line x1="680" y1="218" x2="680" y2="188" stroke="black" stroke-width="1.5" stroke-linecap="square"/>
<line x1="680" y1="188" x2="800" y2="188" stroke="black" stroke-width="1.5" stroke-linecap="square"/>
<line x1="680" y1="284" x2="800" y2="284" stroke="black" stroke-width="1.5" stroke-linecap="square"/>
<line x1="20" y1="476" x2="110" y2="476" stroke="black" stroke-width="1.5" stroke-linecap="square"/>
<line x1="146" y1="476" x2="164" y2="476" stroke="black" stroke-width="1.5" stroke-linecap="square"/>
<line x1="20" y1="368" x2="74" y2="368" stroke="black" stroke-width="1.5" stroke-linecap="square"/>
<line x1="110" y1="368" x2="164" y2="368" stroke="black" stroke-width="1.5" stroke-linecap="square"/>
<line x1="164" y1="524" x2="164" y2="368" stroke="black" stroke-width="1.5" stroke-linecap="square"/>
<line x1="680" y1="524" x2="680" y2="422" stroke="black" stroke-width="1.5" stroke-linecap="square"/>
<line x1="680" y1="386" x2="680" y2="368" stroke="black" stroke-width="1.5" stroke-linecap="square"/>
<line x1="680" y1="452" x2="698" y2="452" stroke="black" stroke-width="1.5" stroke-linecap="square"/>
<line x1="734" y1="452" x2="800" y2="452" stroke="black" stroke-width="1.5" stroke-linecap="square"/>
<line x1="680" y1="368" x2="800" y2="368" stroke="black" stroke-width="1.5" stroke-linecap="square"/>
<rect x="161.5" y="521.5" width="5" height="5" fill="black"/>
<rect x="161.5" y="365.5" width="5" height="5" fill="black"/>
<rect x="677.5" y="521.5" width="5" height="5" fill="black"/>
<rect x="677.5" y="365.5" width="5" height="5" fill="black"/>
<rect x="233.5" y="281.5" width="5" height="5" fill="black"/>
<rect x="485.5" y="281.5" width="5" height="5" fill="black"/>
<line x1="110" y1="473" x2="110" y2="479" stroke="black" stroke-width="0.5"/>
<line x1="146" y1="473" x2="146" y2="479" stroke="black" stroke-width="0.5"/>
<line x1="74" y1="365" x2="74" y2="371" stroke="black" stroke-width="0.5"/>
<line x1="110" y1="365" x2="110" y2="371" stroke="black" stroke-width="0.5"/>
<line x1="62" y1="281" x2="62" y2="287" stroke="black" stroke-width="0.5"/>
<line x1="98" y1="281" x2="98" y2="287" stroke="black" stroke-width="0.5"/>
<line x1="137" y1="206" x2="143" y2="206" stroke="black" stroke-width="0.5"/>
<line x1="137" y1="242" x2="143" y2="242" stroke="black" stroke-width="0.5"/>
<line x1="266" y1="197" x2="266" y2="203" stroke="black" stroke-width="0.5"/>
<line x1="302" y1="197" x2="302" y2="203" stroke="black" stroke-width="0.5"/>
<line x1="266" y1="281" x2="266" y2="287" stroke="black" stroke-width="0.5"/>
<line x1="302" y1="281" x2="302" y2="287" stroke="black" stroke-width="0.5"/>
<line x1="386" y1="197" x2="386" y2="203" stroke="black" stroke-width="0.5"/>
<line x1="422" y1="197" x2="422" y2="203" stroke="black" stroke-width="0.5"/>
<line x1="566" y1="281" x2="566" y2="287" stroke="black" stroke-width="0.5"/>
<line x1="602" y1="281" x2="602" y2="287" stroke="black" stroke-width="0.5"/>
<line x1="677" y1="218" x2="683" y2="218" stroke="black" stroke-width="0.5"/>
<line x1="677" y1="254" x2="683" y2="254" stroke="black" stroke-width="0.5"/>
<line x1="698" y1="449" x2="698" y2="455" stroke="black" stroke-width="0.5"/>
<line x1="734" y1="449" x2="734" y2="455" stroke="black" stroke-width="0.5"/>
<line x1="677" y1="386" x2="683" y2="386" stroke="black" stroke-width="0.5"/>
<line x1="677" y1="422" x2="683" y2="422" stroke="black" stroke-width="0.5"/>
<line x1="797" y1="314" x2="803" y2="314" stroke="black" stroke-width="0.5"/>
<line x1="797" y1="350" x2="803" y2="350" stroke="black" stroke-width="0.5"/>
<line x1="212" y1="522" x2="308" y2="522" stroke="black" stroke-width="1"/>
<line x1="368" y1="522" x2="464" y2="522" stroke="black" stroke-width="1"/>
<line x1="524" y1="522" x2="620" y2="522" stroke="black" stroke-width="1"/>
<line x1="44" y1="18" x2="116" y2="18" stroke="black" stroke-width="1"/>
<line x1="308" y1="18" x2="404" y2="18" stroke="black" stroke-width="1"/>
<line x1="536" y1="18" x2="632" y2="18" stroke="black" stroke-width="1"/>
<line x1="18" y1="128" x2="18" y2="200" stroke="black" stroke-width="1"/>
<line x1="18" y1="62" x2="18" y2="122" stroke="black" stroke-width="1"/>
<line x1="798" y1="74" x2="798" y2="134" stroke="black" stroke-width="1"/>
<text x="128" y="104" font-family="Inter, system-ui, sans-serif" font-size="7" fill="black" text-anchor="middle" dominant-baseline="middle">Daughter's</text>
<text x="128" y="114" font-family="Inter, system-ui, sans-serif" font-size="7" fill="black" text-anchor="middle" dominant-baseline="middle">Bedroom</text>
<text x="188" y="236" font-family="Inter, system-ui, sans-serif" font-size="5" fill="black" text-anchor="middle" dominant-baseline="middle">Bath</text>
<text x="362" y="104" font-family="Inter, system-ui, sans-serif" font-size="7" fill="black" text-anchor="middle" dominant-baseline="middle">Primary</text>
<text x="362" y="114" font-family="Inter, system-ui, sans-serif" font-size="7" fill="black" text-anchor="middle" dominant-baseline="middle">Bedroom</text>
<text x="284" y="242" font-family="Inter, system-ui, sans-serif" font-size="5" fill="black" text-anchor="middle" dominant-baseline="middle">Closet</text>
<text x="410" y="242" font-family="Inter, system-ui, sans-serif" font-size="5" fill="black" text-anchor="middle" dominant-baseline="middle">Bath</text>
<text x="584" y="140" font-family="Inter, system-ui, sans-serif" font-size="7" fill="black" text-anchor="middle" dominant-baseline="middle">In-Law</text>
<text x="584" y="150" font-family="Inter, system-ui, sans-serif" font-size="7" fill="black" text-anchor="middle" dominant-baseline="middle">Suite</text>
<text x="740" y="236" font-family="Inter, system-ui, sans-serif" font-size="5" fill="black" text-anchor="middle" dominant-baseline="middle">Bath</text>
<text x="740" y="104" font-family="Inter, system-ui, sans-serif" font-size="5" fill="black" text-anchor="middle" dominant-baseline="middle">Sitting</text>
<text x="92" y="500" font-family="Inter, system-ui, sans-serif" font-size="5" fill="black" text-anchor="middle" dominant-baseline="middle">Laundry</text>
<text x="92" y="422" font-family="Inter, system-ui, sans-serif" font-size="7" fill="black" text-anchor="middle" dominant-baseline="middle">Pantry</text>
<text x="92" y="432" font-family="Inter, system-ui, sans-serif" font-size="7" fill="black" text-anchor="middle" dominant-baseline="middle">Sit-in</text>
<text x="740" y="488" font-family="Inter, system-ui, sans-serif" font-size="5" fill="black" text-anchor="middle" dominant-baseline="middle">Dog</text>
<text x="740" y="498" font-family="Inter, system-ui, sans-serif" font-size="5" fill="black" text-anchor="middle" dominant-baseline="middle">Utility</text>
<text x="740" y="410" font-family="Inter, system-ui, sans-serif" font-size="5" fill="black" text-anchor="middle" dominant-baseline="middle">Guest</text>
<text x="740" y="420" font-family="Inter, system-ui, sans-serif" font-size="5" fill="black" text-anchor="middle" dominant-baseline="middle">Bath</text>
<text x="260" y="446" font-family="Inter, system-ui, sans-serif" font-size="7" fill="black" text-anchor="middle" dominant-baseline="middle">Kitchen</text>
<text x="416" y="446" font-family="Inter, system-ui, sans-serif" font-size="7" fill="black" text-anchor="middle" dominant-baseline="middle">Dining</text>
<text x="572" y="446" font-family="Inter, system-ui, sans-serif" font-size="7" fill="black" text-anchor="middle" dominant-baseline="middle">Living</text>
<line x1="848" y1="332" x2="788" y2="332" stroke="black" stroke-width="1"/>
<polygon points="788,332 806,329 806,335" fill="black"/>
<line x1="860" y1="68" x2="860" y2="32" stroke="black" stroke-width="0.5"/>
<text x="860" y="17" font-family="Inter, system-ui, sans-serif" font-size="6" fill="black" text-anchor="middle">N</text>
</svg>