<svg width="1200" height="630" viewBox="0 0 1200 630" fill="none" xmlns="http://www.w3.org/2000/svg">
  <!-- Pure black canvas -->
  <rect width="1200" height="630" fill="#000000"/>

  <!-- CLEARWAY logotype - white -->
  <text x="600" y="280" font-family="Stack Sans Notch, sans-serif" font-size="96" font-weight="700" fill="#ffffff" text-anchor="middle">CLEARWAY</text>

  <!-- Tagline -->
  <text x="600" y="360" font-family="Stack Sans Notch, sans-serif" font-size="32" font-weight="400" fill="#ffffff" text-anchor="middle" opacity="0.8">Pickleball Court Booking Made Simple</text>

  <!-- Minimal C icon -->
  <path d="M 560 450 C 540 450 525 465 525 485 C 525 505 540 520 560 520 C 570 520 578 516 583 509 L 577 503 C 573 508 568 511 560 511 C 545 511 534 500 534 485 C 534 470 545 459 560 459 C 568 459 573 462 577 467 L 583 461 C 578 454 570 450 560 450 Z" fill="#ffffff" opacity="0.4"/>
</svg>
