<svg xmlns="http://www.w3.org/2000/svg" viewBox="0 0 1172 224" width="1172" height="224">
<rect x="0" y="0" width="1172" height="224" fill="#000000"/>
<line x1="40" y1="184" x2="1132" y2="184" stroke="#ffffff" stroke-width="2"/>
<rect x="196" y="184" width="780" height="6" fill="#ffffff" stroke="#ffffff" stroke-width="1"/>
<line x1="196" y1="76" x2="412" y2="76" stroke="#ffffff" stroke-width="2"/>
<rect x="196" y="64" width="216" height="12" fill="#ffffff" stroke="#ffffff" stroke-width="1"/>
<text x="304" y="130" font-family="Inter, system-ui, sans-serif" font-size="8" fill="#ffffff" text-anchor="middle" dominant-baseline="middle">Daughter's
Bedroom</text>
<line x1="206" y1="184" x2="206" y2="76" stroke="#ffffff" stroke-width="0.5" stroke-dasharray="2 2"/>
<text x="211" y="130" font-family="Inter, system-ui, sans-serif" font-size="6" fill="#ffffff" dominant-baseline="middle">9'</text>
<line x1="412" y1="76" x2="664" y2="76" stroke="#ffffff" stroke-width="2"/>
<rect x="412" y="64" width="252" height="12" fill="#ffffff" stroke="#ffffff" stroke-width="1"/>
<text x="538" y="130" font-family="Inter, system-ui, sans-serif" font-size="8" fill="#ffffff" text-anchor="middle" dominant-baseline="middle">Primary
Suite</text>
<line x1="422" y1="184" x2="422" y2="76" stroke="#ffffff" stroke-width="0.5" stroke-dasharray="2 2"/>
<text x="427" y="130" font-family="Inter, system-ui, sans-serif" font-size="6" fill="#ffffff" dominant-baseline="middle">9'</text>
<line x1="664" y1="76" x2="976" y2="76" stroke="#ffffff" stroke-width="2"/>
<rect x="664" y="64" width="312" height="12" fill="#ffffff" stroke="#ffffff" stroke-width="1"/>
<text x="820" y="130" font-family="Inter, system-ui, sans-serif" font-size="8" fill="#ffffff" text-anchor="middle" dominant-baseline="middle">In-Law
Suite</text>
<line x1="674" y1="184" x2="674" y2="76" stroke="#ffffff" stroke-width="0.5" stroke-dasharray="2 2"/>
<text x="679" y="130" font-family="Inter, system-ui, sans-serif" font-size="6" fill="#ffffff" dominant-baseline="middle">9'</text>
<line x1="196" y1="184" x2="196" y2="76" stroke="#ffffff" stroke-width="2.5"/>
<line x1="976" y1="184" x2="976" y2="76" stroke="#ffffff" stroke-width="2.5"/>
<line x1="100" y1="64" x2="196" y2="64" stroke="#ffffff" stroke-width="1" stroke-dasharray="4 2"/>
<line x1="976" y1="64" x2="1072" y2="64" stroke="#ffffff" stroke-width="1" stroke-dasharray="4 2"/>
<rect x="196" y="88" width="72" height="72" fill="none" stroke="#ffffff" stroke-width="1"/>
<line x1="484" y1="184" x2="484" y2="76" stroke="#ffffff" stroke-width="0.5"/>
<line x1="580" y1="184" x2="580" y2="76" stroke="#ffffff" stroke-width="0.5"/>
<line x1="772" y1="184" x2="772" y2="76" stroke="#ffffff" stroke-width="0.5"/>
<line x1="868" y1="184" x2="868" y2="76" stroke="#ffffff" stroke-width="0.5"/>
<line x1="196" y1="184" x2="196" y2="76" stroke="#ffffff" stroke-width="3"/>
<line x1="976" y1="184" x2="976" y2="76" stroke="#ffffff" stroke-width="3"/>
<line x1="412" y1="184" x2="412" y2="76" stroke="#ffffff" stroke-width="2"/>
<line x1="664" y1="184" x2="664" y2="76" stroke="#ffffff" stroke-width="2"/>
<text x="40" y="25" font-family="Inter, system-ui, sans-serif" font-size="10" font-weight="bold" fill="#ffffff">SECTION C-C</text>
<text x="1132" y="25" font-family="Inter, system-ui, sans-serif" font-size="8" fill="#ffffff" text-anchor="end">Looking North ↑</text>
<line x1="40" y1="204" x2="160" y2="204" stroke="#ffffff" stroke-width="1"/>
<line x1="40" y1="201" x2="40" y2="207" stroke="#ffffff" stroke-width="1"/>
<line x1="160" y1="201" x2="160" y2="207" stroke="#ffffff" stroke-width="1"/>
<text x="100" y="199" font-family="Inter, system-ui, sans-serif" font-size="6" fill="#ffffff" text-anchor="middle">10'</text>
</svg>