<svg viewBox="0 0 1440 1080" width="1440" height="1080" style="background-color: rgb(255, 255, 255);" xmlns="http://www.w3.org/2000/svg"><rect width="100%" height="100%" fill="#ffffff"></rect><path d="M-775.9215948752769,-110.28330078500288L1909.1907557185098,-885.2470360309691M1909.1907557185098,708.1976288247752L-775.9215948752769,88.22664062800229" style="fill:none;stroke:rgb(0,0,0);stroke-opacity:1;stroke-width:2;stroke-linecap:round"></path><path d="M1930.056228458604,727.8697851810197L-782.4552277534877,88.524703603097M-782.4552277534877,-132.78705540464543L1930.056228458604,-1091.804677771529" style="fill:none;stroke:rgb(102,102,102);stroke-opacity:1;stroke-width:1;stroke-linecap:round"></path><path d="M1952.1140139267027,-935.8325809470248L-789.0331564478221,-111.03098418015544M-789.0331564478221,88.82478734412435L1952.1140139267027,748.6660647576198" style="fill:none;stroke:rgb(0,0,0);stroke-opacity:1;stroke-width:2;stroke-linecap:round"></path><path d="M-687.1320514595357,-122.31836638934132L-702.5727693552236,-123.34195104531908M-702.5727693552236,41.113983681773036L-687.1320514595357,40.7727887964471M-687.1320514595357,-122.31836638934132L-615.0322718437462,-141.0465373197668M-615.0322718437462,47.01551243992227L-687.1320514595357,40.7727887964471M-687.1320514595357,40.7727887964471L-687.1320514595357,-122.31836638934132M-702.5727693552236,-123.34195104531908L-702.5727693552236,41.113983681773036M-632.1633443936873,-142.40930579628628L-702.5727693552236,-123.34195104531908M-702.5727693552236,41.113983681773036L-632.1633443936873,47.469768598762094M-632.1633443936873,-142.40930579628628L-615.0322718437462,-141.0465373197668M-615.0322718437462,47.01551243992227L-632.1633443936873,47.469768598762094M-615.0322718437462,-141.0465373197668L-615.0322718437462,47.01551243992227M-632.1633443936873,47.469768598762094L-632.1633443936873,-142.40930579628628" style="fill:none;stroke:rgb(0,102,204);stroke-opacity:1;stroke-width:1;stroke-linecap:round"></path><path d="M-575.9853666080646,-229.25190963910046L-582.0169559393299,-226.87624218170046M-582.0169559393299,135.7684615986387L-575.9853666080646,137.19012088239407M-582.0169559393299,-226.87624218170046L-582.0169559393299,135.7684615986387M-1367.0022309834615,-329.2264266245728L-582.0169559393299,-226.87624218170046M-582.0169559393299,135.7684615986387L-1367.0022309834615,197.01739164313733M-575.9853666080646,-229.25190963910046L-1370.1925896690843,-334.25278428296326M-1370.1925896690843,200.0252907521929L-575.9853666080646,137.19012088239407M-575.9853666080646,137.19012088239407L-575.9853666080646,-229.25190963910046" style="fill:none;stroke:rgb(0,0,0);stroke-opacity:1;stroke-width:2;stroke-linecap:round"></path><path d="M-470.23188111536865,-178.65894727170462L-490.21060035697025,-180.85108159405684M-490.21060035697025,60.28369386468561L-470.23188111536865,59.55298242390154M-470.23188111536865,-178.65894727170462L-304.74572028293727,-221.64455864534784M-304.74572028293727,73.88151954844929L-470.23188111536865,59.55298242390154M-470.23188111536865,59.55298242390154L-470.23188111536865,-178.65894727170462M-490.21060035697025,-180.85108159405684L-490.21060035697025,60.28369386468561M-327.0782310822976,-225.02844503687987L-490.21060035697025,-180.85108159405684M-490.21060035697025,60.28369386468561L-327.0782310822976,75.00948167895996M-327.0782310822976,-225.02844503687987L-304.74572028293727,-221.64455864534784M-304.74572028293727,73.88151954844929L-327.0782310822976,75.00948167895996M-304.74572028293727,-221.64455864534784L-304.74572028293727,73.88151954844929M-327.0782310822976,75.00948167895996L-327.0782310822976,-225.02844503687987" style="fill:none;stroke:rgb(0,102,204);stroke-opacity:1;stroke-width:1;stroke-linecap:round"></path><path d="M-119.05019726940911,-336.72480716318154L-138.11411543098254,-330.5463703344993M-138.11411543098254,240.3973602432722L-119.05019726940911,244.89076884595022M-138.11411543098254,-330.5463703344993L-138.11411543098254,240.3973602432722M-1507.6288275129461,-679.8029125747249L-138.11411543098254,-330.5463703344993M-138.11411543098254,240.3973602432722L-1507.6288275129461,494.4021182361636M-119.05019726940911,-336.72480716318154L-1521.338438902663,-706.4618503227533M-1521.338438902663,513.7904365983661L-119.05019726940911,244.89076884595022M-119.05019726940911,244.89076884595022L-119.05019726940911,-336.72480716318154" style="fill:none;stroke:rgb(0,0,0);stroke-opacity:1;stroke-width:2;stroke-linecap:round"></path><path d="M486.7098315243433,-427.227917388859L466.6703119556622,-439.9809895497205M466.6703119556622,146.66032984990682L486.7098315243433,142.40930579628633M486.7098315243433,-427.227917388859L1363.9064014440796,-655.0828066629172M1363.9064014440796,218.36093555430574L486.7098315243433,142.40930579628633M486.7098315243433,142.40930579628633L486.7098315243433,-427.227917388859M466.6703119556622,-439.9809895497205L466.6703119556622,146.66032984990682M1373.481874205425,-685.551774414681L466.6703119556622,-439.9809895497205M466.6703119556622,146.66032984990682L1373.481874205425,228.51725813822696" style="fill:none;stroke:rgb(0,102,204);stroke-opacity:1;stroke-width:1;stroke-linecap:round"></path></svg>