<svg viewBox="0 0 1440 1080" width="1440" height="1080" style="background-color: rgb(255, 255, 255);" xmlns="http://www.w3.org/2000/svg"><rect width="100%" height="100%" fill="#ffffff"></rect><path d="M-661.8565043344181,190.41494334457377L-636.2362525537311,175.57285691139577M3181.1812627686486,175.57285691139518L-636.2362525537311,175.57285691139577M-636.2362525537311,175.57285691139577L-719.8293368308636,-714.2616845463591" style="fill:none;stroke:rgb(0,0,0);stroke-opacity:1;stroke-width:2;stroke-linecap:round"></path><path d="M3243.9677350601364,182.84743216976176L-648.7935470120284,182.84743216976293M-648.7935470120284,182.84743216976293L-81062.36159526017,46767.28920850028" style="fill:none;stroke:rgb(102,102,102);stroke-opacity:1;stroke-width:1;stroke-linecap:round"></path><path d="M-671.9647451196003,182.8474321697624L-625.6223489044555,182.8474321697624M-762.2286661058149,-725.9315963754742L-671.9647451196003,182.8474321697624M-671.9647451196003,182.8474321697624L-83957.44593794204,46767.2892084969M-78167.27725256674,46767.2892084969L-625.6223489044555,182.8474321697624M-625.6223489044555,182.8474321697624L-709.6611718916209,-725.9315963754742" style="fill:none;stroke:rgb(0,0,0);stroke-opacity:1;stroke-width:2;stroke-linecap:round"></path><path d="M187.84117932538712,-50.18146193992367L751.3647173015481,-50.18146193992367M-328.72206381942743,-50.18146193992368L140.88088449404017,-50.18146193992368M146.7509213479585,-44.23045523550965L140.88088449404017,-50.18146193992368M140.88088449404017,-50.18146193992368L153.1313961891741,-658.7365823217405M204.17519491889908,-658.7365823217405L187.84117932538712,-50.18146193992367M187.84117932538712,-50.18146193992367L195.66789513061158,-44.23045523550965M-357.30659110807335,-658.7365823217406L-328.72206381942743,-50.18146193992368M-328.72206381942743,-50.18146193992368L-342.4188164785703,-44.23045523550966" style="fill:none;stroke:rgb(0,102,204);stroke-opacity:1;stroke-width:1;stroke-linecap:round"></path><path d="M-661.8565043344181,190.41494334457377L3309.2825216720844,190.4149433445732M-752.7986194338039,-738.1360079830233L-661.8565043344181,190.41494334457377" style="fill:none;stroke:rgb(0,0,0);stroke-opacity:1;stroke-width:2;stroke-linecap:round"></path><path d="M782.6715805224459,-44.230455235509645L195.66789513061158,-44.23045523550965M195.66789513061158,-44.23045523550965L213.45588559703086,-679.9061713888258M146.7509213479585,-44.23045523550965L-342.4188164785703,-44.23045523550966M-342.4188164785703,-44.23045523550966L-373.54779979480395,-679.9061713888259M160.09191419777295,-679.9061713888259L146.7509213479585,-44.23045523550965" style="fill:none;stroke:rgb(0,102,204);stroke-opacity:1;stroke-width:1;stroke-linecap:round"></path></svg>