<svg viewBox="0 0 1440 1080" width="1440" height="1080" style="background-color: rgb(255, 255, 255);" xmlns="http://www.w3.org/2000/svg"><rect width="100%" height="100%" fill="#ffffff"></rect><path d="M764.2496184805384,202.84409769755445L-745.7702403166635,-9.349793323097437" style="fill:none;stroke:rgb(0,0,0);stroke-opacity:1;stroke-width:2;stroke-linecap:round"></path><path d="M769.6373804451407,207.86692877637896L-751.4905906149506,-8.934861666746885" style="fill:none;stroke:rgb(102,102,102);stroke-opacity:1;stroke-width:1;stroke-linecap:round"></path><path d="M-757.266209998245,-8.515921008885847L775.2095645796811,213.06169050337783M-764.5843458887728,-166.4420461013631L835.34260624617,-356.66924761986576" style="fill:none;stroke:rgb(0,0,0);stroke-opacity:1;stroke-width:2;stroke-linecap:round"></path><path d="M-772.719138372435,-184.82603176636766L851.5136975137727,-431.46771282824324" style="fill:none;stroke:rgb(102,102,102);stroke-opacity:1;stroke-width:1;stroke-linecap:round"></path><path d="M850.0287182656554,-366.46600734335675L-776.5596166224041,-167.14339822847077" style="fill:none;stroke:rgb(0,0,0);stroke-opacity:1;stroke-width:2;stroke-linecap:round"></path><path d="M-652.3882961174683,-43.694523212690065L-639.8982124316889,-44.28643107667566M-556.187425396508,-38.314359517895326L-639.8982124316889,-44.28643107667566M-639.8982124316889,-44.28643107667566L-652.6430730942287,-169.004751228108M-665.5346597671905,-169.8669581360656L-652.3882961174683,-43.694523212690065M-652.3882961174683,-43.694523212690065L-569.070130695247,-37.57583416686918M-652.6430730942287,-169.004751228108L-665.5346597671905,-169.8669581360656M-652.6430730942287,-169.004751228108L-568.5815741518619,-177.72220173244057M-581.9183744738791,-178.8030415578763L-665.5346597671905,-169.8669581360656M-556.187425396508,-38.314359517895326L-569.070130695247,-37.57583416686918M-568.5815741518619,-177.72220173244057L-556.187425396508,-38.314359517895326M-569.070130695247,-37.57583416686918L-581.9183744738791,-178.8030415578763M-581.9183744738791,-178.8030415578763L-568.5815741518619,-177.72220173244057" style="fill:none;stroke:rgb(0,102,204);stroke-opacity:1;stroke-width:1;stroke-linecap:round"></path><path d="M-511.373837849262,25.28825918877442L-504.82118965792137,26.22218843181824M-533.2007704762299,-239.01827218079706L-511.373837849262,25.28825918877442M-511.373837849262,25.28825918877442L-1154.4560697390893,106.69276481842898M-1151.7874241659406,109.32066537034517L-504.82118965792137,26.22218843181824M-504.82118965792137,26.22218843181824L-526.5419832059331,-240.1729526359797M-526.5419832059331,-240.1729526359797L-533.2007704762299,-239.01827218079706M-1239.3363985562867,-342.6070354726808L-533.2007704762299,-239.01827218079706M-526.5419832059331,-240.1729526359797L-1237.6533267742977,-346.0532915865649" style="fill:none;stroke:rgb(0,0,0);stroke-opacity:1;stroke-width:2;stroke-linecap:round"></path><path d="M-416.2782425410229,-26.355159208389974L-403.2568672980472,-27.404030409361326M-249.61110982898782,-16.442677747336997L-403.2568672980472,-27.404030409361326M-403.2568672980472,-27.404030409361326L-413.99844866891647,-193.75297399033852M-427.54168991530094,-195.30129816852198L-416.2782425410229,-26.355159208389974M-416.2782425410229,-26.355159208389974L-262.01396071249235,-15.026355140244737M-413.99844866891647,-193.75297399033852L-427.54168991530094,-195.30129816852198M-413.99844866891647,-193.75297399033852L-257.36100198409224,-209.9967860300949M-270.29898713818375,-212.105846523646L-427.54168991530094,-195.30129816852198M-249.61110982898782,-16.442677747336997L-262.01396071249235,-15.026355140244737M-257.36100198409224,-209.9967860300949L-249.61110982898782,-16.442677747336997M-262.01396071249235,-15.026355140244737L-270.29898713818375,-212.105846523646M-270.29898713818375,-212.105846523646L-257.36100198409224,-209.9967860300949" style="fill:none;stroke:rgb(0,102,204);stroke-opacity:1;stroke-width:1;stroke-linecap:round"></path><path d="M-108.66362883362372,82.68533000074339L-94.36330711699098,84.72351180468328M-114.8266406182173,-265.26576661812976L-108.66362883362372,82.68533000074339M-108.66362883362372,82.68533000074339L-794.3240409215059,303.91835492206724M-779.6326711002725,314.2968986302767L-94.36330711699098,84.72351180468328M-94.36330711699098,84.72351180468328L-99.77993199681828,-267.3154365731042M-99.77993199681828,-267.3154365731042L-114.8266406182173,-265.26576661812976M-902.9007083855965,-504.42833496151087L-114.8266406182173,-265.26576661812976M-99.77993199681828,-267.3154365731042L-889.3587507366072,-516.5401203575854" style="fill:none;stroke:rgb(0,0,0);stroke-opacity:1;stroke-width:2;stroke-linecap:round"></path><path d="M271.32478974591874,24.14078150522133L275.7949000005129,21.040690875112155M628.6729251416183,46.215616261706536L275.7949000005129,21.040690875112155M275.7949000005129,21.040690875112155L288.59775802761595,-266.61448292688596M284.2707041671952,-271.37278247193655L271.32478974591874,24.14078150522133M271.32478974591874,24.14078150522133L634.6695475263153,50.823961313863954M288.59775802761595,-266.61448292688596L284.2707041671952,-271.37278247193655M288.59775802761595,-266.61448292688596L664.511761729264,-305.5979862236967M672.0947788300783,-312.8195924087477L284.2707041671952,-271.37278247193655M628.6729251416183,46.215616261706536L634.6695475263153,50.823961313863954M664.511761729264,-305.5979862236967L628.6729251416183,46.215616261706536M634.6695475263153,50.823961313863954L672.0947788300783,-312.8195924087477M672.0947788300783,-312.8195924087477L664.511761729264,-305.5979862236967" style="fill:none;stroke:rgb(0,102,204);stroke-opacity:1;stroke-width:1;stroke-linecap:round"></path><path d="M-358.04001961235883,565.4196198213243L-760.0570265296268,300.16060633806046M-815.3280923512431,318.3292180710074L-421.48316638496476,617.7080535349655M-856.7427260174945,-452.58946548802965L-441.19770158684224,-747.347772703747M-529.0958897172964,-812.0547991437221L-924.4426325915583,-471.16595034682683M-441.19770158684224,-747.347772703747L-358.04001961235883,565.4196198213243M-506.1437448303001,-760.2101186549264L-409.2226022032213,575.9686921244946M-366.96841656607614,605.81865967865L-458.7105207075952,-797.1298153666446M-421.48316638496476,617.7080535349655L-529.0958897172964,-812.0547991437221M-654.6882145667146,769.1756738962528L-868.949812061276,-1013.9491251463726M-830.4406381806712,-1085.9721484642062L-613.8039499596262,819.310818924673" style="fill:none;stroke:rgb(0,0,0);stroke-opacity:1;stroke-width:2;stroke-linecap:round"></path></svg>