<svg viewBox="0 0 1440 1080" width="1440" height="1080" style="background-color: rgb(255, 255, 255);" xmlns="http://www.w3.org/2000/svg"><rect width="100%" height="100%" fill="#ffffff"></rect><path d="M-359.9348185505885,9.243329373995545L-353.7257147526884,8.522709992514635M325.5786505698389,44.02790526891316L-353.7257147526884,8.522709992514635M-353.7257147526884,8.522709992514635L-359.986346872205,-125.47742056826104M-359.54795997901516,8.737429430310526L-354.0717987208578,9.025671477157182M-365.93046814432313,-125.65533963322846L-359.54795997901516,8.737429430310526M-359.54795997901516,8.737429430310526L-306100.19409636094,35273.08728989787" style="fill:none;stroke:rgb(0,0,0);stroke-opacity:1;stroke-width:2;stroke-linecap:round"></path><path d="M325.88752107443366,44.81586407207008L-356.8151960113522,8.881270607086496M-356.8151960113522,8.881270607086496L-304205.31157469196,35273.08728989791" style="fill:none;stroke:rgb(102,102,102);stroke-opacity:1;stroke-width:1;stroke-linecap:round"></path><path d="M-302310.42905302293,35273.08728989787L-354.0717987208578,9.025671477157182M-354.0717987208578,9.025671477157182L-360.3819891931108,-125.89420918975898M-366.3686087530817,-126.07460670489445L-359.9348185505885,9.243329373995545M-359.9348185505885,9.243329373995545L326.2008744600823,45.61525914232669M-359.986346872205,-125.47742056826104L-366.3686087530817,-126.07460670489445M-359.986346872205,-125.47742056826104L334.1842536686011,-155.1483638431774M-360.3819891931108,-125.89420918975898L-365.93046814432313,-125.65533963322846M-303747.9261384378,-28336.08322981602L-365.93046814432313,-125.65533963322846M-360.3819891931108,-125.89420918975898L-299958.161095105,-28336.08322981652" style="fill:none;stroke:rgb(0,0,0);stroke-opacity:1;stroke-width:2;stroke-linecap:round"></path><path d="M-363.8808434571216,-141.03256733487905L335.5577739253071,-178.76616033755195M-301591.6805103209,-35403.768843116464L-363.8808434571216,-141.03256733487905" style="fill:none;stroke:rgb(102,102,102);stroke-opacity:1;stroke-width:1;stroke-linecap:round"></path><path d="M334.95141952756575,-156.48677795992697L-366.3686087530817,-126.07460670489445" style="fill:none;stroke:rgb(0,0,0);stroke-opacity:1;stroke-width:2;stroke-linecap:round"></path><path d="M-316.00031484622747,-27.192718409250766L-255.67095565790243,-25.60652056309576M-319.8306216928484,-119.3954190769549L-316.00031484622747,-27.192718409250766M-316.00031484622747,-27.192718409250766L-322.03567512221844,-26.80816137094403M-261.32619074393153,-25.189143923955168L-322.03567512221844,-26.80816137094403M-322.03567512221844,-26.80816137094403L-325.9789691033068,-119.94699706131894M-258.90048351884434,-121.67140402296232L-319.8306216928484,-119.3954190769549M-325.9789691033068,-119.94699706131894L-319.8306216928484,-119.3954190769549M-387.3979652275851,-26.612960685846087L-381.78444157306683,-26.455370387073213M-392.16594018423234,-120.227028961073L-387.3979652275851,-26.612960685846087M-387.3979652275851,-26.612960685846087L-480.1461160593714,-21.252709346962668M-474.18192005813813,-21.04836141063674L-381.78444157306683,-26.455370387073213M-381.78444157306683,-26.455370387073213L-386.5026838994075,-120.45313092750675M-325.9789691033068,-119.94699706131894L-264.6622697747052,-122.27066601672492M-386.5026838994075,-120.45313092750675L-392.16594018423234,-120.227028961073M-486.8850089163451,-127.93036262448271L-392.16594018423234,-120.227028961073M-386.5026838994075,-120.45313092750675L-480.8683866159498,-128.22455574323808M-261.32619074393153,-25.189143923955168L-255.67095565790243,-25.60652056309576M-255.67095565790243,-25.60652056309576L-258.90048351884434,-121.67140402296232M-249.36093291190016,-25.4406155274123L-169.3137872197571,-23.33599164617099M-252.52407370993694,-121.90958849405608L-249.36093291190016,-25.4406155274123M-249.36093291190016,-25.4406155274123L-254.9734683279758,-25.01972775228712M-264.6622697747052,-122.27066601672492L-261.32619074393153,-25.189143923955168M-258.90048351884434,-121.67140402296232L-264.6622697747052,-122.27066601672492M-174.33624512811073,-22.86927181324757L-254.9734683279758,-25.01972775228712M-254.9734683279758,-25.01972775228712L-258.2423589475652,-122.51395614239775M-171.57633226055563,-124.93331117832037L-252.52407370993694,-121.90958849405608M-258.2423589475652,-122.51395614239775L-252.52407370993694,-121.90958849405608M-258.2423589475652,-122.51395614239775L-176.69214033254465,-125.60439827932308M-174.33624512811073,-22.86927181324757L-169.3137872197571,-23.33599164617099M-169.3137872197571,-23.33599164617099L-171.57633226055563,-124.93331117832037M-176.69214033254465,-125.60439827932308L-174.33624512811073,-22.86927181324757M-171.57633226055563,-124.93331117832037L-176.69214033254465,-125.60439827932308M-474.18192005813813,-21.04836141063674L-480.1461160593714,-21.252709346962668M-480.1461160593714,-21.252709346962668L-486.8850089163451,-127.93036262448271M-480.8683866159498,-128.22455574323808L-474.18192005813813,-21.04836141063674" style="fill:none;stroke:rgb(0,102,204);stroke-opacity:1;stroke-width:1;stroke-linecap:round"></path><path d="M-70.1814576087211,23.96846244779619L-62.21554237061442,24.38775464994209M-71.68893521845497,-138.32283735663552L-70.1814576087211,23.96846244779619M-70.1814576087211,23.96846244779619L-101.60922064924968,31.922211473235432" style="fill:none;stroke:rgb(0,0,0);stroke-opacity:1;stroke-width:2;stroke-linecap:round"></path><path d="M-486.8850089163451,-127.93036262448271L-480.8683866159498,-128.22455574323808" style="fill:none;stroke:rgb(0,102,204);stroke-opacity:1;stroke-width:1;stroke-linecap:round"></path><path d="M-93.09099976599548,32.419720363683076L-62.21554237061442,24.38775464994209M-62.21554237061442,24.38775464994209L-63.55832386062767,-138.67287122113126M-63.55832386062767,-138.67287122113126L-71.68893521845497,-138.32283735663552M-103.99068675821648,-144.97484810183732L-71.68893521845497,-138.32283735663552M-63.55832386062767,-138.67287122113126L-95.28424321597969,-145.39178041331672M48.59033859144967,30.220109181791436L57.71351317394664,30.700314638027976M49.70878628281296,-143.5491741876483L48.59033859144967,30.220109181791436M48.59033859144967,30.220109181791436L18.913524880666653,42.333460901786246M29.031569799681463,42.94351323895943L57.71351317394664,30.700314638027976M57.71351317394664,30.700314638027976L59.048787257662624,-143.95127391812838M-93.09099976599548,32.419720363683076L-101.60922064924968,31.922211473235432M-101.60922064924968,31.922211473235432L-103.99068675821648,-144.97484810183732M-95.28424321597969,-145.39178041331672L-93.09099976599548,32.419720363683076M59.048787257662624,-143.95127391812838L49.70878628281296,-143.5491741876483M19.40549518103082,-153.72078658945935L49.70878628281296,-143.5491741876483M59.048787257662624,-143.95127391812838L29.791116683975456,-154.23462385678602M-103.99068675821648,-144.97484810183732L-95.28424321597969,-145.39178041331672M228.1464449348789,39.6711857984907L239.16891923465965,40.251362386378936M233.9304393135096,-151.48016661813082L228.1464449348789,39.6711857984907M228.1464449348789,39.6711857984907L213.9870211639812,66.92342517766964M-133.3709268625819,39.96047495112918L-124.32078571874337,40.543861386366906M-136.7617131387493,-151.72349822832533L-133.3709268625819,39.96047495112918M-133.3709268625819,39.96047495112918L-177.76953143213336,51.19688898958734M227.7912610558936,67.84512693228254L239.16891923465965,40.251362386378936M239.16891923465965,40.251362386378936L245.26671037661984,-151.9682084878694M-319.1858018910483,41.88041361913101L-310.8608609999955,40.397409604906805M-286.28599952614826,42.182020342698955L-310.8608609999955,40.397409604906805M-310.8608609999955,40.397409604906805L-318.7977340468039,-152.0910842777681M-168.0201334450578,51.91184399326137L-124.32078571874337,40.543861386366906M-124.32078571874337,40.543861386366906L-127.49944217177939,-152.21430914661536M-319.02747560042775,40.837985380799246L-310.93868270810924,41.43116282208461M-327.20766728249004,-152.46181208831717L-319.02747560042775,40.837985380799246M-319.02747560042775,40.837985380799246L-490.9517327811417,71.17477452082152M-481.77209486355684,72.15690078794458L-310.93868270810924,41.43116282208461M-310.93868270810924,41.43116282208461L-318.95715876648444,-152.96107303662114M-327.45248452995315,-153.33929014350173L-319.1858018910483,41.88041361913101M-319.1858018910483,41.88041361913101L-294.4028814670644,43.71586908666441M-286.28599952614826,42.182020342698955L-294.4028814670644,43.71586908666441M-293.72199951384044,-153.5932541075255L-286.28599952614826,42.182020342698955M245.26671037661984,-151.9682084878694L233.9304393135096,-151.48016661813082M220.86517541568062,-174.55321751335907L233.9304393135096,-151.48016661813082M29.031569799681463,42.94351323895943L18.913524880666653,42.333460901786246M18.913524880666653,42.333460901786246L19.40549518103082,-153.72078658945935M-127.49944217177939,-152.21430914661536L-136.7617131387493,-151.72349822832533M-182.78497275780484,-161.2012263056502L-136.7617131387493,-151.72349822832533M245.26671037661984,-151.9682084878694L235.16579828432182,-175.33891852705747M29.791116683975456,-154.23462385678602L29.031569799681463,42.94351323895943M-318.7977340468039,-152.0910842777681L-327.45248452995315,-153.33929014350173M-318.7977340468039,-152.0910842777681L-293.72199951384044,-153.5932541075255M-127.49944217177939,-152.21430914661536L-172.7904211453907,-161.8060240955327M-318.95715876648444,-152.96107303662114L-327.20766728249004,-152.46181208831717M-507.25640287350444,-178.1801989455979L-327.20766728249004,-152.46181208831717M-294.4028814670644,43.71586908666441L-302.1616689727849,-154.88538408553785M325.5786505698389,44.02790526891316L326.2008744600823,45.61525914232669M334.1842536686011,-155.1483638431774L325.5786505698389,44.02790526891316M-318.95715876648444,-152.96107303662114L-497.89086383668695,-179.01915375850737M319.8737023261582,44.49932200114676L331.9361017807917,45.13423586594692M328.3659245118085,-155.5457425477522L319.8737023261582,44.49932200114676M319.8737023261582,44.49932200114676L12240.069544029966,35273.08728989913M-302.1616689727849,-154.88538408553785L-327.45248452995315,-153.33929014350173" style="fill:none;stroke:rgb(0,0,0);stroke-opacity:1;stroke-width:2;stroke-linecap:round"></path><path d="M14134.952065698988,35273.0872898991L325.88752107443366,44.81586407207008" style="fill:none;stroke:rgb(102,102,102);stroke-opacity:1;stroke-width:1;stroke-linecap:round"></path><path d="M-302.1616689727849,-154.88538408553785L-293.72199951384044,-153.5932541075255M16029.834587368065,35273.08728989913L331.9361017807917,45.13423586594692M331.9361017807917,45.13423586594692L340.80086414289,-156.08108359189742M19.40549518103082,-153.72078658945935L29.791116683975456,-154.23462385678602M326.2008744600823,45.61525914232669L334.95141952756575,-156.48677795992697M-242.2013385946846,47.58198355742164L-234.56074524495014,45.9382752580519M-169.45285688948144,50.666368508864124L-234.56074524495014,45.9382752580519M-234.56074524495014,45.9382752580519L-240.87179668651834,-156.75926226889757M334.95141952756575,-156.48677795992697L334.1842536686011,-155.1483638431774M340.80086414289,-156.08108359189742L328.3659245118085,-155.5457425477522M14592.337501964485,-28336.08322981702L328.3659245118085,-155.5457425477522M-248.81685315417522,-158.14649270379317L-242.2013385946846,47.58198355742164M-242.2013385946846,47.58198355742164L-176.41988741985975,52.45384378033012M-707.8313711968406,49.61968750027939L-693.1567223712269,47.916569513471124M-479.54811798957047,70.44733819153147L-693.1567223712269,47.916569513471124M-693.1567223712269,47.916569513471124L-713.2329079277107,-170.22467564825837M340.80086414289,-156.08108359189742L18382.102545303354,-28336.08322981802" style="fill:none;stroke:rgb(0,0,0);stroke-opacity:1;stroke-width:2;stroke-linecap:round"></path><path d="M335.5577739253071,-178.76616033755195L16748.583130070692,-35403.76884311891" style="fill:none;stroke:rgb(102,102,102);stroke-opacity:1;stroke-width:1;stroke-linecap:round"></path><path d="M-240.87179668651834,-156.75926226889757L-248.81685315417522,-158.14649270379317M-240.87179668651834,-156.75926226889757L-174.21128344800042,-160.75258145527718M-728.649940937924,-171.84826541666362L-707.8313711968406,49.61968750027939M-707.8313711968406,49.61968750027939L-493.3321241834519,72.90281947183546M-169.45285688948144,50.666368508864124L-176.41988741985975,52.45384378033012M-174.21128344800042,-160.75258145527718L-169.45285688948144,50.666368508864124M-181.4524674096497,-162.26465443223438L-248.81685315417522,-158.14649270379317M-713.2329079277107,-170.22467564825837L-728.649940937924,-171.84826541666362M-713.2329079277107,-170.22467564825837L-496.2970412281768,-191.81841956804828M-168.0201334450578,51.91184399326137L-177.76953143213336,51.19688898958734M-177.76953143213336,51.19688898958734L-182.78497275780484,-161.2012263056502M-177.76953143213342,51.19688898958736L-168.0201334450579,51.91184399326141M-182.78497275780492,-161.2012263056502L-177.76953143213342,51.19688898958736M-177.76953143213342,51.19688898958736L-326.3104849689737,88.78968434406032M-314.5982010798966,90.04277752254275L-168.0201334450579,51.91184399326141M-168.0201334450579,51.91184399326141L-172.79042114539078,-161.80602409553268M-172.7904211453907,-161.8060240955327L-168.0201334450578,51.91184399326137M-5.436681241001458,52.27262128742302L5.47034490193628,53.00087762114874M-5.5915234282451705,-162.11129386605876L-5.436681241001458,52.27262128742302M-5.436681241001458,52.27262128742302L-51.74555538310243,71.17477452082153M-176.41988741985975,52.45384378033012L-181.4524674096497,-162.26465443223438M-510.8851398379193,-194.18691475454202L-728.649940937924,-171.84826541666362M-39.40616079358916,72.15690078794458L5.47034490193628,53.00087762114874M5.47034490193628,53.00087762114874L5.627138227151015,-162.7276665874396M-181.4524674096497,-162.26465443223438L-174.21128344800042,-160.75258145527718M-182.78497275780484,-161.2012263056502L-172.7904211453907,-161.8060240955327M-172.79042114539078,-161.80602409553268L-182.78497275780492,-161.2012263056502M-338.5983274991861,-193.28840612033522L-182.78497275780492,-161.2012263056502M-172.79042114539078,-161.80602409553268L-326.54496820951294,-194.36813295165214M5.627138227151015,-162.7276665874396L-5.5915234282451705,-162.11129386605876M-53.46404246224606,-178.18019894559794L-5.5915234282451705,-162.11129386605876M5.627138227151015,-162.7276665874396L-40.72458253017765,-179.0191537585074M227.7912610558936,67.84512693228254L213.9870211639812,66.92342517766964M213.9870211639812,66.92342517766964L220.86517541568062,-174.55321751335907M235.16579828432182,-175.33891852705747L227.7912610558936,67.84512693228254M-48.785794498897395,69.96667229843126L-36.5352732238418,70.93143129242564M-50.3911771332304,-177.14875998457126L-48.785794498897395,69.96667229843126M-48.785794498897395,69.96667229843126L-54.7586452922482,72.40464435082245M-479.54811798957047,70.44733819153147L-493.3321241834519,72.90281947183546M-496.2970412281768,-191.81841956804828L-479.54811798957047,70.44733819153147M-48.56637491961455,72.90281947183546L-42.68229322420274,70.44733819153147M347.99497790984805,101.21414415947108L-42.68229322420274,70.44733819153147M-42.68229322420274,70.44733819153147L-44.09198364261678,-177.55906451071914M-493.33212418345187,72.90281947183549L-479.54811798957047,70.4473381915315M-314.4341094494983,87.86304830626467L-479.54811798957047,70.4473381915315M-479.54811798957047,70.4473381915315L-496.2970412281769,-191.81841956804828M-42.329151586018085,73.40461110915349L-36.5352732238418,70.93143129242564M-36.5352732238418,70.93143129242564L-37.74638725336141,-177.9723915379804M220.86517541568062,-174.55321751335907L235.16579828432182,-175.33891852705747M-39.40616079358916,72.15690078794458L-51.74555538310243,71.17477452082153M-51.74555538310243,71.17477452082153L-53.46404246224606,-178.18019894559794M-481.77209486355684,72.15690078794458L-490.9517327811417,71.17477452082152M-490.9517327811417,71.17477452082152L-507.25640287350444,-178.1801989455979M-40.72458253017765,-179.0191537585074L-39.40616079358916,72.15690078794458M-497.89086383668695,-179.01915375850737L-481.77209486355684,72.15690078794458M-42.329151586018085,73.40461110915349L-54.7586452922482,72.40464435082245M-54.7586452922482,72.40464435082245L-56.59413060930679,-179.23084533606647M-493.3321241834519,72.90281947183546L-510.8851398379193,-194.18691475454202M-50.200383795414666,-179.6566026023348L-48.56637491961455,72.90281947183546M-48.56637491961455,72.90281947183546L349.44904368663595,104.92360787369712M-510.8851398379193,-194.18691475454204L-493.33212418345187,72.90281947183549M-493.33212418345187,72.90281947183549L-326.6455927620048,90.99605086077477M-472.4594187152823,73.15326076908387L-463.01079109039057,74.16416615140767M-489.30131169012355,-194.4286523495613L-472.4594187152823,73.15326076908387M-472.4594187152823,73.15326076908387L-547.6752397558553,86.94748759959808M-43.7586538909868,-180.0855550450855L-42.329151586018085,73.40461110915349M-537.8820978797944,88.17068650890633L-463.01079109039057,74.16416615140767M-463.01079109039057,74.16416615140767L-479.64066827511164,-195.40474214721942M-37.74638725336141,-177.9723915379804L-50.3911771332304,-177.14875998457126M-56.59413060930679,-179.23084533606647L-50.3911771332304,-177.14875998457126M-44.09198364261678,-177.55906451071914L-50.200383795414666,-179.6566026023348M-44.09198364261678,-177.55906451071914L362.1988545592296,-204.02324124938076M-496.2970412281769,-191.81841956804828L-510.8851398379193,-194.18691475454204M-496.2970412281769,-191.81841956804828L-326.8804596152076,-208.68210529588418M-510.8851398379193,-194.18691475454202L-496.2970412281768,-191.81841956804828M-37.74638725336141,-177.9723915379804L-43.7586538909868,-180.0855550450855M-53.46404246224606,-178.18019894559794L-40.72458253017765,-179.0191537585074M-507.25640287350444,-178.1801989455979L-497.89086383668695,-179.01915375850737M-56.59413060930679,-179.23084533606647L-43.7586538909868,-180.0855550450855M364.0432032837577,-207.2409318442787L-50.200383795414666,-179.6566026023348M-339.85041459706457,-211.73192079985452L-510.8851398379193,-194.18691475454204M-479.64066827511164,-195.40474214721942L-489.30131169012355,-194.4286523495613M-569.2194003259615,-207.7917864841661L-489.30131169012355,-194.4286523495613M-479.64066827511164,-195.40474214721942L-559.2177134533144,-208.98135650399817M206.0271288819631,82.24360299082969L221.38081395750714,83.39211956359318M213.44410552171377,-187.65871042184872L206.0271288819631,82.24360299082969M206.0271288819631,82.24360299082969L201.31317628052207,91.31641321214785M217.5795777648689,92.6111007313332L221.38081395750714,83.39211956359318M221.38081395750714,83.39211956359318L229.41479510919086,-188.6451453719501M-537.8820978797944,88.17068650890633L-547.6752397558553,86.94748759959808M-547.6752397558553,86.94748759959808L-569.2194003259615,-207.7917864841661M-320.23246192006104,87.25145619083338L-308.589090158247,88.47956269224274M-332.8557332405614,-208.0873279984294L-320.23246192006104,87.25145619083338M-320.23246192006104,87.25145619083338L-332.5122966746869,90.35924097291306M229.41479510919086,-188.6451453719501L213.44410552171377,-187.65871042184872M209.02304260615904,-195.46623811201277L213.44410552171377,-187.65871042184872M-314.4341094494983,87.86304830626467L-326.6455927620048,90.99605086077477M-326.8804596152076,-208.68210529588418L-314.4341094494983,87.86304830626467M-559.2177134533144,-208.98135650399817L-537.8820978797944,88.17068650890633M-320.7307023695472,91.63809121999472L-308.589090158247,88.47956269224274M-308.589090158247,88.47956269224274L-320.85518370010203,-209.28185980921728M-326.31048496897364,88.78968434406029L-314.59820107989657,90.04277752254272M-339.3081772423709,-209.58362308636598L-326.31048496897364,88.78968434406029M-326.31048496897364,88.78968434406029L-394.58603536146745,106.0688840025064M229.41479510919086,-188.6451453719501L225.9839391377608,-196.58319486310918M-314.5982010798966,90.04277752254275L-326.3104849689737,88.78968434406032M-326.3104849689737,88.78968434406032L-338.5983274991861,-193.28840612033522M-382.16671076450837,107.62010265057685L-314.59820107989657,90.04277752254272M-314.59820107989657,90.04277752254272L-327.2353381211609,-210.8034357415634M-326.54496820951294,-194.36813295165214L-314.5982010798966,90.04277752254275M-320.7307023695472,91.63809121999472L-332.5122966746869,90.35924097291306M-332.5122966746869,90.35924097291306L-345.8973255662528,-211.11161934141992M-326.6455927620048,90.99605086077477L-339.85041459706457,-211.73192079985452M217.5795777648689,92.6111007313332L201.31317628052207,91.31641321214785M201.31317628052207,91.31641321214785L209.02304260615904,-195.46623811201277M-333.7518206281399,-212.35752398015606L-320.7307023695472,91.63809121999472M225.9839391377608,-196.58319486310918L217.5795777648689,92.6111007313332M-569.2194003259615,-207.7917864841661L-559.2177134533144,-208.98135650399817M-320.85518370010203,-209.28185980921728L-332.8557332405614,-208.0873279984294M-345.8973255662528,-211.11161934141992L-332.8557332405614,-208.0873279984294M-339.85041459706457,-211.73192079985452L-326.8804596152076,-208.68210529588418M-338.5983274991861,-193.28840612033522L-326.54496820951294,-194.36813295165214M-320.85518370010203,-209.28185980921728L-333.7518206281399,-212.35752398015606M-327.2353381211609,-210.8034357415634L-339.3081772423709,-209.58362308636598M-412.14372780143907,-226.4738861398891L-339.3081772423709,-209.58362308636598M-327.2353381211609,-210.8034357415634L-399.3325913898645,-227.99760348769624M-345.8973255662528,-211.11161934141992L-333.7518206281399,-212.35752398015606M209.02304260615904,-195.46623811201277L225.9839391377608,-196.58319486310918M338.81963569190754,100.49156315830513L357.2506294688647,101.94304972082227M352.58657348525816,-203.39713531421103L338.81963569190754,100.49156315830513M338.81963569190754,100.49156315830513L340.0638088883563,104.16855517089016M347.99497790984805,101.21414415947108L349.44904368663595,104.92360787369712M362.1988545592296,-204.02324124938076L347.99497790984805,101.21414415947108M358.91826268892726,105.68541720024292L357.2506294688647,101.94304972082227M357.2506294688647,101.94304972082227L371.8987190598432,-204.6550520222286M358.91826268892726,105.68541720024292L340.0638088883563,104.16855517089016M340.0638088883563,104.16855517089016L354.2004106435304,-206.58550387552586M349.44904368663595,104.92360787369712L364.0432032837577,-207.2409318442787M373.97777021433683,-207.9024710295235L358.91826268892726,105.68541720024292M-382.16671076450837,107.62010265057685L-394.58603536146745,106.0688840025064M-394.58603536146745,106.0688840025064L-412.14372780143907,-226.4738861398891M371.8987190598432,-204.6550520222286L352.58657348525816,-203.39713531421103M354.2004106435304,-206.58550387552586L352.58657348525816,-203.39713531421103M-399.3325913898645,-227.99760348769624L-382.16671076450837,107.62010265057685M-660.3968688671904,107.62009727669398L-650.2916219698266,109.19964863752965M-691.5587339218711,-244.953728807295L-660.3968688671904,107.62009727669398M-660.3968688671904,107.62009727669398L-1097.5975351416246,187.80063492412748M364.0432032837577,-207.2409318442787L362.1988545592296,-204.02324124938076M371.8987190598432,-204.6550520222286L373.97777021433683,-207.9024710295235M-1088.6133221362848,191.19850622350262L-650.2916219698266,109.19964863752965M-650.2916219698266,109.19964863752965L-681.2702332058806,-246.6721704455149M354.2004106435304,-206.58550387552586L373.97777021433683,-207.9024710295235M-412.14372780143907,-226.4738861398891L-399.3325913898645,-227.99760348769624M-681.2702332058806,-246.6721704455149L-691.5587339218711,-244.953728807295M-1175.094079374776,-334.09693688783057L-691.5587339218711,-244.953728807295M-681.2702332058806,-246.6721704455149L-1166.581130163761,-337.9627731715056M-596.2708216531889,160.17163823690473L-762.2364737383698,128.20025790428122M-499.8648119223873,132.71286656579053L-486.5972036244034,134.78672670547522M-527.0598235618238,-272.429236153586L-499.8648119223873,132.71286656579053M-499.8648119223873,132.71286656579053L-3691.9357897594227,940.5632565800057M-789.3778736934462,133.2272977617763L-622.9874856709779,167.0261189313176M-3798.88103392238,996.4468142261455L-486.5972036244034,134.78672670547522M-486.5972036244034,134.78672670547522L-513.3628486995902,-274.71697977830394M-807.1941209829921,-311.2883647042587L-637.6523928720222,-354.73651906804054" style="fill:none;stroke:rgb(0,0,0);stroke-opacity:1;stroke-width:2;stroke-linecap:round"></path><path d="M356.2418354952651,37.68982801721204L379.38257924262984,38.812777386438114M368.1496405814578,-214.40511099089264L356.2418354952651,37.68982801721204M356.2418354952651,37.68982801721204L412.0025262730425,115.81730071976436M454.1073365068298,119.31793989520484L379.38257924262984,38.812777386438114M379.38257924262984,38.812777386438114L392.2067791043525,-216.08470912476994" style="fill:none;stroke:rgb(0,102,204);stroke-opacity:1;stroke-width:1;stroke-linecap:round"></path><path d="M-513.3628486995902,-274.71697977830394L-527.0598235618238,-272.429236153586M-5003.039237878006,-1417.1083819756075L-527.0598235618238,-272.429236153586M-667.6315400187352,-364.1630904836354L-837.2189569475944,-318.06378035425803M-513.3628486995902,-274.71697977830394L-5251.573086054715,-1520.924133434101" style="fill:none;stroke:rgb(0,0,0);stroke-opacity:1;stroke-width:2;stroke-linecap:round"></path><path d="M392.2067791043525,-216.08470912476994L368.1496405814578,-214.40511099089264M436.8468997166431,-334.25583210173806L368.1496405814578,-214.40511099089264M392.2067791043525,-216.08470912476994L482.0524033687886,-339.7720383682501" style="fill:none;stroke:rgb(0,102,204);stroke-opacity:1;stroke-width:1;stroke-linecap:round"></path><path d="M-596.2708216531889,160.17163823690473L-622.9874856709779,167.0261189313176M-637.6523928720222,-354.73651906804054L-596.2708216531889,160.17163823690473M-622.9874856709779,167.0261189313176L-667.6315400187352,-364.1630904836354M-667.6315400187352,-364.1630904836354L-637.6523928720222,-354.73651906804054" style="fill:none;stroke:rgb(0,0,0);stroke-opacity:1;stroke-width:2;stroke-linecap:round"></path><path d="M454.1073365068298,119.31793989520484L412.0025262730425,115.81730071976436M412.0025262730425,115.81730071976436L436.8468997166431,-334.25583210173806M482.0524033687886,-339.7720383682501L454.1073365068298,119.31793989520484M436.8468997166431,-334.25583210173806L482.0524033687886,-339.7720383682501M528.4845999135575,279.0227757909748L614.2941701281,291.8961796190217M592.5433392970191,-605.8872012860409L528.4845999135575,279.0227757909748M528.4845999135575,279.0227757909748L12893.477310122726,17603.87325664492M16683.24235346092,17603.873256645005L614.2941701281,291.8961796190217M614.2941701281,291.8961796190217L691.8892231969128,-628.6470507461152" style="fill:none;stroke:rgb(0,102,204);stroke-opacity:1;stroke-width:1;stroke-linecap:round"></path></svg>