<svg viewBox="0 0 1440 1080" width="1440" height="1080" style="background-color: rgb(255, 255, 255);" xmlns="http://www.w3.org/2000/svg"><rect width="100%" height="100%" fill="#ffffff"></rect><path d="M-161.39134372531308,13.265041950025717L-158.77911164101403,14.411875548010663M-165.63848434966343,-167.90750468322057L-161.39134372531308,13.265041950025717M-161.39134372531308,13.265041950025717L-1734.3498700398413,104.59811767151452M-165.01254770592345,14.122695524380841L-155.20099081530105,13.549292848954858M90145.90883188612,38714.02493114956L-155.20099081530105,13.549292848954858M-155.20099081530105,13.549292848954858L-159.29720464913595,-168.14704935186586" style="fill:none;stroke:rgb(0,0,0);stroke-opacity:1;stroke-width:2;stroke-linecap:round"></path><path d="M-160.0927125888492,13.83517269286343L-1749.2266368133385,106.7066357968923M87990.33951500389,38714.02493114816L-160.0927125888492,13.83517269286343" style="fill:none;stroke:rgb(102,102,102);stroke-opacity:1;stroke-width:1;stroke-linecap:round"></path><path d="M-169.39341180431083,-168.63037841780505L-165.01254770592345,14.122695524380841M-165.01254770592345,14.122695524380841L85834.77019812481,38714.02493114819M-1764.435845302446,108.86227164574206L-158.77911164101403,14.411875548010663M-158.77911164101403,14.411875548010663L-163.00695780897,-168.87418790225078M-163.00695780897,-168.87418790225078L-165.63848434966343,-167.90750468322057M-1824.0576219384536,-246.7755217944444L-165.63848434966343,-167.90750468322057M-159.29720464913595,-168.14704935186586L-169.39341180431083,-168.63037841780505M-159.29720464913595,-168.14704935186586L86265.88406150365,-31126.420935734957" style="fill:none;stroke:rgb(0,0,0);stroke-opacity:1;stroke-width:2;stroke-linecap:round"></path><path d="M-1851.52059218254,-290.4346026953005L-164.81521148527546,-189.23227985346446M-164.81521148527546,-189.23227985346446L83679.2008812487,-38886.47047649987" style="fill:none;stroke:rgb(102,102,102);stroke-opacity:1;stroke-width:1;stroke-linecap:round"></path><path d="M81954.74542774245,-31126.420935733848L-169.39341180431083,-168.63037841780505M-163.00695780897,-168.87418790225078L-1857.8471547596348,-250.55323353842735M-247.76061786779994,18.95862170267233L-236.9835488497113,18.328792993822983M-203.91371056024957,41.223296424988746L-236.9835488497113,18.328792993822983M-236.9835488497113,18.328792993822983L-243.54617020247252,-172.18024451133414M-254.6641644956953,-172.71248891898838L-247.76061786779994,18.95862170267233M-247.76061786779994,18.95862170267233L-216.82491363902355,42.16039987425461M-243.54617020247252,-172.18024451133414L-254.6641644956953,-172.71248891898838M-243.54617020247252,-172.18024451133414L-210.83908186229579,-191.64231360631524M-224.24477760385707,-192.44398311909964L-254.6641644956953,-172.71248891898838M-466.65162778924997,31.75095345132851L-453.10356378963746,30.959183477325173M-462.04875128219425,47.0605209639272L-453.10356378963746,30.959183477325173M-453.10356378963746,30.959183477325173L-467.2140553955431,-182.88774965355555M-481.2853025282856,-183.561373186506L-466.65162778924997,31.75095345132851M-466.65162778924997,31.75095345132851L-477.54151020092655,48.08577706884333M-467.2140553955431,-182.88774965355555L-481.2853025282856,-183.561373186506M-467.2140553955431,-182.88774965355555L-478.48526812622487,-196.64244993506534M-494.6645125587287,-197.52228800088128L-481.2853025282856,-183.561373186506M-203.91371056024957,41.223296424988746L-216.82491363902355,42.16039987425461M-210.83908186229579,-191.64231360631524L-203.91371056024957,41.223296424988746M-216.82491363902355,42.16039987425461L-224.24477760385707,-192.44398311909964M-677.5565643802325,44.07656662872359L-661.0412571762824,43.11138633758364M-692.6325209939057,58.07566919856311L-661.0412571762824,43.11138633758364M-661.0412571762824,43.11138633758364L-683.8357832858094,-193.25793875468528M-701.1010009803177,-194.08446513367772L-677.5565643802325,44.07656662872359M-677.5565643802325,44.07656662872359L-711.3378745701301,59.27815621417754M-224.24477760385707,-192.44398311909964L-210.83908186229579,-191.64231360631524M-462.04875128219425,47.0605209639272L-477.54151020092655,48.08577706884333M-478.48526812622487,-196.64244993506534L-462.04875128219425,47.0605209639272M-683.8357832858094,-193.25793875468528L-701.1010009803177,-194.08446513367772M-683.8357832858094,-193.25793875468528L-719.3865668692068,-206.12053382003512M-477.54151020092655,48.08577706884333L-494.6645125587287,-197.52228800088128M-739.0523372157196,-207.15860967410327L-701.1010009803177,-194.08446513367772M-82.48871559080952,51.25841997618214L-69.71919509281092,50.18434815859346M-64.66707950637533,52.34954055278015L-69.71919509281092,50.18434815859346M-69.71919509281092,50.18434815859346L-72.25957062250849,-199.32470930170257M-76.07891706632397,50.719278044216054L-71.10802368031715,52.90162148197518M-78.86229208094556,-199.7844732717291L-76.07891706632397,50.719278044216054M-76.07891706632397,50.719278044216054L-493.12630086635085,85.79802995262955M-85.51891330639027,-200.2479904170212L-82.48871559080952,51.25841997618214M-82.48871559080952,51.25841997618214L-77.60049540765043,53.45811905860374M-494.6645125587287,-197.52228800088128L-478.48526812622487,-196.64244993506534M-64.66707950637533,52.34954055278015L-77.60049540765043,53.45811905860374M-67.06215652512996,-201.18646957539033L-64.66707950637533,52.34954055278015M-495.2393425513378,89.25573452806267L-71.10802368031715,52.90162148197518M-71.10802368031715,52.90162148197518L-73.75253695768431,-201.6615261741516M-200.2593429874852,54.58457786290832L-186.24118897836124,53.4581190586037M-176.06835092492133,60.50085309560059L-186.24118897836124,53.4581190586037M-186.24118897836124,53.4581190586037L-193.19625412693074,-202.14052515132587M-77.60049540765043,53.45811905860374L-80.49843921955438,-202.14052515132582M-207.80048979454534,-203.11054818459917L-200.2593429874852,54.58457786290832M-200.2593429874852,54.58457786290832L-190.7130819340564,61.744273652979984M-72.25957062250849,-199.32470930170257L-85.51891330639027,-200.2479904170212M-72.25957062250849,-199.32470930170257L-67.06215652512996,-201.18646957539033M-73.75253695768431,-201.6615261741516L-78.86229208094556,-199.7844732717291M-516.0032942055115,-230.2236919883333L-78.86229208094556,-199.7844732717291M-80.49843921955438,-202.14052515132582L-85.51891330639027,-200.2479904170212M-80.49843921955438,-202.14052515132582L-67.06215652512996,-201.18646957539033M-73.75253695768431,-201.6615261741516L-518.6980482511381,-233.25529028966312M-692.6325209939057,58.07566919856311L-711.3378745701301,59.27815621417754M-719.3865668692068,-206.12053382003512L-692.6325209939057,58.07566919856311M-193.19625412693074,-202.14052515132587L-207.80048979454534,-203.11054818459917M-193.19625412693074,-202.14052515132587L-182.98806777349904,-208.21481785750007M-711.3378745701301,59.27815621417754L-739.0523372157196,-207.15860967410327M-198.27439355258724,-209.2896376388422L-207.80048979454534,-203.11054818459917M-486.647174590351,61.744273652979984L-469.5156024664572,60.50085309560059M-484.0426941269293,86.64961808445032L-469.5156024664572,60.50085309560059M-469.5156024664572,60.50085309560059L-487.9681807293311,-208.21481785750007M-176.06835092492133,60.50085309560059L-190.7130819340564,61.744273652979984M-182.98806777349904,-208.21481785750007L-176.06835092492133,60.50085309560059M-505.9415559617746,-209.2896376388422L-486.647174590351,61.744273652979984M-486.647174590351,61.744273652979984L-504.40322014972867,88.3783419920465M-190.7130819340564,61.744273652979984L-198.27439355258724,-209.2896376388422M-739.0523372157196,-207.15860967410327L-719.3865668692068,-206.12053382003512M-487.9681807293311,-208.21481785750007L-505.9415559617746,-209.2896376388422M-487.9681807293311,-208.21481785750007L-506.61463323129385,-230.96981074125128M-198.27439355258724,-209.2896376388422L-182.98806777349904,-208.21481785750007M-528.1709111515484,-232.48548653251913L-505.9415559617746,-209.2896376388422" style="fill:none;stroke:rgb(0,0,0);stroke-opacity:1;stroke-width:2;stroke-linecap:round"></path><path d="M-35.67838869317248,-5.9463981155287735L-21.211980521453267,-6.677845719716833M129.7500244758147,26.060902351979813L-21.211980521453267,-6.677845719716833M-21.211980521453267,-6.677845719716833L-21.808101753906286,-200.71530688317637M-36.69054156390077,-201.7979786014554L-35.67838869317248,-5.9463981155287735M-35.67838869317248,-5.9463981155287735L111.21895107285451,27.523881831160892M-21.808101753906286,-200.71530688317637L-36.69054156390077,-201.7979786014554M-21.808101753906286,-200.71530688317637L134.95738331765344,-249.72883323309333M115.74311179446215,-251.9458645626923L-36.69054156390077,-201.7979786014554" style="fill:none;stroke:rgb(0,102,204);stroke-opacity:1;stroke-width:1;stroke-linecap:round"></path><path d="M-503.2507375446646,86.64961808445031L-483.10112337115794,84.95479072406191M-485.00309629781594,88.3783419920465L-483.10112337115794,84.95479072406191M-483.10112337115794,84.95479072406191L-505.39809829598056,-229.4852257354453M-495.2393425513378,89.25573452806267L-493.12630086635085,85.79802995262955M-493.12630086635085,85.79802995262955L-516.0032942055115,-230.2236919883333M-484.0426941269293,86.64961808445032L-504.40322014972867,88.3783419920465M-506.61463323129385,-230.96981074125128L-484.0426941269293,86.64961808445032M-526.71838851825,-230.9698107412513L-503.2507375446646,86.64961808445031M-503.2507375446646,86.64961808445031L-505.5789852316627,90.14198961494766M-504.40322014972867,88.3783419920465L-528.1709111515484,-232.48548653251913M-485.00309629781594,88.3783419920465L-505.5789852316627,90.14198961494766M-507.85664533802725,-232.48548653251916L-485.00309629781594,88.3783419920465M-518.6980482511381,-233.25529028966312L-495.2393425513378,89.25573452806267M-505.5789852316627,90.14198961494766L-529.654175004599,-234.03324011831123M-505.39809829598056,-229.4852257354453L-526.71838851825,-230.9698107412513M-505.39809829598056,-229.4852257354453L-507.85664533802725,-232.48548653251916M-516.0032942055115,-230.2236919883333L-518.6980482511381,-233.25529028966312M-528.1709111515484,-232.48548653251913L-506.61463323129385,-230.96981074125128M-529.654175004599,-234.03324011831123L-526.71838851825,-230.9698107412513M-529.654175004599,-234.03324011831123L-507.85664533802725,-232.48548653251916" style="fill:none;stroke:rgb(0,0,0);stroke-opacity:1;stroke-width:2;stroke-linecap:round"></path><path d="M129.7500244758147,26.060902351979813L111.21895107285451,27.523881831160892M134.95738331765344,-249.72883323309333L129.7500244758147,26.060902351979813M111.21895107285451,27.523881831160892L115.74311179446215,-251.9458645626923M115.74311179446215,-251.9458645626923L134.95738331765344,-249.72883323309333M287.1560182485752,67.61080852942638L309.05825010839226,64.94702357350266M1175.3084741352914,252.80851794078185L309.05825010839226,64.94702357350266M309.05825010839226,64.94702357350266L325.99294874446855,-309.4570745327923M303.1833308950073,-313.61027084642257L287.1560182485752,67.61080852942638M287.1560182485752,67.61080852942638L1160.0882141749794,266.5067519050627M325.99294874446855,-309.4570745327923L303.1833308950073,-313.61027084642257M325.99294874446855,-309.4570745327923L1330.2942069882968,-623.4569716512101M1320.1003816473901,-648.1573945926373L303.1833308950073,-313.61027084642257" style="fill:none;stroke:rgb(0,102,204);stroke-opacity:1;stroke-width:1;stroke-linecap:round"></path></svg>