<svg viewBox="0 0 1440 1080" width="1440" height="1080" style="background-color: rgb(255, 255, 255);" xmlns="http://www.w3.org/2000/svg"><rect width="100%" height="100%" fill="#ffffff"></rect><path d="M217.58005965891527,-52.40595182594186L219.32169535658522,-51.856165034790514M-356.39775495445133,-51.85616503479049L-353.56759694573765,-52.40595182594184M222.1156023038029,-177.18269044776113L217.58005965891527,-52.40595182594186M217.58005965891527,-52.40595182594186L-353.56759694573765,-52.40595182594184M-353.56759694573765,-52.40595182594184L-360.93785374367997,-177.18269044776116M-358.3902756954738,-52.13215424686335L-351.56379425365526,-52.13215424686335M-365.89146751235586,-177.41097453002337L-358.3902756954738,-52.13215424686335M-358.3902756954738,-52.13215424686335L-222502.93055641794,42690.70072631557M-218264.77949818494,42690.70072631252L-351.56379425365526,-52.13215424686335M-351.56379425365526,-52.13215424686335L-358.92210622640624,-177.41097453002337" style="fill:none;stroke:rgb(0,0,0);stroke-opacity:1;stroke-width:2;stroke-linecap:round"></path><path d="M218.4474061381934,-52.13215424686341L-354.9770349745645,-52.13215424686327M135620.83386294986,42690.70072631249L218.4474061381934,-52.13215424686341M-354.9770349745645,-52.13215424686327L-220383.85502730138,42690.70072631409" style="fill:none;stroke:rgb(102,102,102);stroke-opacity:1;stroke-width:1;stroke-linecap:round"></path><path d="M215.03416541728413,-52.13215424686335L221.86064685910264,-52.13215424686335M219.5348805074133,-177.4109745300233L215.03416541728413,-52.13215424686335M215.03416541728413,-52.13215424686335L133501.75833385077,42690.700726315576M137739.90939205847,42690.70072631253L221.86064685910264,-52.13215424686335M221.86064685910264,-52.13215424686335L226.50424179336292,-177.4109745300233M37.545647930001905,-52.13215424686334L44.372129371820456,-52.13215424686334M38.33148707272289,-177.4109745300233L37.545647930001905,-52.13215424686334M37.545647930001905,-52.13215424686334L40.4479495491309,-46.801668127552155M47.80212219442745,-46.801668127552155L44.372129371820456,-52.13215424686334M44.372129371820456,-52.13215424686334L45.30084835867252,-177.4109745300233M-58.02509225545773,-52.132154246863344L-51.198610813639185,-52.132154246863344M-59.23957093057196,-177.4109745300233L-58.02509225545773,-52.132154246863344M-58.02509225545773,-52.132154246863344L-61.454802171642804,-48.056236365792415M-54.2248254455672,-48.056236365792415L-51.198610813639185,-52.132154246863344M-51.198610813639185,-52.132154246863344L-52.27020964462233,-177.4109745300233M160.42231388273572,-52.132154246863344L167.24879532455427,-52.132154246863344M163.77999021981623,-177.4109745300233L160.42231388273572,-52.132154246863344M160.42231388273572,-52.132154246863344L182.21318446189136,-42.76530175173914M189.96693699218457,-42.76530175173914L167.24879532455427,-52.132154246863344M167.24879532455427,-52.132154246863344L170.74935150576587,-177.4109745300233" style="fill:none;stroke:rgb(0,0,0);stroke-opacity:1;stroke-width:2;stroke-linecap:round"></path><path d="M-232.49757444514242,-86.5520866424282L-150.4396069939157,-86.5520866424282M-235.72483979313742,-170.11433397355424L-232.49757444514242,-86.5520866424282M-232.49757444514242,-86.5520866424282L-234.3693203003649,-86.27403534266227M-151.65073666494203,-86.27403534266227L-150.4396069939157,-86.5520866424282M-150.4396069939157,-86.5520866424282L-152.5278375132066,-170.11433397355424M-307.7173779421003,-86.5520866424282L-239.33573839941135,-86.5520866424282M-311.98875854974074,-170.11433397355424L-307.7173779421003,-86.5520866424282M-307.7173779421003,-86.5520866424282L-310.19468863283595,-86.27403534266227M-241.26253560331688,-86.27403534266227L-239.33573839941135,-86.5520866424282M-239.33573839941135,-86.5520866424282L-242.65792331646506,-170.11433397355424" style="fill:none;stroke:rgb(0,102,204);stroke-opacity:1;stroke-width:1;stroke-linecap:round"></path><path d="M-363.88772528624366,-177.64112433158007L-356.39775495445133,-51.85616503479049M-356.39775495445133,-51.85616503479049L219.32169535658522,-51.856165034790514M219.32169535658522,-51.856165034790514L223.93090786845744,-177.64112433158007" style="fill:none;stroke:rgb(0,0,0);stroke-opacity:1;stroke-width:2;stroke-linecap:round"></path><path d="M-151.65073666494203,-86.27403534266227L-234.3693203003649,-86.27403534266227M-234.3693203003649,-86.27403534266227L-237.649124199612,-170.5145323714218M-153.77296271739604,-170.5145323714218L-151.65073666494203,-86.27403534266227M-241.26253560331688,-86.27403534266227L-310.19468863283595,-86.27403534266227M-310.19468863283595,-86.27403534266227L-314.53560555831007,-170.5145323714218M-244.63880432313005,-170.5145323714218L-241.26253560331688,-86.27403534266227M-152.5278375132066,-170.11433397355424L-235.72483979313742,-170.11433397355424M-237.649124199612,-170.5145323714218L-235.72483979313742,-170.11433397355424M-152.5278375132066,-170.11433397355424L-153.77296271739604,-170.5145323714218M-242.65792331646506,-170.11433397355424L-311.98875854974074,-170.11433397355424M-314.53560555831007,-170.5145323714218L-311.98875854974074,-170.11433397355424M-242.65792331646506,-170.11433397355424L-244.63880432313005,-170.5145323714218" style="fill:none;stroke:rgb(0,102,204);stroke-opacity:1;stroke-width:1;stroke-linecap:round"></path><path d="M223.93090786845744,-177.64112433158007L222.1156023038029,-177.18269044776113M-360.93785374367997,-177.18269044776116L-363.88772528624366,-177.64112433158007M-360.93785374367997,-177.18269044776116L222.1156023038029,-177.18269044776113M-358.92210622640624,-177.41097453002337L-365.89146751235586,-177.41097453002337M-222502.93055640112,-34370.522635472495L-365.89146751235586,-177.41097453002337M-358.92210622640624,-177.41097453002337L-218264.77949818107,-34370.522635472036M45.30084835867252,-177.4109745300233L38.33148707272289,-177.4109745300233M41.36145405588668,-181.86294377795366L38.33148707272289,-177.4109745300233M45.30084835867252,-177.4109745300233L48.88171842968428,-181.86294377795366M226.50424179336292,-177.4109745300233L219.5348805074133,-177.4109745300233M133501.7583338419,-34370.5226354728L219.5348805074133,-177.4109745300233M226.50424179336292,-177.4109745300233L137739.90939204622,-34370.522635469606M170.74935150576587,-177.4109745300233L163.77999021981623,-177.4109745300233M186.55733985303576,-185.2436886373091L163.77999021981623,-177.4109745300233M170.74935150576587,-177.4109745300233L194.49595005954794,-185.2436886373091M-52.27020964462233,-177.4109745300233L-59.23957093057196,-177.4109745300233M-62.81878051823905,-180.81384292763988L-59.23957093057196,-177.4109745300233M-52.27020964462233,-177.4109745300233L-55.428335751387415,-180.81384292763988" style="fill:none;stroke:rgb(0,0,0);stroke-opacity:1;stroke-width:2;stroke-linecap:round"></path><path d="M-363.2515579343446,-191.65531591938034L223.53942026728882,-191.6553159193802M-220383.8550272916,-42932.88078678175L-363.2515579343446,-191.65531591938034M223.53942026728882,-191.6553159193802L135620.83386295772,-42932.88078678453" style="fill:none;stroke:rgb(102,102,102);stroke-opacity:1;stroke-width:1;stroke-linecap:round"></path><path d="M-237.649124199612,-170.5145323714218L-153.77296271739604,-170.5145323714218M-314.53560555831007,-170.5145323714218L-244.63880432313005,-170.5145323714218" style="fill:none;stroke:rgb(0,102,204);stroke-opacity:1;stroke-width:1;stroke-linecap:round"></path><path d="M223.93090786845744,-177.64112433158007L-363.88772528624366,-177.64112433158007" style="fill:none;stroke:rgb(0,0,0);stroke-opacity:1;stroke-width:2;stroke-linecap:round"></path><path d="M-372.38658232026745,-85.26457750259502L-365.29350456178616,-85.26457750259502M-377.7510949107155,-171.9681941989702L-372.38658232026745,-85.26457750259502M-372.38658232026745,-85.26457750259502L-413.49101453433127,-81.31012542703215M-405.61499520986774,-81.31012542703215L-365.29350456178616,-85.26457750259502M-365.29350456178616,-85.26457750259502L-370.55583596003527,-171.9681941989702M-370.55583596003527,-171.9681941989702L-377.7510949107155,-171.9681941989702M-420.1157036857491,-177.67415651271136L-377.7510949107155,-171.9681941989702M-370.55583596003527,-171.9681941989702L-412.1134998060205,-177.67415651271136" style="fill:none;stroke:rgb(0,102,204);stroke-opacity:1;stroke-width:1;stroke-linecap:round"></path><path d="M-54.2248254455672,-48.056236365792415L-61.454802171642804,-48.056236365792415M-61.454802171642804,-48.056236365792415L-62.81878051823905,-180.81384292763988M-55.428335751387415,-180.81384292763988L-54.2248254455672,-48.056236365792415M47.80212219442745,-46.801668127552155L40.4479495491309,-46.801668127552155M40.4479495491309,-46.801668127552155L41.36145405588668,-181.86294377795366M48.88171842968428,-181.86294377795366L47.80212219442745,-46.801668127552155M-62.81878051823905,-180.81384292763988L-55.428335751387415,-180.81384292763988M41.36145405588668,-181.86294377795366L48.88171842968428,-181.86294377795366M-64.73447395208628,-44.15862601954414L-57.118653487134964,-44.15862601954414M-66.24971521494393,-184.0757416702929L-64.73447395208628,-44.15862601954414M-64.73447395208628,-44.15862601954414L-69.03256233101881,-39.05071435755708M-60.9110844097225,-39.05071435755708L-57.118653487134964,-44.15862601954414M-57.118653487134964,-44.15862601954414L-58.45563107200937,-184.0757416702929M189.96693699218457,-42.76530175173914L182.21318446189136,-42.76530175173914M182.21318446189136,-42.76530175173914L186.55733985303576,-185.2436886373091M194.49595005954794,-185.2436886373091L189.96693699218457,-42.76530175173914M42.6456389166128,-42.76530175173914L50.39939144690606,-42.76530175173914M43.66235613581682,-185.24368863730913L42.6456389166128,-42.76530175173914M42.6456389166128,-42.76530175173914L46.42968856696015,-35.81536105535684M54.87145012458928,-35.81536105535684L50.39939144690606,-42.76530175173914M50.39939144690606,-42.76530175173914L51.60096634232899,-185.24368863730913M-58.45563107200937,-184.0757416702929L-66.24971521494393,-184.0757416702929M-70.75837638929427,-188.3622692540988L-66.24971521494393,-184.0757416702929M-58.45563107200937,-184.0757416702929L-62.433861519965554,-188.3622692540988" style="fill:none;stroke:rgb(0,0,0);stroke-opacity:1;stroke-width:2;stroke-linecap:round"></path><path d="M-405.61499520986774,-81.31012542703215L-413.49101453433127,-81.31012542703215M-413.49101453433127,-81.31012542703215L-420.1157036857491,-177.67415651271136M-412.1134998060205,-177.67415651271136L-405.61499520986774,-81.31012542703215" style="fill:none;stroke:rgb(0,102,204);stroke-opacity:1;stroke-width:1;stroke-linecap:round"></path><path d="M186.55733985303576,-185.2436886373091L194.49595005954794,-185.2436886373091M51.60096634232899,-185.24368863730913L43.66235613581682,-185.24368863730913M47.63739722910652,-191.08426736470724L43.66235613581682,-185.24368863730913M51.60096634232899,-185.24368863730913L56.29874217985317,-191.08426736470724" style="fill:none;stroke:rgb(0,0,0);stroke-opacity:1;stroke-width:2;stroke-linecap:round"></path><path d="M-420.1157036857491,-177.67415651271136L-412.1134998060205,-177.67415651271136" style="fill:none;stroke:rgb(0,102,204);stroke-opacity:1;stroke-width:1;stroke-linecap:round"></path><path d="M-64.66514584940464,-39.43795320525807L-65.28142361788092,-38.65978501028648M-66.27395390094478,-188.036833405353L-64.66514584940464,-39.43795320525807M-64.66514584940464,-39.43795320525807L-121.24714846763362,-39.43795320525807M-122.40266928352665,-38.65978501028648L-121.24714846763362,-39.43795320525807M-121.24714846763362,-39.43795320525807L-124.26366356427134,-188.036833405353M-169.74600785468704,-39.43795320525807L-171.3637369969373,-38.65978501028648M-195.8442708536426,-38.65978501028648L-193.99543754821374,-39.43795320525807M-173.96912898997985,-188.036833405353L-169.74600785468704,-39.43795320525807M-169.74600785468704,-39.43795320525807L-193.99543754821374,-39.43795320525807M-193.99543754821374,-39.43795320525807L-198.8218617028341,-188.036833405353M-60.9110844097225,-39.05071435755708L-69.03256233101881,-39.05071435755708M-69.03256233101881,-39.05071435755708L-70.75837638929427,-188.3622692540988M-62.433861519965554,-188.3622692540988L-60.9110844097225,-39.05071435755708M-198.9762090717599,-39.05071435755707L-190.85473115046358,-39.05071435755707M-203.9506142985539,-188.3622692540988L-198.9762090717599,-39.05071435755707M-198.9762090717599,-39.05071435755707L-234.57578641367223,-24.372753689428126M-225.00126451923663,-24.372753689428126L-190.85473115046358,-39.05071435755707M-190.85473115046358,-39.05071435755707L-195.62609942922515,-188.3622692540988M-69.03256233101877,-39.05071435755706L-60.91108440972245,-39.05071435755706M-70.75837638929424,-188.3622692540988L-69.03256233101877,-39.05071435755706M-69.03256233101877,-39.05071435755706L-81.38343610270262,-24.37275368942812M-71.80891420826703,-24.37275368942812L-60.91108440972245,-39.05071435755706M-60.91108440972245,-39.05071435755706L-62.43386151996552,-188.3622692540988M-125.47768400383853,-188.69088451797552L-122.40266928352665,-38.65978501028648M-122.40266928352665,-38.65978501028648L-65.28142361788092,-38.65978501028648M-65.28142361788092,-38.65978501028648L-66.92143146871393,-188.69088451797552M-200.7642944061416,-188.69088451797552L-195.8442708536426,-38.65978501028648M-195.8442708536426,-38.65978501028648L-171.3637369969373,-38.65978501028648M-171.3637369969373,-38.65978501028648L-175.66875760537394,-188.69088451797552M192.682341435078,-38.26511215353445L200.88159000678343,-38.26511215353445M197.54669227074618,-189.02272601866443L192.682341435078,-38.26511215353445M192.682341435078,-38.26511215353445L198.38139660428453,-35.81536105535683M206.82315816191363,-35.81536105535683L200.88159000678343,-38.26511215353445M200.88159000678343,-38.26511215353445L205.95293449503322,-189.02272601866443M-66.92143146871393,-188.69088451797552L-66.27395390094478,-188.036833405353M-124.26366356427134,-188.036833405353L-125.47768400383853,-188.69088451797552M-124.26366356427134,-188.036833405353L-66.27395390094478,-188.036833405353M-175.66875760537394,-188.69088451797552L-173.96912898997985,-188.036833405353M-198.8218617028341,-188.036833405353L-200.7642944061416,-188.69088451797552M-198.8218617028341,-188.036833405353L-173.96912898997985,-188.036833405353M-70.75837638929427,-188.3622692540988L-62.433861519965554,-188.3622692540988M-62.43386151996552,-188.3622692540988L-70.75837638929424,-188.3622692540988M-83.79281414521687,-200.75452381028958L-70.75837638929424,-188.3622692540988M-62.43386151996552,-188.3622692540988L-73.93483601048547,-200.75452381028958M-195.62609942922515,-188.3622692540988L-203.9506142985539,-188.3622692540988M-241.52046430091912,-200.7545238102896L-203.9506142985539,-188.3622692540988M-195.62609942922515,-188.3622692540988L-231.6624861661877,-200.7545238102896M-66.92143146871393,-188.69088451797552L-125.47768400383853,-188.69088451797552M-175.66875760537394,-188.69088451797552L-200.7642944061416,-188.69088451797552M268.81124399346015,-36.23366707095315L271.4746250379813,-35.392910464942155M275.7682567783376,-190.7320318076191L268.81124399346015,-36.23366707095315M268.81124399346015,-36.23366707095315L50.4021082487737,-36.23366707095313M50.901492194621426,-35.39291046494214L50.4021082487737,-36.23366707095313M50.4021082487737,-36.23366707095313L51.706548145938235,-190.7320318076191M264.61106830606235,-36.23366707095314L273.01141968085795,-36.23366707095314M271.4593777661761,-190.7320318076191L264.61106830606235,-36.23366707095314M264.61106830606235,-36.23366707095314L267.2328340217629,-35.39291046494215M275.7164160541998,-35.39291046494215L273.01141968085795,-36.23366707095314M273.01141968085795,-36.23366707095314L280.07713579049914,-190.7320318076191M46.201932561375884,-36.23366707095314L54.60228393617152,-36.23366707095314M47.397669133776695,-190.7320318076191L46.201932561375884,-36.23366707095314M46.201932561375884,-36.23366707095314L46.65970117840297,-35.39291046494215M55.14328321083989,-35.39291046494215L54.60228393617152,-36.23366707095314M54.60228393617152,-36.23366707095314L56.01542715809976,-190.7320318076191M205.95293449503322,-189.02272601866443L197.54669227074618,-189.02272601866443M203.5416063425463,-191.08426736470722L197.54669227074618,-189.02272601866443M205.95293449503322,-189.02272601866443L212.2029512932929,-191.08426736470722M54.87145012458928,-35.81536105535684L46.42968856696015,-35.81536105535684M46.42968856696015,-35.81536105535684L47.63739722910652,-191.08426736470724M56.29874217985317,-191.08426736470724L54.87145012458928,-35.81536105535684M206.82315816191363,-35.81536105535683L198.38139660428453,-35.81536105535683M198.38139660428453,-35.81536105535683L203.5416063425463,-191.08426736470722M212.2029512932929,-191.08426736470722L206.82315816191363,-35.81536105535683M275.7164160541998,-35.39291046494215L267.2328340217629,-35.39291046494215M267.2328340217629,-35.39291046494215L274.21931334259324,-191.44008411119194M282.9246883693422,-191.44008411119194L275.7164160541998,-35.39291046494215M52.23225016049388,-191.4400841111919L50.901492194621426,-35.39291046494214M50.901492194621426,-35.39291046494214L271.4746250379813,-35.392910464942155M55.14328321083989,-35.39291046494215L46.65970117840297,-35.39291046494215M46.65970117840297,-35.39291046494215L47.87956264711938,-191.44008411119194M56.58493767386838,-191.44008411119194L55.14328321083989,-35.39291046494215M271.4746250379813,-35.392910464942155L278.57200085596776,-191.44008411119194M278.57200085596776,-191.44008411119194L275.7682567783376,-190.7320318076191M51.706548145938235,-190.7320318076191L52.23225016049388,-191.4400841111919M51.706548145938235,-190.7320318076191L275.7682567783376,-190.7320318076191M280.07713579049914,-190.7320318076191L271.4593777661761,-190.7320318076191M274.21931334259324,-191.44008411119194L271.4593777661761,-190.7320318076191M280.07713579049914,-190.7320318076191L282.9246883693422,-191.44008411119194M56.01542715809976,-190.7320318076191L47.397669133776695,-190.7320318076191M47.87956264711938,-191.44008411119194L47.397669133776695,-190.7320318076191M56.01542715809976,-190.7320318076191L56.58493767386838,-191.44008411119194M47.63739722910652,-191.08426736470724L56.29874217985317,-191.08426736470724M203.5416063425463,-191.08426736470722L212.2029512932929,-191.08426736470722M278.57200085596776,-191.44008411119194L52.23225016049388,-191.4400841111919M274.21931334259324,-191.44008411119194L282.9246883693422,-191.44008411119194M47.87956264711938,-191.44008411119194L56.58493767386838,-191.44008411119194" style="fill:none;stroke:rgb(0,0,0);stroke-opacity:1;stroke-width:2;stroke-linecap:round"></path><path d="M290.9090866508098,-74.44518037546437L300.14429575083545,-74.44518037546437M296.3893206222536,-187.62301388026017L290.9090866508098,-74.44518037546437M290.9090866508098,-74.44518037546437L351.5828626375708,-64.71664558171557M362.7442233562238,-64.71664558171557L300.14429575083545,-74.44518037546437M300.14429575083545,-74.44518037546437L305.79850540391243,-187.62301388026017M305.79850540391243,-187.62301388026017L296.3893206222536,-187.62301388026017M359.619042355001,-201.81671705796307L296.3893206222536,-187.62301388026017M305.79850540391243,-187.62301388026017L371.03551989008037,-201.81671705796307" style="fill:none;stroke:rgb(0,102,204);stroke-opacity:1;stroke-width:1;stroke-linecap:round"></path><path d="M-76.17030285517635,-24.91049867419179L-77.02683638125866,-23.828961773108908M-78.54087739120969,-210.34558077638314L-76.17030285517635,-24.91049867419179M-76.17030285517635,-24.91049867419179L-228.51090856552895,-24.91049867419179M-228.51090856552898,-24.91049867419178L-231.08050914377597,-23.828961773108897M-500.67443647818106,-23.828961773108873L-495.1069685586461,-24.910498674191764M-235.622632173629,-210.34558077638314L-228.51090856552898,-24.91049867419178M-228.51090856552898,-24.91049867419178L-495.1069685586461,-24.910498674191764M-495.1069685586461,-24.910498674191764L-510.5157030428627,-210.34558077638312M-231.08050914377588,-23.828961773108908L-228.51090856552895,-24.91049867419179M-228.51090856552895,-24.91049867419179L-235.62263217362897,-210.34558077638314M-80.93094678362488,-24.91049867419179L-71.40965892672783,-24.91049867419179M-83.4496822281603,-210.34558077638314L-80.93094678362488,-24.91049867419179M-80.93094678362488,-24.91049867419179L-81.84101365508734,-23.828961773108908M-72.21265910743,-23.828961773108908L-71.40965892672783,-24.91049867419179M-71.40965892672783,-24.91049867419179L-73.63207255425908,-210.34558077638314M-225.00126451923663,-24.372753689428126L-234.57578641367223,-24.372753689428126M-234.57578641367223,-24.372753689428126L-241.52046430091912,-200.7545238102896M-231.6624861661877,-200.7545238102896L-225.00126451923663,-24.372753689428126M-71.80891420826703,-24.37275368942812L-81.38343610270262,-24.37275368942812M-81.38343610270262,-24.37275368942812L-83.79281414521687,-200.75452381028958M-73.93483601048547,-200.75452381028958L-71.80891420826703,-24.37275368942812M-81.38343610270265,-24.372753689428134L-71.80891420826704,-24.372753689428134M-83.93085832008543,-210.86023386846819L-81.38343610270265,-24.372753689428134M-81.38343610270265,-24.372753689428134L-86.20309813924172,-18.644996195202676M-76.06155718168387,-18.644996195202676L-71.80891420826704,-24.372753689428134M-71.80891420826704,-24.372753689428134L-74.05663969419302,-210.86023386846819M-215.426742624801,-24.372753689428134L-205.8522207303654,-24.372753689428134M-222.16991908257896,-210.86023386846819L-215.426742624801,-24.372753689428134M-215.426742624801,-24.372753689428134L-228.18467154505143,-18.644996195202676M-218.04313058749364,-18.644996195202676L-205.8522207303654,-24.372753689428134M-205.8522207303654,-24.372753689428134L-212.2957004566866,-210.86023386846819M-238.35562045070506,-211.38085642475306L-231.08050914377588,-23.828961773108908M-231.08050914377588,-23.828961773108908L-77.02683638125866,-23.828961773108908M-77.02683638125866,-23.828961773108908L-79.45187348356838,-211.38085642475306M-500.67443647818106,-23.828961773108873L-231.08050914377597,-23.828961773108897M-231.08050914377597,-23.828961773108897L-238.35562045070506,-211.38085642475303M-72.21265910743,-23.828961773108908L-81.84101365508734,-23.828961773108908M-81.84101365508734,-23.828961773108908L-84.41761557629141,-211.38085642475306M-74.48613139084536,-211.38085642475306L-72.21265910743,-23.828961773108908M-516.4371776431942,-211.380856424753L-500.67443647818106,-23.828961773108873M-238.35562045070506,-211.38085642475303L-235.622632173629,-210.34558077638314M-510.5157030428627,-210.34558077638312L-235.622632173629,-210.34558077638314M-79.45187348356838,-211.38085642475306L-78.54087739120969,-210.34558077638314M-235.62263217362897,-210.34558077638314L-238.35562045070506,-211.38085642475306M-235.62263217362897,-210.34558077638314L-78.54087739120969,-210.34558077638314M-510.5157030428627,-210.34558077638312L-516.4371776431942,-211.380856424753M-73.63207255425908,-210.34558077638314L-83.4496822281603,-210.34558077638314M-84.41761557629141,-211.38085642475306L-83.4496822281603,-210.34558077638314M-73.63207255425908,-210.34558077638314L-74.48613139084536,-211.38085642475306M-241.52046430091912,-200.7545238102896L-231.6624861661877,-200.7545238102896M-83.79281414521687,-200.75452381028958L-73.93483601048547,-200.75452381028958M-74.05663969419302,-210.86023386846819L-83.93085832008543,-210.86023386846819M-89.066487762748,-216.35316590899117L-83.93085832008543,-210.86023386846819M-74.05663969419302,-210.86023386846819L-78.58807743771882,-216.35316590899117M-212.2957004566866,-210.86023386846819L-222.16991908257896,-210.86023386846819M-235.76423231315633,-216.35316590899117L-222.16991908257896,-210.86023386846819M-212.2957004566866,-210.86023386846819L-225.2858219881272,-216.35316590899117M-79.45187348356838,-211.38085642475306L-238.35562045070506,-211.38085642475306M-84.41761557629141,-211.38085642475306L-74.48613139084536,-211.38085642475306M-238.35562045070506,-211.38085642475303L-516.4371776431942,-211.380856424753M-76.06155718168387,-18.644996195202676L-86.20309813924172,-18.644996195202676M-86.20309813924172,-18.644996195202676L-89.066487762748,-216.35316590899117M-78.58807743771882,-216.35316590899117L-76.06155718168387,-18.644996195202676M-218.04313058749364,-18.644996195202676L-228.18467154505143,-18.644996195202676M-228.18467154505143,-18.644996195202676L-235.76423231315633,-216.35316590899117M-225.2858219881272,-216.35316590899117L-218.04313058749364,-18.644996195202676M-89.066487762748,-216.35316590899117L-78.58807743771882,-216.35316590899117M-235.76423231315633,-216.35316590899117L-225.2858219881272,-216.35316590899117M-92.79787072821769,-10.807674628634802L-81.88047417195679,-10.807674628634802M-96.29112799435832,-234.5702092185462L-92.79787072821769,-10.807674628634802M-92.79787072821769,-10.807674628634802L-153.45190075021958,61.27446750825478M-135.39873595607608,61.27446750825478L-81.88047417195679,-10.807674628634802M-81.88047417195679,-10.807674628634802L-84.96275999502204,-234.5702092185462M-245.64142251587023,-10.807674628634787L-234.7240259596093,-10.807674628634787M-254.88827998506596,-234.57020921854615L-245.64142251587023,-10.807674628634787M-245.64142251587023,-10.807674628634787L-299.0180509494029,13.156118845910456M-285.7283597960961,13.156118845910456L-234.7240259596093,-10.807674628634787M-234.7240259596093,-10.807674628634787L-243.55991198572968,-234.57020921854615" style="fill:none;stroke:rgb(0,0,0);stroke-opacity:1;stroke-width:2;stroke-linecap:round"></path><path d="M362.7442233562238,-64.71664558171557L351.5828626375708,-64.71664558171557M351.5828626375708,-64.71664558171557L359.619042355001,-201.81671705796307M371.03551989008037,-201.81671705796307L362.7442233562238,-64.71664558171557M-585.9714377292848,-64.71664558171553L-574.8100770106317,-64.71664558171553M-599.3650705916684,-201.81671705796302L-585.9714377292848,-64.71664558171553M-585.9714377292848,-64.71664558171553L-740.3921460250023,-49.86060068490852M-726.289438481669,-49.86060068490852L-574.8100770106317,-64.71664558171553M-574.8100770106317,-64.71664558171553L-587.9485930565891,-201.81671705796302" style="fill:none;stroke:rgb(0,102,204);stroke-opacity:1;stroke-width:1;stroke-linecap:round"></path><path d="M-84.96275999502204,-234.5702092185462L-96.29112799435832,-234.5702092185462M-163.24495898017952,-313.4760532166052L-96.29112799435832,-234.5702092185462M-84.96275999502204,-234.5702092185462L-144.03966968839367,-313.4760532166052M-243.55991198572968,-234.57020921854615L-254.88827998506596,-234.57020921854615M-312.8331121987515,-260.3681389279025L-254.88827998506596,-234.57020921854615M-243.55991198572968,-234.57020921854615L-298.9294183232514,-260.3681389279025" style="fill:none;stroke:rgb(0,0,0);stroke-opacity:1;stroke-width:2;stroke-linecap:round"></path><path d="M359.619042355001,-201.81671705796307L371.03551989008037,-201.81671705796307M-587.9485930565891,-201.81671705796302L-599.3650705916684,-201.81671705796302M-761.904750752121,-223.70869992526747L-599.3650705916684,-201.81671705796302M-587.9485930565891,-201.81671705796302L-747.3922793092233,-223.70869992526747" style="fill:none;stroke:rgb(0,102,204);stroke-opacity:1;stroke-width:1;stroke-linecap:round"></path><path d="M-92.65546984991988,-4.094831940306501L-93.9259660084888,-2.4905882810287436M-96.76933531247937,-267.7177156855683L-92.65546984991988,-4.094831940306501M-92.65546984991988,-4.094831940306501L-254.80254208727945,-4.094831940306501M-258.296406523344,-2.490588281028744L-254.80254208727945,-4.094831940306501M-254.80254208727945,-4.094831940306501L-266.11567210931815,-267.71771568556835M-269.92899801467166,-269.81882888547733L-258.296406523344,-2.490588281028744M-258.296406523344,-2.490588281028744L-93.9259660084888,-2.4905882810287436M-93.9259660084888,-2.4905882810287436L-98.15599927806251,-269.81882888547733M-266.11567210931815,-267.71771568556835L-269.92899801467166,-269.81882888547733M-266.11567210931815,-267.71771568556835L-96.76933531247937,-267.7177156855683M-98.15599927806251,-269.81882888547733L-96.76933531247937,-267.7177156855683M-98.15599927806251,-269.81882888547733L-269.92899801467166,-269.81882888547733" style="fill:none;stroke:rgb(0,0,0);stroke-opacity:1;stroke-width:2;stroke-linecap:round"></path><path d="M404.2826493284273,-56.26667357804455L417.1170191483774,-56.26667357804455M414.94504887115505,-214.2362073384531L404.2826493284273,-56.26667357804455M404.2826493284273,-56.26667357804455L531.8309781306355,-35.81536105535688M548.7145012458936,-35.81536105535688L417.1170191483774,-56.26667357804455M417.1170191483774,-56.26667357804455L428.11790756547737,-214.2362073384531M428.11790756547737,-214.2362073384531L414.94504887115505,-214.2362073384531M550.4373097270425,-244.6512855763879L414.94504887115505,-214.2362073384531M428.11790756547737,-214.2362073384531L567.9115100358374,-244.6512855763879" style="fill:none;stroke:rgb(0,102,204);stroke-opacity:1;stroke-width:1;stroke-linecap:round"></path><path d="M-285.7283597960961,13.156118845910456L-299.0180509494029,13.156118845910456M-299.0180509494029,13.156118845910456L-312.8331121987515,-260.3681389279025M-298.9294183232514,-260.3681389279025L-285.7283597960961,13.156118845910456M-312.8331121987515,-260.3681389279025L-298.9294183232514,-260.3681389279025M-329.72406083893753,26.941791568129023L-315.0696581349847,26.941791568129023M-348.46806429748176,-308.8265112189295L-329.72406083893753,26.941791568129023M-329.72406083893753,26.941791568129023L-406.1962074792935,61.27447313085142M-388.14304270243605,61.27447313085142L-315.0696581349847,26.941791568129023M-315.0696581349847,26.941791568129023L-332.9805947731493,-308.8265112189295M-332.9805947731493,-308.8265112189295L-348.46806429748176,-308.8265112189295M-435.0230351068562,-355.45783068918655L-348.46806429748176,-308.8265112189295M-332.9805947731493,-308.8265112189295L-415.6886779909959,-355.45783068918655" style="fill:none;stroke:rgb(0,0,0);stroke-opacity:1;stroke-width:2;stroke-linecap:round"></path><path d="M548.7145012458936,-35.81536105535688L531.8309781306355,-35.81536105535688M531.8309781306355,-35.81536105535688L550.4373097270425,-244.6512855763879M567.9115100358374,-244.6512855763879L548.7145012458936,-35.81536105535688M550.4373097270425,-244.6512855763879L567.9115100358374,-244.6512855763879" style="fill:none;stroke:rgb(0,102,204);stroke-opacity:1;stroke-width:1;stroke-linecap:round"></path><path d="M-142.91864563775167,59.372016237885454L-145.96409622740143,63.21747841244726M-152.64051403655589,-340.2024297406039L-142.91864563775167,59.372016237885454M-142.91864563775167,59.372016237885454L-393.02627550381675,59.372016237885454M-151.85106099011108,59.372016237885454L-133.98623028539214,59.372016237885454M-162.18054616384055,-340.2024297406039L-151.85106099011108,59.372016237885454M-151.85106099011108,59.372016237885454L-155.086852241614,63.217478412447264M-136.8413402131888,63.217478412447264L-133.98623028539214,59.372016237885454M-133.98623028539214,59.372016237885454L-143.10048190927108,-340.2024297406039M-401.4012646253537,63.217478412447264L-393.02627550381675,59.372016237885454M-393.02627550381675,59.372016237885454L-419.76141360052844,-340.2024297406039M-393.0262755038167,59.37201623788548L-401.40126462535363,63.21747841244729M-419.7614136005284,-340.202429740604L-393.0262755038167,59.37201623788548M-393.0262755038167,59.37201623788548L-928.971196645385,59.37201623788549M-153.45190048729057,61.274477569743475L-135.39873572407993,61.274477569743475M-164.00789389827094,-342.671249560819L-153.45190048729057,61.274477569743475M-153.45190048729057,61.274477569743475L-211.39431928314872,130.13410492629927M-186.52439936748416,130.13410492629927L-135.39873572407993,61.274477569743475M-135.39873572407993,61.274477569743475L-144.7128475572979,-342.671249560819M-388.14304270243605,61.27447313085142L-406.1962074792935,61.27447313085142M-406.1962074792935,61.27447313085142L-435.0230351068562,-355.45783068918655M-415.6886779909959,-355.45783068918655L-388.14304270243605,61.27447313085142M-135.39873595607608,61.27446750825478L-153.45190075021958,61.27446750825478M-153.45190075021958,61.27446750825478L-163.24495898017952,-313.4760532166052M-144.03966968839367,-313.4760532166052L-135.39873595607608,61.27446750825478M-429.3284203787803,-345.19633757336686L-401.4012646253537,63.217478412447264M-401.4012646253537,63.217478412447264L-145.96409622740143,63.21747841244726M-948.7666254781087,63.217478412447306L-401.40126462535363,63.21747841244729M-401.40126462535363,63.21747841244729L-429.3284203787803,-345.1963375733669M-136.8413402131888,63.217478412447264L-155.086852241614,63.217478412447264M-155.086852241614,63.217478412447264L-165.87688969180158,-345.19633757336686M-146.36196149276608,-345.19633757336686L-136.8413402131888,63.217478412447264M-145.96409622740143,63.21747841244726L-156.11942559228385,-345.1963375733668M-419.76141360052844,-340.2024297406039L-429.3284203787803,-345.19633757336686M-419.76141360052844,-340.2024297406039L-152.64051403655589,-340.2024297406039M-429.3284203787803,-345.1963375733669L-419.7614136005284,-340.202429740604M-992.1633412376126,-340.20242974060403L-419.7614136005284,-340.202429740604M-156.11942559228385,-345.1963375733668L-152.64051403655589,-340.2024297406039M-143.10048190927108,-340.2024297406039L-162.18054616384055,-340.2024297406039M-165.87688969180158,-345.19633757336686L-162.18054616384055,-340.2024297406039M-143.10048190927108,-340.2024297406039L-146.36196149276608,-345.19633757336686M-163.24495898017952,-313.4760532166052L-144.03966968839367,-313.4760532166052M-144.7128475572979,-342.671249560819L-164.00789389827094,-342.671249560819M-231.9613204197513,-434.479044588976L-164.00789389827094,-342.671249560819M-144.7128475572979,-342.671249560819L-204.6717533115453,-434.479044588976M-435.0230351068562,-355.45783068918655L-415.6886779909959,-355.45783068918655M-156.11942559228385,-345.1963375733668L-429.3284203787803,-345.19633757336686M-429.3284203787803,-345.1963375733669L-1014.7762663498445,-345.1963375733669M-165.87688969180158,-345.19633757336686L-146.36196149276608,-345.19633757336686" style="fill:none;stroke:rgb(0,0,0);stroke-opacity:1;stroke-width:2;stroke-linecap:round"></path><path d="M662.4561306539497,-14.870705467428913L683.4864840080432,-14.870705467428913M691.5750814519254,-276.33365874090333L662.4561306539497,-14.870705467428913M662.4561306539497,-14.870705467428913L1091.329463794079,53.89556259004555M1125.9748435970655,53.89556259004555L683.4864840080432,-14.870705467428913M683.4864840080432,-14.870705467428913L713.5298459424627,-276.33365874090333M713.5298459424627,-276.33365874090333L691.5750814519254,-276.33365874090333M1172.6707902880478,-384.3292263973385L691.5750814519254,-276.33365874090333M713.5298459424627,-276.33365874090333L1209.8984344241762,-384.3292263973385" style="fill:none;stroke:rgb(0,102,204);stroke-opacity:1;stroke-width:1;stroke-linecap:round"></path><path d="M-186.52439936748416,130.13410492629927L-211.39431928314872,130.13410492629927M-211.39431928314872,130.13410492629927L-231.9613204197513,-434.479044588976M-204.6717533115453,-434.479044588976L-186.52439936748416,130.13410492629927M-231.9613204197513,-434.479044588976L-204.6717533115453,-434.479044588976M-256.0102057087525,183.15628413965828L-225.89135797831105,183.15628413965828M-283.6140024488491,-436.85366910536516L-256.0102057087525,183.15628413965828M-256.0102057087525,183.15628413965828L-471.7225081657879,439.5119743594444M-416.2257424992247,439.5119743594444L-225.89135797831105,183.15628413965828M-225.89135797831105,183.15628413965828L-250.2476492195727,-436.85366910536516M-250.2476492195727,-436.85366910536516L-283.6140024488491,-436.85366910536516M-574.8067646950342,-761.0551733530843L-283.6140024488491,-436.85366910536516M-250.2476492195727,-436.85366910536516L-507.1824394367948,-761.0551733530843M-430.03771881016587,421.9145896521184L-458.8440731802249,458.28810485985304M-512.8257288484866,-639.1222451429186L-430.03771881016587,421.9145896521184M-430.03771881016587,421.9145896521184L-698.8112930665196,421.9145896521184M483.79243366143663,421.9145896521184L516.199582327753,458.28810485985304M576.9289449545474,-639.1222451429186L483.79243366143663,421.9145896521184M483.79243366143663,421.9145896521184L322.52828910762446,421.9145896521184M295.65093168198894,421.9145896521184L349.4056465332597,421.9145896521184M352.5676885833344,-639.1222451429186L295.65093168198894,421.9145896521184M295.65093168198894,421.9145896521184L315.45530031140447,458.28810485985304M372.8108094589327,458.28810485985304L349.4056465332597,421.9145896521184M349.4056465332597,421.9145896521184L416.6709046893953,-639.1222451429186M-745.6216189178655,458.28810485985304L-698.8112930665196,421.9145896521184M-698.8112930665196,421.9145896521184L-833.3418093787907,-639.1222451429186M344.13305488516875,458.28810485985304L322.52828910762446,421.9145896521184M322.52828910762446,421.9145896521184L384.619296636365,-639.1222451429186M-416.2257424992247,439.5119743594444L-471.7225081657879,439.5119743594444M-471.7225081657879,439.5119743594444L-574.8067646950342,-761.0551733530843M-507.1824394367948,-761.0551733530843L-416.2257424992247,439.5119743594444M-471.7225092619618,439.51196159289753L-416.2257434664369,439.51196159289753M-566.0670111143542,-659.2679423893467L-471.7225092619618,439.51196159289753M-471.7225092619618,439.51196159289753L-36024.28399484669,42690.700726313284M-31786.132936629434,42690.700726313284L-416.2257434664369,439.51196159289753M-416.2257434664369,439.51196159289753L-499.47089215972426,-659.2679423893467M305.23221187538684,439.51196159289753L360.7289776709117,439.51196159289753M366.27865425046423,-659.2679423893467L305.23221187538684,439.51196159289753M305.23221187538684,439.51196159289753L23309.83082019492,42690.700726313284M27547.981878412178,42690.700726313284L360.7289776709117,439.51196159289753M360.7289776709117,439.51196159289753L432.87477320509413,-659.2679423893467M-745.6216189178655,458.28810485985304L-458.8440731802249,458.28810485985304M-458.8440731802249,458.28810485985304L-554.3260768477861,-681.0439272742133M415.7445576358397,-681.0439272742133L344.13305488516875,458.28810485985304M344.13305488516875,458.28810485985304L516.199582327753,458.28810485985304M516.199582327753,458.28810485985304L623.6168364537594,-681.0439272742133M372.8108094589327,458.28810485985304L315.45530031140447,458.28810485985304M315.45530031140447,458.28810485985304L381.09917783285283,-681.0439272742133M450.38993743882617,-681.0439272742133L372.8108094589327,458.28810485985304" style="fill:none;stroke:rgb(0,0,0);stroke-opacity:1;stroke-width:2;stroke-linecap:round"></path></svg>