<svg viewBox="0 0 1440 1080" width="1440" height="1080" style="background-color: rgb(255, 255, 255);" xmlns="http://www.w3.org/2000/svg"><rect width="100%" height="100%" fill="#ffffff"></rect><path d="M-338.99296193864797,-67.76253972637627L-336.6699558362784,-68.21380713509144M207.18151128386341,-68.21380713509146L-336.6699558362784,-68.21380713509144M-336.6699558362784,-68.21380713509144L-342.70887881092017,-186.87507816191564M207.18151128386341,-68.21380713509146L208.61105350070625,-67.76253972637629M210.89777157595066,-186.87507816191564L207.18151128386341,-68.21380713509146M-55.22179724643817,-67.98894918512018L-48.725115217445456,-67.98894918512018M-56.215789596874046,-187.06148721743875L-55.22179724643817,-67.98894918512018M-55.22179724643817,-67.98894918512018L-58.01423075012802,-64.67037999777295M-51.18902713246591,-64.67037999777295L-48.725115217445456,-67.98894918512018M-48.725115217445456,-67.98894918512018L-49.60216729135947,-187.06148721743875" style="fill:none;stroke:rgb(0,0,0);stroke-opacity:1;stroke-width:2;stroke-linecap:round"></path><path d="M207.8938249277667,-67.98894918512023L-337.8274655076211,-67.9889491851201M1959.5917942265428,484.9742261192852L207.8938249277667,-67.98894918512023M-337.8274655076211,-67.9889491851201L-3184.3366656181324,484.97422611928647" style="fill:none;stroke:rgb(102,102,102);stroke-opacity:1;stroke-width:1;stroke-linecap:round"></path><path d="M204.6454839132703,-67.98894918512016L211.14216594226303,-67.98894918512016M208.32910262370922,-187.06148721743875L204.6454839132703,-67.98894918512016M204.6454839132703,-67.98894918512016L1928.9731724417538,484.97422611928596M1990.2104160113333,484.97422611928596L211.14216594226303,-67.98894918512016M211.14216594226303,-67.98894918512016L214.94272492922383,-187.06148721743875M152.67202768132864,-67.98894918512018L159.16870971032134,-67.98894918512018M155.4201241795926,-187.06148721743875L152.67202768132864,-67.98894918512018M152.67202768132864,-67.98894918512018L170.23014696559974,-60.44155392020201M177.4739830066891,-60.44155392020201L159.16870971032134,-67.98894918512018M159.16870971032134,-67.98894918512018L162.03374648510717,-187.06148721743875M35.731751159459805,-67.98894918512015L42.22843318845251,-67.98894918512015M36.37492268033009,-187.06148721743875L35.731751159459805,-67.98894918512015M35.731751159459805,-67.98894918512015L38.08892427259695,-63.65966842478279M45.01418323125096,-63.65966842478279L42.22843318845251,-67.98894918512015M42.22843318845251,-67.98894918512015L42.98854498584467,-187.06148721743875M-341.0758065221175,-67.98894918512015L-334.57912449312477,-67.98894918512015M-347.21517103951567,-187.06148721743875L-341.0758065221175,-67.98894918512015M-341.0758065221175,-67.98894918512015L-3214.955287402927,484.9742261192866M-3153.7180438333467,484.9742261192866L-334.57912449312477,-67.98894918512015M-334.57912449312477,-67.98894918512015L-340.6015487340011,-187.06148721743875" style="fill:none;stroke:rgb(0,0,0);stroke-opacity:1;stroke-width:2;stroke-linecap:round"></path><path d="M-221.21314155188975,-100.75372774377544L-143.13791512181106,-100.75372774377544M-223.85580725484905,-180.1712184000717L-221.21314155188975,-100.75372774377544M-221.21314155188975,-100.75372774377544L-222.74706130509747,-100.52586113468104M-144.13045143271017,-100.52586113468104L-143.13791512181106,-100.75372774377544M-143.13791512181106,-100.75372774377544L-144.84787528254947,-180.1712184000717M-292.7820991127952,-100.75372774377544L-227.71941042106297,-100.75372774377544M-296.2797448961237,-180.1712184000717L-292.7820991127952,-100.75372774377544M-292.7820991127952,-100.75372774377544L-294.8122870214525,-100.52586113468104M-229.29844546112977,-100.52586113468104L-227.71941042106297,-100.75372774377544M-227.71941042106297,-100.75372774377544L-230.43980158587405,-180.1712184000717" style="fill:none;stroke:rgb(0,102,204);stroke-opacity:1;stroke-width:1;stroke-linecap:round"></path><path d="M-338.99296193864797,-67.76253972637627L208.61105350070625,-67.76253972637629M208.61105350070625,-67.76253972637629L212.37924112038783,-187.24920571941308M-345.1162668206306,-187.24920571941308L-338.99296193864797,-67.76253972637627" style="fill:none;stroke:rgb(0,0,0);stroke-opacity:1;stroke-width:2;stroke-linecap:round"></path><path d="M-144.13045143271017,-100.52586113468104L-222.74706130509747,-100.52586113468104M-222.74706130509747,-100.52586113468104L-225.42672520049717,-180.49792626244093M-145.86435160032175,-180.49792626244093L-144.13045143271017,-100.52586113468104M-229.29844546112977,-100.52586113468104L-294.8122870214525,-100.52586113468104M-294.8122870214525,-100.52586113468104L-298.3589010006579,-180.49792626244093M-232.05692300051177,-180.49792626244093L-229.29844546112977,-100.52586113468104M-144.84787528254947,-180.1712184000717L-223.85580725484905,-180.1712184000717M-225.42672520049717,-180.49792626244093L-223.85580725484905,-180.1712184000717M-144.84787528254947,-180.1712184000717L-145.86435160032175,-180.49792626244093M-230.43980158587405,-180.1712184000717L-296.2797448961237,-180.1712184000717M-298.3589010006579,-180.49792626244093L-296.2797448961237,-180.1712184000717M-230.43980158587405,-180.1712184000717L-232.05692300051177,-180.49792626244093" style="fill:none;stroke:rgb(0,102,204);stroke-opacity:1;stroke-width:1;stroke-linecap:round"></path><path d="M212.37924112038783,-187.24920571941308L210.89777157595066,-186.87507816191564M-342.70887881092017,-186.87507816191564L210.89777157595066,-186.87507816191564M-342.70887881092017,-186.87507816191564L-345.1162668206306,-187.24920571941308M162.03374648510717,-187.06148721743875L155.4201241795926,-187.06148721743875M173.65377003306435,-193.331704666068L155.4201241795926,-187.06148721743875M162.03374648510717,-187.06148721743875L181.04329216213088,-193.331704666068M-340.6015487340011,-187.06148721743875L-347.21517103951567,-187.06148721743875M-3857.946344883513,-727.4613391789298L-347.21517103951567,-187.06148721743875M-340.6015487340011,-187.06148721743875L-3784.4616526000177,-727.4613391789298M214.94272492922383,-187.06148721743875L208.32910262370922,-187.06148721743875M2314.767806930105,-727.461339178929L208.32910262370922,-187.06148721743875M214.94272492922383,-187.06148721743875L2388.2524992136005,-727.461339178929M-49.60216729135947,-187.06148721743875L-56.215789596874046,-187.06148721743875M-59.11229189997271,-189.81528408499304L-56.215789596874046,-187.06148721743875M-49.60216729135947,-187.06148721743875L-52.15790461762298,-189.81528408499304M42.98854498584467,-187.06148721743875L36.37492268033009,-187.06148721743875M38.82062185734267,-190.65498430379293L36.37492268033009,-187.06148721743875M42.98854498584467,-187.06148721743875L45.87891674049591,-190.65498430379293" style="fill:none;stroke:rgb(0,0,0);stroke-opacity:1;stroke-width:2;stroke-linecap:round"></path><path d="M-344.5975549967518,-200.55690513292535L212.0600338441548,-200.55690513292524M-3908.0495441677067,-892.7934617195942L-344.5975549967518,-200.55690513292535M212.0600338441548,-200.55690513292524L2404.953565641665,-892.7934617195931" style="fill:none;stroke:rgb(102,102,102);stroke-opacity:1;stroke-width:1;stroke-linecap:round"></path><path d="M-225.42672520049717,-180.49792626244093L-145.86435160032175,-180.49792626244093M-298.3589010006579,-180.49792626244093L-232.05692300051177,-180.49792626244093" style="fill:none;stroke:rgb(0,102,204);stroke-opacity:1;stroke-width:1;stroke-linecap:round"></path><path d="M212.37924112038783,-187.24920571941308L-345.1162668206306,-187.24920571941308" style="fill:none;stroke:rgb(0,0,0);stroke-opacity:1;stroke-width:2;stroke-linecap:round"></path><path d="M-352.5027117152444,-99.70282313619828L-345.7883743492397,-99.70282313619828M-356.850124398269,-181.6784228370808L-352.5027117152444,-99.70282313619828M-352.5027117152444,-99.70282313619828L-385.3664495444125,-96.5411670989001M-378.026136219757,-96.5411670989001L-345.7883743492397,-99.70282313619828M-345.7883743492397,-99.70282313619828L-350.0529791716353,-181.6784228370808M-350.0529791716353,-181.6784228370808L-356.850124398269,-181.6784228370808M-390.5682463886565,-186.2198157338957L-356.850124398269,-181.6784228370808M-350.0529791716353,-181.6784228370808L-383.1288512193488,-186.2198157338957" style="fill:none;stroke:rgb(0,102,204);stroke-opacity:1;stroke-width:1;stroke-linecap:round"></path><path d="M-51.18902713246591,-64.67037999777295L-58.01423075012802,-64.67037999777295M-58.01423075012802,-64.67037999777295L-59.11229189997271,-189.81528408499304M-52.15790461762298,-189.81528408499304L-51.18902713246591,-64.67037999777295M45.01418323125096,-63.65966842478279L38.08892427259695,-63.65966842478279M38.08892427259695,-63.65966842478279L38.82062185734267,-190.65498430379293M45.87891674049591,-190.65498430379293L45.01418323125096,-63.65966842478279M-59.11229189997271,-189.81528408499304L-52.15790461762298,-189.81528408499304M38.82062185734267,-190.65498430379293L45.87891674049591,-190.65498430379293M-60.64270722424386,-61.546659764097974L-53.50827108021518,-61.546659764097974M-61.84355291185263,-192.41198080121586L-60.64270722424386,-61.546659764097974M-60.64270722424386,-61.546659764097974L-64.0270952128406,-57.524603130647456M-56.49449577603585,-57.524603130647456L-53.50827108021518,-61.546659764097974M-53.50827108021518,-61.546659764097974L-54.567840804575866,-192.41198080121586M177.4739830066891,-60.44155392020201L170.23014696559974,-60.44155392020201M170.23014696559974,-60.44155392020201L173.65377003306435,-193.331704666068M181.04329216213088,-193.331704666068L177.4739830066891,-60.44155392020201M39.841098225991324,-60.44155392020199L47.08493426708068,-60.44155392020199M40.64237170986601,-193.331704666068L39.841098225991324,-60.44155392020199M39.841098225991324,-60.44155392020199L42.79402668274129,-55.01808447571727M50.574758806876076,-55.01808447571727L47.08493426708068,-60.44155392020199M47.08493426708068,-60.44155392020199L48.03189383893259,-193.331704666068M-54.567840804575866,-192.41198080121586L-61.84355291185263,-192.41198080121586M-65.3671972056675,-195.76202150662195L-61.84355291185263,-192.41198080121586M-54.567840804575866,-192.41198080121586L-57.67693871088309,-195.76202150662195" style="fill:none;stroke:rgb(0,0,0);stroke-opacity:1;stroke-width:2;stroke-linecap:round"></path><path d="M-378.026136219757,-96.5411670989001L-385.3664495444125,-96.5411670989001M-385.3664495444125,-96.5411670989001L-390.5682463886565,-186.2198157338957M-383.1288512193488,-186.2198157338957L-378.026136219757,-96.5411670989001" style="fill:none;stroke:rgb(0,102,204);stroke-opacity:1;stroke-width:1;stroke-linecap:round"></path><path d="M173.65377003306435,-193.331704666068L181.04329216213088,-193.331704666068M48.03189383893259,-193.331704666068L40.64237170986601,-193.331704666068M43.71985899078137,-197.85349609536792L40.64237170986601,-193.331704666068M48.03189383893259,-193.331704666068L51.66892426183254,-197.85349609536792" style="fill:none;stroke:rgb(0,0,0);stroke-opacity:1;stroke-width:2;stroke-linecap:round"></path><path d="M-390.5682463886565,-186.2198157338957L-383.1288512193488,-186.2198157338957" style="fill:none;stroke:rgb(0,102,204);stroke-opacity:1;stroke-width:1;stroke-linecap:round"></path><path d="M-60.02152971539053,-57.82672180005905L-60.50197649413009,-57.22006612997696M-61.27270230934193,-195.510124161828L-60.02152971539053,-57.82672180005905M-60.02152971539053,-57.82672180005905L-112.54036821635712,-57.82672180005905M-113.44120592649381,-57.22006612997696L-112.54036821635712,-57.82672180005905M-112.54036821635712,-57.82672180005905L-114.886316830016,-195.510124161828M-157.55651550289997,-57.82672180005903L-158.8176882970913,-57.22006612997695M-181.50592948239003,-57.22006612997695L-180.0645891461714,-57.82672180005903M-160.8408435620224,-195.51012416182797L-157.55651550289997,-57.82672180005903M-157.55651550289997,-57.82672180005903L-180.0645891461714,-57.82672180005903M-180.0645891461714,-57.82672180005903L-183.8181069280256,-195.51012416182797M-56.49449577603585,-57.524603130647456L-64.0270952128406,-57.524603130647456M-64.0270952128406,-57.524603130647456L-65.3671972056675,-195.76202150662195M-57.67693871088309,-195.76202150662195L-56.49449577603585,-57.524603130647456M-64.02709521284056,-57.52460313064743L-56.494495776035805,-57.52460313064743M-65.36719720566745,-195.76202150662186L-64.02709521284056,-57.52460313064743M-64.02709521284056,-57.52460313064743L-73.38875926484857,-46.39906340902526M-64.7547875866311,-46.39906340902526L-56.494495776035805,-57.52460313064743M-56.494495776035805,-57.52460313064743L-57.67693871088306,-195.76202150662186M-184.54868620171683,-57.524603130647414L-177.01608676491205,-57.524603130647414M-188.41133312221783,-195.76202150662186L-184.54868620171683,-57.524603130647414M-184.54868620171683,-57.524603130647414L-211.5323061163282,-46.399063409025246M-202.89833443811074,-46.399063409025246L-177.01608676491205,-57.524603130647414M-177.01608676491205,-57.524603130647414L-180.72107462743344,-195.76202150662186M-115.82525929097353,-196.01597755709432L-113.44120592649381,-57.22006612997696M-113.44120592649381,-57.22006612997696L-60.50197649413009,-57.22006612997696M-60.50197649413009,-57.22006612997696L-61.773471621852615,-196.01597755709432M-185.32041486555764,-196.01597755709432L-181.50592948239003,-57.22006612997695M-181.50592948239003,-57.22006612997695L-158.8176882970913,-57.22006612997695M-158.8176882970913,-57.22006612997695L-162.15536300736292,-196.01597755709432M178.4387189203129,-56.91308164480053L186.03185589564538,-56.91308164480053M182.20413151183183,-196.27201765487416L178.4387189203129,-56.91308164480053M178.4387189203129,-56.91308164480053L182.8472049171677,-55.01808447571727M190.62793704130252,-55.01808447571727L186.03185589564538,-56.91308164480053M186.03185589564538,-56.91308164480053L189.95749881020765,-196.27201765487416M-61.773471621852615,-196.01597755709432L-61.27270230934193,-195.510124161828M-114.886316830016,-195.510124161828L-115.82525929097353,-196.01597755709432M-114.886316830016,-195.510124161828L-61.27270230934193,-195.510124161828M-162.15536300736292,-196.01597755709432L-160.8408435620224,-195.51012416182797M-183.8181069280256,-195.51012416182797L-185.32041486555764,-196.01597755709432M-183.8181069280256,-195.51012416182797L-160.8408435620224,-195.51012416182797M-65.3671972056675,-195.76202150662195L-57.67693871088309,-195.76202150662195M-57.67693871088306,-195.76202150662186L-65.36719720566745,-195.76202150662186M-75.15479892630213,-205.06740577312803L-65.36719720566745,-195.76202150662186M-57.67693871088306,-195.76202150662186L-66.31305787614895,-205.06740577312803M-180.72107462743344,-195.76202150662186L-188.41133312221783,-195.76202150662186M-216.62265572875316,-205.067405773128L-188.41133312221783,-195.76202150662186M-180.72107462743344,-195.76202150662186L-207.78091467859997,-205.067405773128M-61.773471621852615,-196.01597755709432L-115.82525929097353,-196.01597755709432M-162.15536300736292,-196.01597755709432L-185.32041486555764,-196.01597755709432M247.96240629931634,-55.340393113536365L250.01289282512283,-54.69311055678214M253.3045048192298,-197.58439553487693L247.96240629931634,-55.340393113536365M247.96240629931634,-55.340393113536365L46.49295118112172,-55.340393113536344M42.61853858269489,-55.340393113536365L50.36736377954853,-55.340393113536365M43.53671176580501,-197.584395534877L42.61853858269489,-55.340393113536365M42.61853858269489,-55.340393113536365L42.97096595431788,-54.693110556782145M50.78386885510297,-54.693110556782145L50.36736377954853,-55.340393113536365M50.36736377954853,-55.340393113536365L51.45247754140595,-197.584395534877M46.87741740471045,-54.69311055678214L46.49295118112172,-55.340393113536344M46.49295118112172,-55.340393113536344L47.494594653605496,-197.584395534877M244.0879937008895,-55.34039311353636L251.83681889774311,-55.34039311353636M249.3466219314293,-197.58439553487693L244.0879937008895,-55.34039311353636M244.0879937008895,-55.34039311353636L246.10644137473034,-54.693110556782145M253.9193442755154,-54.693110556782145L251.83681889774311,-55.34039311353636M251.83681889774311,-55.34039311353636L257.26238770703026,-197.58439553487693M189.95749881020765,-196.27201765487416L182.20413151183183,-196.27201765487416M186.8030338697026,-197.85349609536792L182.20413151183183,-196.27201765487416M189.95749881020765,-196.27201765487416L194.7520991407538,-197.85349609536792M50.574758806876076,-55.01808447571727L42.79402668274129,-55.01808447571727M42.79402668274129,-55.01808447571727L43.71985899078137,-197.85349609536792M51.66892426183254,-197.85349609536792L50.574758806876076,-55.01808447571727M190.62793704130252,-55.01808447571727L182.8472049171677,-55.01808447571727M182.8472049171677,-55.01808447571727L186.8030338697026,-197.85349609536792M194.7520991407538,-197.85349609536792L190.62793704130252,-55.01808447571727M253.9193442755154,-54.693110556782145L246.10644137473034,-54.693110556782145M246.10644137473034,-54.693110556782145L251.4533525934933,-198.12487028763124M259.4359987075725,-198.12487028763124L253.9193442755154,-54.693110556782145M50.78386885510297,-54.693110556782145L42.97096595431788,-54.693110556782145M42.97096595431788,-54.693110556782145L43.90455362743523,-198.12487028763127M51.887199741514394,-198.12487028763127L50.78386885510297,-54.693110556782145M47.89587668447483,-198.12487028763124L46.87741740471045,-54.69311055678214M46.87741740471045,-54.69311055678214L250.01289282512283,-54.69311055678214M250.01289282512283,-54.69311055678214L255.44467565053287,-198.12487028763127M47.494594653605496,-197.584395534877L47.89587668447483,-198.12487028763124M47.494594653605496,-197.584395534877L253.3045048192298,-197.58439553487693M51.45247754140595,-197.584395534877L43.53671176580501,-197.584395534877M43.90455362743523,-198.12487028763127L43.53671176580501,-197.584395534877M51.45247754140595,-197.584395534877L51.887199741514394,-198.12487028763127M255.44467565053287,-198.12487028763127L253.3045048192298,-197.58439553487693M257.26238770703026,-197.58439553487693L249.3466219314293,-197.58439553487693M251.4533525934933,-198.12487028763124L249.3466219314293,-197.58439553487693M257.26238770703026,-197.58439553487693L259.4359987075725,-198.12487028763124M43.71985899078137,-197.85349609536792L51.66892426183254,-197.85349609536792M186.8030338697026,-197.85349609536792L194.7520991407538,-197.85349609536792M43.90455362743523,-198.12487028763127L51.887199741514394,-198.12487028763127M255.44467565053287,-198.12487028763127L47.89587668447483,-198.12487028763124M251.4533525934933,-198.12487028763124L259.4359987075725,-198.12487028763124" style="fill:none;stroke:rgb(0,0,0);stroke-opacity:1;stroke-width:2;stroke-linecap:round"></path><path d="M264.04195516312956,-91.27841898442826L272.4242394540226,-91.27841898442826M268.11982319653697,-193.80244171176082L264.04195516312956,-91.27841898442826M264.04195516312956,-91.27841898442826L307.7239329744597,-84.2743775499539M317.4929467196806,-84.2743775499539L272.4242394540226,-91.27841898442826M272.4242394540226,-91.27841898442826L276.63156361547465,-193.80244171176082M276.63156361547465,-193.80244171176082L268.11982319653697,-193.80244171176082M313.27684605069055,-203.93921538743317L268.11982319653697,-193.80244171176082M276.63156361547465,-193.80244171176082L323.22214275071246,-203.93921538743317" style="fill:none;stroke:rgb(0,102,204);stroke-opacity:1;stroke-width:1;stroke-linecap:round"></path><path d="M-68.75760681496652,-46.79575866063279L-69.38882418900556,-45.998726364943934M-70.49830572167454,-213.73114628774644L-68.75760681496652,-46.79575866063279M-68.75760681496652,-46.79575866063279L-206.27282044489934,-46.79575866063279M-206.27282044489934,-46.79575866063279L-208.16647256701646,-45.998726364943934M-451.0273572285355,-45.998726364943934L-446.92444429728187,-46.795758660632806M-211.49491716502337,-213.73114628774644L-206.27282044489934,-46.79575866063279M-206.27282044489934,-46.79575866063279L-446.92444429728187,-46.795758660632806M-446.92444429728187,-46.795758660632806L-458.23898719088385,-213.73114628774644M-208.16647256701643,-45.998726364943934L-206.27282044489934,-46.79575866063279M-206.27282044489934,-46.79575866063279L-211.49491716502337,-213.73114628774644M-73.05495724090189,-46.79575866063279L-64.46025638903109,-46.79575866063279M-74.90444982927914,-213.73114628774644L-73.05495724090189,-46.79575866063279M-73.05495724090189,-46.79575866063279L-73.72562570081837,-45.998726364943934M-65.0520226771927,-45.998726364943934L-64.46025638903109,-46.79575866063279M-64.46025638903109,-46.79575866063279L-66.09216161406985,-213.73114628774644M-64.7547875866311,-46.39906340902526L-73.38875926484857,-46.39906340902526M-73.38875926484857,-46.39906340902526L-75.15479892630213,-205.06740577312803M-66.31305787614895,-205.06740577312803L-64.7547875866311,-46.39906340902526M-73.38875926484859,-46.39906340902527L-64.75478758663112,-46.39906340902527M-75.25540776020618,-214.10652151393595L-73.38875926484859,-46.39906340902527M-73.38875926484859,-46.39906340902527L-76.90258494784406,-42.2231811092714M-67.8552220128036,-42.2231811092714L-64.75478758663112,-46.39906340902527M-64.75478758663112,-46.39906340902527L-66.40183037665253,-214.10652151393595M-194.26436275989323,-46.39906340902527L-185.63039108167578,-46.39906340902527M-199.20549112995747,-214.10652151393595L-194.26436275989323,-46.39906340902527M-194.26436275989323,-46.39906340902527L-203.56566603841068,-42.2231811092714M-194.51830310337022,-42.2231811092714L-185.63039108167578,-46.39906340902527M-185.63039108167578,-46.39906340902527L-190.3519137464038,-214.10652151393595M-202.89833443811074,-46.399063409025246L-211.5323061163282,-46.399063409025246M-211.5323061163282,-46.399063409025246L-216.62265572875316,-205.067405773128M-207.78091467859997,-205.067405773128L-202.89833443811074,-46.399063409025246M-213.48612687605925,-214.48543087137395L-208.16647256701643,-45.998726364943934M-208.16647256701643,-45.998726364943934L-69.38882418900556,-45.998726364943934M-69.38882418900556,-45.998726364943934L-71.16204229201983,-214.48543087137395M-451.0273572285355,-45.998726364943934L-208.16647256701646,-45.998726364943934M-208.16647256701646,-45.998726364943934L-213.48612687605925,-214.48543087137395M-65.0520226771927,-45.998726364943934L-73.72562570081837,-45.998726364943934M-73.72562570081837,-45.998726364943934L-75.60966993527103,-214.48543087137395M-66.71441464876857,-214.48543087137395L-65.0520226771927,-45.998726364943934M-462.5532748981282,-214.48543087137395L-451.0273572285355,-45.998726364943934M-213.48612687605925,-214.48543087137395L-211.49491716502337,-213.73114628774644M-458.23898719088385,-213.73114628774644L-211.49491716502337,-213.73114628774644M-71.16204229201983,-214.48543087137395L-70.49830572167454,-213.73114628774644M-211.49491716502337,-213.73114628774644L-213.48612687605925,-214.48543087137395M-211.49491716502337,-213.73114628774644L-70.49830572167454,-213.73114628774644M-458.23898719088385,-213.73114628774644L-462.5532748981282,-214.48543087137395M-66.09216161406985,-213.73114628774644L-74.90444982927914,-213.73114628774644M-75.60966993527103,-214.48543087137395L-74.90444982927914,-213.73114628774644M-66.09216161406985,-213.73114628774644L-66.71441464876857,-214.48543087137395M-75.15479892630213,-205.06740577312803L-66.31305787614895,-205.06740577312803M-216.62265572875316,-205.067405773128L-207.78091467859997,-205.067405773128M-66.40183037665253,-214.10652151393595L-75.25540776020618,-214.10652151393595M-78.95476066976687,-218.06325054841875L-75.25540776020618,-214.10652151393595M-66.40183037665253,-214.10652151393595L-69.66596529685313,-218.06325054841875M-190.3519137464038,-214.10652151393595L-199.20549112995747,-214.10652151393595M-208.9978958905593,-218.06325054841875L-199.20549112995747,-214.10652151393595M-190.3519137464038,-214.10652151393595L-199.7091005176456,-218.06325054841875M-71.16204229201983,-214.48543087137395L-213.48612687605925,-214.48543087137395M-213.48612687605925,-214.48543087137395L-462.5532748981282,-214.48543087137395M-75.60966993527103,-214.48543087137395L-66.71441464876857,-214.48543087137395M-67.8552220128036,-42.2231811092714L-76.90258494784406,-42.2231811092714M-76.90258494784406,-42.2231811092714L-78.95476066976687,-218.06325054841875M-69.66596529685313,-218.06325054841875L-67.8552220128036,-42.2231811092714M-194.51830310337022,-42.2231811092714L-203.56566603841068,-42.2231811092714M-203.56566603841068,-42.2231811092714L-208.9978958905593,-218.06325054841875M-199.7091005176456,-218.06325054841875L-194.51830310337022,-42.2231811092714M-78.95476066976687,-218.06325054841875L-69.66596529685313,-218.06325054841875M-208.9978958905593,-218.06325054841875L-199.7091005176456,-218.06325054841875M-215.97460369047113,-36.65210866079708L-206.37573241533912,-36.65210866079708M-222.40353987302723,-232.63282152239373L-215.97460369047113,-36.65210866079708M-215.97460369047113,-36.65210866079708L-251.78765136060795,-20.573601957626504M-240.59708907791426,-20.573601957626504L-206.37573241533912,-36.65210866079708M-206.37573241533912,-36.65210866079708L-212.51893810089268,-232.63282152239373M-81.5904058386225,-36.65210866079708L-71.99153456349046,-36.65210866079708M-84.01911506314369,-232.6328215223937L-81.5904058386225,-36.65210866079708M-81.5904058386225,-36.65210866079708L-119.10124922613404,7.926329799968042M-105.08933755247122,7.926329799968042L-71.99153456349046,-36.65210866079708M-71.99153456349046,-36.65210866079708L-74.13451329100916,-232.6328215223937" style="fill:none;stroke:rgb(0,0,0);stroke-opacity:1;stroke-width:2;stroke-linecap:round"></path><path d="M-512.8732216240999,-84.27437754995391L-503.1042078788789,-84.27437754995391M-522.1280767511513,-203.93921538743322L-512.8732216240999,-84.27437754995391M-512.8732216240999,-84.27437754995391L-614.5401257336559,-74.49351260871451M-602.8345995292053,-74.49351260871451L-503.1042078788789,-84.27437754995391M-503.1042078788789,-84.27437754995391L-512.1827800511293,-203.93921538743322M317.4929467196806,-84.2743775499539L307.7239329744597,-84.2743775499539M307.7239329744597,-84.2743775499539L313.27684605069055,-203.93921538743317M323.22214275071246,-203.93921538743317L317.4929467196806,-84.2743775499539" style="fill:none;stroke:rgb(0,102,204);stroke-opacity:1;stroke-width:1;stroke-linecap:round"></path><path d="M-212.51893810089268,-232.63282152239373L-222.40353987302723,-232.63282152239373M-260.5688051211071,-249.62458407643842L-222.40353987302723,-232.63282152239373M-212.51893810089268,-232.63282152239373L-248.98796933794677,-249.62458407643842M-74.13451329100916,-232.6328215223937L-84.01911506314369,-232.6328215223937M-124.34829026509436,-280.1612087737431L-84.01911506314369,-232.6328215223937M-74.13451329100916,-232.6328215223937L-109.71907964567153,-280.1612087737431" style="fill:none;stroke:rgb(0,0,0);stroke-opacity:1;stroke-width:2;stroke-linecap:round"></path><path d="M-512.1827800511293,-203.93921538743322L-522.1280767511513,-203.93921538743322M-627.8755353336629,-218.18202396970702L-522.1280767511513,-203.93921538743322M-512.1827800511293,-203.93921538743322L-615.9160013273074,-218.18202396970702M313.27684605069055,-203.93921538743317L323.22214275071246,-203.93921538743317" style="fill:none;stroke:rgb(0,102,204);stroke-opacity:1;stroke-width:1;stroke-linecap:round"></path><path d="M-80.46992919257293,-32.006718345189114L-81.33586232761982,-30.91331264546449M-223.6736214009544,-30.9133126454645L-221.29230527957543,-32.006718345189114M-83.25567025038033,-259.7667387401883L-80.46992919257293,-32.006718345189114M-80.46992919257293,-32.006718345189114L-221.29230527957543,-32.006718345189114M-221.29230527957543,-32.006718345189114L-228.9530931885458,-259.7667387401883M-231.50308786208564,-261.1717661627724L-223.6736214009544,-30.9133126454645M-223.6736214009544,-30.9133126454645L-81.33586232761982,-30.91331264546449M-81.33586232761982,-30.91331264546449L-84.18294104075848,-261.1717661627724M-84.18294104075848,-261.1717661627724L-83.25567025038033,-259.7667387401883M-228.9530931885458,-259.7667387401883L-231.50308786208564,-261.1717661627724M-228.9530931885458,-259.7667387401883L-83.25567025038033,-259.7667387401883M-84.18294104075848,-261.1717661627724L-231.50308786208564,-261.1717661627724" style="fill:none;stroke:rgb(0,0,0);stroke-opacity:1;stroke-width:2;stroke-linecap:round"></path><path d="M343.2110422136891,-78.58431505839683L354.1066308553935,-78.58431505839683M350.13294558606606,-212.21261154919523L343.2110422136891,-78.58431505839683M343.2110422136891,-78.58431505839683L420.86687398729146,-66.1328490162662M434.2277271297452,-66.1328490162662L354.1066308553935,-78.58431505839683M354.1066308553935,-78.58431505839683L361.24827719197293,-212.21261154919523M361.24827719197293,-212.21261154919523L350.13294558606606,-212.21261154919523M431.32319383790735,-230.43806396351152L350.13294558606606,-212.21261154919523M361.24827719197293,-212.21261154919523L445.01599364228537,-230.43806396351152" style="fill:none;stroke:rgb(0,102,204);stroke-opacity:1;stroke-width:1;stroke-linecap:round"></path><path d="M-240.59708907791426,-20.573601957626504L-251.78765136060795,-20.573601957626504M-251.78765136060795,-20.573601957626504L-260.5688051211071,-249.62458407643842M-248.98796933794677,-249.62458407643842L-240.59708907791426,-20.573601957626504M-260.5688051211071,-249.62458407643842L-248.98796933794677,-249.62458407643842" style="fill:none;stroke:rgb(0,0,0);stroke-opacity:1;stroke-width:2;stroke-linecap:round"></path><path d="M-602.8345995292053,-74.49351260871451L-614.5401257336559,-74.49351260871451M-614.5401257336559,-74.49351260871451L-627.8755353336629,-218.18202396970702M-615.9160013273074,-218.18202396970702L-602.8345995292053,-74.49351260871451M-627.8755353336629,-218.18202396970702L-615.9160013273074,-218.18202396970702" style="fill:none;stroke:rgb(0,102,204);stroke-opacity:1;stroke-width:1;stroke-linecap:round"></path><path d="M-271.05009448830265,-11.925595724244703L-259.0034236221559,-11.925595724244703M-282.36527869844053,-285.7390838900155L-271.05009448830265,-11.925595724244703M-271.05009448830265,-11.925595724244703L-315.26801244508084,7.926334204128781M-301.25610078085504,7.926334204128781L-259.0034236221559,-11.925595724244703M-259.0034236221559,-11.925595724244703L-269.8157107562876,-285.7390838900155M-269.8157107562876,-285.7390838900155L-282.36527869844053,-285.7390838900155M-330.68111527572927,-311.769145362398L-282.36527869844053,-285.7390838900155M-269.8157107562876,-285.7390838900155L-315.98417681903015,-311.769145362398" style="fill:none;stroke:rgb(0,0,0);stroke-opacity:1;stroke-width:2;stroke-linecap:round"></path><path d="M434.2277271297452,-66.1328490162662L420.86687398729146,-66.1328490162662M420.86687398729146,-66.1328490162662L431.32319383790735,-230.43806396351152M445.01599364228537,-230.43806396351152L434.2277271297452,-66.1328490162662M431.32319383790735,-230.43806396351152L445.01599364228537,-230.43806396351152" style="fill:none;stroke:rgb(0,102,204);stroke-opacity:1;stroke-width:1;stroke-linecap:round"></path><path d="M-111.27019645886759,6.884495620811864L-112.93271806995581,8.983746218263361M-310.5649746923784,8.983746218263361L-305.99304026188577,6.884495620811864M-116.50583426942806,-300.85713872792013L-111.27019645886759,6.884495620811864M-111.27019645886759,6.884495620811864L-305.99304026188577,6.884495620811864M-305.99304026188577,6.884495620811864L-320.39104424092704,-300.85713872792013M-305.9930402618859,6.884495620811866L-310.56497469237854,8.983746218263365M-320.3910442409272,-300.8571387279202L-305.9930402618859,6.884495620811866M-305.9930402618859,6.884495620811866L-723.2562769826393,6.884495620811867M-118.22458373754682,6.884495620811864L-104.3158091801884,6.884495620811864M-123.78744891126732,-300.85713872792013L-118.22458373754682,6.884495620811864M-118.22458373754682,6.884495620811864L-119.99101294932807,8.983746218263361M-105.8744231905836,8.983746218263361L-104.3158091801884,6.884495620811864M-104.3158091801884,6.884495620811864L-109.22421962758882,-300.85713872792013M-119.10124908259218,7.926337681097796L-105.08933742581662,7.926337681097796M-124.74889078900428,-302.15608512931834L-119.10124908259218,7.926337681097796M-119.10124908259218,7.926337681097796L-147.54800409407954,41.73288201083297M-130.189415377129,41.73288201083297L-105.08933742581662,7.926337681097796M-105.08933742581662,7.926337681097796L-110.07255069618024,-302.15608512931834M-301.25610078085504,7.926334204128781L-315.26801244508084,7.926334204128781M-315.26801244508084,7.926334204128781L-330.68111527572927,-311.769145362398M-315.98417681903015,-311.769145362398L-301.25610078085504,7.926334204128781M-105.08933755247122,7.926329799968042L-119.10124922613404,7.926329799968042M-119.10124922613404,7.926329799968042L-124.34829026509436,-280.1612087737431M-109.71907964567153,-280.1612087737431L-105.08933755247122,7.926329799968042M-325.40687720048925,-303.47536698730937L-310.5649746923784,8.983746218263361M-310.5649746923784,8.983746218263361L-112.93271806995581,8.983746218263361M-112.93271806995581,8.983746218263361L-118.32977352745067,-303.47536698730937M-734.0626674547128,8.983746218263365L-310.56497469237854,8.983746218263365M-310.56497469237854,8.983746218263365L-325.4068772004894,-303.4753669873094M-105.8744231905836,8.983746218263361L-119.99101294932807,8.983746218263361M-119.99101294932807,8.983746218263361L-125.72538437291637,-303.47536698730937M-110.93416268198503,-303.47536698730937L-105.8744231905836,8.983746218263361M-325.4068772004894,-303.4753669873094L-320.3910442409272,-300.8571387279202M-757.2879227512823,-300.8571387279202L-320.3910442409272,-300.8571387279202M-118.32977352745067,-303.47536698730937L-116.50583426942806,-300.85713872792013M-320.39104424092704,-300.85713872792013L-325.40687720048925,-303.47536698730937M-320.39104424092704,-300.85713872792013L-116.50583426942806,-300.85713872792013M-109.22421962758882,-300.85713872792013L-123.78744891126732,-300.85713872792013M-125.72538437291637,-303.47536698730937L-123.78744891126732,-300.85713872792013M-109.22421962758882,-300.85713872792013L-110.93416268198503,-303.47536698730937M-124.34829026509436,-280.1612087737431L-109.71907964567153,-280.1612087737431M-110.07255069618024,-302.15608512931834L-124.74889078900428,-302.15608512931834M-156.31494264392992,-344.8030827406767L-124.74889078900428,-302.15608512931834M-110.07255069618024,-302.15608512931834L-137.92494939170288,-344.8030827406767M-330.68111527572927,-311.769145362398L-315.98417681903015,-311.769145362398M-118.32977352745067,-303.47536698730937L-325.40687720048925,-303.47536698730937M-325.4068772004894,-303.4753669873094L-769.1435279284293,-303.4753669873094M-125.72538437291637,-303.47536698730937L-110.93416268198503,-303.47536698730937" style="fill:none;stroke:rgb(0,0,0);stroke-opacity:1;stroke-width:2;stroke-linecap:round"></path><path d="M490.18612382049264,-55.01808447571726L505.74758806876224,-55.01808447571726M504.42881991212914,-246.84869378572432L490.18612382049264,-55.01808447571726M490.18612382049264,-55.01808447571726L665.588187296196,-26.893824040845796M686.7179710198847,-26.893824040845796L505.74758806876224,-55.01808447571726M505.74758806876224,-55.01808447571726L520.4424332426729,-246.84869378572432M520.4424332426729,-246.84869378572432L504.42881991212914,-246.84869378572432M692.1232645305957,-288.9820317478705L504.42881991212914,-246.84869378572432M520.4424332426729,-246.84869378572432L714.0954316585511,-288.9820317478705" style="fill:none;stroke:rgb(0,102,204);stroke-opacity:1;stroke-width:1;stroke-linecap:round"></path><path d="M-130.189415377129,41.73288201083297L-147.54800409407954,41.73288201083297M-147.54800409407954,41.73288201083297L-156.31494264392992,-344.8030827406767M-137.92494939170288,-344.8030827406767L-130.189415377129,41.73288201083297M-156.31494264392992,-344.8030827406767L-137.92494939170288,-344.8030827406767M-165.82828777361823,63.45744146666187L-146.3190774473102,63.45744146666187M-175.87683240231385,-329.4290529525114L-165.82828777361823,63.45744146666187M-165.82828777361823,63.45744146666187L-226.6765707257486,135.77044075880534M-200.00873887566053,135.77044075880534L-146.3190774473102,63.45744146666187M-146.3190774473102,63.45744146666187L-155.1854403549828,-329.4290529525114M-155.1854403549828,-329.4290529525114L-175.87683240231385,-329.4290529525114M-245.87937465770028,-407.3668743643419L-175.87683240231385,-329.4290529525114M-155.1854403549828,-329.4290529525114L-216.95238940385315,-407.3668743643419" style="fill:none;stroke:rgb(0,0,0);stroke-opacity:1;stroke-width:2;stroke-linecap:round"></path><path d="M686.7179710198847,-26.893824040845796L665.588187296196,-26.893824040845796M665.588187296196,-26.893824040845796L692.1232645305957,-288.9820317478705M714.0954316585511,-288.9820317478705L686.7179710198847,-26.893824040845796M692.1232645305957,-288.9820317478705L714.0954316585511,-288.9820317478705" style="fill:none;stroke:rgb(0,102,204);stroke-opacity:1;stroke-width:1;stroke-linecap:round"></path><path d="M-210.3736717459908,132.02152676379876L-216.39663985323799,139.62667246291446M-351.6445397615116,139.62667246291446L-341.857216587235,132.02152676379876M-226.5909141075661,-362.50673647062547L-210.3736717459908,132.02152676379876M-210.3736717459908,132.02152676379876L-341.857216587235,132.02152676379876M-341.857216587235,132.02152676379876L-368.21023542479486,-362.50673647062547M-499.63747039672813,132.0215267637988L-513.9420196514402,139.62667246291448M-649.1899195597138,139.62667246291448L-631.1210152379723,132.0215267637988M-538.1534210054695,-362.5067364706254L-499.63747039672813,132.0215267637988M-499.63747039672813,132.0215267637988L-631.1210152379723,132.0215267637988M-631.1210152379723,132.0215267637988L-679.7727423226982,-362.5067364706254M841.4946869839628,132.0215267637987L394.45063452373256,132.02152676379876M236.67038071423946,132.02152676379876L243.4462198348925,139.62667246291446M162.2974798899283,139.62667246291446L157.7802538094929,132.02152676379876M254.91477837101166,-362.50673647062547L236.67038071423946,132.02152676379876M236.67038071423946,132.02152676379876L157.7802538094929,132.02152676379876M157.7802538094929,132.02152676379876L169.9431855806744,-362.50673647062547M144.63189932536844,132.02152676379876L170.9286082936173,132.02152676379876M155.78125344895145,-362.50673647062547L144.63189932536844,132.02152676379876M144.63189932536844,132.02152676379876L148.77268989910087,139.62667246291446M175.82226988075558,139.62667246291446L170.9286082936173,132.02152676379876M170.9286082936173,132.02152676379876L184.10511771239717,-362.50673647062547M405.74369972482106,139.62667246291448L394.45063452373256,132.02152676379876M394.45063452373256,132.02152676379876L424.8579639516862,-362.50673647062547M-200.00873887566053,135.77044075880534L-226.6765707257486,135.77044075880534M-226.6765707257486,135.77044075880534L-245.87937465770028,-407.3668743643419M-216.95238940385315,-407.3668743643419L-200.00873887566053,135.77044075880534M-653.3618809883361,135.77043427072175L-626.6940491112612,135.77043427072175M-704.4945499352493,-365.9898662949889L-653.3618809883361,135.77043427072175M-653.3618809883361,135.77043427072175L-1500.312467454699,484.9742261192863M-1439.0752238851192,484.9742261192863L-626.6940491112612,135.77043427072175M-626.6940491112612,135.77043427072175L-675.7396703460554,-365.9898662949889M-226.67657095513712,135.77043427072172L-200.00873907806218,135.77043427072172M-244.4164765081478,-365.9898662949889L-226.67657095513712,135.77043427072172M-226.67657095513712,135.77043427072172L-520.5165703414261,484.97422611928624M-459.27932677184657,484.97422611928624L-200.00873907806218,135.77043427072172M-200.00873907806218,135.77043427072172L-215.66159691895396,-365.9898662949889M146.67307532391195,135.77043427072172L173.34090720098686,135.77043427072172M158.1518377405659,-365.9898662949889L146.67307532391195,135.77043427072172M146.67307532391195,135.77043427072172L336.80483963268705,484.97422611928624M398.04208320226655,484.97422611928624L173.34090720098686,135.77043427072172M173.34090720098686,135.77043427072172L186.90671732975974,-365.9898662949889M520.0227216029612,135.7704342707217L546.6905534800361,135.7704342707217M560.7201519892797,-365.9898662949889L520.0227216029612,135.7704342707217M520.0227216029612,135.7704342707217L568.1305504737196,160.6915859356853M597.2654504980129,160.6915859356853L546.6905534800361,135.7704342707217M546.6905534800361,135.7704342707217L589.4750315784735,-365.9898662949889M-351.6445397615116,139.62667246291446L-216.39663985323799,139.62667246291446M-216.39663985323799,139.62667246291446L-233.5937238150847,-369.5806425156902M-649.1899195597138,139.62667246291448L-513.9420196514402,139.62667246291448M-513.9420196514402,139.62667246291448L-554.7850940608262,-369.5806425156902M437.98823215328355,-369.5806425156902L405.74369972482106,139.62667246291448M405.74369972482106,139.62667246291448L865.5865594129513,139.6266724629144M162.2974798899283,139.62667246291446L243.4462198348925,139.62667246291446M243.4462198348925,139.62667246291446L262.79293929197,-369.5806425156902M175.82226988075558,139.62667246291446L148.77268989910087,139.62667246291446M148.77268989910087,139.62667246291446L160.59568512287046,-369.5806425156902M189.79490059975603,-369.5806425156902L175.82226988075558,139.62667246291446M-379.5898011995125,-369.5806425156902L-351.6445397615116,139.62667246291446M-700.781171445254,-369.5806425156902L-649.1899195597138,139.62667246291448M175.19529286131333,-369.5806425156902L162.2974798899283,139.62667246291446M-233.5937238150847,-369.5806425156902L-226.5909141075661,-362.50673647062547M-368.21023542479486,-362.50673647062547L-226.5909141075661,-362.50673647062547M-554.7850940608262,-369.5806425156902L-538.1534210054695,-362.5067364706254M-679.7727423226982,-362.5067364706254L-538.1534210054695,-362.5067364706254M262.79293929197,-369.5806425156902L254.91477837101166,-362.50673647062547M169.9431855806744,-362.50673647062547L254.91477837101166,-362.50673647062547M-368.21023542479486,-362.50673647062547L-379.5898011995125,-369.5806425156902M-679.7727423226982,-362.5067364706254L-700.781171445254,-369.5806425156902M424.8579639516862,-362.50673647062547L437.98823215328355,-369.5806425156902M424.8579639516862,-362.50673647062547L906.3636564302636,-362.50673647062547M169.9431855806744,-362.50673647062547L175.19529286131333,-369.5806425156902M184.10511771239717,-362.50673647062547L155.78125344895145,-362.50673647062547M160.59568512287046,-369.5806425156902L155.78125344895145,-362.50673647062547M184.10511771239717,-362.50673647062547L189.79490059975603,-369.5806425156902M-675.7396703460554,-365.9898662949889L-704.4945499352493,-365.9898662949889M-1800.3749609456386,-727.461339178929L-704.4945499352493,-365.9898662949889M-675.7396703460554,-365.9898662949889L-1726.8902686621432,-727.461339178929M-215.66159691895396,-365.9898662949889L-244.4164765081478,-365.9898662949889M-624.6198844097114,-727.461339178929L-244.4164765081478,-365.9898662949889M-215.66159691895396,-365.9898662949889L-551.135192126216,-727.461339178929M186.90671732975974,-365.9898662949889L158.1518377405659,-365.9898662949889M404.1658075592245,-727.461339178929L158.1518377405659,-365.9898662949889M186.90671732975974,-365.9898662949889L477.65049984271997,-727.461339178929M589.4750315784735,-365.9898662949889L560.7201519892797,-365.9898662949889M617.0604543422696,-389.3385021032817L560.7201519892797,-365.9898662949889M589.4750315784735,-365.9898662949889L648.7045802059757,-389.3385021032817M-245.87937465770028,-407.3668743643419L-216.95238940385315,-407.3668743643419M597.2654504980129,160.6915859356853L568.1305504737196,160.6915859356853M568.1305504737196,160.6915859356853L617.0604543422696,-389.3385021032817M648.7045802059757,-389.3385021032817L597.2654504980129,160.6915859356853M934.3748952603381,-369.58064251569033L437.98823215328355,-369.5806425156902M-233.5937238150847,-369.5806425156902L-379.5898011995125,-369.5806425156902M-554.7850940608262,-369.5806425156902L-700.781171445254,-369.5806425156902M262.79293929197,-369.5806425156902L175.19529286131333,-369.5806425156902M160.59568512287046,-369.5806425156902L189.79490059975603,-369.5806425156902M617.0604543422696,-389.3385021032817L648.7045802059757,-389.3385021032817M697.1115403109967,227.5072141833716L732.8608500705349,227.5072141833716M772.2493111229604,-453.6521097189385L697.1115403109967,227.5072141833716M697.1115403109967,227.5072141833716L1194.1262496068005,484.9742261192862M189.86475518223682,505.6925372146076L177.9449947672085,465.5566161689623M1364.244959881932,465.55661616896197L177.9449947672085,465.5566161689623M177.9449947672085,465.5566161689623L212.20178520367648,-705.2318100978312M-177.94499476720878,465.556616168962L-189.8647551822371,505.6925372146072M-212.20178520367676,-705.2318100978306L-177.94499476720878,465.556616168962M-177.94499476720878,465.556616168962L-3084.379909298284,465.5566161689625M-459.27932677184657,484.97422611928624L-520.5165703414261,484.97422611928624M-520.5165703414261,484.97422611928624L-624.6198844097114,-727.461339178929M-551.135192126216,-727.461339178929L-459.27932677184657,484.97422611928624M398.04208320226655,484.97422611928624L336.80483963268705,484.97422611928624M336.80483963268705,484.97422611928624L404.1658075592245,-727.461339178929M477.65049984271997,-727.461339178929L398.04208320226655,484.97422611928624" style="fill:none;stroke:rgb(0,0,0);stroke-opacity:1;stroke-width:2;stroke-linecap:round"></path><path d="M-3184.3366656181324,484.97422611928647L1959.5917942265428,484.9742261192852" style="fill:none;stroke:rgb(102,102,102);stroke-opacity:1;stroke-width:1;stroke-linecap:round"></path><path d="M229.37418400628613,-751.489789688555L189.86475518223682,505.6925372146076M189.86475518223682,505.6925372146076L1455.629789730482,505.6925372146072M-3290.989089825442,505.69253721460785L-189.8647551822371,505.6925372146072M-189.8647551822371,505.6925372146072L-229.37418400628644,-751.4897896885544" style="fill:none;stroke:rgb(0,0,0);stroke-opacity:1;stroke-width:2;stroke-linecap:round"></path></svg>