<svg viewBox="0 0 1440 1080" width="1440" height="1080" style="background-color: rgb(255, 255, 255);" xmlns="http://www.w3.org/2000/svg"><rect width="100%" height="100%" fill="#ffffff"></rect><path d="M-237.62250708815026,-85.07568917700223L-244.9105292508829,-85.51994865051138M-244.9105292508829,68.4159589204091L-237.62250708815026,68.06055134160178M-237.62250708815026,-85.07568917700223L1676.8328512848345,-262.03312266516684M1676.8328512848345,209.62649813213346L-237.62250708815026,68.06055134160178M-237.62250708815026,68.06055134160178L-237.62250708815026,-85.07568917700223M-238.86335568913276,-85.51994865051138L-243.638266761268,-85.07568917700223M-243.638266761268,68.06055134160178L-238.86335568913276,68.4159589204091M-243.638266761268,-85.07568917700223L-243.638266761268,68.06055134160178M-1328.8036890862459,-150.94073886242333L-243.638266761268,-85.07568917700223M-243.638266761268,68.06055134160178L-1328.8036890862459,120.75259108993865" style="fill:none;stroke:rgb(0,0,0);stroke-opacity:1;stroke-width:2;stroke-linecap:round"></path><path d="M-241.25702855732553,68.23779236072045L-1329.594290715927,121.31163086350332M1681.0167151091057,211.31703440739233L-241.25702855732553,68.23779236072045M-1329.594290715927,-181.9674462952549L-241.25702855732553,-102.3566885410807M-241.25702855732553,-102.3566885410807L1681.0167151091057,-316.97555161108863" style="fill:none;stroke:rgb(102,102,102);stroke-opacity:1;stroke-width:1;stroke-linecap:round"></path><path d="M-238.86335568913276,-85.51994865051138L-1330.3922467793723,-152.34483875881796M-1330.3922467793723,121.87587100705434L-238.86335568913276,68.4159589204091M-238.86335568913276,68.4159589204091L-238.86335568913276,-85.51994865051138M-244.9105292508829,-85.51994865051138L-244.9105292508829,68.4159589204091M1685.2686092394633,-266.2938238467143L-244.9105292508829,-85.51994865051138M-244.9105292508829,68.4159589204091L1685.2686092394633,213.03505907737141M-298.13876699767053,-88.76460794890477L-306.0743119789938,-89.24833878241378M-306.0743119789938,71.39867102593101L-298.13876699767053,71.01168635912381M-298.13876699767053,-88.76460794890477L-222.0418669908129,-96.61988298863085M-222.0418669908129,77.29590639090468L-298.13876699767053,71.01168635912381M-298.13876699767053,71.01168635912381L-298.13876699767053,-88.76460794890477M-306.0743119789938,-89.24833878241378L-306.0743119789938,71.39867102593101M-230.2322266588602,-97.19329475710937L-306.0743119789938,-89.24833878241378M-306.0743119789938,71.39867102593101L-230.2322266588602,77.75463580568749M-230.2322266588602,-97.19329475710937L-222.0418669908129,-96.61988298863085M-222.0418669908129,77.29590639090468L-230.2322266588602,77.75463580568749M-222.0418669908129,-96.61988298863085L-222.0418669908129,77.29590639090468M-109.63633013729354,-96.90574063060903L-117.18198529927247,-97.48256051531506M-117.18198529927247,77.98604841225203L-109.63633013729354,77.52459250448722M-109.63633013729354,-96.90574063060903L-103.39586938171101,-97.48256051531506M-103.39586938171101,77.98604841225203L-109.63633013729354,77.52459250448722M-109.63633013729354,77.52459250448722L-109.63633013729354,-96.90574063060903M-230.2322266588602,77.75463580568749L-230.2322266588602,-97.19329475710937M-107.16133089352256,-97.77355323327122L-113.39796238421478,-97.19329475710937M-113.39796238421478,77.75463580568749L-107.16133089352256,78.21884258661697M-113.39796238421478,-97.19329475710937L-113.39796238421478,77.75463580568749M-345.37848298732916,-114.92680818647669L-113.39796238421478,-97.19329475710937M-113.39796238421478,77.75463580568749L-345.37848298732916,91.94144654918135M-110.94934007905755,-98.06628842259238L-103.39586938171101,-97.48256051531506M-103.39586938171101,77.98604841225203L-110.94934007905755,78.45303073807389M-117.18198529927247,-97.48256051531506L-117.18198529927247,77.98604841225203M-110.94934007905755,-98.06628842259238L-117.18198529927247,-97.48256051531506M-117.18198529927247,77.98604841225203L-110.94934007905755,78.45303073807389M-103.39586938171101,-97.48256051531506L-103.39586938171101,77.98604841225203M-107.16133089352256,-97.77355323327122L-339.63533631533033,-115.73901177790057M-339.63533631533033,92.59120942232045L-107.16133089352256,78.21884258661697M-107.16133089352256,78.21884258661697L-107.16133089352256,-97.77355323327122M-110.94934007905755,78.45303073807389L-110.94934007905755,-98.06628842259238M-455.5628214920309,-98.36078178121879L-465.31264964047307,-98.95510674666423M-465.31264964047307,79.16408539733136L-455.5628214920309,78.68862542497502M-455.5628214920309,-98.36078178121879L-415.4216263158518,-103.98139788300271M-415.4216263158518,83.18511830640216L-455.5628214920309,78.68862542497502M-455.5628214920309,78.68862542497502L-455.5628214920309,-98.36078178121879M-465.31264964047307,-98.95510674666423L-465.31264964047307,79.16408539733136M-425.4756541969447,-104.64581576084939L-465.31264964047307,-98.95510674666423M-465.31264964047307,79.16408539733136L-425.4756541969447,83.71665260867951M-187.69354148313036,-100.16556676803015L-195.97494012041213,-100.7819702558334M-195.97494012041213,80.62557620466671L-187.69354148313036,80.1324534144241M-187.69354148313036,-100.16556676803015L-169.5563415655223,-102.03782035247932M-169.5563415655223,81.63025628198343L-187.69354148313036,80.1324534144241M-187.69354148313036,80.1324534144241L-187.69354148313036,-100.16556676803015M-195.97494012041213,-100.7819702558334L-195.97494012041213,80.62557620466671M-177.8797903344294,-102.67755590327856L-195.97494012041213,-100.7819702558334M-195.97494012041213,80.62557620466671L-177.8797903344294,82.14204472262284M-177.8797903344294,-102.67755590327856L-169.5563415655223,-102.03782035247932M-169.5563415655223,81.63025628198343L-177.8797903344294,82.14204472262284M-169.5563415655223,-102.03782035247932L-169.5563415655223,81.63025628198343" style="fill:none;stroke:rgb(0,0,0);stroke-opacity:1;stroke-width:2;stroke-linecap:round"></path><path d="M-54.11372603154971,-91.83403831723136L-61.71339664663882,-92.4098003129507M-61.71339664663882,30.803266770983566L-54.11372603154971,30.611346105743785M-54.11372603154971,-91.83403831723136L68.11963159265649,-102.00251314820507M68.11963159265649,34.00083771606836L-54.11372603154971,30.611346105743785M-54.11372603154971,30.611346105743785L-54.11372603154971,-91.83403831723136M-61.71339664663882,-92.4098003129507L-61.71339664663882,30.803266770983566M60.52441134539165,-102.71333205516122L-61.71339664663882,-92.4098003129507M-61.71339664663882,30.803266770983566L60.52441134539165,34.23777735172041" style="fill:none;stroke:rgb(0,102,204);stroke-opacity:1;stroke-width:1;stroke-linecap:round"></path><path d="M-177.8797903344294,82.14204472262284L-177.8797903344294,-102.67755590327856M-425.4756541969447,-104.64581576084939L-415.4216263158518,-103.98139788300271M-415.4216263158518,83.18511830640216L-425.4756541969447,83.71665260867951M-415.4216263158518,-103.98139788300271L-415.4216263158518,83.18511830640216M-425.4756541969447,83.71665260867951L-425.4756541969447,-104.64581576084939M-603.6962760490189,-107.39062404310117L-615.324856993733,-108.09947304668597M-615.324856993733,86.47957843734876L-603.6962760490189,85.91249923448092M-603.6962760490189,-107.39062404310117L-577.0271198484485,-112.5571832754153M-577.0271198484485,90.04574662033224L-603.6962760490189,85.91249923448092M-603.6962760490189,85.91249923448092L-603.6962760490189,-107.39062404310117M-386.0112456917208,-108.099473046686L-396.27068079316194,-108.81774197058425M-396.27068079316194,87.0541935764674L-386.0112456917208,86.47957843734878M-386.0112456917208,-108.099473046686L-337.25193044645084,-114.92680818647669M-337.25193044645084,91.94144654918135L-386.0112456917208,86.47957843734878M-386.0112456917208,86.47957843734878L-386.0112456917208,-108.099473046686M-615.324856993733,-108.09947304668597L-615.324856993733,86.47957843734876M-589.0344614188541,-113.33612572022787L-615.324856993733,-108.09947304668597M-615.324856993733,86.47957843734876L-589.0344614188541,90.66890057618228M-396.27068079316194,-108.81774197058425L-396.27068079316194,87.0541935764674M-347.81932032292866,-115.73901177790057L-396.27068079316194,-108.81774197058425M-396.27068079316194,87.0541935764674L-347.81932032292866,92.59120942232045M-589.0344614188541,-113.33612572022787L-577.0271198484485,-112.5571832754153M-577.0271198484485,90.04574662033224L-589.0344614188541,90.66890057618228M-577.0271198484485,-112.5571832754153L-577.0271198484485,90.04574662033224" style="fill:none;stroke:rgb(0,0,0);stroke-opacity:1;stroke-width:2;stroke-linecap:round"></path><path d="M60.52441134539165,-102.71333205516122L68.11963159265649,-102.00251314820507M68.11963159265649,34.00083771606836L60.52441134539165,34.23777735172041M68.11963159265649,-102.00251314820507L68.11963159265649,34.00083771606836" style="fill:none;stroke:rgb(0,102,204);stroke-opacity:1;stroke-width:1;stroke-linecap:round"></path><path d="M-589.0344614188541,90.66890057618228L-589.0344614188541,-113.33612572022787" style="fill:none;stroke:rgb(0,0,0);stroke-opacity:1;stroke-width:2;stroke-linecap:round"></path><path d="M60.52441134539165,34.23777735172041L60.52441134539165,-102.71333205516122" style="fill:none;stroke:rgb(0,102,204);stroke-opacity:1;stroke-width:1;stroke-linecap:round"></path><path d="M-340.12179690319454,-114.52496619981068L-350.6721879875492,-115.33148004628823M-350.6721879875492,92.26518403703058L-340.12179690319454,91.61997295984854M-340.12179690319454,-114.52496619981068L-334.36185366254693,-115.33148004628823M-334.36185366254693,92.26518403703058L-340.12179690319454,91.61997295984854M-340.12179690319454,91.61997295984854L-340.12179690319454,-114.52496619981068M-347.81932032292866,-115.73901177790057L-337.25193044645084,-114.92680818647669M-337.25193044645084,91.94144654918135L-347.81932032292866,92.59120942232045M-337.25193044645084,-114.92680818647669L-337.25193044645084,91.94144654918135M-345.37848298732916,-114.92680818647669L-339.63533631533033,-115.73901177790057M-339.63533631533033,92.59120942232045L-345.37848298732916,91.94144654918135M-345.37848298732916,91.94144654918135L-345.37848298732916,-114.92680818647669M-344.9462195543037,-116.14943380548178L-334.36185366254693,-115.33148004628823M-334.36185366254693,92.26518403703058L-344.9462195543037,92.91954704438541M-350.6721879875492,-115.33148004628823L-350.6721879875492,92.26518403703058M-344.9462195543037,-116.14943380548178L-350.6721879875492,-115.33148004628823M-350.6721879875492,92.26518403703058L-344.9462195543037,92.91954704438541M-334.36185366254693,-115.33148004628823L-334.36185366254693,92.26518403703058M-347.81932032292866,92.59120942232045L-347.81932032292866,-115.73901177790057M-339.63533631533033,-115.73901177790057L-339.63533631533033,92.59120942232045M-344.9462195543037,92.91954704438541L-344.9462195543037,-116.14943380548178M-552.0375879247189,-117.39835244855145L-564.3846733037793,-118.24599398247601M-564.3846733037793,94.5967951859808L-552.0375879247189,93.91868195884116M-552.0375879247189,-117.39835244855145L-520.0226970262049,-123.60052955904096M-520.0226970262049,98.88042364723276L-552.0375879247189,93.91868195884116M-552.0375879247189,93.91868195884116L-552.0375879247189,-117.39835244855145M-564.3846733037793,-118.24599398247601L-564.3846733037793,94.5967951859808M-532.7835824566336,-124.54045754047853L-564.3846733037793,-118.24599398247601M-564.3846733037793,94.5967951859808L-532.7835824566336,99.63236603238282" style="fill:none;stroke:rgb(0,0,0);stroke-opacity:1;stroke-width:2;stroke-linecap:round"></path><path d="M159.28345082446452,-109.58634312204933L151.80217527202487,-110.40721460610962M151.80217527202487,36.802404868703206L159.28345082446452,36.52878104068311M159.28345082446452,-109.58634312204933L337.1490626927685,-124.38281139169312M337.1490626927685,41.460937130564375L159.28345082446452,36.52878104068311M159.28345082446452,36.52878104068311L159.28345082446452,-109.58634312204933M151.80217527202487,-110.40721460610962L151.80217527202487,36.802404868703206M330.16281014483326,-125.4413885099203L151.80217527202487,-110.40721460610962M151.80217527202487,36.802404868703206L330.16281014483326,41.813796169973436" style="fill:none;stroke:rgb(0,102,204);stroke-opacity:1;stroke-width:1;stroke-linecap:round"></path><path d="M-532.7835824566336,-124.54045754047853L-520.0226970262049,-123.60052955904096M-520.0226970262049,98.88042364723276L-532.7835824566336,99.63236603238282M-520.0226970262049,-123.60052955904096L-520.0226970262049,98.88042364723276M-523.9772422507388,-124.54045754047853L-528.7625742871495,-123.60052955904096M-528.7625742871495,98.88042364723276L-523.9772422507388,99.63236603238282M-528.7625742871495,-123.60052955904096L-528.7625742871495,98.88042364723276M-622.8468306977963,-130.4945830005811L-528.7625742871495,-123.60052955904096M-528.7625742871495,98.88042364723276L-622.8468306977963,104.39566640046486M-520.0226970262048,-123.60052955904095L-532.7835824566336,-124.54045754047853M-532.7835824566336,99.63236603238282L-520.0226970262048,98.88042364723275M-520.0226970262048,-123.60052955904095L-432.3988631997387,-140.57570958431697M-432.3988631997387,112.46056766745357L-520.0226970262048,98.88042364723275M-520.0226970262048,98.88042364723275L-520.0226970262048,-123.60052955904095M-532.7835824566336,99.63236603238282L-532.7835824566336,-124.54045754047853M-532.7835824566336,-124.54045754047853L-532.7835824566336,99.63236603238282M-446.1688424228981,-141.79281529500372L-532.7835824566336,-124.54045754047853M-532.7835824566336,99.63236603238282L-446.1688424228981,113.43425223600295M-523.9772422507388,-124.54045754047853L-618.5481406867332,-131.54273226162994M-618.5481406867332,105.23418580930394L-523.9772422507388,99.63236603238282M-523.9772422507388,99.63236603238282L-523.9772422507388,-124.54045754047853M-622.8468306977963,-130.4945830005811L-618.5481406867332,-131.54273226162994M-618.5481406867332,105.23418580930394L-622.8468306977963,104.39566640046486M-622.8468306977963,104.39566640046486L-622.8468306977963,-130.4945830005811M-618.5481406867332,-131.54273226162994L-618.5481406867332,105.23418580930394M-708.5016534848038,-138.20312376854793L-712.2634282428822,-137.0466122725768M-712.2634282428822,109.63728981806143L-708.5016534848038,110.56249901483832M-712.2634282428822,-137.0466122725768L-712.2634282428822,109.63728981806143M-760.425587006437,-140.575709584317L-712.2634282428822,-137.0466122725768M-712.2634282428822,109.63728981806143L-760.425587006437,112.46056766745359" style="fill:none;stroke:rgb(0,0,0);stroke-opacity:1;stroke-width:2;stroke-linecap:round"></path><path d="M330.16281014483326,-125.4413885099203L337.1490626927685,-124.38281139169312M337.1490626927685,41.460937130564375L330.16281014483326,41.813796169973436M337.1490626927685,-124.38281139169312L337.1490626927685,41.460937130564375" style="fill:none;stroke:rgb(0,102,204);stroke-opacity:1;stroke-width:1;stroke-linecap:round"></path><path d="M-708.5016534848038,-138.20312376854793L-756.9830922006471,-141.79281529500372M-756.9830922006471,113.43425223600295L-708.5016534848038,110.56249901483832M-708.5016534848038,110.56249901483832L-708.5016534848038,-138.20312376854793" style="fill:none;stroke:rgb(0,0,0);stroke-opacity:1;stroke-width:2;stroke-linecap:round"></path><path d="M330.16281014483326,41.813796169973436L330.16281014483326,-125.4413885099203" style="fill:none;stroke:rgb(0,102,204);stroke-opacity:1;stroke-width:1;stroke-linecap:round"></path><path d="M-435.499866934249,-153.97245455752326L-449.23722558950266,-155.2998033037088M-449.23722558950266,112.94531149360641L-435.499866934249,111.979966950926M-435.499866934249,-153.97245455752326L-429.2711266744136,-155.2998033037088M-429.2711266744136,112.94531149360641L-435.499866934249,111.979966950926M-435.499866934249,111.979966950926L-435.499866934249,-153.97245455752326M-446.1688424228981,-141.79281529500372L-432.3988631997387,-140.57570958431697M-432.3988631997387,112.46056766745357L-446.1688424228981,113.43425223600295M-432.3988631997387,-140.57570958431697L-432.3988631997387,112.46056766745357M-436.14257630103515,-155.97209682450406L-442.33906695145686,-154.63328054274865M-442.33906695145686,112.46056766745357L-436.14257630103515,113.43425223600295M-442.33906695145686,-154.63328054274865L-442.33906695145686,112.46056766745357M-697.1247869954956,-179.2515142609972L-442.33906695145686,-154.63328054274865M-442.33906695145686,112.46056766745357L-697.1247869954956,130.3647376443616M-750.4853832547186,-140.57570958431697L-685.602063243504,-162.95592205545202M-685.602063243504,130.3647376443616L-750.4853832547186,112.46056766745357M-432.3988631997387,-154.63328054274865L-446.168842422898,-155.97209682450406M-446.168842422898,113.43425223600295L-432.3988631997387,112.46056766745357M-432.3988631997387,-154.63328054274865L-399.8591827568945,-161.56750836977773M-399.8591827568945,117.50364245074744L-432.3988631997387,112.46056766745357M-432.3988631997387,112.46056766745357L-432.3988631997387,-154.63328054274865M-443.0737776635404,-156.650236375915L-429.2711266744136,-155.2998033037088M-429.2711266744136,112.94531149360641L-443.0737776635404,113.92744463702907M-449.23722558950266,-155.2998033037088L-449.23722558950266,112.94531149360641M-443.0737776635404,-156.650236375915L-449.23722558950266,-155.2998033037088M-449.23722558950266,112.94531149360641L-443.0737776635404,113.92744463702907M-429.2711266744136,-155.2998033037088L-429.2711266744136,112.94531149360641M-446.1688424228981,113.43425223600295L-446.1688424228981,-141.79281529500372M-436.14257630103515,-155.97209682450406L-692.4925362409261,-181.0530370173892M-692.4925362409261,131.67493601264667L-436.14257630103515,113.43425223600295M-436.14257630103515,113.43425223600295L-436.14257630103515,-155.97209682450406M-446.168842422898,-155.97209682450406L-446.168842422898,113.43425223600295M-413.9577612169132,-163.02965776678934L-446.168842422898,-155.97209682450406M-446.168842422898,113.43425223600295L-413.9577612169132,118.56702383039223M-704.131066261782,-164.59367001580836L-767.0093583225099,-141.79281529500372M-767.0093583225099,113.43425223600295L-704.131066261782,131.67493601264667M-443.0737776635404,113.92744463702907L-443.0737776635404,-156.650236375915M-413.9577612169132,-163.02965776678934L-399.8591827568945,-161.56750836977773M-399.8591827568945,117.50364245074744L-413.9577612169132,118.56702383039223M-399.8591827568945,-161.56750836977773L-399.8591827568945,117.50364245074744M-413.9577612169132,118.56702383039223L-413.9577612169132,-163.02965776678934" style="fill:none;stroke:rgb(0,0,0);stroke-opacity:1;stroke-width:2;stroke-linecap:round"></path><path d="M474.95392903082666,-135.84666497618093L468.59969825832127,-137.11035488293615M468.59969825832127,45.70345162764538L474.95392903082666,45.28222165872699M474.95392903082666,-135.84666497618093L757.416660465376,-159.34446648557446M757.416660465376,53.11482216185815L474.95392903082666,45.28222165872699M474.95392903082666,45.28222165872699L474.95392903082666,-135.84666497618093M468.59969825832127,-137.11035488293615L468.59969825832127,45.70345162764538M753.0383317592583,-161.08593606465175L468.59969825832127,-137.11035488293615M468.59969825832127,45.70345162764538L753.0383317592583,53.69531202155059" style="fill:none;stroke:rgb(0,102,204);stroke-opacity:1;stroke-width:1;stroke-linecap:round"></path><path d="M-356.74025075775126,-184.98585871614245L-371.2356956173964,-186.75605832108164M-371.2356956173964,125.37469485784975L-356.74025075775126,124.1863091246M-356.74025075775126,-184.98585871614245L-23.31611551158045,-261.95984019534274M-23.31611551158045,175.86114916302418L-356.74025075775126,124.1863091246M-356.74025075775126,124.1863091246L-356.74025075775126,-184.98585871614245M-371.2356956173964,-186.75605832108164L-371.2356956173964,125.37469485784975M-39.38890262160416,-265.52391965378274L-371.2356956173964,-186.75605832108164M-371.2356956173964,125.37469485784975L-39.38890262160416,178.25381785911972M-649.6286817738714,-175.75392373883142L-667.4381637329753,-177.48548948995295M-667.4381637329753,129.08035599269303L-649.6286817738714,127.82103544642285M-649.6286817738714,-175.75392373883142L-623.5566276558566,-184.76694546902792M-623.5566276558566,134.3759603411112L-649.6286817738714,127.82103544642285M-649.6286817738714,127.82103544642285L-649.6286817738714,-175.75392373883142M-667.4381637329753,-177.48548948995295L-667.4381637329753,129.08035599269303M-642.0187039743128,-186.68162884176397L-667.4381637329753,-177.48548948995295M-667.4381637329753,129.08035599269303L-642.0187039743128,135.7684573394647M-697.1247869954956,-179.2515142609972L-692.4925362409261,-181.0530370173892M-692.4925362409261,131.67493601264667L-697.1247869954956,130.3647376443616M-697.1247869954956,130.3647376443616L-697.1247869954956,-179.2515142609972M-692.4925362409264,-181.0530370173892L-697.1247869954958,-179.25151426099725M-697.1247869954958,130.36473764436164L-692.4925362409264,131.67493601264667M-697.1247869954958,-179.25151426099725L-697.1247869954958,130.36473764436164M-1413.5998031883016,-248.47968528593415L-697.1247869954958,-179.25151426099725M-697.1247869954958,130.36473764436164L-1413.5998031883016,180.7124983897703M-704.131066261782,-164.59367001580836L-685.602063243504,-162.95592205545202M-685.602063243504,130.3647376443616L-704.131066261782,131.67493601264667M-685.602063243504,-162.95592205545202L-685.602063243504,130.3647376443616M-320.0595755735374,-230.43113802213165L-328.3976269317625,-228.1382908776328M-328.3976269317625,130.3647376443616L-320.0595755735374,131.67493601264667M-328.3976269317625,-228.1382908776328L-328.3976269317625,130.3647376443616M-568.9761135918426,-265.06240732025543L-328.3976269317625,-228.1382908776328M-328.3976269317625,130.3647376443616L-568.9761135918426,151.46423275443166M-692.4925362409261,-181.0530370173892L-692.4925362409261,131.67493601264667M-704.131066261782,131.67493601264667L-704.131066261782,-164.59367001580836M-692.4925362409264,-181.0530370173892L-1417.1741537633104,-251.95492563958354M-1417.1741537633104,183.2399459196971L-692.4925362409264,131.67493601264667M-692.4925362409264,131.67493601264667L-692.4925362409264,-181.0530370173892M-320.0595755735374,-230.43113802213165L-562.0865507440845,-268.1625524351123M-562.0865507440845,153.23574424863557L-320.0595755735374,131.67493601264667M-320.0595755735374,131.67493601264667L-320.0595755735374,-230.43113802213165M-642.0187039743128,-186.68162884176397L-623.5566276558566,-184.76694546902792M-623.5566276558566,134.3759603411112L-642.0187039743128,135.7684573394647M-623.5566276558566,-184.76694546902792L-623.5566276558566,134.3759603411112M-642.0187039743128,135.7684573394647L-642.0187039743128,-186.68162884176397M-588.5089483496724,-213.28970595139924L-607.8077625532618,-215.64649828235395M-607.8077625532618,144.76967527784862L-588.5089483496724,143.18749303437485M-588.5089483496724,-213.28970595139924L-485.6270510315196,-251.81945928455525M-485.6270510315196,169.05362080832646L-588.5089483496724,143.18749303437485M-588.5089483496724,143.18749303437485L-588.5089483496724,-213.28970595139924M-607.8077625532618,-215.64649828235395L-607.8077625532618,144.76967527784862M-507.11281296755476,-255.11121692226186L-607.8077625532618,-215.64649828235395M-607.8077625532618,144.76967527784862L-507.11281296755476,171.2634720607229M-568.9761135918426,-265.06240732025543L-562.0865507440845,-268.1625524351123M-562.0865507440845,153.23574424863557L-568.9761135918426,151.46423275443166M-568.9761135918426,151.46423275443166L-568.9761135918426,-265.06240732025543M-562.0865507440845,-268.1625524351123L-562.0865507440845,153.23574424863557M-507.11281296755476,-255.11121692226186L-485.6270510315196,-251.81945928455525M-485.6270510315196,169.05362080832646L-507.11281296755476,171.2634720607229M-485.6270510315196,-251.81945928455525L-485.6270510315196,169.05362080832646M-507.11281296755476,171.2634720607229L-507.11281296755476,-255.11121692226186M-30.880899655337664,-291.914098273788L-46.94731366520928,-295.85888338559596M-46.94731366520928,177.04941276038699L-30.880899655337664,174.68875392358186M-30.880899655337664,-291.914098273788L-15.64910455506977,-295.85888338559596M-15.64910455506977,177.04941276038699L-30.880899655337664,174.68875392358186M-30.880899655337664,174.68875392358186L-30.880899655337664,-291.914098273788M-23.633341572962596,-297.8715288508041L-38.860192519300846,-293.8732532957598M-38.860192519300846,175.86116166803544L-23.633341572962596,178.2538305342672M-38.860192519300846,-293.8732532957598L-38.860192519300846,175.86116166803544M-315.8273828386806,-361.87698133114225L-38.860192519300846,-293.8732532957598M-38.860192519300846,175.86116166803544L-315.8273828386806,216.55630651683705M-23.316115511580517,-293.8732532957598L-39.38890262160423,-297.8715288508041M-39.38890262160423,178.2538305342672L-23.316115511580517,175.86116166803544M-23.316115511580517,-293.8732532957598L216.5428939246237,-355.9928027729123M216.5428939246237,213.03506576046567L-23.316115511580517,175.86116166803544M-23.316115511580517,175.86116166803544L-23.316115511580517,-293.8732532957598M-39.38890262160416,-265.52391965378274L-23.31611551158045,-261.95984019534274M-23.31611551158045,175.86114916302418L-39.38890262160416,178.25381785911972M-23.31611551158045,-261.95984019534274L-23.31611551158045,175.86114916302418M-31.72695170068938,-299.911744801837L-15.64910455506977,-295.85888338559596M-15.64910455506977,177.04941276038699L-31.72695170068938,179.47474718176215M-46.94731366520928,-295.85888338559596L-46.94731366520928,177.04941276038699M-31.72695170068938,-299.911744801837L-46.94731366520928,-295.85888338559596M-46.94731366520928,177.04941276038699L-31.72695170068938,179.47474718176215M-15.64910455506977,-295.85888338559596L-15.64910455506977,177.04941276038699M-23.633341572962596,-297.8715288508041L-301.67265419605064,-367.9589474039346M-301.67265419605064,220.19590830703598L-23.633341572962596,178.2538305342672M-23.633341572962596,178.2538305342672L-23.633341572962596,-297.8715288508041M-39.38890262160423,-297.8715288508041L-39.38890262160423,178.2538305342672M200.98106180643302,-361.8769813311422L-39.38890262160423,-297.8715288508041M-39.38890262160423,178.2538305342672L200.98106180643302,216.556306516837M-39.38890262160416,178.25381785911972L-39.38890262160416,-265.52391965378274M-31.72695170068938,179.47474718176215L-31.72695170068938,-299.911744801837M-429.20131513974553,-320.66990535946996L-451.7152875115882,-325.2184146553489M-451.7152875115882,185.83909408877082L-429.20131513974553,183.2399459196971M-429.20131513974553,-320.66990535946996L-296.6863293333062,-378.97352451573715M-296.6863293333062,216.55629972327839L-429.20131513974553,183.2399459196971M-429.20131513974553,183.2399459196971L-429.20131513974553,-320.66990535946996M-451.7152875115882,-325.2184146553489L-451.7152875115882,185.83909408877082M-321.135406079667,-385.3428274487748L-451.7152875115882,-325.2184146553489M-451.7152875115882,185.83909408877082L-321.135406079667,220.19590139929988M200.98106180643302,-361.8769813311422L216.5428939246237,-355.9928027729123M216.5428939246237,213.03506576046567L200.98106180643302,216.556306516837M216.5428939246237,-355.9928027729123L216.5428939246237,213.03506576046567M-315.8273828386806,-361.87698133114225L-301.67265419605064,-367.9589474039346M-301.67265419605064,220.19590830703598L-315.8273828386806,216.55630651683705M-315.8273828386806,216.55630651683705L-315.8273828386806,-361.87698133114225M-301.67265419605076,-367.95894740393453L-315.8273828386807,-361.8769813311422M-315.8273828386807,216.556306516837L-301.67265419605076,220.19590830703595M-315.8273828386807,-361.8769813311422L-315.8273828386807,216.556306516837M-1765.5268450490187,-717.8215531322662L-315.8273828386807,-361.8769813311422M-315.8273828386807,216.556306516837L-1765.5268450490187,429.56250964815234M200.98106180643302,216.556306516837L200.98106180643302,-361.8769813311422M-321.135406079667,-385.3428274487748L-296.6863293333062,-378.97352451573715M-296.6863293333062,216.55629972327839L-321.135406079667,220.19590139929988M-296.6863293333062,-378.97352451573715L-296.6863293333062,216.55629972327839M-301.67265419605064,-367.9589474039346L-301.67265419605064,220.19590830703598M-301.67265419605076,-367.95894740393453L-1786.1198317599965,-742.1544871367497M-1786.1198317599965,444.12395065317446L-301.67265419605076,220.19590830703595M-301.67265419605076,220.19590830703595L-301.67265419605076,-367.95894740393453M-321.135406079667,220.19590139929988L-321.135406079667,-385.3428274487748M365.1457729516276,-335.4620421120634L350.5973699401865,-341.6173089398077M350.5973699401865,240.39736778474563L365.1457729516276,236.06588368051598M365.1457729516276,-335.4620421120634L831.0595054304104,-438.07396087575336M831.0595054304104,308.27427162985026L365.1457729516276,236.06588368051598M365.1457729516276,236.06588368051598L365.1457729516276,-335.4620421120634M350.5973699401865,-341.6173089398077L350.5973699401865,240.39736778474563M823.180608282344,-448.62995993300046L350.5973699401865,-341.6173089398077M350.5973699401865,240.39736778474563L823.180608282344,315.7025673317744M740.3822253431365,-536.9531202155059L680.1150519330319,-519.9069894150138M680.1150519330319,415.9255915320109L740.3822253431365,429.56249617240474M680.1150519330319,-519.9069894150138L680.1150519330319,415.9255915320109M589.941715113762,-618.002647795205L680.1150519330319,-519.9069894150138M680.1150519330319,415.9255915320109L589.941715113762,494.402118236164M740.3822253431365,-536.9531202155059L658.4897720623474,-642.2380457479583M658.4897720623474,513.7904365983665L740.3822253431365,429.56249617240474M658.4897720623474,513.7904365983665L589.941715113762,494.402118236164M589.941715113762,494.402118236164L589.941715113762,-618.002647795205M613.0766843339084,513.7904365983661L633.6411014184839,494.4021182361636M6146.486758322001,2015.6394051166644L633.6411014184839,494.4021182361636M633.6411014184839,494.4021182361636L633.6411014184839,-618.0026477952046M658.4897720623474,-642.2380457479583L658.4897720623474,513.7904365983665M613.0766843339084,-642.2380457479577L613.0766843339084,513.7904365983661M613.0766843339084,513.7904365983661L7053.478216730517,2382.119296956058" style="fill:none;stroke:rgb(0,0,0);stroke-opacity:1;stroke-width:2;stroke-linecap:round"></path></svg>