<svg viewBox="0 0 1440 1080" width="1440" height="1080" style="background-color: rgb(255, 255, 255);" xmlns="http://www.w3.org/2000/svg"><rect width="100%" height="100%" fill="#ffffff"></rect><path d="M-67.24150751046106,69.1398022138893L-56.14731566417318,67.2032089661863M191255.66319722836,38678.32857011228L-56.14731566417318,67.2032089661863M-56.14731566417318,67.2032089661863L-58.11547862805851,-198.05707836419654M-66.35591851220472,67.20320896618627L-56.89666020115938,69.13980221388928M-68.68192928770557,-198.05707836419654L-66.35591851220472,67.20320896618627M-66.35591851220472,67.20320896618627L-1597.5380316283563,331.2425445767478" style="fill:none;stroke:rgb(0,0,0);stroke-opacity:1;stroke-width:2;stroke-linecap:round"></path><path d="M188529.0597189303,38678.32857010957L-61.6576410650993,68.16508695711465M-61.6576410650993,68.16508695711465L-221248.3014583504,38678.3285701107" style="fill:none;stroke:rgb(102,102,102);stroke-opacity:1;stroke-width:1;stroke-linecap:round"></path><path d="M-69.63113660263933,-199.71764865618562L-67.24150751046106,69.1398022138893M-67.24150751046106,69.1398022138893L185802.45624065242,38678.328570110905M-1629.2564548111102,347.0222608725834L-56.89666020115938,69.13980221388928M-56.89666020115938,69.13980221388928L-58.918654048387154,-199.7176486561856M-58.11547862805851,-198.05707836419654L-69.63113660263933,-199.71764865618562M-58.11547862805851,-198.05707836419654L184244.39711021728,-31082.88817783128M-58.918654048387154,-199.7176486561856L-68.68192928770557,-198.05707836419654M-1766.1930730905883,-439.77475456202967L-68.68192928770557,-198.05707836419654" style="fill:none;stroke:rgb(0,0,0);stroke-opacity:1;stroke-width:2;stroke-linecap:round"></path><path d="M-64.08510724876463,-229.7217103751579L180738.764066689,-38834.13448315442M-213458.0058061079,-38834.134483155394L-64.08510724876463,-229.7217103751579" style="fill:none;stroke:rgb(102,102,102);stroke-opacity:1;stroke-width:1;stroke-linecap:round"></path><path d="M178791.1901536478,-31082.888177831293L-69.63113660263933,-199.71764865618562M-58.918654048387154,-199.7176486561856L-1808.6241379095816,-455.2677367410957" style="fill:none;stroke:rgb(0,0,0);stroke-opacity:1;stroke-width:2;stroke-linecap:round"></path><path d="M-351.61307890745354,20.094409369822838L-181.44772904594507,5.294375685989476M-172.34424972413316,6.570128863336365L-181.44772904594507,5.294375685989476M-181.44772904594507,5.294375685989476L-186.27026005048845,-197.47493630100965M-172.34424972413316,6.570128863336365L-343.94275326352965,21.86926463824634M-176.9969628775406,-199.35795960460953L-172.34424972413316,6.570128863336365M-186.27026005048845,-197.47493630100965L-362.67299226758314,-219.41474910442122M-186.27026005048845,-197.47493630100965L-176.9969628775406,-199.35795960460953M-354.9636158514131,-222.05982933959888L-176.9969628775406,-199.35795960460953M-362.67299226758314,-219.41474910442122L-351.61307890745354,20.094409369822838M-351.61307890745354,20.094409369822838L-343.94275326352965,21.86926463824634M-343.94275326352965,21.86926463824634L-354.9636158514131,-222.05982933959888M-354.9636158514131,-222.05982933959888L-362.67299226758314,-219.41474910442122" style="fill:none;stroke:rgb(0,102,204);stroke-opacity:1;stroke-width:1;stroke-linecap:round"></path><path d="M-569.840481807128,156.8730768328115L-541.7786165720203,151.97462010110777M-374.6766116897081,316.59283353994874L-541.7786165720203,151.97462010110777M-541.7786165720203,151.97462010110777L-572.4936247556308,-272.2309614539252" style="fill:none;stroke:rgb(0,0,0);stroke-opacity:1;stroke-width:2;stroke-linecap:round"></path><path d="M360.6066673730074,41.299403535067846L369.3861703748764,38.77469394232235M956.0461690094116,98.5820021896942L369.3861703748764,38.77469394232235M369.3861703748764,38.77469394232235L383.3033887249502,-247.4060926920703" style="fill:none;stroke:rgb(0,102,204);stroke-opacity:1;stroke-width:1;stroke-linecap:round"></path><path d="M-602.8747126365267,-276.6119470723489L-569.840481807128,156.8730768328115M-569.840481807128,156.8730768328115L-417.37480105605675,331.24254457674755" style="fill:none;stroke:rgb(0,0,0);stroke-opacity:1;stroke-width:2;stroke-linecap:round"></path><path d="M374.49841699893386,-251.2151519318378L360.6066673730074,41.299403535067846M360.6066673730074,41.299403535067846L962.0341159093509,104.42311193430311M383.3033887249502,-247.4060926920703L374.49841699893386,-251.2151519318378M383.3033887249502,-247.4060926920703L1011.6033313731548,-339.3399970552723" style="fill:none;stroke:rgb(0,102,204);stroke-opacity:1;stroke-width:1;stroke-linecap:round"></path><path d="M-572.4936247556308,-272.2309614539252L-602.8747126365267,-276.6119470723489M-572.4936247556308,-272.2309614539252L-412.67198639627014,-425.5037540759602" style="fill:none;stroke:rgb(0,0,0);stroke-opacity:1;stroke-width:2;stroke-linecap:round"></path><path d="M1019.9008296482592,-348.5132265476531L374.49841699893386,-251.2151519318378" style="fill:none;stroke:rgb(0,102,204);stroke-opacity:1;stroke-width:1;stroke-linecap:round"></path><path d="M-461.4378299065495,-439.7747545620293L-602.8747126365267,-276.6119470723489M-374.6766116897081,316.59283353994874L-417.37480105605675,331.24254457674755M-412.67198639627014,-425.5037540759602L-374.6766116897081,316.59283353994874M-402.43043477783465,316.59283353994863L-388.59033201770796,331.2425445767473M-443.2402816848827,-425.50375407595976L-402.43043477783465,316.59283353994863M-402.43043477783465,316.59283353994863L-659.218143724052,402.6199528681902M-417.37480105605675,331.24254457674755L-461.4378299065495,-439.7747545620293M-653.9325058891309,424.5330497133644L-388.59033201770796,331.2425445767473M-388.59033201770796,331.2425445767473L-429.61453129230466,-439.7747545620289M-461.4378299065495,-439.7747545620293L-412.67198639627014,-425.5037540759602M-429.61453129230466,-439.7747545620289L-443.2402816848827,-425.50375407595976M-742.487803983932,-510.8793885627948L-443.2402816848827,-425.50375407595976M-429.61453129230466,-439.7747545620289L-740.8017686640708,-533.2471747198622M-653.9325058891309,424.5330497133644L-659.218143724052,402.6199528681902M-659.218143724052,402.6199528681902L-742.487803983932,-510.8793885627948M-740.8017686640708,-533.2471747198622L-653.9325058891309,424.5330497133644" style="fill:none;stroke:rgb(0,0,0);stroke-opacity:1;stroke-width:2;stroke-linecap:round"></path></svg>