<svg viewBox="0 0 1440 1080" width="1440" height="1080" style="background-color: rgb(255, 255, 255);" xmlns="http://www.w3.org/2000/svg"><rect width="100%" height="100%" fill="#ffffff"></rect><path d="M309.9783938391929,5.425311427983298L312.3900552352656,4.958769989225131M1383.1930171834408,60.359890086487496L312.3900552352656,4.958769989225131M312.3900552352656,4.958769989225131L316.09672695196616,-123.78221750725153M307.60550200919084,5.005150412569734L314.78961029410425,5.378382128606253M311.25781008054,-123.82020788857466L307.60550200919084,5.005150412569734M307.60550200919084,5.005150412569734L-1762.188476475073,400.5270939346013" style="fill:none;stroke:rgb(0,0,0);stroke-opacity:1;stroke-width:2;stroke-linecap:round"></path><path d="M1387.2898971312673,61.097353312057805L311.1881651604254,5.191278385991936M311.1881651604254,5.191278385991936L-1774.3523951383252,408.6438920799234" style="fill:none;stroke:rgb(102,102,102);stroke-opacity:1;stroke-width:1;stroke-linecap:round"></path><path d="M-1786.9468949931977,417.0480105135747L314.78961029410425,5.378382128606253M314.78961029410425,5.378382128606253L318.5470459607448,-124.12594480351991M313.6808564066152,-124.16439015546558L309.9783938391929,5.425311427983298M309.9783938391929,5.425311427983298L1391.4348061523397,61.84346206196095M316.09672695196616,-123.78221750725153L313.6808564066152,-124.16439015546558M316.09672695196616,-123.78221750725153L1412.6574838216677,-169.58432041103242M318.5470459607448,-124.12594480351991L311.25781008054,-123.82020788857466M-1909.0375161813292,-470.67590699659354L311.25781008054,-123.82020788857466" style="fill:none;stroke:rgb(0,0,0);stroke-opacity:1;stroke-width:2;stroke-linecap:round"></path><path d="M315.30986271221917,-138.51430872292158L1420.3994412155462,-196.51280782867934M-1943.338337532452,-586.2436520180789L315.30986271221917,-138.51430872292158" style="fill:none;stroke:rgb(102,102,102);stroke-opacity:1;stroke-width:1;stroke-linecap:round"></path><path d="M318.5470459607448,-124.12594480351991L-1941.5865301368399,-486.23310344179345M1421.4298079616115,-170.8225901234832L313.6808564066152,-124.16439015546558" style="fill:none;stroke:rgb(0,0,0);stroke-opacity:1;stroke-width:2;stroke-linecap:round"></path><path d="M298.6300224020446,-29.516026068372707L305.9839355728217,-29.317928710625118M301.0562649672609,-117.94781318694272L298.6300224020446,-29.516026068372707M298.6300224020446,-29.516026068372707L265.1861893208776,-26.301465949773146M272.9919165370947,-26.067006972717326L305.9839355728217,-29.317928710625118M305.9839355728217,-29.317928710625118L308.4834639777732,-118.22968664516218M308.4834639777732,-118.22968664516218L301.0562649672609,-117.94781318694272M267.53124036866717,-122.52488146392547L301.0562649672609,-117.94781318694272M365.69434964251286,-29.14282959598781L447.6718247059605,-27.016805502707562M368.6959448516169,-118.47885641983137L365.69434964251286,-29.14282959598781M365.69434964251286,-29.14282959598781L363.54630272657135,-28.889783354010987M308.4834639777732,-118.22968664516218L275.4203101608494,-122.85897238782485M445.9919360251049,-26.733770864566754L363.54630272657135,-28.889783354010987M363.54630272657135,-28.889783354010987L366.550817625138,-118.83898077932471M451.5589896093406,-121.50577723016045L368.6959448516169,-118.47885641983137M366.550817625138,-118.83898077932471L368.6959448516169,-118.47885641983137M366.550817625138,-118.83898077932471L449.89274013028086,-121.90896219961213M445.9919360251049,-26.733770864566754L447.6718247059605,-27.016805502707562M447.6718247059605,-27.016805502707562L451.5589896093406,-121.50577723016045M456.3900641174699,-26.790704527707916L569.4433268118348,-23.858753279805534M460.3760035420766,-121.82785570357393L456.3900641174699,-26.790704527707916M456.3900641174699,-26.790704527707916L454.763767940007,-26.50438116365496M449.89274013028086,-121.90896219961213L445.9919360251049,-26.733770864566754M451.5589896093406,-121.50577723016045L449.89274013028086,-121.90896219961213M568.5782870358621,-23.528049794324367L454.763767940007,-26.50438116365496M454.763767940007,-26.50438116365496L458.7646222034088,-122.23576667338463M574.7902125095985,-126.0073153304042L460.3760035420766,-121.82785570357393M458.7646222034088,-122.23576667338463L460.3760035420766,-121.82785570357393M272.9919165370947,-26.067006972717326L265.1861893208776,-26.301465949773146M265.1861893208776,-26.301465949773146L267.53124036866717,-122.52488146392547M458.7646222034088,-122.23576667338463L573.959154105602,-126.47907018773077M275.4203101608494,-122.85897238782485L272.9919165370947,-26.067006972717326M267.53124036866717,-122.52488146392547L275.4203101608494,-122.85897238782485M568.5782870358621,-23.528049794324367L569.4433268118348,-23.858753279805534M569.4433268118348,-23.858753279805534L574.7902125095985,-126.0073153304042M573.959154105602,-126.47907018773077L568.5782870358621,-23.528049794324367M574.7902125095985,-126.0073153304042L573.959154105602,-126.47907018773077" style="fill:none;stroke:rgb(0,102,204);stroke-opacity:1;stroke-width:1;stroke-linecap:round"></path><path d="M715.70175131734,26.20673276583196L727.820762592675,26.836344569492784M726.7693041727628,-141.24826268277303L715.70175131734,26.20673276583196M715.70175131734,26.20673276583196L717.9385618593083,32.02299828121501M195.58490993620595,27.554993750538298L199.70902489961156,26.757174234181424M497.07365994192315,48.64981156209871L199.70902489961156,26.757174234181424M199.70902489961156,26.757174234181424L202.99143966872276,-151.21506857431393M198.827591689075,-151.95700809571815L195.58490993620595,27.554993750538298M195.58490993620595,27.554993750538298L495.1279133086136,49.87020062674795M202.99143966872276,-151.21506857431393L198.827591689075,-151.95700809571815M202.99143966872276,-151.21506857431393L507.2071358420267,-171.6505667398221M505.33120002538544,-172.79440369555343L198.827591689075,-151.95700809571815M730.8421974766804,32.73467797471218L717.9385618593083,32.02299828121501M717.9385618593083,32.02299828121501L729.751079330485,-146.05097056969842M522.0184498866693,33.0042242346471L523.4419419501228,32.11139773909316M558.463949573781,34.28177927713523L523.4419419501228,32.11139773909316M523.4419419501228,32.11139773909316L532.0622118084046,-146.1240375149393M517.0199124347319,32.19995647527379L528.488392041068,32.91421241644743M525.542218683656,-146.19723828242422L517.0199124347319,32.19995647527379M517.0199124347319,32.19995647527379L489.54226936919474,48.770694310502385M502.72533028390615,49.74699574346967L528.488392041068,32.91421241644743M528.488392041068,32.91421241644743L537.264029547285,-146.78770646590044M530.6946568099934,-146.8621283560616L522.0184498866693,33.0042242346471M522.0184498866693,33.0042242346471L557.3339173680002,35.21465373116058M532.0622118084046,-146.1240375149393L530.6946568099934,-146.8621283560616M532.0622118084046,-146.1240375149393L567.8674585469597,-147.9186546470675M537.264029547285,-146.78770646590044L525.542218683656,-146.19723828242422M498.9969483913467,-159.93259259333036L525.542218683656,-146.19723828242422M558.463949573781,34.28177927713523L557.3339173680002,35.21465373116058M567.8674585469597,-147.9186546470675L558.463949573781,34.28177927713523M537.264029547285,-146.78770646590044L512.5186808738524,-160.74422716624755M566.807015113632,-148.69041909679058L530.6946568099934,-146.8621283560616M557.3339173680002,35.21465373116058L566.807015113632,-148.69041909679058M566.807015113632,-148.69041909679058L567.8674585469597,-147.9186546470675" style="fill:none;stroke:rgb(0,0,0);stroke-opacity:1;stroke-width:2;stroke-linecap:round"></path><path d="M138.59485164599292,-14.133737912671759L147.82718982070224,-13.733699015390506M140.19864935067173,-139.90920764869827L138.59485164599292,-14.133737912671759M138.59485164599292,-14.133737912671759L41.123793559987845,-4.764997933598781M51.14773859424933,-4.207233561405403L147.82718982070224,-13.733699015390506M147.82718982070224,-13.733699015390506L149.5511220635093,-140.48234979235076" style="fill:none;stroke:rgb(0,102,204);stroke-opacity:1;stroke-width:1;stroke-linecap:round"></path><path d="M632.9069585671167,39.94484396568219L633.3618330576772,38.92334595425698M729.9874680914121,44.91142341207648L633.3618330576772,38.92334595425698M633.3618330576772,38.92334595425698L644.5278594974798,-151.76099847746144" style="fill:none;stroke:rgb(0,0,0);stroke-opacity:1;stroke-width:2;stroke-linecap:round"></path><path d="M149.5511220635093,-140.48234979235076L140.19864935067173,-139.90920764869827M41.68649084929213,-153.35876901285832L140.19864935067173,-139.90920764869827" style="fill:none;stroke:rgb(0,102,204);stroke-opacity:1;stroke-width:1;stroke-linecap:round"></path><path d="M644.1753317166797,-152.60740994191318L632.9069585671167,39.94484396568219M632.9069585671167,39.94484396568219L730.4994829933139,46.05325509587372" style="fill:none;stroke:rgb(0,0,0);stroke-opacity:1;stroke-width:2;stroke-linecap:round"></path><path d="M149.5511220635093,-140.48234979235076L51.854036480476026,-154.16125434856798" style="fill:none;stroke:rgb(0,102,204);stroke-opacity:1;stroke-width:1;stroke-linecap:round"></path><path d="M644.5278594974798,-151.76099847746144L644.1753317166797,-152.60740994191318M644.5278594974798,-151.76099847746144L743.6038146464851,-156.7268462983316M744.2680596361199,-157.67488867400633L644.1753317166797,-152.60740994191318M495.1279133086135,49.87020062674795L497.07365994192327,48.649811562098726M739.6728240972546,66.51049467982328L497.07365994192327,48.649811562098726M497.07365994192327,48.649811562098726L507.2071358420268,-171.65056673982212M497.07365994192315,48.64981156209871L495.1279133086136,49.87020062674795M507.2071358420267,-171.6505667398221L497.07365994192315,48.64981156209871M502.72533028390615,49.74699574346967L489.54226936919474,48.770694310502385M489.54226936919474,48.770694310502385L498.9969483913467,-159.93259259333036M512.5186808738524,-160.74422716624755L502.72533028390615,49.74699574346967M505.33120002538544,-172.79440369555346L495.1279133086135,49.87020062674795M495.1279133086135,49.87020062674795L740.4047356096888,68.14271231944467M495.1279133086136,49.87020062674795L505.33120002538544,-172.79440369555343M516.1342252185697,50.74002182625225L529.7748073227306,51.75020602709585M526.8517665072612,-173.60996569546506L516.1342252185697,50.74002182625225M516.1342252185697,50.74002182625225L506.8562731304593,57.35364293754458M498.9969483913467,-159.93259259333036L512.5186808738524,-160.74422716624755M507.2071358420268,-171.65056673982212L505.33120002538544,-172.79440369555346M507.2071358420268,-171.65056673982212L757.1526545174635,-188.44049984524318M505.33120002538544,-172.79440369555343L507.2071358420267,-171.6505667398221M521.1906971164732,58.48188442027462L529.7748073227306,51.75020602709585M529.7748073227306,51.75020602709585L540.8726257782233,-174.55745117528048M758.1222292829686,-189.98019380524127L505.33120002538544,-172.79440369555346M540.8726257782233,-174.55745117528048L526.8517665072612,-173.60996569546506M517.9895323090474,-179.8192816650644L526.8517665072612,-173.60996569546506M540.8726257782233,-174.55745117528048L532.745683400269,-180.8800096206646" style="fill:none;stroke:rgb(0,0,0);stroke-opacity:1;stroke-width:2;stroke-linecap:round"></path><path d="M51.14773859424933,-4.207233561405403L41.123793559987845,-4.764997933598781M41.123793559987845,-4.764997933598781L41.68649084929213,-153.35876901285832" style="fill:none;stroke:rgb(0,102,204);stroke-opacity:1;stroke-width:1;stroke-linecap:round"></path><path d="M521.1906971164732,58.48188442027462L506.8562731304593,57.35364293754458M506.8562731304593,57.35364293754458L517.9895323090474,-179.8192816650644" style="fill:none;stroke:rgb(0,0,0);stroke-opacity:1;stroke-width:2;stroke-linecap:round"></path><path d="M51.854036480476026,-154.16125434856798L51.14773859424933,-4.207233561405403M41.68649084929213,-153.35876901285832L51.854036480476026,-154.16125434856798" style="fill:none;stroke:rgb(0,102,204);stroke-opacity:1;stroke-width:1;stroke-linecap:round"></path><path d="M532.745683400269,-180.8800096206646L521.1906971164732,58.48188442027462M517.9895323090474,-179.8192816650644L532.745683400269,-180.8800096206646M494.23645693720636,66.34944768503061L509.5011590046753,67.64884226501158M506.47840008059615,-200.8780972205902L494.23645693720636,66.34944768503061M494.23645693720636,66.34944768503061L456.18020755127196,93.47715909369055M474.1558686353385,95.36669706517186L509.5011590046753,67.64884226501158M509.5011590046753,67.64884226501158L522.2480210444854,-202.23161680433975M522.2480210444854,-202.23161680433975L506.47840008059615,-200.8780972205902M469.8616062301758,-229.27287952631588L506.47840008059615,-200.8780972205902M522.2480210444854,-202.23161680433975L488.5497780639446,-231.26145715650605M489.0099738235255,76.57135619337977L491.47653439530393,74.72928966931812M754.0328617348769,98.5344570571914L491.47653439530393,74.72928966931812M491.47653439530393,74.72928966931812L505.83574257152804,-240.2310608481745M503.4894077725397,-242.57348697774083L489.0099738235255,76.57135619337977M489.0099738235255,76.57135619337977L755.1640170732919,101.0570184121468M-77.60310808337577,80.4038472220422L-67.56639913015928,78.46222276383415M396.21461231353493,145.87240782701372L-67.56639913015928,78.46222276383415M-67.56639913015928,78.46222276383415L-69.53439961086751,-235.42395719897274M505.83574257152804,-240.2310608481745L503.4894077725397,-242.57348697774083M505.83574257152804,-240.2310608481745L779.9123047273373,-270.64094115987365M-79.89468293484559,-237.76264946669338L-77.60310808337577,80.4038472220422M-77.60310808337577,80.4038472220422L390.5917646762733,150.0716396516281M781.493031931632,-273.8810701890097L503.4894077725397,-242.57348697774083M-69.53439961086751,-235.42395719897274L-79.89468293484559,-237.76264946669338M-69.53439961086751,-235.42395719897274L413.3660289314767,-317.7048314774773M407.8493835973562,-322.9054023900307L-79.89468293484559,-237.76264946669338M474.1558686353385,95.36669706517186L456.18020755127196,93.47715909369055M456.18020755127196,93.47715909369055L469.8616062301758,-229.27287952631588M488.5497780639446,-231.26145715650605L474.1558686353385,95.36669706517186" style="fill:none;stroke:rgb(0,0,0);stroke-opacity:1;stroke-width:2;stroke-linecap:round"></path><path d="M-169.02541033657656,15.434159506334534L-158.20861465728478,16.422031929060456M-172.11263244318067,-182.54810434028855L-169.02541033657656,15.434159506334534M-169.02541033657656,15.434159506334534L-435.9625666345521,41.09167115355826" style="fill:none;stroke:rgb(0,102,204);stroke-opacity:1;stroke-width:1;stroke-linecap:round"></path><path d="M469.8616062301758,-229.27287952631588L488.5497780639446,-231.26145715650605" style="fill:none;stroke:rgb(0,0,0);stroke-opacity:1;stroke-width:2;stroke-linecap:round"></path><path d="M-425.9537748309033,42.80473255994474L-158.20861465728478,16.422031929060456M-158.20861465728478,16.422031929060456L-161.1338895045689,-183.98242551032118M-161.1338895045689,-183.98242551032118L-172.11263244318067,-182.54810434028855M-446.4888257887063,-220.0078403302741L-172.11263244318067,-182.54810434028855M-161.1338895045689,-183.98242551032118L-436.4066282009868,-222.5243072572087" style="fill:none;stroke:rgb(0,102,204);stroke-opacity:1;stroke-width:1;stroke-linecap:round"></path><path d="M434.6428793780011,108.82966058710313L454.08971097171616,111.10262760020055M450.52683842503757,-283.8861795781471L434.6428793780011,108.82966058710313M434.6428793780011,108.82966058710313L382.0985033791307,146.28497304028383M404.9421659359243,149.6442421701128L454.08971097171616,111.10262760020055M454.08971097171616,111.10262760020055L470.907848415113,-286.81813082604947M470.907848415113,-286.81813082604947L450.52683842503757,-283.8861795781471M399.18420881478283,-332.55835806847773L450.52683842503757,-283.8861795781471M470.907848415113,-286.81813082604947L423.34862802392087,-336.9611606907435M390.5917646762735,150.0716396516281L396.214612313535,145.87240782701372M801.6873409766077,204.80753238540353L396.214612313535,145.87240782701372M396.214612313535,145.87240782701372L413.3660289314769,-317.70483147747734M396.21461231353493,145.87240782701372L390.5917646762733,150.0716396516281M413.3660289314767,-317.7048314774773L396.21461231353493,145.87240782701372M404.9421659359243,149.6442421701128L382.0985033791307,146.28497304028383M382.0985033791307,146.28497304028383L399.18420881478283,-332.55835806847773" style="fill:none;stroke:rgb(0,0,0);stroke-opacity:1;stroke-width:2;stroke-linecap:round"></path><path d="M-425.9537748309033,42.80473255994474L-435.9625666345521,41.09167115355826M-435.9625666345521,41.09167115355826L-446.4888257887063,-220.0078403302741" style="fill:none;stroke:rgb(0,102,204);stroke-opacity:1;stroke-width:1;stroke-linecap:round"></path><path d="M423.34862802392087,-336.9611606907435L404.9421659359243,149.6442421701128M407.8493835973564,-322.90540239003076L390.5917646762735,150.0716396516281M390.5917646762735,150.0716396516281L804.7794255252758,211.7031133430052M390.5917646762733,150.0716396516281L407.8493835973562,-322.9054023900307" style="fill:none;stroke:rgb(0,0,0);stroke-opacity:1;stroke-width:2;stroke-linecap:round"></path><path d="M-436.4066282009868,-222.5243072572087L-425.9537748309033,42.80473255994474M-446.4888257887063,-220.0078403302741L-436.4066282009868,-222.5243072572087" style="fill:none;stroke:rgb(0,102,204);stroke-opacity:1;stroke-width:1;stroke-linecap:round"></path><path d="M413.3660289314769,-317.70483147747734L407.8493835973564,-322.90540239003076M413.3660289314769,-317.70483147747734L846.5756416656209,-391.51894216115056M407.8493835973562,-322.9054023900307L413.3660289314767,-317.7048314774773M399.18420881478283,-332.55835806847773L423.34862802392087,-336.9611606907435M851.0533887966094,-400.273045993794L407.8493835973564,-322.90540239003076M-186.11573630596962,477.15209135125775L-145.05961524235224,451.40133823407047M69.60787904904127,572.4750546447058L-145.05961524235224,451.40133823407047M-145.05961524235224,451.40133823407047L-158.58849127531772,-518.8790338060732M-182.18796914366874,453.8660531752869L-147.3137044230988,474.4622849612939M-199.2680912508876,-521.2367954434933L-182.18796914366874,453.8660531752869M-182.18796914366874,453.8660531752869L-17429.315714743778,10854.96310510868M-64383.42141309338,42444.33733409921L-147.3137044230988,474.4622849612939M-147.3137044230988,474.4622849612939L-161.7248276818802,-541.021490922715M-204.42220217213057,-543.6162050839243L-186.11573630596962,477.15209135125775M-186.11573630596962,477.15209135125775L31.684864198897404,612.1436170090599M-158.58849127531772,-518.8790338060732L-204.42220217213057,-543.6162050839243M-158.58849127531772,-518.8790338060732L77.79704129010494,-637.2294218804985M-161.7248276818802,-541.021490922715L-199.2680912508876,-521.2367954434933M-65045.309407307424,-34074.60970623792L-199.2680912508876,-521.2367954434933M77.79704129010494,-637.2294218804985L69.60787904904127,572.4750546447058M31.684864198897404,612.1436170090599L35.673168783373995,-677.1623325419741M511.5087697366888,821.7097294022087L599.1959874058354,-898.2765635760879M590.6725736447278,-985.8647492765818L496.5831371349482,900.2848204485454" style="fill:none;stroke:rgb(0,0,0);stroke-opacity:1;stroke-width:2;stroke-linecap:round"></path></svg>