<svg viewBox="0 0 1440 1080" width="1440" height="1080" style="background-color: rgb(255, 255, 255);" xmlns="http://www.w3.org/2000/svg"><rect width="100%" height="100%" fill="#ffffff"></rect><path d="M-99.13491564504261,42.61091742672416L-94.22633984175556,44.694068235424126M-103.32863710593747,-195.6040043246521L-99.13491564504261,42.61091742672416M-99.13491564504261,42.61091742672416L-4287.789618540835,448.62185457911164M-102.80830306836806,44.24207342932903L-90.64727530669128,43.05175226576629M85168.60159720799,35369.43343048122L-90.64727530669128,43.05175226576629M-90.64727530669128,43.05175226576629L-94.49550869235269,-195.98719626750693" style="fill:none;stroke:rgb(0,0,0);stroke-opacity:1;stroke-width:2;stroke-linecap:round"></path><path d="M-96.70015048807132,43.644207572175816L-4418.453029993407,466.65729634865124M83142.26338850285,35369.43343048245L-96.70015048807132,43.644207572175816" style="fill:none;stroke:rgb(102,102,102);stroke-opacity:1;stroke-width:1;stroke-linecap:round"></path><path d="M-107.21437319986953,-197.02242275439414L-102.80830306836806,44.24207342932903M-102.80830306836806,44.24207342932903L81115.9251797946,35369.43343048248M-4558.217375577014,485.9489380424376L-94.22633984175556,44.694068235424126M-94.22633984175556,44.694068235424126L-98.27908564140095,-197.41573460962726M-98.27908564140095,-197.41573460962726L-103.32863710593747,-195.6040043246521M-5150.138368638433,-602.2413000182943L-103.32863710593747,-195.6040043246521M-94.49550869235269,-195.98719626750693L-107.21437319986953,-197.02242275439414M-94.49550869235269,-195.98719626750693L80679.4831040671,-28452.6658916438" style="fill:none;stroke:rgb(0,0,0);stroke-opacity:1;stroke-width:2;stroke-linecap:round"></path><path d="M-5470.465656182315,-773.1259627071177L-101.30491955893183,-224.4559246569046M-101.30491955893183,-224.4559246569046L78154.35395167982,-35544.010260769894" style="fill:none;stroke:rgb(102,102,102);stroke-opacity:1;stroke-width:1;stroke-linecap:round"></path><path d="M76626.80668665368,-28452.66589164481L-107.21437319986953,-197.02242275439414M-98.27908564140095,-197.41573460962726L-5552.737530248363,-645.9342720682049M-208.72306702228175,54.60900848932358L-194.57957110404575,53.224643380702375M-122.06412438658177,101.59799139752432L-194.57957110404575,53.224643380702375M-194.57957110404575,53.224643380702375L-203.51434732821107,-204.86056615511146M-218.40609590475873,-206.07265018615018L-208.72306702228175,54.60900848932358M-208.72306702228175,54.60900848932358L-140.17773752921957,104.10810975688479M-203.51434732821107,-204.86056615511146L-218.40609590475873,-206.07265018615018M-203.51434732821107,-204.86056615511146L-129.71971406936387,-247.8747677444137M-149.09363602931126,-250.14453951261248L-218.40609590475873,-206.07265018615018M-521.2350427006711,85.19767466185245L-500.38036450780027,83.15641916118729M-522.1808126355843,122.20378120209263L-500.38036450780027,83.15641916118729M-500.38036450780027,83.15641916118729L-528.526760011364,-231.3143001325324M-550.9256463988105,-233.13741260073718L-521.2350427006711,85.19767466185245M-521.2350427006711,85.19767466185245L-548.2054041814515,125.29591694152353M-528.526760011364,-231.3143001325324L-550.9256463988105,-233.13741260073718M-528.526760011364,-231.3143001325324L-558.753787839633,-266.62025637477115M-587.2081602101713,-269.4555424021296L-550.9256463988105,-233.13741260073718M-122.06412438658177,101.59799139752432L-140.17773752921957,104.10810975688479M-129.71971406936387,-247.8747677444137L-122.06412438658177,101.59799139752432M-140.17773752921957,104.10810975688479L-149.09363602931126,-250.14453951261248M-149.09363602931126,-250.14453951261248L-129.71971406936387,-247.8747677444137M79.0808055789099,123.35273291880064L95.8289779611514,120.31646411789035M108.79511693851974,125.68886395092433L95.8289779611514,120.31646411789035M95.8289779611514,120.31646411789035L102.47607469834107,-264.89258931089427M87.51568368430372,121.82357757895922L100.3616707734665,127.27528688645711M93.6332848738861,-266.2720392073334L87.51568368430372,121.82357757895922M87.51568368430372,121.82357757895922L-611.9644120294648,248.6320163149614M-522.1808126355843,122.20378120209263L-548.2054041814515,125.29591694152353M-558.753787839633,-266.62025637477115L-522.1808126355843,122.20378120209263M84.652056069792,-267.67308518825695L79.0808055789099,123.35273291880064M79.0808055789099,123.35273291880064L91.80164380293414,128.88552104803918M-548.2054041814515,125.29591694152353L-587.2081602101713,-269.4555424021296M108.79511693851974,125.68886395092433L91.80164380293414,128.88552104803918M116.5508084430479,-269.8162693867984L108.79511693851974,125.68886395092433M-620.7620602760069,262.92650276003855L100.3616707734665,127.27528688645711M100.3616707734665,127.27528688645711L107.57328783503294,-271.27357760430294M91.80164380293414,128.88552104803918L98.45125985304603,-272.75434349935284M-97.19796336059675,135.1453840651934L-76.84536673766885,131.76236050307105M-48.350075244035715,150.7708988856986L-76.84536673766885,131.76236050307105M-76.84536673766885,131.76236050307105L-82.49114878370166,-275.40385676156717M102.47607469834107,-264.89258931089427L84.652056069792,-267.67308518825695M102.47607469834107,-264.89258931089427L116.5508084430479,-269.8162693867984M-104.45756228379483,-278.5261047552139L-97.19796336059675,135.1453840651934M-97.19796336059675,135.1453840651934L-70.01957675396763,154.77189576015323M107.57328783503294,-271.27357760430294L93.6332848738861,-266.2720392073334M-683.7257111599558,-387.53781707410934L93.6332848738861,-266.2720392073334M-587.2081602101713,-269.4555424021296L-558.753787839633,-266.62025637477115M98.45125985304603,-272.75434349935284L84.652056069792,-267.67308518825695M98.45125985304603,-272.75434349935284L116.5508084430479,-269.8162693867984M107.57328783503294,-271.27357760430294L-697.0331666580419,-401.88420487962674M-82.49114878370166,-275.40385676156717L-104.45756228379483,-278.5261047552139M-82.49114878370166,-275.40385676156717L-52.23534914757431,-293.0396794131812M-48.350075244035715,150.7708988856986L-70.01957675396763,154.77189576015323M-52.23534914757431,-293.0396794131812L-48.350075244035715,150.7708988856986M-75.74845121565588,-296.7806114907962L-104.45756228379483,-278.5261047552139M-70.01957675396763,154.77189576015323L-75.74845121565588,-296.7806114907962M-574.4298604684402,164.28518308827793L-543.2639355746145,159.96632303278216M-594.4215132943199,251.59602012195535L-543.2639355746145,159.96632303278216M-543.2639355746145,159.96632303278216L-588.7464976227217,-301.6525230337369M-623.4333556742787,-305.7162975908816L-574.4298604684402,164.28518308827793M-574.4298604684402,164.28518308827793L-638.6481826410966,259.76191012837234M-75.74845121565588,-296.7806114907962L-52.23534914757431,-293.0396794131812M-588.7464976227217,-301.6525230337369L-623.4333556742787,-305.7162975908816M-588.7464976227217,-301.6525230337369L-664.8135346054892,-390.500804593153" style="fill:none;stroke:rgb(0,0,0);stroke-opacity:1;stroke-width:2;stroke-linecap:round"></path><path d="M218.84770899931863,50.535398241466815L238.04278046594007,47.9471576145031M951.3635267489766,197.91135710947086L238.04278046594007,47.9471576145031M238.04278046594007,47.9471576145031L252.25428974748874,-287.9214887597277" style="fill:none;stroke:rgb(0,102,204);stroke-opacity:1;stroke-width:1;stroke-linecap:round"></path><path d="M-716.3216102596083,-398.6957340377152L-623.4333556742787,-305.7162975908816" style="fill:none;stroke:rgb(0,0,0);stroke-opacity:1;stroke-width:2;stroke-linecap:round"></path><path d="M232.1785339129827,-291.9952567519181L218.84770899931863,50.535398241466815M218.84770899931863,50.535398241466815L939.4203623016389,209.6721724601439M252.25428974748874,-287.9214887597277L232.1785339129827,-291.9952567519181M252.25428974748874,-287.9214887597277L1079.6372606926586,-540.4035589273916M1072.0444134501054,-561.7266245171817L232.1785339129827,-291.9952567519181" style="fill:none;stroke:rgb(0,102,204);stroke-opacity:1;stroke-width:1;stroke-linecap:round"></path><path d="M-633.8281250280061,252.59567922303577L-590.6047615784404,244.75973468430644M-598.398729046302,258.71971695938515L-590.6047615784404,244.75973468430644M-590.6047615784404,244.75973468430644L-658.9705860698353,-383.67608843192596M-620.7620602760069,262.92650276003855L-611.9644120294648,248.6320163149614M-611.9644120294648,248.6320163149614L-683.7257111599558,-387.53781707410934M-594.4215132943199,251.59602012195535L-638.6481826410966,259.76191012837234M-664.8135346054892,-390.500804593153L-594.4215132943199,251.59602012195535M-709.1344369125217,-391.50150554842946L-633.8281250280061,252.59567922303577M-633.8281250280061,252.59567922303577L-643.6758735052119,267.2368402111694M-598.398729046302,258.71971695938515L-643.6758735052119,267.2368402111694M-670.9319083246417,-397.6472245464917L-598.398729046302,258.71971695938515M-638.6481826410966,259.76191012837234L-716.3216102596083,-398.6957340377152M-697.0331666580419,-401.88420487962674L-620.7620602760069,262.92650276003855M-643.6758735052119,267.2368402111694L-723.8569511736813,-406.238471865582M-658.9705860698353,-383.67608843192596L-709.1344369125217,-391.50150554842946M-658.9705860698353,-383.67608843192596L-670.9319083246417,-397.6472245464917M-683.7257111599558,-387.53781707410934L-697.0331666580419,-401.88420487962674M-716.3216102596083,-398.6957340377152L-664.8135346054892,-390.500804593153M-723.8569511736813,-406.238471865582L-709.1344369125217,-391.50150554842946M-723.8569511736813,-406.238471865582L-670.9319083246417,-397.6472245464917" style="fill:none;stroke:rgb(0,0,0);stroke-opacity:1;stroke-width:2;stroke-linecap:round"></path></svg>