<svg viewBox="0 0 1440 1080" width="1440" height="1080" style="background-color: rgb(255, 255, 255);" xmlns="http://www.w3.org/2000/svg"><rect width="100%" height="100%" fill="#ffffff"></rect><path d="M-84821.58463743221,-57901.68685375778L937.9549273142711,-148.2087797879903M937.9549273142711,118.5670238303922L-84821.58463743528,46321.34948300787" style="fill:none;stroke:rgb(0,0,0);stroke-opacity:1;stroke-width:2;stroke-linecap:round"></path><path d="M947.4821485160415,119.10596484780295L-80727.31709578974,46321.34948300657M-80727.31709578974,-69482.02422450989L947.4821485160415,-178.65894727170448" style="fill:none;stroke:rgb(102,102,102);stroke-opacity:1;stroke-width:1;stroke-linecap:round"></path><path d="M957.096376304129,-149.56228462623676L-76633.04955414789,-57901.686853759325M-76633.04955414582,46321.34948300622L957.096376304129,119.64982770098939" style="fill:none;stroke:rgb(0,0,0);stroke-opacity:1;stroke-width:2;stroke-linecap:round"></path><path d="M746.7694192353847,-275.50211495169407L711.8189026058334,-270.4470302736814M711.8189026058334,90.14901009122713L746.7694192353847,91.83403831723136M711.8189026058334,-270.4470302736814L711.8189026058334,90.14901009122713M526.3789713978009,-382.84060129651L711.8189026058334,-270.4470302736814M711.8189026058334,90.14901009122713L526.3789713978009,127.61353376550332M746.7694192353847,-275.50211495169407L571.2966436237465,-393.0496839977502M571.2966436237465,131.0165613325834L746.7694192353847,91.83403831723136M526.3789713978009,-382.84060129651L571.2966436237465,-393.0496839977502M571.2966436237465,131.0165613325834L526.3789713978009,127.61353376550332M526.3789713978009,127.61353376550332L526.3789713978009,-382.84060129651M571.2966436237465,-393.0496839977502L571.2966436237465,131.0165613325834M357.93770055050453,-535.9768418151139L304.74572028293727,-517.170636839145M304.74572028293727,172.390212279715L357.93770055050453,178.65894727170465M304.74572028293727,-517.170636839145L304.74572028293727,172.390212279715M-787.4629412111099,-1179.1490519932506L304.74572028293727,-517.170636839145M304.74572028293727,172.390212279715L-787.4629412111099,393.04968399775026M357.93770055050453,-535.9768418151139L-755.2393937446706,-1281.6837521665768M-755.2393937446706,427.22791738885894L357.93770055050453,178.65894727170465M357.93770055050453,178.65894727170465L357.93770055050453,-535.9768418151139" style="fill:none;stroke:rgb(0,102,204);stroke-opacity:1;stroke-width:1;stroke-linecap:round"></path></svg>