<svg viewBox="0 0 1440 1080" width="1440" height="1080" style="background-color: rgb(255, 255, 255);" xmlns="http://www.w3.org/2000/svg"><rect width="100%" height="100%" fill="#ffffff"></rect><path d="M187355.88627942948,38127.055893789766L-790.3728925811138,19.01282733592731" style="fill:none;stroke:rgb(0,0,0);stroke-opacity:1;stroke-width:2;stroke-linecap:round"></path><path d="M182127.35876205278,38127.0558937904L-807.0778314628529,22.01485270475768" style="fill:none;stroke:rgb(102,102,102);stroke-opacity:1;stroke-width:1;stroke-linecap:round"></path><path d="M-824.2282353814387,25.09693208342405L176898.83124466956,38127.055893789766M-894.9810695403787,-532.079565003966L149710.48815429123,-48129.387343800554M-325.6715764094645,131.98224801153427L-295.5828272939306,119.22997329352555M-264.70231258097164,125.48466041712031L-295.5828272939306,119.22997329352555M-295.5828272939306,119.22997329352555L-355.3636238252874,-702.6201023355615M-264.70231258097164,125.48466041712031L-294.1638878289732,138.73716580770724M-319.46830828737956,-713.9644472008571L-264.70231258097164,125.48466041712031M-310.3406423363116,125.48466041712022L-279.14706549382686,131.9822480115342M-374.54905109554846,-713.9644472008569L-310.3406423363116,125.48466041712022M-310.3406423363116,125.48466041712022L-82422.82353814312,34926.56381609817M-394.637322002057,-725.8426435892254L-325.6715764094645,131.98224801153427M-325.6715764094645,131.98224801153427L-294.1638878289732,138.73716580770724M-84745.79607086178,38127.05589378969L-279.14706549382686,131.9822480115342M-279.14706549382686,131.9822480115342L-338.260561716049,-725.8426435892253M-294.1638878289732,138.73716580770724L-357.958465912365,-738.2932831770332" style="fill:none;stroke:rgb(0,0,0);stroke-opacity:1;stroke-width:2;stroke-linecap:round"></path><path d="M-11.8321595661994,-46.475800154488965L11.275352057201506,-54.130637826992995M1175.4022663403575,39.460585036830366L11.275352057201506,-54.130637826992995M11.275352057201506,-54.130637826992995L13.128834587152438,-750.6160052348293M-13.889926447277556,-782.0058547733587L-11.8321595661994,-46.475800154488965M-11.8321595661994,-46.475800154488965L1232.234903394177,59.75460019862874" style="fill:none;stroke:rgb(0,102,204);stroke-opacity:1;stroke-width:1;stroke-linecap:round"></path><path d="M-769.246058113032,253.1708061047164L-706.8236320858268,230.05521076472058M-608.7166414664932,265.6657225047142L-706.8236320858268,230.05521076472058M-706.8236320858268,230.05521076472058L-912.0304930139702,-917.5222482112022M-769.246058113032,253.1708061047164L-670.8834474034968,292.79754097328066M-608.7166414664932,265.6657225047142L-670.8834474034968,292.79754097328066M-804.375561937866,-993.4202283022023L-608.7166414664932,265.6657225047142M-670.8834474034968,292.79754097328066L-903.1123330431686,-1053.7493919642793" style="fill:none;stroke:rgb(0,0,0);stroke-opacity:1;stroke-width:2;stroke-linecap:round"></path></svg>