<svg viewBox="0 0 1440 1080" width="1440" height="1080" style="background-color: rgb(255, 255, 255);" xmlns="http://www.w3.org/2000/svg"><rect width="100%" height="100%" fill="#ffffff"></rect><path d="M20.669247687861198,-25.563916359781953L24.290005649312768,-25.890364548661424M655.9385056869976,13.367946845484948L24.290005649312768,-25.890364548661424M24.290005649312768,-25.890364548661424L24.64619310486277,-130.53235414399867M20.2498005597182,-25.867168560025327L24.73047909667956,-25.587356416235863M20.546863648613822,-130.55145926946383L20.2498005597182,-25.867168560025327M20.2498005597182,-25.867168560025327L-1730.904594112044,131.09073890324902" style="fill:none;stroke:rgb(0,0,0);stroke-opacity:1;stroke-width:2;stroke-linecap:round"></path><path d="M655.8959791050233,13.828051358822437L22.484728380690473,-25.727600425502267M22.484728380690473,-25.727600425502267L-1738.3674942035127,133.03115259441608" style="fill:none;stroke:rgb(102,102,102);stroke-opacity:1;stroke-width:1;stroke-linecap:round"></path><path d="M-1745.9664958164067,135.0069537693122L24.73047909667956,-25.587356416235863M24.73047909667956,-25.587356416235863L25.095056184099903,-130.78194124989093M20.974078870476106,-130.8012503711516L20.669247687861198,-25.563916359781953M20.669247687861198,-25.563916359781953L655.8530472322745,14.292540802852177M24.64619310486277,-130.53235414399867L20.974078870476106,-130.8012503711516M24.64619310486277,-130.53235414399867L672.2576392078902,-163.19237467929992M25.095056184099903,-130.78194124989093L20.546863648613822,-130.55145926946383M-1829.1893975632008,-265.1943789710162L20.546863648613822,-130.55145926946383" style="fill:none;stroke:rgb(0,0,0);stroke-opacity:1;stroke-width:2;stroke-linecap:round"></path><path d="M22.85272720852501,-142.517118950743L674.1660620884503,-183.84002468875056M-1849.8013079345071,-314.21761848714084L22.85272720852501,-142.517118950743" style="fill:none;stroke:rgb(102,102,102);stroke-opacity:1;stroke-width:1;stroke-linecap:round"></path><path d="M25.095056184099903,-130.78194124989093L-1847.0192190469381,-268.6968742003114M672.3294671208732,-163.96949678535327L20.974078870476106,-130.8012503711516" style="fill:none;stroke:rgb(0,0,0);stroke-opacity:1;stroke-width:2;stroke-linecap:round"></path><path d="M5.440302473298182,-53.97114705403764L9.969907546910598,-53.8234991475774M5.4947054980311645,-125.61197833924501L5.440302473298182,-53.97114705403764M5.440302473298182,-53.97114705403764L-43.66881090425359,-51.761140624361246M-39.06270659185496,-51.59062064773991L9.969907546910598,-53.8234991475774M9.969907546910598,-53.8234991475774L10.070107622758943,-125.82285071153997M10.070107622758943,-125.82285071153997L5.4947054980311645,-125.61197833924501M-44.13836801075094,-128.77052903394255L5.4947054980311645,-125.61197833924501M56.957559752838144,-53.63686036719584L107.65415406512459,-52.05522580143281M57.533615982955354,-126.08944030989011L56.957559752838144,-53.63686036719584M56.957559752838144,-53.63686036719584L53.38589726309155,-53.46054428562011M10.070107622758943,-125.82285071153997L-39.485006122577715,-129.0144325624906M104.20673055973609,-51.85977546722351L53.38589726309155,-53.46054428562011M53.38589726309155,-53.46054428562011L53.92903483592504,-126.34131606097225M108.80093599924044,-128.34994971374317L57.533615982955354,-126.08944030989011M53.92903483592504,-126.34131606097225L57.533615982955354,-126.08944030989011M53.92903483592504,-126.34131606097225L105.32372990472655,-128.6294593289538M104.20673055973609,-51.85977546722351L107.65415406512459,-52.05522580143281M107.65415406512459,-52.05522580143281L108.80093599924044,-128.34994971374317M113.01926384731226,-51.88784487189048L182.1358407867256,-49.73154288282171M114.22964418302644,-128.58931556895703L113.01926384731226,-51.88784487189048M113.01926384731226,-51.88784487189048L109.58683032632445,-51.69031158031819M105.32372990472655,-128.6294593289538L104.20673055973609,-51.85977546722351M-39.06270659185496,-51.59062064773991L-43.66881090425359,-51.761140624361246M-43.66881090425359,-51.761140624361246L-44.13836801075094,-128.77052903394255M108.80093599924044,-128.34994971374317L105.32372990472655,-128.6294593289538M178.9280687038629,-49.50618186375373L109.58683032632445,-51.69031158031819M109.58683032632445,-51.69031158031819L110.76782894681473,-128.87183606757836M-39.485006122577715,-129.0144325624906L-39.06270659185496,-51.59062064773991M184.22037115338347,-131.6753886550623L114.22964418302644,-128.58931556895703M110.76782894681473,-128.87183606757836L114.22964418302644,-128.58931556895703M-44.13836801075094,-128.77052903394255L-39.485006122577715,-129.0144325624906M110.76782894681473,-128.87183606757836L180.9896499083241,-131.9981818253144M178.9280687038629,-49.50618186375373L182.1358407867256,-49.73154288282171M182.1358407867256,-49.73154288282171L184.22037115338347,-131.6753886550623M180.9896499083241,-131.9981818253144L178.9280687038629,-49.50618186375373M184.22037115338347,-131.6753886550623L180.9896499083241,-131.9981818253144" style="fill:none;stroke:rgb(0,102,204);stroke-opacity:1;stroke-width:1;stroke-linecap:round"></path><path d="M-143.89998239380665,-10.726324983220971L-138.20130232177885,-11.240119003236378M17.854317932819647,3.4959042770599043L-138.20130232177885,-11.240119003236378M-138.20130232177885,-11.240119003236378L-140.89583771850928,-150.08638879177283M-146.7259252005067,-150.56707725458892L-143.89998239380665,-10.726324983220971M-143.89998239380665,-10.726324983220971L12.320587267855418,4.2411821801842455M269.2494653109761,-10.317485755920979L276.4756793579532,-9.866218737480184M274.2821655971626,-143.40962533017557L269.2494653109761,-10.317485755920979M269.2494653109761,-10.317485755920979L248.44780477086576,-6.4621063199394335M255.9216154971746,-5.961979300937636L276.4756793579532,-9.866218737480184M276.4756793579532,-9.866218737480184L281.6758488756576,-143.78430400777825M-140.89583771850928,-150.08638879177283L-146.7259252005067,-150.56707725458892M-140.89583771850928,-150.08638879177283L18.274940425967284,-163.92592519175983M12.613384213558046,-164.62879303738146L-146.7259252005067,-150.56707725458892M281.6758488756576,-143.78430400777825L274.2821655971626,-143.40962533017557M253.34064994140797,-146.6134559700045L274.2821655971626,-143.40962533017557M281.6758488756576,-143.78430400777825L260.9949514872067,-147.02952477871017M90.86923275183982,-6.337679232460745L95.15537050708255,-6.914932436877415M114.73447043197416,-5.4128095563096155L95.15537050708255,-6.914932436877415M95.15537050708255,-6.914932436877415L97.01811837997813,-146.23682960954125M89.82493010781216,-6.873986095460309L96.2363280504369,-6.379199477906561M91.58428673669205,-146.27088208688457L89.82493010781216,-6.873986095460309M89.82493010781216,-6.873986095460309L11.753380744451787,3.548718992532386M255.9216154971746,-5.961979300937636L248.44780477086576,-6.4621063199394335M248.44780477086576,-6.4621063199394335L253.34064994140797,-146.6134559700045M18.46959831271002,4.187525551104421L96.2363280504369,-6.379199477906561M96.2363280504369,-6.379199477906561L98.13364886632723,-146.68242100803022M92.66172172667063,-146.71696021063596L90.86923275183982,-6.337679232460745M90.86923275183982,-6.337679232460745L110.51398004098334,-4.8126463049411905M260.9949514872067,-147.02952477871017L255.9216154971746,-5.961979300937636M97.01811837997813,-146.23682960954125L92.66172172667063,-146.71696021063596M114.73447043197416,-5.4128095563096155L110.51398004098334,-4.8126463049411905M117.02534172179729,-147.4865158662532L114.73447043197416,-5.4128095563096155M97.01811837997813,-146.23682960954125L117.02534172179729,-147.4865158662532M98.13364886632723,-146.68242100803022L91.58428673669205,-146.27088208688457M12.015537935777848,-154.96198574666835L91.58428673669205,-146.27088208688457M253.34064994140797,-146.6134559700045L260.9949514872067,-147.02952477871017M98.13364886632723,-146.68242100803022L18.884645465804628,-155.4961700874483M112.73784995796233,-147.98608766870814L92.66172172667063,-146.71696021063596M110.51398004098334,-4.8126463049411905L112.73784995796233,-147.98608766870814" style="fill:none;stroke:rgb(0,0,0);stroke-opacity:1;stroke-width:2;stroke-linecap:round"></path><path d="M-219.2447560770935,-43.8598786987925L-214.66280355206658,-43.59403127638432M-222.1942371005522,-140.10165260236414L-219.2447560770935,-43.8598786987925M-219.2447560770935,-43.8598786987925L-344.2761109729038,-38.2332224790693" style="fill:none;stroke:rgb(0,102,204);stroke-opacity:1;stroke-width:1;stroke-linecap:round"></path><path d="M112.73784995796233,-147.98608766870814L117.02534172179729,-147.4865158662532" style="fill:none;stroke:rgb(0,0,0);stroke-opacity:1;stroke-width:2;stroke-linecap:round"></path><path d="M-339.9956971839733,-37.88654191591296L-214.66280355206658,-43.59403127638432M-214.66280355206658,-43.59403127638432L-217.57020043990497,-140.48395469954121" style="fill:none;stroke:rgb(0,102,204);stroke-opacity:1;stroke-width:1;stroke-linecap:round"></path><path d="M379.213592112801,-3.4503789535611302L387.8615645669127,-2.910325099695884M386.9790581628925,-149.12059793827635L379.213592112801,-3.4503789535611302M379.213592112801,-3.4503789535611302L357.6325457457505,2.6077431445638903" style="fill:none;stroke:rgb(0,0,0);stroke-opacity:1;stroke-width:2;stroke-linecap:round"></path><path d="M-217.57020043990497,-140.48395469954121L-222.1942371005522,-140.10165260236414M-349.57266652633314,-148.20776407823496L-222.1942371005522,-140.10165260236414" style="fill:none;stroke:rgb(0,102,204);stroke-opacity:1;stroke-width:1;stroke-linecap:round"></path><path d="M366.78213171001534,3.232787488021239L387.8615645669127,-2.910325099695884M387.8615645669127,-2.910325099695884L395.85871022808624,-149.57057884333292M228.79474314340356,-2.819608188288199L236.49025260358138,-2.2709966403407194M233.51757041012524,-149.646177699515L228.79474314340356,-2.819608188288199M228.79474314340356,-2.819608188288199L203.38519616410048,1.8897968475605589" style="fill:none;stroke:rgb(0,0,0);stroke-opacity:1;stroke-width:2;stroke-linecap:round"></path><path d="M-217.57020043990497,-140.48395469954121L-345.26694830310464,-148.7082244489767" style="fill:none;stroke:rgb(0,102,204);stroke-opacity:1;stroke-width:1;stroke-linecap:round"></path><path d="M211.34971482388653,2.5044424027709353L236.49025260358138,-2.2709966403407194M236.49025260358138,-2.2709966403407194L241.40575438979903,-150.10343729383578M152.22404815860568,-1.5746699465682328L156.28604073098006,-2.224942662065547M209.25626894043774,1.8389720269425578L156.28604073098006,-2.224942662065547M156.28604073098006,-2.224942662065547L159.5363570026815,-150.1418284325078M395.85871022808624,-149.57057884333292L386.9790581628925,-149.12059793827635M365.5214989607303,-154.17543858313027L386.9790581628925,-149.12059793827635M155.4156997216283,-150.6839998538936L152.22404815860568,-1.5746699465682328M152.22404815860568,-1.5746699465682328L205.43416601387105,2.5560618267705415M395.85871022808624,-149.57057884333292L374.93284574801567,-154.69786126706046M241.40575438979903,-150.10343729383578L233.51757041012524,-149.646177699515M207.83347505954862,-153.57557292539752L233.51757041012524,-149.646177699515M241.40575438979903,-150.10343729383578L216.0061344895291,-154.08911414943313M159.5363570026815,-150.1418284325078L155.4156997216283,-150.6839998538936M159.5363570026815,-150.1418284325078L213.8301764582615,-153.5331156110849M209.96302699151911,-154.1322499350405L155.4156997216283,-150.6839998538936M209.25626894043774,1.8389720269425578L205.43416601387105,2.5560618267705415M213.8301764582615,-153.5331156110849L209.25626894043774,1.8389720269425578M211.34971482388653,2.5044424027709353L203.38519616410048,1.8897968475605589M203.38519616410048,1.8897968475605589L207.83347505954862,-153.57557292539752M203.38519616410045,1.8897968475605589L211.34971482388653,2.5044424027709353M207.8334750595486,-153.57557292539752L203.38519616410045,1.8897968475605589M203.38519616410045,1.8897968475605589L132.4794644405504,15.03146404538266M216.0061344895291,-154.08911414943313L211.34971482388653,2.5044424027709353M141.08933814813003,15.850383881880026L211.34971482388653,2.5044424027709353M211.34971482388653,2.5044424027709353L216.0061344895291,-154.08911414943313M205.43416601387105,2.5560618267705415L209.96302699151911,-154.1322499350405M366.78213171001534,3.232787488021239L357.6325457457505,2.6077431445638903M357.6325457457505,2.6077431445638903L365.5214989607303,-154.17543858313027M374.93284574801567,-154.69786126706046L366.78213171001534,3.232787488021239M12.320587267855453,4.2411821801842455L17.85431793281967,3.4959042770599043M139.30052079031,14.963828788153117L17.85431793281967,3.4959042770599043M17.85431793281967,3.4959042770599043L18.27494042596731,-163.92592519175986M17.854317932819647,3.4959042770599043L12.320587267855418,4.2411821801842455M18.274940425967284,-163.92592519175983L17.854317932819647,3.4959042770599043M18.46959831271002,4.187525551104421L11.753380744451787,3.548718992532386M11.753380744451787,3.548718992532386L12.015537935777848,-154.96198574666835M209.96302699151911,-154.1322499350405L213.8301764582615,-153.5331156110849M207.83347505954862,-153.57557292539752L216.0061344895291,-154.08911414943313M216.0061344895291,-154.08911414943313L207.8334750595486,-153.57557292539752M135.83337493271623,-164.5908275349038L207.8334750595486,-153.57557292539752M18.884645465804628,-155.4961700874483L18.46959831271002,4.187525551104421M12.320587267855418,4.2411821801842455L12.613384213558046,-164.62879303738146M12.613384213558083,-164.62879303738146L12.320587267855453,4.2411821801842455M12.320587267855453,4.2411821801842455L134.2081538293816,15.919241155329484M216.0061344895291,-154.08911414943313L144.69161912212485,-165.27969946071113M365.5214989607303,-154.17543858313027L374.93284574801567,-154.69786126706046M25.28494824359938,4.835760988769756L32.20164166788485,5.493635615099272M25.89000368015907,-165.18974050881292L25.28494824359938,4.835760988769756M25.28494824359938,4.835760988769756L-3.4897570076715567,8.816409836386951M12.015537935777848,-154.96198574666835L18.884645465804628,-155.4961700874483M3.5168794714615412,9.535048070238796L32.20164166788485,5.493635615099272M32.20164166788485,5.493635615099272L32.978077190333856,-165.81061384071342M18.27494042596731,-163.92592519175986L12.613384213558083,-164.62879303738146M18.27494042596731,-163.92592519175986L143.02565786985383,-174.77271575919715M12.613384213558046,-164.62879303738146L18.274940425967284,-163.92592519175983M137.8328232291801,-175.67942560503445L12.613384213558083,-164.62879303738146M32.978077190333856,-165.81061384071342L25.89000368015907,-165.18974050881292M-3.5771158787463353,-168.94988247056426L25.89000368015907,-165.18974050881292M341.3377657867906,7.181931294410793L350.85187329144395,7.875292420723473M349.2758533632276,-158.00248847703776L341.3377657867906,7.181931294410793M341.3377657867906,7.181931294410793L313.37511869672375,15.03146404538267" style="fill:none;stroke:rgb(0,0,0);stroke-opacity:1;stroke-width:2;stroke-linecap:round"></path><path d="M-339.9956971839733,-37.88654191591296L-344.2761109729038,-38.2332224790693M-344.2761109729038,-38.2332224790693L-349.57266652633314,-148.20776407823496" style="fill:none;stroke:rgb(0,102,204);stroke-opacity:1;stroke-width:1;stroke-linecap:round"></path><path d="M555.0008953055064,7.527293680520911L566.1887206896314,8.225957817939081M567.9581146511603,-158.29180408880623L555.0008953055064,7.527293680520911M555.0008953055064,7.527293680520911L538.1295683830414,21.523558801825573M32.978077190333856,-165.81061384071342L3.605618794114625,-169.62957574720178M323.48620115331727,15.850383881880038L350.85187329144395,7.875292420723473M350.85187329144395,7.875292420723473L359.0749640717122,-158.58337997879158" style="fill:none;stroke:rgb(0,0,0);stroke-opacity:1;stroke-width:2;stroke-linecap:round"></path><path d="M-345.26694830310464,-148.7082244489767L-339.9956971839733,-37.88654191591296" style="fill:none;stroke:rgb(0,102,204);stroke-opacity:1;stroke-width:1;stroke-linecap:round"></path><path d="M550.9007178140664,22.45428389080235L566.1887206896314,8.225957817939081M566.1887206896314,8.225957817939081L579.5108082352697,-158.8772427385023" style="fill:none;stroke:rgb(0,0,0);stroke-opacity:1;stroke-width:2;stroke-linecap:round"></path><path d="M-349.57266652633314,-148.20776407823496L-345.26694830310464,-148.7082244489767" style="fill:none;stroke:rgb(0,102,204);stroke-opacity:1;stroke-width:1;stroke-linecap:round"></path><path d="M3.5168794714615412,9.535048070238796L-3.4897570076715567,8.816409836386951M-3.4897570076715567,8.816409836386951L-3.5771158787463353,-168.94988247056426M359.0749640717122,-158.58337997879158L349.2758533632276,-158.00248847703776M321.30866600550155,-164.5908275349038L349.2758533632276,-158.00248847703776M3.605618794114625,-169.62957574720178L3.5168794714615412,9.535048070238796M579.5108082352697,-158.8772427385023L567.9581146511603,-158.29180408880623M552.6736107717721,-170.05991208100886L567.9581146511603,-158.29180408880623M359.0749640717122,-158.58337997879158L331.74542331042323,-165.2796994607111M579.5108082352697,-158.8772427385023L565.9252828453592,-170.8454714976312M-3.5771158787463353,-168.94988247056426L3.605618794114625,-169.62957574720178M655.9385056869976,13.367946845484948L655.8530472322745,14.292540802852177M672.2576392078902,-163.19237467929992L655.9385056869976,13.367946845484948M649.576520415032,13.433409951489038L662.2670252128921,14.225914328664858M665.7485499689334,-163.24738436009298L649.576520415032,13.433409951489038M649.576520415032,13.433409951489038L-5459.350579232936,38702.50808044026" style="fill:none;stroke:rgb(0,0,0);stroke-opacity:1;stroke-width:2;stroke-linecap:round"></path><path d="M-2920.0248715660227,38702.50808043885L655.8959791050233,13.828051358822437" style="fill:none;stroke:rgb(102,102,102);stroke-opacity:1;stroke-width:1;stroke-linecap:round"></path><path d="M-41.63187991035407,14.092929890696205L-34.53561877784655,14.896283092223406M-42.78980135531294,-183.2710289636564L-41.63187991035407,14.092929890696205M-41.63187991035407,14.092929890696205L-150.1595713099717,29.10648476030552M-380.6991638993039,38702.50808043888L662.2670252128921,14.225914328664858M662.2670252128921,14.225914328664858L678.8929756366467,-163.91348484634855M655.8530472322745,14.292540802852177L672.3294671208732,-163.96949678535327M135.02347981510275,14.559956276041024L143.61288488437654,15.371036792450585M138.6190595158553,-174.38957207521685L135.02347981510275,14.559956276041024M135.02347981510275,14.559956276041024L129.91090308719478,15.507521166048111M315.0547862352397,14.559956276041008L325.1310293479008,15.371036792450573M322.9917857485138,-164.19432847333877L315.0547862352397,14.559956276041008M315.0547862352397,14.559956276041008L311.6792448552862,15.507521166048097M-142.99326675561244,30.17694230210524L-34.53561877784655,14.896283092223406M-34.53561877784655,14.896283092223406L-35.504285908550024,-184.11281173469126M139.30052079031,14.963828788153117L134.2081538293816,15.919241155329484M143.02565786985383,-174.77271575919715L139.30052079031,14.963828788153117M316.73124303734056,15.919241155329475L320.0721889914756,14.963828788153105M653.3117199156718,41.78772414360139L320.0721889914756,14.963828788153105M320.0721889914756,14.963828788153105L328.16958801023407,-164.53394598094576M141.08933814813003,15.850383881880026L132.4794644405504,15.03146404538266M132.4794644405504,15.03146404538266L135.83337493271623,-164.5908275349038M132.47946444055043,15.03146404538267L141.08933814813008,15.850383881880038M136.02468954529755,-174.83688782927229L132.47946444055043,15.03146404538267M132.47946444055043,15.03146404538267L105.62800533594597,20.008113051762543M323.48620115331727,15.850383881880038L313.37511869672375,15.03146404538267M313.37511869672375,15.03146404538267L321.30866600550155,-164.5908275349038M321.8253704606629,16.334394528816116L325.1310293479008,15.371036792450573M325.1310293479008,15.371036792450573L333.3912389855327,-164.8764395718917M138.54123988005088,16.33439452881613L143.61288488437654,15.371036792450585M143.61288488437654,15.371036792450585L147.4696266692573,-175.15910871823593M138.54123988005088,16.33439452881613L129.91090308719478,15.507521166048111M129.91090308719478,15.507521166048111L133.40461456441588,-175.28863558655254M321.8253704606629,16.334394528816116L311.6792448552862,15.507521166048097M311.6792448552862,15.507521166048097L319.6088934876468,-164.9912495553819M672.3294671208732,-163.96949678535327L672.2576392078902,-163.19237467929992M678.8929756366467,-163.91348484634855L665.7485499689334,-163.24738436009298M993.5241602497198,-31112.57354160624L665.7485499689334,-163.24738436009298M144.69161912212485,-165.27969946071113L141.08933814813003,15.850383881880026M114.44171163820245,20.912094063137364L141.08933814813008,15.850383881880038M141.08933814813008,15.850383881880038L144.8971469901961,-175.6140626438466M331.74542331042323,-165.2796994607111L323.48620115331727,15.850383881880038M324.82373753652035,-165.33763510528755L316.73124303734056,15.919241155329475M316.73124303734056,15.919241155329475L653.168460012065,43.337684783977494M134.2081538293816,15.919241155329484L137.8328232291801,-175.67942560503445M330.08318467063003,-165.68698332561283L321.8253704606629,16.334394528816116M142.29896087608364,-176.07356286136203L138.54123988005088,16.33439452881613" style="fill:none;stroke:rgb(0,0,0);stroke-opacity:1;stroke-width:2;stroke-linecap:round"></path><path d="M674.1660620884503,-183.84002468875056L4249.8359500811175,-38869.80483294393" style="fill:none;stroke:rgb(102,102,102);stroke-opacity:1;stroke-width:1;stroke-linecap:round"></path><path d="M678.8929756366467,-163.91348484634855L6072.1755755829945,-31112.573541605136M-35.504285908550024,-184.11281173469126L-42.78980135531294,-183.2710289636564M-154.99820369220157,-199.06666595003986L-42.78980135531294,-183.2710289636564M333.3912389855327,-164.8764395718917L322.9917857485138,-164.19432847333877M319.6088934876468,-164.9912495553819L322.9917857485138,-164.19432847333877M147.4696266692573,-175.15910871823593L138.6190595158553,-174.38957207521685M133.40461456441588,-175.28863558655254L138.6190595158553,-174.38957207521685M328.16958801023407,-164.53394598094576L324.82373753652035,-165.33763510528755M328.16958801023407,-164.53394598094576L674.4811365826063,-187.2488854546268M135.83337493271623,-164.5908275349038L144.69161912212485,-165.27969946071113M321.30866600550155,-164.5908275349038L331.74542331042323,-165.2796994607111M137.8328232291801,-175.67942560503445L143.02565786985383,-174.77271575919715M-35.504285908550024,-184.11281173469126L-147.64614485580174,-200.19806375179664M144.8971469901961,-175.6140626438466L136.02468954529755,-174.83688782927229M108.60123807873558,-179.5651810221394L136.02468954529755,-174.83688782927229M333.3912389855327,-164.8764395718917L330.08318467063003,-165.68698332561283M319.6088934876468,-164.9912495553819L330.08318467063003,-165.68698332561283M147.4696266692573,-175.15910871823593L142.29896087608364,-176.07356286136203M133.40461456441588,-175.28863558655254L142.29896087608364,-176.07356286136203M674.6033411063534,-188.5710432748903L324.82373753652035,-165.33763510528755M144.8971469901961,-175.6140626438466L117.69192467426501,-180.42542142366037M-77.06968453597418,19.933486349599622L-69.66579776968085,18.899882588779874M43.96811258248393,32.84976719229673L-69.66579776968085,18.899882588779874M-69.66579776968085,18.899882588779874L-71.9213497210171,-210.69050177518514M-487.2773444778683,20.232642312819127L-475.7472798842238,19.19308958987889M-327.0132150110459,54.82632124087857L-475.7472798842238,19.19308958987889M-475.7472798842238,19.19308958987889L-490.7384243012798,-204.2469460181545M-79.5909232865934,-212.0128733419635L-77.06968453597418,19.933486349599622M-77.06968453597418,19.933486349599622L36.84843692855181,34.185536240804375M114.44171163820245,20.912094063137364L105.62800533594597,20.008113051762543M105.62800533594597,20.008113051762543L108.60123807873558,-179.5651810221394M-502.7919589607945,-205.5048066451257L-487.2773444778683,20.232642312819127M-487.2773444778683,20.232642312819127L-340.5613735992998,56.71768296181383M117.69192467426501,-180.42542142366037L114.44171163820245,20.912094063137364M550.9007178140664,22.45428389080235L538.1295683830414,21.523558801825573M538.1295683830414,21.523558801825573L552.6736107717721,-170.05991208100886M-71.9213497210171,-210.69050177518514L-79.5909232865934,-212.0128733419635M-71.9213497210171,-210.69050177518514L45.59245931097201,-228.61080159701783M-490.7384243012798,-204.2469460181545L-502.7919589607945,-205.5048066451257M-490.7384243012798,-204.2469460181545L-341.04114765196897,-247.82527649585185M565.9252828453592,-170.8454714976312L550.9007178140664,22.45428389080235M108.60123807873558,-179.5651810221394L117.69192467426501,-180.42542142366037M38.22594858943226,-230.3350785339954L-79.5909232865934,-212.0128733419635M-355.3787042535158,-250.16525696453505L-502.7919589607945,-205.5048066451257M552.6736107717721,-170.05991208100886L565.9252828453592,-170.8454714976312M69.60092496388707,26.685368111609804L78.65304176976585,27.710139731595447M71.7940192983617,-196.51026876356306L69.60092496388707,26.685368111609804M69.60092496388707,26.685368111609804L-227.36712422262255,81.72541993809098M-217.88959703937343,84.0383401662474L78.65304176976585,27.710139731595447M78.65304176976585,27.710139731595447L81.15511502590245,-197.59186815883353M529.8358132791006,28.403965767999633L543.3720975300618,29.46106333423123M545.1195386621515,-175.87607314638592L529.8358132791006,28.403965767999633M529.8358132791006,28.403965767999633L525.2682380044665,32.19317540154478" style="fill:none;stroke:rgb(0,0,0);stroke-opacity:1;stroke-width:2;stroke-linecap:round"></path><path d="M-587.8716817181894,-27.270943982022377L-584.8608718865,-26.735715194643962M-599.1407874380269,-164.08978600340362L-587.8716817181894,-27.270943982022377M-587.8716817181894,-27.270943982022377L-854.6227249677796,-15.26662380274667" style="fill:none;stroke:rgb(0,102,204);stroke-opacity:1;stroke-width:1;stroke-linecap:round"></path><path d="M-142.99326675561244,30.17694230210524L-150.1595713099717,29.10648476030552M-150.1595713099717,29.10648476030552L-154.99820369220157,-199.06666595003986M539.2221751296106,33.32333688109693L543.3720975300618,29.46106333423123M543.3720975300618,29.46106333423123L559.198469302782,-176.7714876793358M81.15511502590245,-197.59186815883353L71.7940192983617,-196.51026876356306M-238.27672890299118,-255.51295253662113L71.7940192983617,-196.51026876356306" style="fill:none;stroke:rgb(0,0,0);stroke-opacity:1;stroke-width:2;stroke-linecap:round"></path><path d="M-854.0413296713755,-14.477603582172012L-584.8608718865,-26.735715194643962M-584.8608718865,-26.735715194643962L-596.1807597294646,-164.86825125905705" style="fill:none;stroke:rgb(0,102,204);stroke-opacity:1;stroke-width:1;stroke-linecap:round"></path><path d="M-147.64614485580174,-200.19806375179664L-142.99326675561244,30.17694230210524M81.15511502590245,-197.59186815883353L-228.49778852227777,-258.0336796669608" style="fill:none;stroke:rgb(0,0,0);stroke-opacity:1;stroke-width:2;stroke-linecap:round"></path><path d="M-596.1807597294646,-164.86825125905705L-599.1407874380269,-164.08978600340362M-874.5750064845372,-181.61787528763645L-599.1407874380269,-164.08978600340362" style="fill:none;stroke:rgb(0,102,204);stroke-opacity:1;stroke-width:1;stroke-linecap:round"></path><path d="M559.198469302782,-176.7714876793358L545.1195386621515,-175.87607314638592M540.9478869001223,-179.08798298845983L545.1195386621515,-175.87607314638592M539.2221751296106,33.32333688109693L525.2682380044665,32.19317540154478M525.2682380044665,32.19317540154478L540.9478869001223,-179.08798298845983" style="fill:none;stroke:rgb(0,0,0);stroke-opacity:1;stroke-width:2;stroke-linecap:round"></path><path d="M-596.1807597294646,-164.86825125905705L-874.2155343092819,-182.77499535497998" style="fill:none;stroke:rgb(0,102,204);stroke-opacity:1;stroke-width:1;stroke-linecap:round"></path><path d="M-154.99820369220157,-199.06666595003986L-147.64614485580174,-200.19806375179664M559.198469302782,-176.7714876793358L555.480130158644,-180.04717501595638M43.96811258248393,32.84976719229673L36.84843692855181,34.185536240804375M45.59245931097201,-228.61080159701783L43.96811258248393,32.84976719229673M555.480130158644,-180.04717501595638L539.2221751296106,33.32333688109693M36.84843692855181,34.185536240804375L38.22594858943226,-230.3350785339954M540.9478869001223,-179.08798298845983L555.480130158644,-180.04717501595638M-207.5970454645055,37.05230089039099L-200.50470710662458,38.279765403709035M-215.55372664955615,-234.04057885295177L-207.5970454645055,37.05230089039099M-207.5970454645055,37.05230089039099L-337.04347903598796,54.9597231254708M38.22594858943226,-230.3350785339954L45.59245931097201,-228.61080159701783M-330.4005920384815,56.580870486617215L-200.50470710662458,38.279765403709035M-200.50470710662458,38.279765403709035L-208.27073449455722,-235.6292288804209M645.2024985597042,41.134977740846054L661.5062266846735,42.44733553919903M665.9968494533024,-186.69239211961116L645.2024985597042,41.134977740846054M645.2024985597042,41.134977740846054L644.9603189549894,42.66875030968499M-208.27073449455722,-235.6292288804209L-215.55372664955615,-234.04057885295177M-351.9629086915045,-257.340779255831L-215.55372664955615,-234.04057885295177M653.3117199156718,41.78772414360139L653.168460012065,43.337684783977494M674.4811365826063,-187.2488854546268L653.3117199156718,41.78772414360139M661.463999199296,44.01374189686052L661.5062266846735,42.44733553919903M661.5062266846735,42.44733553919903L683.0575607667081,-187.8114221561765M661.463999199296,44.01374189686052L644.9603189549894,42.66875030968499M644.9603189549894,42.66875030968499L666.0107010786337,-188.00029440622845M-208.27073449455722,-235.6292288804209L-345.20469188541944,-259.46329334548415M653.168460012065,43.337684783977494L674.6033411063534,-188.5710432748903M683.2904922984478,-189.1480698579646L661.463999199296,44.01374189686052M683.0575607667081,-187.8114221561765L665.9968494533024,-186.69239211961116M666.0107010786337,-188.00029440622845L665.9968494533024,-186.69239211961116M674.6033411063534,-188.5710432748903L674.4811365826063,-187.2488854546268M683.0575607667081,-187.8114221561765L683.2904922984478,-189.1480698579646M666.0107010786337,-188.00029440622845L683.2904922984478,-189.1480698579646M-340.5613735992998,56.71768296181387L-327.013215011046,54.82632124087859M-215.52812530677957,81.53556253305955L-327.013215011046,54.82632124087859M-327.013215011046,54.82632124087859L-341.0411476519691,-247.8252764958519M-327.0132150110459,54.82632124087857L-340.5613735992998,56.71768296181383M-341.04114765196897,-247.82527649585185L-327.0132150110459,54.82632124087857M-330.4005920384815,56.580870486617215L-337.04347903598796,54.9597231254708M-337.04347903598796,54.9597231254708L-351.9629086915045,-257.340779255831M-345.20469188541944,-259.46329334548415L-330.4005920384815,56.580870486617215M-355.3787042535159,-250.16525696453508L-340.5613735992998,56.71768296181387M-340.5613735992998,56.71768296181387L-229.91093895518276,84.23401660732337M-340.5613735992998,56.71768296181383L-355.3787042535158,-250.16525696453505" style="fill:none;stroke:rgb(0,0,0);stroke-opacity:1;stroke-width:2;stroke-linecap:round"></path><path d="M649.2135953786021,-13.396810259197359L667.6431279402789,-12.563787737537067M664.7947216676886,-184.36102126061883L649.2135953786021,-13.396810259197359M649.2135953786021,-13.396810259197359L644.8198510924926,6.273628218941198M668.4213257384108,7.642998845410611L667.6431279402789,-12.563787737537067M667.6431279402789,-12.563787737537067L683.8611796311358,-185.58425176678978M683.8611796311358,-185.58425176678978L664.7947216676886,-184.36102126061883M664.7627330850439,-213.43271260315439L664.7947216676886,-184.36102126061883" style="fill:none;stroke:rgb(0,102,204);stroke-opacity:1;stroke-width:1;stroke-linecap:round"></path><path d="M-341.0411476519691,-247.8252764958519L-355.3787042535159,-250.16525696453508M-341.0411476519691,-247.8252764958519L-226.64897692818354,-281.12594790045256M-355.3787042535158,-250.16525696453505L-341.04114765196897,-247.82527649585185M-351.9629086915045,-257.340779255831L-345.20469188541944,-259.46329334548415" style="fill:none;stroke:rgb(0,0,0);stroke-opacity:1;stroke-width:2;stroke-linecap:round"></path><path d="M683.8611796311358,-185.58425176678978L689.4188542956383,-215.47121003274506" style="fill:none;stroke:rgb(0,102,204);stroke-opacity:1;stroke-width:1;stroke-linecap:round"></path><path d="M-241.97788271653565,-284.5212703806234L-355.3787042535159,-250.16525696453508M-220.24522125857945,80.40545576892451L-210.74558987360552,82.68134707888447M-231.52773491515688,-279.70569408798616L-220.24522125857945,80.40545576892451M-220.24522125857945,80.40545576892451L-234.60456151352565,83.06681573064508M-215.52812530677957,81.53556253305955L-229.91093895518276,84.23401660732337M-226.64897692818354,-281.12594790045256L-215.52812530677957,81.53556253305955M-227.36712392529,81.7254291292553L-217.88959675044964,84.0383494828925M-239.11302728933356,-281.36465981441035L-227.36712392529,81.7254291292553M-227.36712392529,81.7254291292553L-463.40436895552915,125.47256947450282M-217.88959703937343,84.0383401662474L-227.36712422262255,81.72541993809098M-227.36712422262255,81.72541993809098L-238.27672890299118,-255.51295253662113M-225.1511313549284,85.41767625076066L-210.74558987360552,82.68134707888447M-210.74558987360552,82.68134707888447L-221.69901899102734,-282.5669287096188M-225.1511313549284,85.41767625076066L-234.60456151352565,83.06681573064508M-234.60456151352565,83.06681573064508L-246.82778310738385,-283.051940259057M-455.56521011459347,129.1847756089131L-217.88959675044964,84.0383494828925M-217.88959675044964,84.0383494828925L-229.3115694312894,-284.27488012944315M-228.49778852227777,-258.0336796669608L-217.88959703937343,84.0383401662474M-229.91093895518276,84.23401660732337L-241.97788271653565,-284.5212703806234M-237.05597755328435,-286.0124151318653L-225.1511313549284,85.41767625076066M-221.69901899102734,-282.5669287096188L-231.52773491515688,-279.70569408798616M-246.82778310738385,-283.051940259057L-231.52773491515688,-279.70569408798616M-238.27672890299118,-255.51295253662113L-228.49778852227777,-258.0336796669608M-241.97788271653565,-284.5212703806234L-226.64897692818354,-281.12594790045256M-229.3115694312894,-284.27488012944315L-239.11302728933356,-281.36465981441035M-494.0964045773341,-337.13161814138834L-239.11302728933356,-281.36465981441035M-221.69901899102734,-282.5669287096188L-237.05597755328435,-286.0124151318653M-246.82778310738385,-283.051940259057L-237.05597755328435,-286.0124151318653M-229.3115694312894,-284.27488012944315L-486.3098044958659,-341.9349907474774" style="fill:none;stroke:rgb(0,0,0);stroke-opacity:1;stroke-width:2;stroke-linecap:round"></path><path d="M668.4213257384108,7.642998845410611L644.8198510924926,6.273628218941198M644.8198510924926,6.273628218941198L664.7627330850439,-213.43271260315439M689.4188542956383,-215.47121003274506L668.4213257384108,7.642998845410611M664.7627330850439,-213.43271260315439L689.4188542956383,-215.47121003274506" style="fill:none;stroke:rgb(0,102,204);stroke-opacity:1;stroke-width:1;stroke-linecap:round"></path><path d="M-455.56521011459347,129.1847756089131L-463.40436895552915,125.47256947450282M-463.40436895552915,125.47256947450282L-494.0964045773341,-337.13161814138834M-486.3098044958659,-341.9349907474774L-455.56521011459347,129.1847756089131" style="fill:none;stroke:rgb(0,0,0);stroke-opacity:1;stroke-width:2;stroke-linecap:round"></path><path d="M640.5592505726288,25.347992803802843L669.1809092373588,27.366444082624167M664.7312977640487,-242.00159167404226L640.5592505726288,25.347992803802843M640.5592505726288,25.347992803802843L628.0510655601846,81.34612736486453M671.43959526442,86.01578312762153L669.1809092373588,27.366444082624167M669.1809092373588,27.366444082624167L694.9186365157188,-245.04684581676327" style="fill:none;stroke:rgb(0,102,204);stroke-opacity:1;stroke-width:1;stroke-linecap:round"></path><path d="M-494.0964045773341,-337.13161814138834L-486.3098044958659,-341.9349907474774" style="fill:none;stroke:rgb(0,0,0);stroke-opacity:1;stroke-width:2;stroke-linecap:round"></path><path d="M694.9186365157188,-245.04684581676327L664.7312977640487,-242.00159167404226M664.6365645248555,-328.0965437478637L664.7312977640487,-242.00159167404226M694.9186365157188,-245.04684581676327L711.7259709802851,-335.42998877272305" style="fill:none;stroke:rgb(0,102,204);stroke-opacity:1;stroke-width:1;stroke-linecap:round"></path><path d="M-620.3216408282738,154.55561488257334L-614.550924417737,159.38407415824554M-662.8315793652117,-322.1007745977223L-620.3216408282738,154.55561488257334M-620.3216408282738,154.55561488257334L-1174.6139311064837,257.2881417428279M-1182.5047685734191,267.2667715255984L-614.550924417737,159.38407415824554M-614.550924417737,159.38407415824554L-657.5788441764346,-327.2726873519101M-657.5788441764346,-327.2726873519101L-662.8315793652117,-322.1007745977223M-1293.3334967245216,-435.3345557783717L-662.8315793652117,-322.1007745977223M-657.5788441764346,-327.2726873519101L-1305.8849122367549,-446.701787000415" style="fill:none;stroke:rgb(0,0,0);stroke-opacity:1;stroke-width:2;stroke-linecap:round"></path><path d="M671.43959526442,86.01578312762153L628.0510655601846,81.34612736486453M628.0510655601846,81.34612736486453L664.6365645248555,-328.0965437478637M711.7259709802851,-335.42998877272305L671.43959526442,86.01578312762153M664.6365645248555,-328.0965437478637L711.7259709802851,-335.42998877272305M610.6198955681808,159.38406826499283L674.6606087889262,169.65304479390304M664.4981216477263,-453.91545348809905L610.6198955681808,159.38406826499283M610.6198955681808,159.38406826499283L441.7312263123194,915.485006764013M711.0795350393424,1115.3116833673253L674.6606087889262,169.65304479390304M674.6606087889262,169.65304479390304L736.9369726771348,-471.0047032066628M736.9369726771348,-471.0047032066628L664.4981216477263,-453.91545348809905M662.5968394684792,-2181.8284805873304L664.4981216477263,-453.91545348809905M441.7312263123194,915.485006764013L662.5968394684792,-2181.8284805873304M1185.1325583989044,-2881.221848698924L711.0795350393424,1115.3116833673253" style="fill:none;stroke:rgb(0,102,204);stroke-opacity:1;stroke-width:1;stroke-linecap:round"></path></svg>