<svg viewBox="0 0 1440 1080" width="1440" height="1080" xmlns="http://www.w3.org/2000/svg">
  <rect width="100%" height="100%" fill="#ffffff"/>
  <path d="M-2319.75,1475.31L3759.75,1475.31 M-332.22,1007.65L-16115.53,8022.46 M135.43,1007.65L-8633.07,8022.46 M603.09,1007.65L-1150.61,8022.46 M1070.74,1007.65L6331.84,8022.46 M1538.39,1007.65L13814.30,8022.46 M2006.05,1007.65L21296.76,8022.46 M-98.39,-161.48L-12374.30,-10683.69 M603.09,-161.48L-1150.61,-10683.69 M1304.57,-161.48L10073.07,-10683.69 M2006.05,-161.48L21296.76,-10683.69" fill="none" stroke="#888888" stroke-width="0.5" stroke-linecap="round"/>
  <path d="M-799.87,1007.65L2239.87,1007.65 M2239.87,1007.65L25037.99,8022.46" fill="none" stroke="#444444" stroke-width="1.5" stroke-linecap="round"/>
  <path d="M-799.87,-161.48L2239.87,-161.48 M2239.87,-161.48L25037.99,-10683.69" fill="none" stroke="#666666" stroke-width="1" stroke-linecap="round"/>
  <path d="M-799.87,890.74L2239.87,890.74 M-799.87,72.35L2239.87,72.35 M-799.87,890.74L-799.87,72.35 M-332.22,890.74L-332.22,72.35 M135.43,890.74L135.43,72.35 M603.09,890.74L603.09,72.35 M1070.74,890.74L1070.74,72.35 M1538.39,890.74L1538.39,72.35 M2006.05,890.74L2006.05,72.35 M-799.87,317.86L2239.87,317.86" fill="none" stroke="#0066cc" stroke-width="1" stroke-linecap="round"/>
  <path d="M-799.87,1007.65L-799.87,-161.48 M2239.87,1007.65L2239.87,-161.48" fill="none" stroke="#000000" stroke-width="2" stroke-linecap="round"/>
</svg>