<svg viewBox="0 0 1440 1080" width="1440" height="1080" xmlns="http://www.w3.org/2000/svg">
  <rect width="100%" height="100%" fill="#ffffff"/>
  <path d="M786.23,674.63L236.22,742.08 M874.06,713.99L184.34,824.06 M1012.08,775.85L80.15,988.73 M1260.52,887.20L-235.97,1488.29 M829.40,295.91L188.57,203.73 M1026.69,205.20L21.44,-38.82 M1546.80,-33.95L-1729.03,-2579.23" fill="none" stroke="#888888" stroke-width="0.5" stroke-linecap="round"/>
  <path d="M725.42,647.38L16121.39,7547.73 M267.28,693.00L-4070.21,7547.73 M267.28,693.00L725.42,647.38" fill="none" stroke="#444444" stroke-width="1.5" stroke-linecap="round"/>
  <path d="M251.61,295.21L725.57,343.65" fill="none" stroke="#666666" stroke-width="1" stroke-linecap="round"/>
  <path d="M725.44,617.71L16081.71,6137.68 M725.54,405.67L15803.94,-3732.66 M725.44,617.71L725.54,405.67 M786.43,639.63L787.88,388.56 M874.63,671.34L878.77,363.61 M1013.48,721.25L1023.65,323.85 M1264.15,811.35L1290.97,250.48 M1852.79,1022.95L1949.49,69.75 M4877.21,2110.11L6199.96,-1096.81 M725.51,470.09L15887.27,-771.56" fill="none" stroke="#0066cc" stroke-width="1" stroke-linecap="round"/>
  <path d="M725.42,647.38L725.57,343.65 M267.28,693.00L251.61,295.21" fill="none" stroke="#000000" stroke-width="2" stroke-linecap="round"/>
</svg>