<svg viewBox="0 0 1440 1080" width="1440" height="1080" style="background-color: rgb(255, 255, 255);" xmlns="http://www.w3.org/2000/svg"><rect width="100%" height="100%" fill="#ffffff"></rect><path d="M-255.3303348173467,-28.60450031929874L-253.38248738072363,-27.91702475343175M-260.5888542987108,-201.4837606239804L-255.3303348173467,-28.60450031929874M-255.3303348173467,-28.60450031929874L-1547.117530862158,17.303040704998622M-259.1838922836682,-28.090057542583363L-249.55938082955376,-28.433790094516034M108805.65763667661,37540.82757478795L-249.55938082955376,-28.433790094516034M-249.55938082955376,-28.433790094516034L-254.71083593842067,-201.7060386292014" style="fill:none;stroke:rgb(0,0,0);stroke-opacity:1;stroke-width:2;stroke-linecap:round"></path><path d="M-254.36079814281126,-28.262310904756927L-1554.9186182121425,18.186182669148028M106191.39387798661,37540.827574787916L-254.36079814281126,-28.262310904756927" style="fill:none;stroke:rgb(102,102,102);stroke-opacity:1;stroke-width:1;stroke-linecap:round"></path><path d="M-264.55867346005766,-202.1536676074576L-259.1838922836682,-28.090057542583363M-259.1838922836682,-28.090057542583363L103577.13011929482,37540.82757478729M-1562.8335900489897,19.08221721671541L-253.38248738072363,-27.91702475343175M-253.38248738072363,-27.91702475343175L-258.6490979729327,-202.37903277433955M-258.6490979729327,-202.37903277433955L-260.5888542987108,-201.4837606239804M-1598.8798274337544,-262.00948302707286L-260.5888542987108,-201.4837606239804M-254.71083593842067,-201.7060386292014L-264.55867346005766,-202.1536676074576M-254.71083593842067,-201.7060386292014L104099.98287103836,-47161.31820676873" style="fill:none;stroke:rgb(0,0,0);stroke-opacity:1;stroke-width:2;stroke-linecap:round"></path><path d="M-1613.374205362975,-295.6280220353213L-260.22164602628624,-221.67029105942908M-260.22164602628624,-221.67029105942908L100962.86636060665,-56572.66773805092" style="fill:none;stroke:rgb(102,102,102);stroke-opacity:1;stroke-width:1;stroke-linecap:round"></path><path d="M98871.45535365296,-47161.31820676621L-264.55867346005766,-202.1536676074576M-258.6490979729327,-202.37903277433955L-1615.9109572582006,-264.38591974676297M-339.42572080040725,-25.224277952699815L-329.0681654295111,-25.59419064451754M-306.0601473588299,-12.752506139951238L-329.0681654295111,-25.59419064451754M-329.0681654295111,-25.59419064451754L-336.1196261172864,-205.40643818278625M-346.73393009993754,-205.88890654563406L-339.42572080040725,-25.224277952699815M-339.42572080040725,-25.224277952699815L-317.9856517382066,-12.252135326830528M-336.1196261172864,-205.40643818278625L-346.73393009993754,-205.88890654563406M-336.1196261172864,-205.40643818278625L-313.7116510428006,-222.21241948865057M-325.97970443553584,-222.86963663468993L-346.73393009993754,-205.88890654563406M-543.9808168977465,-17.918738806366274L-531.6334849732958,-18.359714946525227M-537.7914017876583,-9.666185326248744L-531.6334849732958,-18.359714946525227M-531.6334849732958,-18.359714946525227L-544.0936447773573,-214.8598026673349M-556.7971188665416,-215.43723330775236L-543.9808168977465,-17.918738806366274M-543.9808168977465,-17.918738806366274L-551.4255500019934,-9.13151284725521M-544.0936447773573,-214.8598026673349L-556.7971188665416,-215.43723330775236M-544.0936447773573,-214.8598026673349L-551.6998001097528,-226.2690356659281M-565.768989163895,-226.9724951186352L-556.7971188665416,-215.43723330775236M-306.0601473588299,-12.752506139951238L-317.9856517382066,-12.252135326830528M-313.7116510428006,-222.21241948865057L-306.0601473588299,-12.752506139951238M-317.9856517382066,-12.252135326830528L-325.97970443553584,-222.86963663468993M-731.1296330088413,-11.234852516684319L-716.8096355334133,-11.746280997949617M-737.2689247059292,-4.033878796791707L-716.8096355334133,-11.746280997949617M-716.8096355334133,-11.746280997949617L-734.9312274429658,-223.53423824304437M-325.97970443553584,-222.86963663468993L-313.7116510428006,-222.21241948865057M-537.7914017876583,-9.666185326248744L-551.4255500019934,-9.13151284725521M-551.6998001097528,-226.2690356659281L-537.7914017876583,-9.666185326248744M-551.4255500019934,-9.13151284725521L-565.768989163895,-226.9724951186352M-202.24963176111777,-7.49072710226365L-190.37202755588746,-8.04388848827697M-187.14210883533056,-6.931189216123379L-190.37202755588746,-8.04388848827697M-190.37202755588746,-8.04388848827697L-195.38181775472663,-228.40409681186375M-196.29386165249517,-7.768098025821745L-193.12306841652168,-6.648994530772274M-201.47463805974579,-228.7672450419642L-196.29386165249517,-7.768098025821745M-196.29386165249517,-7.768098025821745L-558.9962641064672,9.123605063884575M-207.60329848420622,-229.13252943812412L-202.24963176111777,-7.49072710226365M-202.24963176111777,-7.49072710226365L-199.13870022716904,-6.365163934201768M-565.768989163895,-226.9724951186352L-551.6998001097528,-226.2690356659281M-187.14210883533056,-6.931189216123379L-199.13870022716904,-6.365163934201768M-192.12518273922984,-229.8695825688373L-187.14210883533056,-6.931189216123379M-560.199376862144,10.670464321183697L-193.12306841652168,-6.648994530772274M-193.12306841652168,-6.648994530772274L-198.28065778076112,-230.24138978611097M-307.3093724500904,-5.792537774356862L-294.6161592401953,-6.365163934201755M-288.2755712285195,-2.8262310904756793L-294.6161592401953,-6.365163934201755M-294.6161592401953,-6.365163934201755L-302.50766350555773,-230.61541014158271M-199.13870022716904,-6.365163934201768L-204.47277255468248,-230.61541014158274M-315.5901639232964,-231.37016978106763L-307.3093724500904,-5.792537774356862M-307.3093724500904,-5.792537774356862L-301.39064964232807,-2.211461789828396M-195.38181775472663,-228.40409681186375L-207.60329848420622,-229.13252943812412M-195.38181775472663,-228.40409681186375L-192.12518273922984,-229.8695825688373M-198.28065778076112,-230.24138978611097L-201.47463805974579,-228.7672450419642M-576.4044522620319,-251.11405515998135L-201.47463805974579,-228.7672450419642M-204.47277255468248,-230.61541014158274L-207.60329848420622,-229.13252943812412M-204.47277255468248,-230.61541014158274L-192.12518273922984,-229.8695825688373M-198.28065778076112,-230.24138978611097L-577.889883499896,-253.17080610471646M-302.50766350555773,-230.61541014158271L-315.5901639232964,-231.37016978106763M-302.50766350555773,-230.61541014158271L-296.2832259848672,-235.2837382821006M-309.81461189941183,-236.09562143697326L-315.5901639232964,-231.37016978106763M-288.2755712285195,-2.8262310904756793L-301.39064964232807,-2.211461789828396M-296.2832259848672,-235.2837382821006L-288.2755712285195,-2.8262310904756793M-557.2883710367579,-2.2114617898284097L-542.6363693713309,-2.8262310904756927M-551.3719927418921,9.506413667963663L-542.6363693713309,-2.8262310904756927M-542.6363693713309,-2.8262310904756927L-557.7096018538679,-235.2837382821006M-572.864754078158,-236.09562143697332L-557.2883710367579,-2.2114617898284097M-557.2883710367579,-2.2114617898284097L-567.8712598537478,10.279816813831902M-301.39064964232807,-2.211461789828396L-309.81461189941183,-236.09562143697326M-309.81461189941183,-236.09562143697326L-296.2832259848672,-235.2837382821006M-557.7096018538679,-235.2837382821006L-572.864754078158,-236.09562143697332M-557.7096018538679,-235.2837382821006L-568.6023675150764,-251.62288677391322M-585.74133446453,-252.65122479088043L-572.864754078158,-236.09562143697332" style="fill:none;stroke:rgb(0,0,0);stroke-opacity:1;stroke-width:2;stroke-linecap:round"></path><path d="M-174.67464730063125,-63.91352037245329L-161.59391882013884,-64.17207064256553M-82.6545667418155,-53.85070257421333L-161.59391882013884,-64.17207064256553M-161.59391882013884,-64.17207064256553L-164.73675030448513,-228.12311307596428M-178.09405312054574,-228.92932881970566L-174.67464730063125,-63.91352037245329M-174.67464730063125,-63.91352037245329L-98.46884821464141,-53.442494543844006M-164.73675030448513,-228.12311307596428L-178.09405312054574,-228.92932881970566M-164.73675030448513,-228.12311307596428L-84.68289966799502,-260.4640701909553M-100.90519085087998,-261.7497899422407L-178.09405312054574,-228.92932881970566" style="fill:none;stroke:rgb(0,102,204);stroke-opacity:1;stroke-width:1;stroke-linecap:round"></path><path d="M-567.2160155218315,9.506413667963649L-550.831494305921,8.743357052474922M-551.9198199702156,10.279816813831886L-550.831494305921,8.743357052474922M-550.831494305921,8.743357052474922L-567.9262648188633,-250.60873272959378M-560.199376862144,10.670464321183697L-558.9962641064672,9.123605063884575M-558.9962641064672,9.123605063884575L-576.4044522620319,-251.11405515998135M-551.3719927418921,9.506413667963663L-567.8712598537478,10.279816813831902M-568.6023675150764,-251.62288677391322L-551.3719927418921,9.506413667963663M-584.941516006889,-251.62288677391322L-567.2160155218315,9.506413667963649M-567.2160155218315,9.506413667963649L-568.5354495007754,11.063778364421873M-567.8712598537478,10.279816813831902L-585.74133446453,-252.65122479088043M-551.9198199702156,10.279816813831886L-568.5354495007754,11.063778364421873M-569.2879261930544,-252.65122479088043L-551.9198199702156,10.279816813831886M-577.889883499896,-253.17080610471646L-560.199376862144,10.670464321183697M-568.5354495007754,11.063778364421873L-586.5524179708702,-253.69404644188938M-567.9262648188633,-250.60873272959378L-584.941516006889,-251.62288677391322M-567.9262648188633,-250.60873272959378L-569.2879261930544,-252.65122479088043M-576.4044522620319,-251.11405515998135L-577.889883499896,-253.17080610471646M-585.74133446453,-252.65122479088043L-568.6023675150764,-251.62288677391322M-586.5524179708702,-253.69404644188938L-584.941516006889,-251.62288677391322M-586.5524179708702,-253.69404644188938L-569.2879261930544,-252.65122479088043" style="fill:none;stroke:rgb(0,0,0);stroke-opacity:1;stroke-width:2;stroke-linecap:round"></path><path d="M-82.6545667418155,-53.85070257421333L-98.46884821464141,-53.442494543844006M-84.68289966799502,-260.4640701909553L-82.6545667418155,-53.85070257421333M-98.46884821464141,-53.442494543844006L-100.90519085087998,-261.7497899422407M-100.90519085087998,-261.7497899422407L-84.68289966799502,-260.4640701909553M-27.083020233910535,-43.63375482130084L-8.94189979219352,-44.21272675029182M192.72388118670398,-17.844803813583688L-8.94189979219352,-44.21272675029182M-8.94189979219352,-44.21272675029182L-9.20425382032634,-290.9566902092154M-27.885480092693072,-292.7975409732808L-27.083020233910535,-43.63375482130084M-27.083020233910535,-43.63375482130084L169.3391611165296,-16.64444746017168M-9.20425382032634,-290.9566902092154L-27.885480092693072,-292.7975409732808M-9.20425382032634,-290.9566902092154L200.95408251852055,-375.85856174760244M176.67515365587383,-379.7760781577107L-27.885480092693072,-292.7975409732808M192.72388118670398,-17.844803813583688L169.3391611165296,-16.64444746017168M200.95408251852055,-375.85856174760244L192.72388118670398,-17.844803813583688M169.3391611165296,-16.64444746017168L176.67515365587383,-379.7760781577107M176.67515365587383,-379.7760781577107L200.95408251852055,-375.85856174760244M414.27950089862776,17.011477090040252L441.84739583493155,14.728246527831027M1815.8368507418618,194.37819946965718L441.84739583493155,14.728246527831027M441.84739583493155,14.728246527831027L468.22634484000207,-483.8338896680015M439.5148004457523,-491.53466813135987L414.27950089862776,17.011477090040252M414.27950089862776,17.011477090040252L1812.5562060250752,209.14110069520086M468.22634484000207,-483.8338896680015L439.5148004457523,-491.53466813135987M468.22634484000207,-483.8338896680015L2114.330579630936,-1148.843580531172M2127.7833722903056,-1209.3811474983352L439.5148004457523,-491.53466813135987" style="fill:none;stroke:rgb(0,102,204);stroke-opacity:1;stroke-width:1;stroke-linecap:round"></path></svg>