<svg viewBox="0 0 1440 1080" width="1440" height="1080" xmlns="http://www.w3.org/2000/svg">
  <rect width="100%" height="100%" fill="#ffffff"/>
  <path d="M-1446.75,1637.42L-3934.24,8222.78 M-146.63,1048.69L2440.89,2676.57 M266.20,861.75L1513.84,1212.53 M468.97,769.93L1332.58,926.27 M589.49,715.36L1255.31,804.24 M669.36,679.19L1212.48,736.61 M243.62,121.99L1595.68,-284.20 M530.08,254.41L1315.15,129.38 M668.15,318.23L1228.22,257.56" fill="none" stroke="#888888" stroke-width="0.5" stroke-linecap="round"/>
  <path d="M699.99,665.32L-15989.56,8222.78 M699.99,665.32L1197.51,712.97" fill="none" stroke="#444444" stroke-width="1.5" stroke-linecap="round"/>
  <path d="M699.54,332.75L1211.19,282.65" fill="none" stroke="#666666" stroke-width="1" stroke-linecap="round"/>
  <path d="M699.63,400.43L-15711.15,-4132.31 M-1479.58,1423.88L-1740.55,-273.56 M-152.91,942.30L-199.56,152.07 M264.04,790.94L248.32,275.77 M468.08,716.88L461.67,334.70 M589.12,672.94L586.48,369.18 M669.25,643.85L668.40,391.80" fill="none" stroke="#0066cc" stroke-width="1" stroke-linecap="round"/>
  <path d="M699.99,665.32L699.54,332.75 M1197.51,712.97L1211.19,282.65" fill="none" stroke="#000000" stroke-width="2" stroke-linecap="round"/>
</svg>