<svg viewBox="0 0 1440 1080" width="1440" height="1080" style="background-color: rgb(255, 255, 255);" xmlns="http://www.w3.org/2000/svg"><rect width="100%" height="100%" fill="#ffffff"></rect><path d="M82.4793093911342,16.670343150046705L83.22798693477536,17.247527324682085M83.3793564169241,-98.3403832419187L82.4793093911342,16.670343150046705M82.4793093911342,16.670343150046705L-450.46392052081035,16.670343150046726M-454.55285172069676,17.247527324682107L-450.46392052081035,16.670343150046726M-450.46392052081035,16.670343150046726L-455.3795619693552,-98.34038324191869" style="fill:none;stroke:rgb(0,0,0);stroke-opacity:1;stroke-width:2;stroke-linecap:round"></path><path d="M-337.2731135090791,-15.02726640443063L-260.90938969570277,-15.02726640443063M-339.7252658036013,-91.88508732961594L-337.2731135090791,-15.02726640443063M-337.2731135090791,-15.02726640443063L-340.34388540749256,-14.736927888334854M-263.2848924850415,-14.736927888334854L-260.90938969570277,-15.02726640443063M-260.90938969570277,-15.02726640443063L-262.80633769712557,-91.88508732961594M-407.2731936713407,-15.02726640443063L-343.63675716019384,-15.02726640443063M-410.23428323453743,-91.88508732961594L-407.2731936713407,-15.02726640443063M-407.2731936713407,-15.02726640443063L-410.9812955864061,-14.736927888334854M-346.7654681510302,-14.736927888334854L-343.63675716019384,-15.02726640443063M-343.63675716019384,-15.02726640443063L-346.135176479141,-91.88508732961594" style="fill:none;stroke:rgb(0,102,204);stroke-opacity:1;stroke-width:1;stroke-linecap:round"></path><path d="M82.85195687332309,16.957631357451767L-452.49914907738037,16.957631357451888M45743.21058672731,35218.27578650572L82.85195687332309,16.957631357451767M-452.49914907738037,16.957631357451888L-249828.30397365123,35218.27578650391" style="fill:none;stroke:rgb(102,102,102);stroke-opacity:1;stroke-width:1;stroke-linecap:round"></path><path d="M-455.68576280327756,16.95763135745183L-449.3125353514835,16.95763135745183M-460.6811000325461,-98.57526876180131L-455.68576280327756,16.95763135745183M-455.68576280327756,16.95763135745183L-251587.65822700466,35218.275786506376M-248068.94972032454,35218.275786505124L-449.3125353514835,16.95763135745183M-449.3125353514835,16.95763135745183L-454.23800772439864,-98.57526876180131M79.66534314742603,16.957631357451824L86.03857059922012,16.957631357451824M80.5386538518436,-98.57526876180131L79.66534314742603,16.957631357451824M79.66534314742603,16.957631357451824L43983.856333389296,35218.27578650387M47502.56484006298,35218.27578650575L86.03857059922012,16.957631357451824M86.03857059922012,16.957631357451824L86.9817461599911,-98.57526876180131M-175.26375492433758,16.95763135745183L-168.89052747254345,16.95763135745183M-177.18503847405623,-98.57526876180133L-175.26375492433758,16.95763135745183M-175.26375492433758,16.95763135745183L-187.09828499961432,21.270649493704052M-180.29471099962834,21.270649493704052L-168.89052747254345,16.95763135745183M-168.89052747254345,16.95763135745183L-170.74194616590873,-98.57526876180133M-86.03857059922028,16.957631357451827L-79.66534314742619,16.957631357451827M-86.98174615999126,-98.57526876180131L-86.03857059922028,16.957631357451827M-86.03857059922028,16.957631357451827L-93.65509979980698,22.612028436313636M-86.71768499982129,22.612028436313636L-79.66534314742619,16.957631357451827M-79.66534314742619,16.957631357451827L-80.53865385184376,-98.57526876180131M28.679523533073315,16.957631357451827L35.05275098486741,16.957631357451827M28.99391538666365,-98.57526876180131L28.679523533073315,16.957631357451827M28.679523533073315,16.957631357451827L33.176312937213744,26.97267844835108M40.54882692326126,26.97267844835108L35.05275098486741,16.957631357451827M35.05275098486741,16.957631357451827L35.43700769481114,-98.57526876180131M-459.5586341195787,-98.81230985390675L-454.55285172069676,17.247527324682107M-454.55285172069676,17.247527324682107L83.22798693477536,17.247527324682085M83.22798693477536,17.247527324682085L84.14453864161291,-98.81230985390677" style="fill:none;stroke:rgb(0,0,0);stroke-opacity:1;stroke-width:2;stroke-linecap:round"></path><path d="M-262.80633769712557,-91.88508732961594L-339.7252658036013,-91.88508732961594M-342.84105851962335,-92.29752059687978L-339.7252658036013,-91.88508732961594M-262.80633769712557,-91.88508732961594L-265.21666791140683,-92.29752059687978M-346.135176479141,-91.88508732961594L-410.23428323453743,-91.88508732961594M-413.99674991048863,-92.29752059687978L-410.23428323453743,-91.88508732961594M-346.135176479141,-91.88508732961594L-349.3097577369748,-92.29752059687978" style="fill:none;stroke:rgb(0,102,204);stroke-opacity:1;stroke-width:1;stroke-linecap:round"></path><path d="M84.14453864161291,-98.81230985390677L83.3793564169241,-98.3403832419187M-455.3795619693552,-98.34038324191869L-459.5586341195787,-98.81230985390675M-455.3795619693552,-98.34038324191869L83.3793564169241,-98.3403832419187" style="fill:none;stroke:rgb(0,0,0);stroke-opacity:1;stroke-width:2;stroke-linecap:round"></path><path d="M-263.2848924850415,-14.736927888334854L-340.34388540749256,-14.736927888334854M-340.34388540749256,-14.736927888334854L-342.84105851962335,-92.29752059687978M-265.21666791140683,-92.29752059687978L-263.2848924850415,-14.736927888334854M-346.7654681510302,-14.736927888334854L-410.9812955864061,-14.736927888334854M-410.9812955864061,-14.736927888334854L-413.99674991048863,-92.29752059687978M-349.3097577369748,-92.29752059687978L-346.7654681510302,-14.736927888334854" style="fill:none;stroke:rgb(0,102,204);stroke-opacity:1;stroke-width:1;stroke-linecap:round"></path><path d="M-454.23800772439864,-98.57526876180131L-460.6811000325461,-98.57526876180131M-251587.6582270002,-28259.06963336472L-460.6811000325461,-98.57526876180131M-454.23800772439864,-98.57526876180131L-248068.94972032454,-28259.06963336422M-170.74194616590873,-98.57526876180133L-177.18503847405623,-98.57526876180133M-189.28941650904375,-102.10435874921144L-177.18503847405623,-98.57526876180133M-170.74194616590873,-98.57526876180133L-182.40616499962397,-102.10435874921144M86.9817461599911,-98.57526876180131L80.5386538518436,-98.57526876180131M43983.85633339086,-28259.06963336422L80.5386538518436,-98.57526876180131M86.9817461599911,-98.57526876180131L47502.564840065505,-28259.069633366224M-80.53865385184376,-98.57526876180131L-86.98174615999126,-98.57526876180131M-94.77374067332825,-103.2029966787455L-86.98174615999126,-98.57526876180131M-80.53865385184376,-98.57526876180131L-87.75346358641504,-103.2029966787455M35.43700769481114,-98.57526876180131L28.99391538666365,-98.57526876180131M33.597748105082374,-106.77802807823852L28.99391538666365,-98.57526876180131M35.43700769481114,-98.57526876180131L41.063914350656255,-106.77802807823852" style="fill:none;stroke:rgb(0,0,0);stroke-opacity:1;stroke-width:2;stroke-linecap:round"></path><path d="M-458.01743138320205,-111.56880630908864L83.86234659129045,-111.56880630908852M-249828.30397366456,-35312.10801335036L-458.01743138320205,-111.56880630908864M83.86234659129045,-111.56880630908852L45743.21058672325,-35312.108013347155" style="fill:none;stroke:rgb(102,102,102);stroke-opacity:1;stroke-width:1;stroke-linecap:round"></path><path d="M-342.84105851962335,-92.29752059687978L-265.21666791140683,-92.29752059687978M-413.99674991048863,-92.29752059687978L-349.3097577369748,-92.29752059687978" style="fill:none;stroke:rgb(0,102,204);stroke-opacity:1;stroke-width:1;stroke-linecap:round"></path><path d="M84.14453864161291,-98.81230985390677L-459.5586341195787,-98.81230985390675" style="fill:none;stroke:rgb(0,0,0);stroke-opacity:1;stroke-width:2;stroke-linecap:round"></path><path d="M-474.2560289990223,-13.677738395838112L-467.6230775444905,-13.677738395838112M-477.8511473489833,-93.8025893755698L-474.2560289990223,-13.677738395838112M-474.2560289990223,-13.677738395838112L-534.5854178469544,-9.449535212262035M-527.1086987162278,-9.449535212262035L-467.6230775444905,-13.677738395838112M-467.6230775444905,-13.677738395838112L-471.1679145189276,-93.8025893755698M-471.1679145189276,-93.8025893755698L-477.8511473489833,-93.8025893755698M-539.1577806510625,-99.81796048860726L-477.8511473489833,-93.8025893755698M-471.1679145189276,-93.8025893755698L-531.6171123902084,-99.81796048860726" style="fill:none;stroke:rgb(0,102,204);stroke-opacity:1;stroke-width:1;stroke-linecap:round"></path><path d="M-180.29471099962834,21.270649493704052L-187.09828499961432,21.270649493704052M-187.09828499961432,21.270649493704052L-189.28941650904375,-102.10435874921144M-182.40616499962397,-102.10435874921144L-180.29471099962834,21.270649493704052M-189.28941650904375,-102.10435874921144L-182.40616499962397,-102.10435874921144M-86.71768499982129,22.612028436313636L-93.65509979980698,22.612028436313636M-93.65509979980698,22.612028436313636L-94.77374067332825,-103.2029966787455M-87.75346358641504,-103.2029966787455L-86.71768499982129,22.612028436313636M-94.77374067332825,-103.2029966787455L-87.75346358641504,-103.2029966787455M-198.59237759344728,25.459597386153778L-191.37083659004924,25.459597386153778M-201.0627734446443,-105.53693793333277L-198.59237759344728,25.459597386153778M-198.59237759344728,25.459597386153778L-213.9248773341178,31.047428000040476M-206.1457908856044,31.047428000040476L-191.37083659004924,25.459597386153778M-191.37083659004924,25.459597386153778L-193.75139986483904,-105.53693793333277M-193.75139986483904,-105.53693793333277L-201.0627734446443,-105.53693793333277M-216.79421249955308,-110.12351511191707L-201.0627734446443,-105.53693793333277M-193.75139986483904,-105.53693793333277L-208.9107865904784,-110.12351511191707M40.54882692326126,26.97267844835108L33.176312937213744,26.97267844835108M33.176312937213744,26.97267844835108L33.597748105082374,-106.77802807823852M41.063914350656255,-106.77802807823852L40.54882692326126,26.97267844835108M-99.52893881164154,26.972678448351076L-92.15642482559402,26.972678448351076M-100.79324431524743,-106.77802807823852L-99.52893881164154,26.972678448351076M-99.52893881164154,26.972678448351076L-109.86463630361969,34.645745296455424M-101.72651509594417,34.645745296455424L-92.15642482559402,26.972678448351076M-92.15642482559402,26.972678448351076L-93.32707806967356,-106.77802807823852M33.597748105082374,-106.77802807823852L41.063914350656255,-106.77802807823852M-93.32707806967356,-106.77802807823852L-100.79324431524743,-106.77802807823852M-111.40719749977035,-113.08173983998104L-100.79324431524743,-106.77802807823852M-93.32707806967356,-106.77802807823852L-103.15481249978737,-113.08173983998104" style="fill:none;stroke:rgb(0,0,0);stroke-opacity:1;stroke-width:2;stroke-linecap:round"></path><path d="M-527.1086987162278,-9.449535212262035L-534.5854178469544,-9.449535212262035M-534.5854178469544,-9.449535212262035L-539.1577806510625,-99.81796048860726M-531.6171123902084,-99.81796048860726L-527.1086987162278,-9.449535212262035M-539.1577806510625,-99.81796048860726L-531.6171123902084,-99.81796048860726" style="fill:none;stroke:rgb(0,102,204);stroke-opacity:1;stroke-width:1;stroke-linecap:round"></path><path d="M-208.8834035754378,30.61984002149025L-211.2000402139824,31.47975817428627M-265.9556061953852,31.47975817428627L-263.0383600579587,30.61984002149025M-211.66954752827803,-109.77223277573906L-208.8834035754378,30.61984002149025M-208.8834035754378,30.61984002149025L-263.0383600579587,30.61984002149025M-263.0383600579587,30.61984002149025L-266.5468376282019,-109.77223277573906M-309.45689418583373,30.61984002149025L-312.888948465159,31.47975817428627M-336.35561960004594,31.47975817428627L-332.6661612497712,30.61984002149025M-313.5845148567081,-109.77223277573906L-309.45689418583373,30.61984002149025M-309.45689418583373,30.61984002149025L-332.6661612497712,30.61984002149025M-332.6661612497712,30.61984002149025L-337.10335347096117,-109.77223277573906M-206.1457908856044,31.047428000040476L-213.9248773341178,31.047428000040476M-213.9248773341178,31.047428000040476L-216.79421249955308,-110.12351511191707M-208.9107865904784,-110.12351511191707L-206.1457908856044,31.047428000040476M-213.9248773341178,31.047428000040483L-206.14579088560447,31.047428000040483M-216.79421249955314,-110.12351511191709L-213.9248773341178,31.047428000040483M-213.9248773341178,31.047428000040483L-259.765922477143,47.75390116196702M-250.31988893251963,47.75390116196702L-206.14579088560447,31.047428000040483M-206.14579088560447,31.047428000040483L-208.91078659047847,-110.12351511191709M-338.39026051033176,31.047428000040483L-330.6111740618184,31.047428000040483M-342.9290270447476,-110.12351511191709L-338.39026051033176,31.047428000040483M-338.39026051033176,31.047428000040483L-410.9024591911172,47.75390116196702M-401.45642564649376,47.75390116196702L-330.6111740618184,31.047428000040483M-330.6111740618184,31.047428000040483L-335.04560113567294,-110.12351511191709M-269.5428680249221,-110.47874591946466L-265.9556061953852,31.47975817428627M-265.9556061953852,31.47975817428627L-211.2000402139824,31.47975817428627M-211.2000402139824,31.47975817428627L-214.04874813743817,-110.47874591946466M-340.89245073740136,-110.47874591946466L-336.35561960004594,31.47975817428627M-336.35561960004594,31.47975817428627L-312.888948465159,31.47975817428627M-312.888948465159,31.47975817428627L-317.10925649990827,-110.47874591946466M-214.04874813743817,-110.47874591946466L-211.66954752827803,-109.77223277573906M-266.5468376282019,-109.77223277573906L-269.5428680249221,-110.47874591946466M-266.5468376282019,-109.77223277573906L-211.66954752827803,-109.77223277573906M-317.10925649990827,-110.47874591946466L-313.5845148567081,-109.77223277573906M-337.10335347096117,-109.77223277573906L-340.89245073740136,-110.47874591946466M-337.10335347096117,-109.77223277573906L-313.5845148567081,-109.77223277573906M35.396289267584926,31.91690987463888L43.26213132704826,31.91690987463888M35.876419792691586,-110.83799214684134L35.396289267584926,31.91690987463888M35.396289267584926,31.91690987463888L36.6215454345398,34.64574529645543M44.75966664221533,34.64574529645543L43.26213132704826,31.91690987463888M43.26213132704826,31.91690987463888L43.84895752440084,-110.83799214684134M-208.91078659047847,-110.12351511191709L-216.79421249955314,-110.12351511191709M-264.0089230257716,-123.88919243089359L-216.79421249955314,-110.12351511191709M-208.91078659047847,-110.12351511191709L-254.40859855210712,-123.88919243089359M-335.04560113567294,-110.12351511191709L-342.9290270447476,-110.12351511191709M-417.6141146044023,-123.88919243089359L-342.9290270447476,-110.12351511191709M-335.04560113567294,-110.12351511191709L-408.01379013073785,-123.88919243089359M-216.79421249955308,-110.12351511191707L-208.9107865904784,-110.12351511191707M-214.04874813743817,-110.47874591946466L-269.5428680249221,-110.47874591946466M-317.10925649990827,-110.47874591946466L-340.89245073740136,-110.47874591946466M43.84895752440084,-110.83799214684134L35.876419792691586,-110.83799214684134M37.13573249992336,-113.08173983998107L35.876419792691586,-110.83799214684134M43.84895752440084,-110.83799214684134L45.388117499906336,-113.08173983998107M-109.23443762501387,34.17789524644355L-101.14299780093876,34.17789524644355M-110.7592300850761,-112.69690680536864L-109.23443762501387,34.17789524644355M-109.23443762501387,34.17789524644355L-110.50214869996569,35.11902494085818M-102.31680435182008,35.11902494085818L-101.14299780093876,34.17789524644355M-101.14299780093876,34.17789524644355L-102.55484267136676,-112.69690680536864M105.18871771297614,34.17789524644354L106.40947652589269,35.119024940858175M-106.40947652589287,35.119024940858175L-105.18871771297631,34.17789524644354M106.65703637822122,-112.6969068053686L105.18871771297614,34.17789524644354M105.18871771297614,34.17789524644354L-105.18871771297631,34.17789524644354M-105.18871771297631,34.17789524644354L-106.6570363782214,-112.6969068053686M101.14299780093859,34.17789524644354L109.2344376250137,34.17789524644354M102.55484267136657,-112.6969068053686L101.14299780093859,34.17789524644354M101.14299780093859,34.17789524644354L102.3168043518199,35.119024940858175M110.5021486999655,35.119024940858175L109.2344376250137,34.17789524644354M109.2344376250137,34.17789524644354L110.7592300850759,-112.6969068053686M44.75966664221533,34.64574529645543L36.6215454345398,34.64574529645543M36.6215454345398,34.64574529645543L37.13573249992336,-113.08173983998107M45.388117499906336,-113.08173983998107L44.75966664221533,34.64574529645543M-101.72651509594417,34.645745296455424L-109.86463630361969,34.645745296455424M-109.86463630361969,34.645745296455424L-111.40719749977035,-113.08173983998104M-103.15481249978737,-113.08173983998104L-101.72651509594417,34.645745296455424M-106.40947652589287,35.119024940858175L106.40947652589269,35.119024940858175M106.40947652589269,35.119024940858175L107.91231730852593,-113.47110209822563M-102.31680435182008,35.11902494085818L-110.50214869996569,35.11902494085818M-110.50214869996569,35.11902494085818L-112.06279105116172,-113.47110209822566M-103.76184356589049,-113.47110209822566L-102.31680435182008,35.11902494085818M-107.91231730852611,-113.47110209822563L-106.40947652589287,35.119024940858175M110.5021486999655,35.119024940858175L102.3168043518199,35.119024940858175M102.3168043518199,35.119024940858175L103.7618435658903,-113.47110209822563M112.06279105116154,-113.47110209822563L110.5021486999655,35.119024940858175M-102.55484267136676,-112.69690680536864L-110.7592300850761,-112.69690680536864M-112.06279105116172,-113.47110209822566L-110.7592300850761,-112.69690680536864M-102.55484267136676,-112.69690680536864L-103.76184356589049,-113.47110209822566M107.91231730852593,-113.47110209822563L106.65703637822122,-112.6969068053686M-106.6570363782214,-112.6969068053686L106.65703637822122,-112.6969068053686M110.7592300850759,-112.6969068053686L102.55484267136657,-112.6969068053686M103.7618435658903,-113.47110209822563L102.55484267136657,-112.6969068053686M110.7592300850759,-112.6969068053686L112.06279105116154,-113.47110209822563M-106.6570363782214,-112.6969068053686L-107.91231730852611,-113.47110209822563M37.13573249992336,-113.08173983998107L45.388117499906336,-113.08173983998107M-111.40719749977035,-113.08173983998104L-103.15481249978737,-113.08173983998104M-112.06279105116172,-113.47110209822566L-103.76184356589049,-113.47110209822566M107.91231730852593,-113.47110209822563L-107.91231730852611,-113.47110209822563M103.7618435658903,-113.47110209822563L112.06279105116154,-113.47110209822563" style="fill:none;stroke:rgb(0,0,0);stroke-opacity:1;stroke-width:2;stroke-linecap:round"></path><path d="M112.5484847870019,-1.7967873225555504L121.55236356996204,-1.7967873225555504M113.70977611756425,-110.73493666738429L112.5484847870019,-1.7967873225555504M112.5484847870019,-1.7967873225555504L141.43793542751578,9.784643975770306M152.75297026171702,9.784643975770306L121.55236356996204,-1.7967873225555504M121.55236356996204,-1.7967873225555504L122.80655820696938,-110.73493666738429M122.80655820696938,-110.73493666738429L113.70977611756425,-110.73493666738429M143.27678182527328,-127.32921356751889L113.70977611756425,-110.73493666738429M122.80655820696938,-110.73493666738429L154.73892437129513,-127.32921356751889" style="fill:none;stroke:rgb(0,102,204);stroke-opacity:1;stroke-width:1;stroke-linecap:round"></path><path d="M-408.91773079466253,48.39212597938894L-403.477583600055,47.12416714034229M-253.3463897023601,47.12416714034229L-403.477583600055,47.12416714034229M-403.477583600055,47.12416714034229L-410.39330221836906,-133.00305496574256M-675.1897415446754,48.39212597938894L-666.2071729210211,47.12416714034229M-403.4775836000551,47.12416714034229L-666.2071729210211,47.12416714034229M-666.2071729210211,47.12416714034229L-677.6261501745164,-133.00305496574256M-258.0379895116631,47.12416714034229L-248.6547898930572,47.12416714034229M-262.4608328140733,-133.00305496574256L-258.0379895116631,47.12416714034229M-258.0379895116631,47.12416714034229L-261.51715341519116,48.392125979388936M-252.0074387455479,48.392125979388936L-248.6547898930572,47.12416714034229M-248.6547898930572,47.12416714034229L-252.91680252992518,-133.00305496574256M-253.3463897023601,47.12416714034229L-256.7622960803695,48.392125979388936M-257.6888176719991,-133.00305496574254L-253.3463897023601,47.12416714034229M-403.4775836000551,47.12416714034229L-408.91773079466265,48.392125979388936M-410.39330221836906,-133.00305496574254L-403.4775836000551,47.12416714034229M-259.765922477143,47.75390116196703L-250.3198889325197,47.75390116196703M-264.2487131465942,-133.58947827325932L-259.765922477143,47.75390116196703M-259.765922477143,47.75390116196703L-278.4094097362681,54.54839981633908M-268.2854312004039,54.54839981633908L-250.3198889325197,47.75390116196703M-250.3198889325197,47.75390116196703L-254.63966903217263,-133.58947827325932M-392.0103921018704,47.75390116196703L-382.56435855724703,47.75390116196703M-398.77533074849674,-133.58947827325932L-392.0103921018704,47.75390116196703M-392.0103921018704,47.75390116196703L-420.14510923836826,54.54839981633908M-410.02113070250397,54.54839981633908L-382.56435855724703,47.75390116196703M-382.56435855724703,47.75390116196703L-389.16628663407505,-133.58947827325932M-250.31988893251963,47.75390116196702L-259.765922477143,47.75390116196702M-259.765922477143,47.75390116196702L-264.0089230257716,-123.88919243089359M-254.40859855210712,-123.88919243089359L-250.31988893251963,47.75390116196702M-401.45642564649376,47.75390116196702L-410.9024591911172,47.75390116196702M-410.9024591911172,47.75390116196702L-417.6141146044023,-123.88919243089359M-408.01379013073785,-123.88919243089359L-401.45642564649376,47.75390116196702M-408.91773079466253,48.39212597938894L-256.7622960803695,48.392125979388936M-256.7622960803695,48.392125979388936L-261.2236437031651,-134.18394579624265M-675.1897415446754,48.39212597938894L-408.91773079466265,48.392125979388936M-408.91773079466265,48.392125979388936L-416.02283997170747,-134.18394579624265M-416.0228399717074,-134.18394579624268L-408.91773079466253,48.39212597938894M-686.9214334416565,-134.18394579624268L-675.1897415446754,48.39212597938894M-252.0074387455479,48.392125979388936L-261.51715341519116,48.392125979388936M-261.51715341519116,48.392125979388936L-266.0611185865571,-134.18394579624265M-256.38616881977316,-134.18394579624265L-252.0074387455479,48.392125979388936M-252.91680252992518,-133.00305496574256L-262.4608328140733,-133.00305496574256M-266.0611185865571,-134.18394579624265L-262.4608328140733,-133.00305496574256M-252.91680252992518,-133.00305496574256L-256.38616881977316,-134.18394579624265M-410.39330221836906,-133.00305496574256L-416.0228399717074,-134.18394579624268M-410.39330221836906,-133.00305496574256L-257.6888176719991,-133.00305496574254M-677.6261501745164,-133.00305496574256L-686.9214334416565,-134.18394579624268M-677.6261501745164,-133.00305496574256L-410.39330221836906,-133.00305496574254M-261.2236437031651,-134.18394579624265L-257.6888176719991,-133.00305496574254M-416.02283997170747,-134.18394579624265L-410.39330221836906,-133.00305496574254M-264.0089230257716,-123.88919243089359L-254.40859855210712,-123.88919243089359M-417.6141146044023,-123.88919243089359L-408.01379013073785,-123.88919243089359M-254.63966903217263,-133.58947827325932L-264.2487131465942,-133.58947827325932M-283.565139546199,-139.92525055768735L-264.2487131465942,-133.58947827325932M-254.63966903217263,-133.58947827325932L-273.2536799263372,-139.92525055768735M-389.16628663407505,-133.58947827325932L-398.77533074849674,-133.58947827325932M-427.925574224264,-139.92525055768735L-398.77533074849674,-133.58947827325932M-389.16628663407505,-133.58947827325932L-417.6141146044022,-139.92525055768735M-261.2236437031651,-134.18394579624265L-416.0228399717074,-134.18394579624268M-416.02283997170747,-134.18394579624265L-686.9214334416565,-134.18394579624268M-266.0611185865571,-134.18394579624265L-256.38616881977316,-134.18394579624265M-268.2854312004039,54.54839981633908L-278.4094097362681,54.54839981633908M-278.4094097362681,54.54839981633908L-283.565139546199,-139.92525055768735M-273.2536799263372,-139.92525055768735L-268.2854312004039,54.54839981633908M-410.02113070250397,54.54839981633908L-420.14510923836826,54.54839981633908M-420.14510923836826,54.54839981633908L-427.925574224264,-139.92525055768735M-417.6141146044022,-139.92525055768735L-410.02113070250397,54.54839981633908M-283.565139546199,-139.92525055768735L-273.2536799263372,-139.92525055768735M-427.925574224264,-139.92525055768735L-417.6141146044022,-139.92525055768735M-304.6469458337643,64.11049704791422L-293.56887507617284,64.11049704791422M-311.13572737776616,-159.36258998431416L-304.6469458337643,64.11049704791422M-304.6469458337643,64.11049704791422L-593.750680332956,169.47248460329288M-572.1597465026666,169.47248460329288L-293.56887507617284,64.11049704791422M-293.56887507617284,64.11049704791422L-299.8217009276656,-159.36258998431416M-459.73993644004423,64.11049704791424L-448.6618656824528,64.11049704791424M-469.53209767917434,-159.36258998431416L-459.73993644004423,64.11049704791424M-459.73993644004423,64.11049704791424L-589.331059518709,95.40658860320316M-575.1303110965714,95.40658860320316L-448.6618656824528,64.11049704791424M-448.6618656824528,64.11049704791424L-458.2180712290737,-159.36258998431416M-299.8217009276656,-159.36258998431416L-311.13572737776616,-159.36258998431416M-618.9069306385144,-270.5931056361172L-311.13572737776616,-159.36258998431416M-299.8217009276656,-159.36258998431416L-596.4012240698411,-270.5931056361172M-458.2180712290737,-159.36258998431416L-469.53209767917434,-159.36258998431416M-605.5188676634027,-191.92955019717294L-469.53209767917434,-159.36258998431416M-458.2180712290737,-159.36258998431416L-590.9280515751278,-191.92955019717294" style="fill:none;stroke:rgb(0,0,0);stroke-opacity:1;stroke-width:2;stroke-linecap:round"></path><path d="M152.75297026171702,9.784643975770306L141.43793542751578,9.784643975770306M141.43793542751578,9.784643975770306L143.27678182527328,-127.32921356751889M154.73892437129513,-127.32921356751889L152.75297026171702,9.784643975770306M143.27678182527328,-127.32921356751889L154.73892437129513,-127.32921356751889" style="fill:none;stroke:rgb(0,102,204);stroke-opacity:1;stroke-width:1;stroke-linecap:round"></path><path d="M-321.85696269229413,72.55477822206642L-327.39032021709,74.6087190526283M-330.038191091174,-193.92535617356316L-321.85696269229413,72.55477822206642M-321.85696269229413,72.55477822206642L-488.74575816237257,72.55477822206642M-497.148264033359,74.60871905262832L-488.74575816237257,72.55477822206642M-488.74575816237257,72.55477822206642L-501.1691049903012,-193.92535617356316M-510.0080662776081,-196.51811177764216L-497.148264033359,74.60871905262832M-497.148264033359,74.60871905262832L-327.39032021709,74.6087190526283M-327.39032021709,74.6087190526283L-335.85897047549804,-196.51811177764216M-335.85897047549804,-196.51811177764216L-330.038191091174,-193.92535617356316M-501.1691049903012,-193.92535617356316L-330.038191091174,-193.92535617356316M-501.1691049903012,-193.92535617356316L-510.0080662776081,-196.51811177764216M-335.85897047549804,-196.51811177764216L-510.0080662776081,-196.51811177764216" style="fill:none;stroke:rgb(0,0,0);stroke-opacity:1;stroke-width:2;stroke-linecap:round"></path><path d="M168.46429251557618,20.61918360597167L181.94143591682226,20.61918360597167M171.07952085993182,-142.93330803295916L168.46429251557618,20.61918360597167M168.46429251557618,20.61918360597167L242.65040298115105,50.35949789364362M262.06243521964313,50.35949789364362L181.94143591682226,20.61918360597167M181.94143591682226,20.61918360597167L184.76588252872634,-142.93330803295916M184.76588252872634,-142.93330803295916L171.07952085993182,-142.93330803295916M248.11345145352212,-186.16806733232536L171.07952085993182,-142.93330803295916M184.76588252872634,-142.93330803295916L267.96252756980385,-186.16806733232536" style="fill:none;stroke:rgb(0,102,204);stroke-opacity:1;stroke-width:1;stroke-linecap:round"></path><path d="M-575.1303110965714,95.40658860320316L-589.331059518709,95.40658860320316M-589.331059518709,95.40658860320316L-605.5188676634027,-191.92955019717294M-590.9280515751278,-191.92955019717294L-575.1303110965714,95.40658860320316M-605.5188676634027,-191.92955019717294L-590.9280515751278,-191.92955019717294M-670.3078460367859,114.96238479811426L-654.1558497467429,114.96238479811426M-693.6044852355366,-247.9216420182274L-670.3078460367859,114.96238479811426M-670.3078460367859,114.96238479811426L-896.0237533757036,169.47249134171753M-874.4328195594215,169.47249134171753L-654.1558497467429,114.96238479811426M-654.1558497467429,114.96238479811426L-676.8911241455236,-247.9216420182274M-676.8911241455236,-247.9216420182274L-693.6044852355366,-247.9216420182274M-938.1445281070398,-318.78897581807945L-693.6044852355366,-247.9216420182274M-676.8911241455236,-247.9216420182274L-915.5386358634966,-318.78897581807945" style="fill:none;stroke:rgb(0,0,0);stroke-opacity:1;stroke-width:2;stroke-linecap:round"></path><path d="M262.06243521964313,50.35949789364362L242.65040298115105,50.35949789364362M242.65040298115105,50.35949789364362L248.11345145352212,-186.16806733232536M267.96252756980385,-186.16806733232536L262.06243521964313,50.35949789364362M248.11345145352212,-186.16806733232536L267.96252756980385,-186.16806733232536" style="fill:none;stroke:rgb(0,102,204);stroke-opacity:1;stroke-width:1;stroke-linecap:round"></path><path d="M-584.7996643771551,166.21035681266233L-563.5342220361676,166.21035681266233M-611.0450266099916,-300.0810992829602L-584.7996643771551,166.21035681266233M-584.7996643771551,166.21035681266233L-602.9799648146569,172.8360501843957M-581.0534206395786,172.8360501843957L-563.5342220361676,166.21035681266233M-563.5342220361676,166.21035681266233L-588.8252074605375,-300.0810992829602M-574.1669432066612,166.21035681266227L-592.0166927271177,172.8360501843957M-599.9351170352645,-300.0810992829601L-574.1669432066612,166.21035681266227M-574.1669432066612,166.21035681266227L-871.8831359804858,166.21035681266233M-593.7506796436496,169.47249666152643L-572.1597458384259,169.47249666152643M-620.8242175734414,-304.1327626370107L-593.7506796436496,169.47249666152643M-593.7506796436496,169.47249666152643L-986.2299421250468,312.50903540879904M-950.3670351386814,312.50903540879904L-572.1597458384259,169.47249666152643M-572.1597458384259,169.47249666152643L-598.2487914798617,-304.1327626370107M-572.1597465026666,169.47248460329288L-593.750680332956,169.47248460329288M-593.750680332956,169.47248460329288L-618.9069306385144,-270.5931056361172M-596.4012240698411,-270.5931056361172L-572.1597465026666,169.47248460329288M-898.9883111782159,172.83605018439573L-592.0166927271177,172.8360501843957M-592.0166927271177,172.8360501843957L-619.4502124467929,-308.31622123805465M-581.0534206395786,172.8360501843957L-602.9799648146569,172.8360501843957M-602.9799648146569,172.8360501843957L-630.9215126772891,-308.3162212380547M-607.9789122162967,-308.3162212380547L-581.0534206395786,172.8360501843957M-619.4502124467929,-308.31622123805465L-599.9351170352645,-300.0810992829601M-911.012585127624,-300.0810992829601L-599.9351170352645,-300.0810992829601M-588.8252074605375,-300.0810992829602L-611.0450266099916,-300.0810992829602M-630.9215126772891,-308.3162212380547L-611.0450266099916,-300.0810992829602M-588.8252074605375,-300.0810992829602L-607.9789122162967,-308.3162212380547M-618.9069306385144,-270.5931056361172L-596.4012240698411,-270.5931056361172M-598.2487914798617,-304.1327626370107L-620.8242175734414,-304.1327626370107M-1063.2465542188022,-487.43487577696396L-620.8242175734414,-304.1327626370107M-598.2487914798617,-304.1327626370107L-1024.5830431563002,-487.43487577696396M-619.4502124467929,-308.31622123805465L-940.6466189006856,-308.31622123805465M-630.9215126772891,-308.3162212380547L-607.9789122162967,-308.3162212380547" style="fill:none;stroke:rgb(0,0,0);stroke-opacity:1;stroke-width:2;stroke-linecap:round"></path><path d="M334.796125632221,87.29960345665387L361.5798156827987,87.29960345665387M345.28582147448384,-240.70538609604932L334.796125632221,87.29960345665387M334.796125632221,87.29960345665387L853.1901266111439,295.11748765629864M921.4453367400354,295.11748765629864L361.5798156827987,87.29960345665387M361.5798156827987,87.29960345665387L372.9086871924425,-240.70538609604932M372.9086871924425,-240.70538609604932L345.28582147448384,-240.70538609604932M924.786500872219,-565.9461234506216L345.28582147448384,-240.70538609604932M372.9086871924425,-240.70538609604932L998.7694209419965,-565.9461234506216" style="fill:none;stroke:rgb(0,102,204);stroke-opacity:1;stroke-width:1;stroke-linecap:round"></path></svg>