<svg viewBox="0 0 1440 1080" width="1440" height="1080" style="background-color: rgb(255, 255, 255);" xmlns="http://www.w3.org/2000/svg"><rect width="100%" height="100%" fill="#ffffff"></rect><path d="M-345.9497380148155,-333.25433478491425L-337.85601050577793,-333.645966761158M1456.7975206311974,-180.9094960260964L-337.85601050577793,-333.645966761158M-337.85601050577793,-333.645966761158L-354.24794632546525,-508.7486082742667M-344.1710761227084,-333.6459667611579L-339.6020363998648,-333.2543347849142M-360.86940326612824,-508.7486082742667L-344.1710761227084,-333.6459667611579M-344.1710761227084,-333.6459667611579L-873.725135175411,-308.1252892164494" style="fill:none;stroke:rgb(0,0,0);stroke-opacity:1;stroke-width:2;stroke-linecap:round"></path><path d="M1458.5828117104018,-179.12420494689113L-341.89244419907374,-333.45065545341777M-341.89244419907374,-333.45065545341777L-1540.933420218452,-275.43254371054496" style="fill:none;stroke:rgb(102,102,102);stroke-opacity:1;stroke-width:1;stroke-linecap:round"></path><path d="M-362.825334991148,-509.2869381068409L-345.9497380148155,-333.25433478491425M-345.9497380148155,-333.25433478491425L1460.3962176097523,-177.31079904754165M-871.2714664742514,-307.42424101611806L-339.6020363998648,-333.2543347849142M-339.6020363998648,-333.2543347849142L-356.1679893949801,-509.2869381068409M-354.24794632546525,-508.7486082742667L-362.825334991148,-509.2869381068409M-354.24794632546525,-508.7486082742667L1693.0349564092296,-741.3943926759366M-356.1679893949801,-509.2869381068409L-360.86940326612824,-508.7486082742667M-931.3333858463172,-544.4026071855285L-360.86940326612824,-508.7486082742667M1701.562565471913,-747.4855420064251L-362.825334991148,-509.2869381068409M-356.1679893949801,-509.2869381068409L-929.1418959817663,-545.3987389421426" style="fill:none;stroke:rgb(0,0,0);stroke-opacity:1;stroke-width:2;stroke-linecap:round"></path><path d="M-360.4735552968495,-529.5846059299397L1728.6907398049211,-818.8535083286466M-1695.0267622402973,-630.5172014130574L-360.4735552968495,-529.5846059299397" style="fill:none;stroke:rgb(102,102,102);stroke-opacity:1;stroke-width:1;stroke-linecap:round"></path><path d="M-521.8416144117527,-377.4772675676852L-426.2065391710574,-379.22314115220087M-421.7995406912666,-379.05718723455186L-426.2065391710574,-379.22314115220087M-426.2065391710574,-379.22314115220087L-440.65421846499163,-503.1091470663291M-421.7995406912666,-379.05718723455186L-517.7344129694199,-377.29151473863493M-436.1790704875599,-503.641433389636L-421.7995406912666,-379.05718723455186M-440.65421846499163,-503.1091470663291L-540.5904149295402,-508.7188711921978M-440.65421846499163,-503.1091470663291L-436.1790704875599,-503.641433389636M-536.4477050044593,-509.31701647549824L-436.1790704875599,-503.641433389636M-540.5904149295402,-508.7188711921978L-521.8416144117527,-377.4772675676852M-521.8416144117527,-377.4772675676852L-517.7344129694199,-377.29151473863493M-517.7344129694199,-377.29151473863493L-536.4477050044593,-509.31701647549824M-536.4477050044593,-509.31701647549824L-540.5904149295402,-508.7188711921978" style="fill:none;stroke:rgb(0,102,204);stroke-opacity:1;stroke-width:1;stroke-linecap:round"></path><path d="M-612.2847229949843,-320.3671580923254L-601.2302786376994,-320.90205056122625M-515.6261852786183,-308.8167667928854L-601.2302786376994,-320.90205056122625M-601.2302786376994,-320.90205056122625L-635.5862945598537,-526.4058267827012M-647.4959850202551,-527.1532968952786L-612.2847229949843,-320.3671580923254M-612.2847229949843,-320.3671580923254L-527.611796603509,-308.1252892164494" style="fill:none;stroke:rgb(0,0,0);stroke-opacity:1;stroke-width:2;stroke-linecap:round"></path><path d="M-199.68973592677094,-375.51717636543754L-190.98260179006522,-375.72394208372344M-78.84231414650802,-372.0803948317666L-190.98260179006522,-375.72394208372344M-190.98260179006522,-375.72394208372344L-198.2351056555107,-514.3747512760642M-207.32119080295328,-515.0432098563939L-199.68973592677094,-375.51717636543754M-199.68973592677094,-375.51717636543754L-87.73430446378337,-371.8263379655589M-198.2351056555107,-514.3747512760642L-207.32119080295328,-515.0432098563939M-198.2351056555107,-514.3747512760642L-82.17367953298017,-526.19987771119" style="fill:none;stroke:rgb(0,102,204);stroke-opacity:1;stroke-width:1;stroke-linecap:round"></path><path d="M-635.5862945598537,-526.4058267827012L-647.4959850202551,-527.1532968952786M-635.5862945598537,-526.4058267827012L-549.3762628604915,-543.4209646181015" style="fill:none;stroke:rgb(0,0,0);stroke-opacity:1;stroke-width:2;stroke-linecap:round"></path><path d="M-91.4676791218167,-527.0280558923733L-207.32119080295328,-515.0432098563939" style="fill:none;stroke:rgb(0,102,204);stroke-opacity:1;stroke-width:1;stroke-linecap:round"></path><path d="M-562.3993875883557,-544.4026071855285L-647.4959850202551,-527.1532968952786" style="fill:none;stroke:rgb(0,0,0);stroke-opacity:1;stroke-width:2;stroke-linecap:round"></path><path d="M-78.84231414650802,-372.0803948317666L-87.73430446378337,-371.8263379655589M-82.17367953298017,-526.19987771119L-78.84231414650802,-372.0803948317666M-87.73430446378337,-371.8263379655589L-91.4676791218167,-527.0280558923733" style="fill:none;stroke:rgb(0,102,204);stroke-opacity:1;stroke-width:1;stroke-linecap:round"></path><path d="M-524.0103508929047,-308.8167667928854L-519.1700078578527,-308.12528921644946M-558.3092102240765,-543.4209646181016L-524.0103508929047,-308.8167667928854M-524.0103508929047,-308.8167667928854L-585.928747125621,-305.26164356421265M-515.6261852786183,-308.8167667928854L-527.611796603509,-308.1252892164494M-549.3762628604915,-543.4209646181015L-515.6261852786183,-308.8167667928854M-581.3568502190919,-304.5202548766674L-519.1700078578527,-308.12528921644946M-519.1700078578527,-308.12528921644946L-553.400997386942,-544.4026071855286M-527.611796603509,-308.1252892164494L-562.3993875883557,-544.4026071855285M-21.54877651598865,-305.99262364275876L-13.020638813466805,-305.26164038883763M-23.29539330163949,-596.2803334179307L-21.54877651598865,-305.99262364275876M-21.54877651598865,-305.99262364275876L-354.83651987995887,-278.41018886777385" style="fill:none;stroke:rgb(0,0,0);stroke-opacity:1;stroke-width:2;stroke-linecap:round"></path><path d="M-91.4676791218167,-527.0280558923733L-82.17367953298017,-526.19987771119" style="fill:none;stroke:rgb(0,102,204);stroke-opacity:1;stroke-width:1;stroke-linecap:round"></path><path d="M-347.00294372184203,-277.2351524090375L-13.020638813466805,-305.26164038883763M-13.020638813466805,-305.26164038883763L-14.084082685426754,-597.7087051778276M-581.3568502190919,-304.5202548766674L-585.928747125621,-305.26164356421265M-585.928747125621,-305.26164356421265L-625.7276808926445,-548.4773499182442M-621.1455319831362,-549.5347688973615L-581.3568502190919,-304.5202548766674M-666.2627254113153,-300.6491663420676L-662.0841563623811,-299.84041104227384M-713.6648165472982,-555.0726350923431L-666.2627254113153,-300.6491663420676M-666.2627254113153,-300.6491663420676L-738.8505793540082,-296.4814426707168M-735.0711995614294,-295.60927810319856L-662.0841563623811,-299.84041104227384M-662.0841563623811,-299.84041104227384L-709.5642950656594,-556.2331600399768M-674.2474625207624,-283.98536185316226L-729.438469361476,-296.48143923612804M-744.5559885117267,-295.60927464293314L-690.5781725891272,-282.9086117057284" style="fill:none;stroke:rgb(0,0,0);stroke-opacity:1;stroke-width:2;stroke-linecap:round"></path><path d="M113.00178414935345,-365.20866471457634L121.85320064414404,-365.55960193243146M318.2362498277242,-359.1789252441563L121.85320064414404,-365.55960193243146M121.85320064414404,-365.55960193243146L127.94586067635126,-547.6082836947821M118.69935309806036,-548.7694730185677L113.00178414935345,-365.20866471457634M113.00178414935345,-365.20866471457634L309.88722218859346,-358.7179359880079" style="fill:none;stroke:rgb(0,102,204);stroke-opacity:1;stroke-width:1;stroke-linecap:round"></path><path d="M-674.2474625207624,-283.98536185316226L-690.5781725891272,-282.9086117057284M-734.8095989441327,-603.697105297466L-674.2474625207624,-283.98536185316226M-690.5781725891272,-282.9086117057284L-753.1878731058091,-605.5158471924481M-347.00294372184203,-277.2351524090375L-354.83651987995887,-278.41018886777385M-354.83651987995887,-278.41018886777385L-392.07188577109355,-651.3366995620612M-354.8365198799588,-278.4101888677738L-347.00294372184203,-277.2351524090375M-392.07188577109355,-651.3366995620611L-354.8365198799588,-278.4101888677738M-354.8365198799588,-278.4101888677738L-579.8480419610327,-259.7885450930024M-358.01891059212085,-277.23515640723224L-343.9184734980311,-278.4101928317397M-248.07630917345654,-264.21135367254345L-343.9184734980311,-278.4101928317397M-343.9184734980311,-278.4101928317397L-381.19042629092115,-663.5537050249372M-383.777466988796,-653.7362239516609L-347.00294372184203,-277.2351524090375M-661.3816790528434,-276.0388483221128L-644.4340383405639,-277.2351524090375M-567.3781915962793,-259.7885450930025L-644.4340383405639,-277.2351524090375M-644.4340383405639,-277.2351524090375L-712.7295815506212,-653.7362239516609M-573.1974550923414,-258.2537942327077L-347.00294372184203,-277.2351524090375M-347.00294372184203,-277.2351524090375L-383.77746698879594,-653.7362239516608M-397.20506001016383,-666.0823314016596L-358.01891059212085,-277.23515640723224M-358.01891059212085,-277.23515640723224L-262.766424314416,-262.76642431441627M-732.1755014468464,-656.183827395792L-661.3816790528434,-276.0388483221128M-661.3816790528434,-276.0388483221128L-585.7952013581071,-258.2537942327077" style="fill:none;stroke:rgb(0,0,0);stroke-opacity:1;stroke-width:2;stroke-linecap:round"></path><path d="M318.2362498277242,-359.1789252441563L309.88722218859346,-358.7179359880079M336.59603347163136,-568.8669805456221L318.2362498277242,-359.1789252441563M309.88722218859346,-358.7179359880079L327.938905034531,-570.4149439085472" style="fill:none;stroke:rgb(0,102,204);stroke-opacity:1;stroke-width:1;stroke-linecap:round"></path><path d="M-248.07630917345654,-264.21135367254345L-262.766424314416,-262.76642431441627M-278.2292307304513,-694.4420636930782L-248.07630917345654,-264.21135367254345M482.7569190892769,-262.7664243144163L499.953272673018,-261.29245115009564M533.1546194337618,-632.136911649312L482.7569190892769,-262.7664243144163M482.7569190892769,-262.7664243144163L194.8306623264713,-206.12519347583162M-262.766424314416,-262.76642431441627L-295.06173903462354,-697.6265922911646M214.7343116246453,-203.28181500466386L499.953272673018,-261.29245115009564M499.953272673018,-261.29245115009564L552.7261181218365,-634.6114689547007M-589.0731863597001,-259.02508484361607L-570.7160808390014,-260.54429362270776M-564.0062422592873,-259.02508484361607L-570.7160808390014,-260.54429362270776M-570.7160808390014,-260.54429362270776L-639.7598038999769,-688.3151865004899M-567.3781915962793,-259.7885450930025L-585.7952013581071,-258.2537942327077M-636.4089232499184,-689.9031038579845L-567.3781915962793,-259.7885450930025M-573.1974550923414,-258.2537942327077L-579.8480419610327,-259.7885450930024M-579.8480419610327,-259.7885450930024L-650.3959325521145,-689.9031038579845M-585.7952030670021,-258.25380454120256L-567.3781932346441,-259.78855530127424M-263.8527977494271,-191.06582677271578L-567.3781932346441,-259.78855530127424M-567.3781932346441,-259.78855530127424L-631.1915502280083,-657.394856567621M-564.0062422592873,-259.02508484361607L-582.4834226967478,-257.4745521722125M-633.0196660281646,-691.5092071285804L-564.0062422592873,-259.02508484361607M-661.153873407194,-691.5092071285804L-589.0731863597001,-259.02508484361607M-589.0731863597001,-259.02508484361607L-582.4834226967478,-257.4745521722125M-643.7394898211375,-693.133810527813L-573.1974550923414,-258.2537942327077M-585.7952013581071,-258.2537942327077L-657.8876104765471,-693.1338105278131M-652.4325418625992,-660.2274288888365L-585.7952030670021,-258.25380454120256M-585.7952030670021,-258.25380454120256L-286.29088893452234,-187.78220379657247M-582.4834226967478,-257.4745521722125L-654.5835066948192,-694.7772355518197M-201.46395873717276,-253.4546632752537L-186.49281503445297,-255.08787888937584M-7.535461747781438,-228.57567940393704L-186.49281503445297,-255.08787888937584M-186.49281503445297,-255.08787888937584L-208.20337581749627,-666.091253713195M-225.19480373993784,-669.127206388203L-201.46395873717276,-253.4546632752537M-201.46395873717276,-253.4546632752537L-22.887209905307483,-226.32908219750877M-92.2985168347316,-239.02949231558762L-79.01218062820251,-237.03654188460823M-105.74598286363292,-751.0676218775994L-92.2985168347316,-239.02949231558762M-92.2985168347316,-239.02949231558762L-347.3068328428394,-206.12519347583176M-334.98552613444605,-203.281815004664L-79.01218062820251,-237.03654188460823M-79.01218062820251,-237.03654188460823L-90.67840864042033,-755.6534053368381M-7.535461747781438,-228.57567940393704L-22.887209905307483,-226.32908219750877M-8.584369899340864,-716.3179698790781L-7.535461747781438,-228.57567940393704M-22.887209905307483,-226.32908219750877L-26.118186267048642,-720.6684655439087M74.19142525125348,-211.58295349431455L89.47737011538216,-214.20340118530805M182.93535824363403,-200.3577733144559L89.47737011538216,-214.20340118530805M89.47737011538216,-214.20340118530805L102.35668854108108,-716.4968197875652M85.03478740335973,-721.2209746433073L74.19142525125348,-211.58295349431455M74.19142525125348,-211.58295349431455L167.89442436954286,-197.34958653963767M197.55556669467376,-203.28181500466397L211.77245905051237,-206.12519347583176M619.5749996645957,-148.55307009502L211.77245905051237,-206.12519347583176M211.77245905051237,-206.12519347583176L241.78745324664794,-699.5716980603002M-334.98552613444605,-203.281815004664L-347.3068328428394,-206.12519347583176M-347.3068328428394,-206.12519347583176L-409.4267541643229,-828.839526722898M194.8306623264713,-206.1251934758318L214.7343116246453,-203.281815004664M224.20988918522494,-731.1192038648627L194.8306623264713,-206.1251934758318M194.8306623264713,-206.1251934758318L-97.8276315259884,-148.55307009502008M214.7343116246453,-203.28181500466386L194.8306623264713,-206.12519347583162M194.8306623264713,-206.12519347583162L224.20988918522494,-731.1192038648626M-395.891985431618,-835.7719692445273L-334.98552613444605,-203.281815004664M226.00356829870682,-704.2140171626359L197.55556669467376,-203.28181500466397M197.55556669467376,-203.28181500466397L608.6073372712918,-143.8526433550325M-77.45911565270946,-143.85264335503257L214.7343116246453,-203.281815004664M214.7343116246453,-203.281815004664L247.63714969616353,-736.3077917632584M247.63714969616353,-736.3077917632583L214.7343116246453,-203.28181500466386M182.93535824363403,-200.3577733144559L167.89442436954286,-197.34958653963767M211.4252910848557,-741.666497297667L182.93535824363403,-200.3577733144559M167.89442436954286,-197.34958653963767L194.4777082280538,-747.2038263498894M-263.8527977494271,-191.06582677271578L-286.29088893452234,-187.78220379657247M-309.51595232935813,-790.9852024607759L-263.8527977494271,-191.06582677271578M-286.29088893452234,-187.78220379657247L-336.7135271650143,-797.7334727138136M-192.87045444104461,-165.80091697563503L-169.76231270228016,-169.76231270228038M-76.08815785354659,-148.55307009501996L-169.76231270228016,-169.76231270228038M-169.76231270228016,-169.76231270228038L-200.77658136904293,-799.1695297630537M-228.79730379770984,-806.8115449708719L-192.87045444104461,-165.80091697563503M-192.87045444104461,-165.80091697563503L-99.59029155348384,-143.85264335503248M-109.66788057972919,-146.22384077297264L-86.19510613985729,-150.84143574475078M-65.80072834783742,-146.22384077297264L-86.19510613985729,-150.84143574475078M-86.19510613985729,-150.84143574475078L-103.43412736782878,-836.0925295566175M597.8355259921537,-148.55307009502002L630.738513172066,-143.8526433550325M711.1096256538251,-797.3047317936819L597.8355259921537,-148.55307009502002M597.8355259921537,-148.55307009502002L562.4834846930426,-133.9246392126291M-76.08815785354659,-148.55307009501996L-99.59029155348384,-143.85264335503248M-91.46767912181669,-840.6315271671739L-76.08815785354659,-148.55307009501996M-99.5902915534838,-143.85264335503254L-76.08815785354653,-148.55307009501996M379.0988464484478,-45.49186157381377L-76.08815785354653,-148.55307009501996M-76.08815785354653,-148.55307009501996L-90.50486144685011,-797.3047317936816M619.5749996645957,-148.55307009502L608.6073372712918,-143.8526433550325M736.9681574957824,-797.3047317936821L619.5749996645957,-148.55307009502M-77.45911565270946,-143.85264335503257L-97.8276315259884,-148.55307009502008M-97.8276315259884,-148.55307009502008L-117.60130172804989,-840.631527167174M-65.80072834783742,-146.22384077297264L-89.3294736358521,-141.4383332567662M-79.24388790277199,-845.26813762957L-65.80072834783742,-146.22384077297264M-132.07314650462013,-845.26813762957L-109.66788057972919,-146.22384077297264M-109.66788057972919,-146.22384077297264L-89.3294736358521,-141.4383332567662M-118.86583185415805,-805.6461936781839L-99.5902915534838,-143.85264335503254M-99.5902915534838,-143.85264335503254L357.600582751118,-36.27831998924384M608.6073372712918,-143.8526433550325L726.4023057754127,-805.6461936781843M-99.59029155348384,-143.85264335503248L-120.1578517656164,-850.0055439715837M596.5932703537286,-128.67697988021587L630.738513172066,-143.8526433550325M630.738513172066,-143.8526433550325L752.8169350763367,-805.6461936781841M-93.45610692881249,-850.0055439715837L-77.45911565270946,-143.85264335503257M-89.3294736358521,-141.4383332567662L-107.9806824169641,-854.8470691343007M596.5932703537286,-128.67697988021587L562.4834846930426,-133.9246392126291M562.4834846930426,-133.9246392126291L676.244189462422,-823.4538089372342M720.0263607717415,-832.971672265347L596.5932703537286,-128.67697988021587M478.3828390762095,-99.12437206083635L515.0852713680198,-92.45120255323442M590.2125936654533,-887.9775057849607L478.3828390762095,-99.12437206083635M478.3828390762095,-99.12437206083635L348.77093873257195,-45.49186157381392M388.6962855990413,-36.27831998924399L515.0852713680198,-92.45120255323442M515.0852713680198,-92.45120255323442L638.7057364963446,-900.7388591615111M388.6962855990413,-36.27831998924399L348.77093873257195,-45.49186157381392M348.77093873257195,-45.49186157381392L448.41977837044965,-994.3221172562135M379.0988464484478,-45.49186157381377L357.600582751118,-36.27831998924384M487.4128025765756,-994.322117256213L379.0988464484478,-45.49186157381377M357.600582751118,-36.27831998924384L379.0988464484478,-45.49186157381377M714.9691080182961,30.55423538539719L379.0988464484478,-45.49186157381377M379.0988464484478,-45.49186157381377L487.41280257657553,-994.3221172562131M357.600582751118,-36.27831998924384L463.12206618587425,-1013.4990144067671M503.3935502020371,-1013.4990144067671L388.6962855990413,-36.27831998924399M463.1220661858741,-1013.499014406767L357.600582751118,-36.27831998924384M357.600582751118,-36.27831998924384L699.1749186498446,44.09211198692713M714.9691080182961,30.55423538539719L699.1749186498446,44.09211198692713M977.6108211678744,-1161.4350781396101L714.9691080182961,30.55423538539719M699.1749186498446,44.09211198692713L966.9440364306362,-1193.4354323513242M-286.5987279150258,81.88535083286438L-237.73166370831626,66.03657325230985M-204.71337708216117,81.88535083286438L-237.73166370831626,66.03657325230985M-237.73166370831626,66.03657325230985L-334.9855261344457,-1246.8905695004382M-270.6380239391285,90.21267464637607L-221.49316208889587,73.83105402963182M199.95260087094894,276.1250202503571L-221.49316208889587,73.83105402963182M-221.49316208889587,73.83105402963182L-314.2112299400617,-1266.366472182674M-261.76464610505883,73.8310540296318L-229.00140487157032,90.21267464637602M-371.3405444746183,-1266.3664721826735L-261.76464610505883,73.8310540296318M-261.76464610505883,73.8310540296318L-8870.913006893656,2865.987279150256M-204.71337708216117,81.88535083286438L-254.1269508606139,98.8271475569054M-292.4476815459446,-1286.7697988021578L-204.71337708216117,81.88535083286438M-409.4267541643226,-1286.7697988021578L-286.5987279150258,81.88535083286438M-286.5987279150258,81.88535083286438L-254.1269508606139,98.8271475569054M-11054.52236243671,3801.819860097279L-229.00140487157032,90.21267464637602M-229.00140487157032,90.21267464637602L-329.5386070103085,-1308.1684096469833M-389.4547173758192,-1308.1684096469833L-270.6380239391285,90.21267464637607M-270.6380239391285,90.21267464637607L149.79027591377718,309.5665702218051M-254.1269508606139,98.8271475569054L-368.48407874789024,-1330.6369510340492M199.95260087094894,276.1250202503571L149.79027591377718,309.5665702218051M343.91847349803214,-1883.3630691558872L199.95260087094894,276.1250202503571M149.79027591377718,309.5665702218051L267.01744836803744,-2011.5314443725442" style="fill:none;stroke:rgb(0,0,0);stroke-opacity:1;stroke-width:2;stroke-linecap:round"></path></svg>