<svg viewBox="0 0 1440 1080" width="1440" height="1080" style="background-color: rgb(255, 255, 255);" xmlns="http://www.w3.org/2000/svg"><rect width="100%" height="100%" fill="#ffffff"></rect><path d="M-1265.6386418476318,-229.15417312727263L1776.9828034429215,-892.9110883924762M1776.9828034429215,714.3288707139809L-1265.6386418476318,183.32333850181809" style="fill:none;stroke:rgb(0,0,0);stroke-opacity:1;stroke-width:2;stroke-linecap:round"></path><path d="M1819.767301118113,739.8406160966227L-1282.1087803332132,184.96015402415588M-1282.1087803332132,-277.4402310362337L1819.767301118113,-1109.7609241449345" style="fill:none;stroke:rgb(102,102,102);stroke-opacity:1;stroke-width:1;stroke-linecap:round"></path><path d="M1865.7210208433162,-959.0526504956224L-1298.8756780707886,-233.28307714758384M-1298.8756780707886,186.62646171806702L1865.7210208433162,767.2421203964979M-600.4619377426758,-383.621060198249L-625.5072740405977,-378.02075275009935M-625.5072740405977,302.41660220007947L-600.4619377426758,306.89684815859914M-625.5072740405977,-378.02075275009935L-625.5072740405977,302.41660220007947M-934.9263198404968,-475.12700116296895L-625.5072740405977,-378.02075275009935M-625.5072740405977,302.41660220007947L-934.9263198404968,380.10160093037507M-600.4619377426758,-383.621060198249L-909.1105973300326,-484.00787968937954M-909.1105973300326,387.2063037515035L-600.4619377426758,306.89684815859914M-600.4619377426758,306.89684815859914L-600.4619377426758,-383.621060198249M-151.5184328883384,-484.00787968937965L-191.2349290582831,-475.12700116296907M-191.2349290582831,380.1016009303752L-151.5184328883384,387.2063037515037M-191.2349290582831,-475.12700116296907L-191.2349290582831,380.1016009303752M-571.0851306124079,-709.4362072159399L-191.2349290582831,-475.12700116296907M-191.2349290582831,380.1016009303752L-571.0851306124079,567.5489657727519M-151.5184328883384,-484.00787968937965L-521.9306984000723,-729.420325729065M-521.9306984000723,583.536260583252L-151.5184328883384,387.2063037515037M-151.5184328883384,387.2063037515037L-151.5184328883384,-484.00787968937965M-571.0851306124079,567.5489657727519L-571.0851306124079,-709.4362072159399M-521.9306984000723,-729.420325729065L-521.9306984000723,583.536260583252" style="fill:none;stroke:rgb(0,0,0);stroke-opacity:1;stroke-width:2;stroke-linecap:round"></path></svg>