<svg viewBox="0 0 1440 1080" width="1440" height="1080" style="background-color: rgb(255, 255, 255);" xmlns="http://www.w3.org/2000/svg"><rect width="100%" height="100%" fill="#ffffff"></rect><path d="M-86.92069226997798,101.95622449738826L-65.64541815558697,91.48191047821058M190829.9686974758,48271.31224157431L-65.64541815558697,91.48191047821058M-65.64541815558697,91.48191047821058L-79.46550618834212,-599.2164071337735M-89.52268710330259,93.18525766094092L-62.465282976197074,100.16729462777619M-108.48043260753134,-601.2152824159471L-89.52268710330259,93.18525766094092M-89.52268710330259,93.18525766094092L-100738.06431701657,48271.31224157433" style="fill:none;stroke:rgb(0,0,0);stroke-opacity:1;stroke-width:2;stroke-linecap:round"></path><path d="M-76.1266193737059,96.64205047295225L-97927.8152177407,48271.31224157602M186614.59504855005,48271.312241572545L-76.1266193737059,96.64205047295225" style="fill:none;stroke:rgb(102,102,102);stroke-opacity:1;stroke-width:1;stroke-linecap:round"></path><path d="M-95117.56611845452,48271.31224157262L-62.465282976197074,100.16729462777619M-62.465282976197074,100.16729462777619L-76.01197085055307,-609.451611891892M-105.88520694706408,-611.5730906963021L-86.92069226997798,101.95622449738826M-86.92069226997798,101.95622449738826L182399.22139963115,48271.31224157259M-317.1942473904414,215.32527035201713L-280.80668089734917,197.4108220683847M431.38417645100014,474.27047736088525L-280.80668089734917,197.4108220683847M-280.80668089734917,197.4108220683847L-362.9940021355977,-731.8247185365179M-414.79247735673107,-756.0512369658654L-317.1942473904414,215.32527035201713M-317.1942473904414,215.32527035201713L417.46855785580675,521.6045474592808M431.38417645100014,474.27047736088525L417.46855785580675,521.6045474592808M677.889420137286,-1181.7457750815431L431.38417645100014,474.27047736088525M417.46855785580675,521.6045474592808L681.1329101857899,-1278.8340030728384" style="fill:none;stroke:rgb(0,0,0);stroke-opacity:1;stroke-width:2;stroke-linecap:round"></path></svg>