<svg viewBox="0 0 1440 1080" width="1440" height="1080" style="background-color: rgb(255, 255, 255);" xmlns="http://www.w3.org/2000/svg"><rect width="100%" height="100%" fill="#ffffff"></rect><path d="M-1552.7154346278978,-216.65007592208647L4374.5108208661495,-803.4106982110711M4374.5108208661495,642.728558568857L-1552.7154346278978,173.32006073766922" style="fill:none;stroke:rgb(0,0,0);stroke-opacity:1;stroke-width:2;stroke-linecap:round"></path><path d="M4554.540558337642,670.6732785066341L-1573.0170516011897,175.28960688241565M-1573.0170516011897,-262.9344103236234L4554.540558337642,-1006.0099177599509" style="fill:none;stroke:rgb(102,102,102);stroke-opacity:1;stroke-width:1;stroke-linecap:round"></path><path d="M4750.936635579271,-876.4480344120774L-1593.785372412948,-221.63053743753673M-1593.785372412948,177.3044299500294L4750.936635579271,701.158427529662M-651.3072024574789,-417.4380318122945L-676.1258574124292,-414.0851158941236M-676.1258574124292,247.7989701134682L-651.3072024574789,249.80543950709946M-676.1258574124292,-414.0851158941236L-676.1258574124292,247.7989701134682M-24941.531628991983,-11456.354873070823L-676.1258574124292,-414.0851158941236M-676.1258574124292,247.7989701134682L-24941.531628991983,6855.771506472662M-651.3072024574789,-417.4380318122945L-30998.760738890065,-14729.599122519643M-30998.760738890065,8814.563365464859L-651.3072024574789,249.80543950709946M-651.3072024574789,249.80543950709946L-651.3072024574789,-417.4380318122945" style="fill:none;stroke:rgb(0,0,0);stroke-opacity:1;stroke-width:2;stroke-linecap:round"></path><path d="M-263.0552163995234,-309.88698359569884L-281.45825622994266,-321.3642792844284M-281.45825622994266,107.12142642814275L-263.0552163995234,103.29566119856624M-263.0552163995234,-309.88698359569884L316.6405382586855,-361.53481419498195M316.6405382586855,120.5116047316606L-263.0552163995234,103.29566119856624M-263.0552163995234,103.29566119856624L-263.0552163995234,-309.88698359569884M-281.45825622994266,-321.3642792844284L-281.45825622994266,107.12142642814275M320.2411330081154,-377.2537191599812L-281.45825622994266,-321.3642792844284M-281.45825622994266,107.12142642814275L320.2411330081154,125.75123971999366M320.2411330081154,-377.2537191599812L316.6405382586855,-361.53481419498195M316.6405382586855,120.5116047316606L320.2411330081154,125.75123971999366M316.6405382586855,-361.53481419498195L316.6405382586855,120.5116047316606M320.2411330081154,125.75123971999366L320.2411330081154,-377.2537191599812" style="fill:none;stroke:rgb(0,102,204);stroke-opacity:1;stroke-width:1;stroke-linecap:round"></path></svg>