<svg viewBox="0 0 1440 1080" width="1440" height="1080" style="background-color: rgb(255, 255, 255);" xmlns="http://www.w3.org/2000/svg"><rect width="100%" height="100%" fill="#ffffff"></rect><path d="M6.679514928522731,-28.615961171757593L11.056534949943812,-29.09463742333228M27.44631238338145,-27.885481267010817L11.056534949943812,-29.09463742333228M11.056534949943812,-29.09463742333228L11.287682022068074,-155.6247821849561M6.195183567171643,-29.054997471935504L11.571198614585695,-28.65610202513807M6.324774856200219,-155.65783433496043L6.195183567171643,-29.054997471935504M6.195183567171643,-29.054997471935504L-5075.427723129693,522.7814182976068" style="fill:none;stroke:rgb(0,0,0);stroke-opacity:1;stroke-width:2;stroke-linecap:round"></path><path d="M8.87551983653019,-28.85611894866071L-5183.303584533694,538.966924816488M876.3875139639199,35.51248520285433L8.87551983653019,-28.85611894866071" style="fill:none;stroke:rgb(102,102,102);stroke-opacity:1;stroke-width:1;stroke-linecap:round"></path><path d="M-5296.948208579617,556.0179664433315L11.571198614585695,-28.65610202513807M11.571198614585695,-28.65610202513807L11.814660420620228,-155.99048075405753M6.820136295439003,-156.02395937904384L6.679514928522731,-28.615961171757593M6.679514928522731,-28.615961171757593L23.10738486112041,-27.389980912042727M27.44631238338145,-27.885481267010817L23.10738486112041,-27.389980912042727M28.03027647664489,-156.6333415849119L27.44631238338145,-27.885481267010817M11.287682022068074,-155.6247821849561L6.820136295439003,-156.02395937904384M11.287682022068074,-155.6247821849561L28.03027647664489,-156.6333415849119M11.814660420620228,-155.99048075405753L6.324774856200219,-155.65783433496043M-6210.305971779809,-707.1401424077499L6.324774856200219,-155.65783433496043M23.10738486112041,-27.389980912042727L23.602543108144417,-157.04685093889375" style="fill:none;stroke:rgb(0,0,0);stroke-opacity:1;stroke-width:2;stroke-linecap:round"></path><path d="M-6547.330843621511,-904.2691354092627L9.082891795327624,-170.26079354265593M9.082891795327624,-170.26079354265593L916.5887760723566,-239.15501335088388" style="fill:none;stroke:rgb(102,102,102);stroke-opacity:1;stroke-width:1;stroke-linecap:round"></path><path d="M11.814660420620228,-155.99048075405753L-6559.79678810853,-747.431407995849M23.602543108144417,-157.04685093889375L6.820136295439003,-156.02395937904384M23.602543108144417,-157.04685093889375L28.03027647664489,-156.6333415849119M57.74876276246762,-24.80476166873094L61.99454826825354,-25.336684477067035M197.5516590971797,-15.335955927968792L61.99454826825354,-25.336684477067035M61.99454826825354,-25.336684477067035L63.36207506828853,-158.7616985539363M59.03206860163356,-159.20628867635475L57.74876276246762,-24.80476166873094M57.74876276246762,-24.80476166873094L193.83989023204617,-14.648543212863185M75.04233045415296,-23.946601536283996L81.23800946872097,-23.486887765594606M76.72972826573917,-159.92385324620432L75.04233045415296,-23.946601536283996M75.04233045415296,-23.946601536283996L24.79719987285218,-17.386470755663616M63.36207506828853,-158.7616985539363L59.03206860163356,-159.20628867635475M63.36207506828853,-158.7616985539363L202.51804158844956,-167.1443335436693M31.20383428816265,-16.84228639933061L81.23800946872097,-23.486887765594606M81.23800946872097,-23.486887765594606L83.07620452898115,-160.30840271960943M198.75414097032342,-167.7223811621162L59.03206860163356,-159.20628867635475M83.07620452898115,-160.30840271960943L76.72972826573917,-159.92385324620432M25.404891632840386,-165.42147094591556L76.72972826573917,-159.92385324620432M83.07620452898115,-160.30840271960943L31.973771254834237,-165.87849246009284M-92.40097985560726,-18.347994132480505L-86.84517241766636,-17.816638958025987M-94.63799080032942,-164.61432239142164L-92.40097985560726,-18.347994132480505M-92.40097985560726,-18.347994132480505L-98.28037570939138,-17.709523944036015M-95.5090799938978,-17.44049171268339L-89.6322260171341,-18.083191636120265M16.7265360480129,-7.911082684691675L-89.6322260171341,-18.083191636120265M-89.6322260171341,-18.083191636120265L-91.80952705398755,-164.83656358698164M-92.71932128229831,-17.169667128023942L-86.84517241766636,-17.816638958025987M-86.84517241766636,-17.816638958025987L-88.96191324842874,-165.0603094622678M-92.71932128229831,-17.169667128023942L-98.28037570939138,-17.709523944036015M-98.28037570939138,-17.709523944036015L-100.67908318433246,-165.15023255031502M-97.84807787129938,-165.376110783386L-95.5090799938978,-17.44049171268339M-95.5090799938978,-17.44049171268339L11.057197017904835,-7.09523583430763M31.20383428816265,-16.84228639933061L24.79719987285218,-17.386470755663616M24.79719987285218,-17.386470755663616L25.404891632840386,-165.42147094591556M-94.99774828991794,-165.60353084739944L-92.71932128229831,-17.169667128023942M169.3143255068119,-16.95170489716376L176.72729773763152,-16.401669072481283M173.48634174106598,-165.78658765457246L169.3143255068119,-16.95170489716376M169.3143255068119,-16.95170489716376L77.93511356220105,-1.335413320975811M31.973771254834237,-165.87849246009284L31.20383428816265,-16.84228639933061M86.04200817950871,-0.5542856649495693L176.72729773763152,-16.401669072481283M176.72729773763152,-16.401669072481283L181.1119860343612,-166.24864523987316M-88.96191324842874,-165.0603094622678L-94.63799080032942,-164.61432239142164M-100.67908318433246,-165.15023255031502L-94.63799080032942,-164.61432239142164M-91.80952705398755,-164.83656358698164L-97.84807787129938,-165.376110783386M-91.80952705398755,-164.83656358698164L17.18549587859862,-173.40064160917728M-88.96191324842874,-165.0603094622678L-94.99774828991794,-165.60353084739944M-100.67908318433246,-165.15023255031502L-94.99774828991794,-165.60353084739944M11.363396319939122,-174.0897980053163L-97.84807787129938,-165.376110783386M25.404891632840386,-165.42147094591556L31.973771254834237,-165.87849246009284M197.5516590971797,-15.335955927968792L193.83989023204617,-14.648543212863185M202.51804158844956,-167.1443335436693L197.5516590971797,-15.335955927968792M181.1119860343612,-166.24864523987316L173.48634174106598,-165.78658765457246M80.23295474831019,-178.96487868693112L173.48634174106598,-165.78658765457246M193.83989023204617,-14.648543212863185L198.75414097032342,-167.7223811621162M181.1119860343612,-166.24864523987316L88.59982180003911,-179.62732993928023M-6.510779101298558,-13.298822178155937L-1.3269511208478299e-13,-12.698377976825704M-6.678558662964085,-168.85806335975212L-6.510779101298558,-13.298822178155937M-6.510779101298558,-13.298822178155937L-23.374955320373974,-11.096992862068243M198.75414097032342,-167.7223811621162L202.51804158844956,-167.1443335436693M-16.81677442711016,-10.46508919108497L-1.3269511208478299e-13,-12.698377976825704M-1.3269511208478299e-13,-12.698377976825704L-1.3250887333097973e-13,-169.36358629653873M242.27117399056098,-11.034209882723415L245.72834820143723,-11.781719730547774M874.8942161475983,34.63500469808096L245.72834820143723,-11.781719730547774M245.72834820143723,-11.781719730547774L252.17603080730584,-170.13568783738157M-1.3250887333097973e-13,-169.36358629653873L-6.678558662964085,-168.85806335975212M-16.81677442711016,-10.46508919108497L-23.374955320373974,-11.096992862068243M-23.993249509597668,-170.71271224142953L-6.678558662964085,-168.85806335975212M-23.374955320373974,-11.096992862068243L-23.993249509597668,-170.71271224142953M248.6842344785464,-170.7656318592339L242.27117399056098,-11.034209882723415M242.27117399056098,-11.034209882723415L877.9005905592652,36.401587965968766" style="fill:none;stroke:rgb(0,0,0);stroke-opacity:1;stroke-width:2;stroke-linecap:round"></path><path d="M-160.31991620511567,-54.60356060926657L-154.70862550786842,-54.28301978560512M-163.1428641060128,-161.62397171917604L-160.31991620511567,-54.60356060926657M-160.31991620511567,-54.60356060926657L-290.1782508830996,-47.5118564148809" style="fill:none;stroke:rgb(0,102,204);stroke-opacity:1;stroke-width:1;stroke-linecap:round"></path><path d="M-17.26488980784736,-171.24543378261367L-16.81677442711016,-10.46508919108497M-1.3250887333097973e-13,-169.36358629653873L-17.26488980784736,-171.24543378261367" style="fill:none;stroke:rgb(0,0,0);stroke-opacity:1;stroke-width:2;stroke-linecap:round"></path><path d="M-284.75363996045854,-47.079534257812824L-154.70862550786842,-54.28301978560512M-154.70862550786842,-54.28301978560512L-157.4529026787397,-162.08873106649108" style="fill:none;stroke:rgb(0,102,204);stroke-opacity:1;stroke-width:1;stroke-linecap:round"></path><path d="M252.17603080730584,-170.13568783738157L248.6842344785464,-170.7656318592339M252.17603080730584,-170.13568783738157L910.6041841536226,-209.7988299540112" style="fill:none;stroke:rgb(0,0,0);stroke-opacity:1;stroke-width:2;stroke-linecap:round"></path><path d="M-157.4529026787397,-162.08873106649108L-163.1428641060128,-161.62397171917604M-296.1255421052981,-171.93424705718778L-163.1428641060128,-161.62397171917604" style="fill:none;stroke:rgb(0,102,204);stroke-opacity:1;stroke-width:1;stroke-linecap:round"></path><path d="M-23.993249509597668,-170.71271224142953L-17.26488980784736,-171.24543378261367M914.2275115479248,-211.33064785644657L248.6842344785464,-170.7656318592339M283.0381692070348,-8.513498708335577L292.06588126659756,-7.843650651029619M290.7515485344029,-172.89199097614502L283.0381692070348,-8.513498708335577M283.0381692070348,-8.513498708335577L204.64072343593156,10.873115433640264" style="fill:none;stroke:rgb(0,0,0);stroke-opacity:1;stroke-width:2;stroke-linecap:round"></path><path d="M-157.4529026787397,-162.08873106649108L-290.64002011467994,-172.56467095925268" style="fill:none;stroke:rgb(0,102,204);stroke-opacity:1;stroke-width:1;stroke-linecap:round"></path><path d="M16.7265360480129,-7.911082684691675L11.057197017904835,-7.09523583430763M17.18549587859862,-173.40064160917728L16.7265360480129,-7.911082684691675M214.91746570017727,11.86331550103944L292.06588126659756,-7.843650651029619M292.06588126659756,-7.843650651029619L300.0859969993188,-173.45758944257295M11.057197017904835,-7.09523583430763L11.363396319939122,-174.0897980053163M300.0859969993188,-173.45758944257295L290.7515485344029,-172.89199097614502M211.45577065488953,-189.35451655217398L290.7515485344029,-172.89199097614502M11.363396319939122,-174.0897980053163L17.18549587859862,-173.40064160917728M300.0859969993188,-173.45758944257295L222.14158219430084,-190.20057149638242M55.44834947404756,-2.7858253550063523L60.96820598267486,-3.679827280526001M84.67161260903589,-1.4128430655755528L60.96820598267486,-3.679827280526001M60.96820598267486,-3.679827280526001L62.721285387927495,-176.9785302472793M57.05814026522959,-177.7356576494067L55.44834947404756,-2.7858253550063523M55.44834947404756,-2.7858253550063523L79.24713746819153,-0.47548330029266583M80.64284674274498,-1.7981526022417151L88.73253143515367,-1.024458432846612M83.00889603593065,-178.57259092820496L80.64284674274498,-1.7981526022417151M80.64284674274498,-1.7981526022417151L75.20140692189159,-0.8682352936066365M84.67161260903589,-1.4128430655755528L79.24713746819153,-0.47548330029266583M87.16603000177345,-178.89922987624405L84.67161260903589,-1.4128430655755528M86.04200817950871,-0.5542856649495693L77.93511356220105,-1.335413320975811M77.93511356220105,-1.335413320975811L80.23295474831019,-178.96487868693112M83.3254685829549,-0.07956650445400562L88.73253143515367,-1.024458432846612M88.73253143515367,-1.024458432846612L91.35732283339979,-179.22855279263192M62.721285387927495,-176.9785302472793L57.05814026522959,-177.7356576494067M62.721285387927495,-176.9785302472793L87.16603000177345,-178.89922987624405M83.3254685829549,-0.07956650445400562L75.20140692189159,-0.8682352936066365M75.20140692189159,-0.8682352936066365L77.42959675661432,-179.36104089265692M88.59982180003911,-179.62732993928023L86.04200817950871,-0.5542856649495693M79.24713746819153,-0.47548330029266583L81.6049035416253,-179.69417729292635M85.8148601754747,-180.03007831062547L83.3254685829549,-0.07956650445400562M81.6049035416253,-179.69417729292635L57.05814026522959,-177.7356576494067M91.35732283339979,-179.22855279263192L83.00889603593065,-178.57259092820496M77.42959675661432,-179.36104089265692L83.00889603593065,-178.57259092820496M81.6049035416253,-179.69417729292635L87.16603000177345,-178.89922987624405M80.23295474831019,-178.96487868693112L88.59982180003911,-179.62732993928023M91.35732283339979,-179.22855279263192L85.8148601754747,-180.03007831062547M77.42959675661432,-179.36104089265692L85.8148601754747,-180.03007831062547M445.5822379686857,3.547123957544131L457.19619654648477,4.408869163820392M459.3987414715906,-183.1107622352247L445.5822379686857,3.547123957544131M445.5822379686857,3.547123957544131L394.8409940569552,29.19957686914094" style="fill:none;stroke:rgb(0,0,0);stroke-opacity:1;stroke-width:2;stroke-linecap:round"></path><path d="M-284.75363996045854,-47.079534257812824L-290.1782508830996,-47.5118564148809M-290.1782508830996,-47.5118564148809L-296.1255421052981,-171.93424705718778" style="fill:none;stroke:rgb(0,102,204);stroke-opacity:1;stroke-width:1;stroke-linecap:round"></path><path d="M408.862489719817,30.550597026443892L457.19619654648477,4.408869163820392M457.19619654648477,4.408869163820392L471.4959907043244,-183.84376597291177" style="fill:none;stroke:rgb(0,0,0);stroke-opacity:1;stroke-width:2;stroke-linecap:round"></path><path d="M-290.64002011467994,-172.56467095925268L-284.75363996045854,-47.079534257812824M-296.1255421052981,-171.93424705718778L-290.64002011467994,-172.56467095925268" style="fill:none;stroke:rgb(0,102,204);stroke-opacity:1;stroke-width:1;stroke-linecap:round"></path><path d="M471.4959907043244,-183.84376597291177L459.3987414715906,-183.1107622352247M410.27451825462106,-205.09609909718606L459.3987414715906,-183.1107622352247M471.4959907043244,-183.84376597291177L425.0195145605562,-206.26354220442798M207.37900869404663,11.963320336056155L212.10745884831496,10.77506968456952M265.7171079149994,15.902274820899937L212.10745884831496,10.77506968456952M212.10745884831496,10.77506968456952L219.1646386251535,-189.27077118754852M204.64072334397443,10.87311813536135L214.9174656027297,11.86331822671734M211.9924867234096,-205.12335629690526L204.64072334397443,10.87311813536135M204.64072334397443,10.87311813536135L132.6839418448803,28.667044687356068M214.91746570017727,11.86331550103944L204.64072343593156,10.873115433640264M204.64072343593156,10.873115433640264L211.45577065488953,-189.35451655217398M143.88981551994326,30.006782612146374L214.9174656027297,11.86331822671734M214.9174656027297,11.86331822671734L222.7106990292044,-206.1191907365118M222.14158219430084,-190.20057149638242L214.91746570017727,11.86331550103944M214.35624636973415,-190.28604676691407L207.37900869404663,11.963320336056155M207.37900869404663,11.963320336056155L261.37397336782084,17.205051035085717" style="fill:none;stroke:rgb(0,0,0);stroke-opacity:1;stroke-width:2;stroke-linecap:round"></path><path d="M570.0217739821886,-42.98605765857944L720.624621597244,-37.399286679734885M582.7596907192208,-178.54471712970619L570.0217739821886,-42.98605765857944M570.0217739821886,-42.98605765857944L569.1610980254536,-42.369969544006295M721.5095506868652,-36.65272182763289L569.1610980254536,-42.369969544006295M569.1610980254536,-42.369969544006295L582.0234957209441,-179.44644238509886" style="fill:none;stroke:rgb(0,102,204);stroke-opacity:1;stroke-width:1;stroke-linecap:round"></path><path d="M219.1646386251535,-189.27077118754852L214.35624636973415,-190.28604676691407M219.1646386251535,-189.27077118754852L274.98630935389474,-193.65685351119683M211.45577065488953,-189.35451655217398L222.14158219430084,-190.20057149638242M222.7106990292044,-206.1191907365118L211.9924867234096,-205.12335629690526M138.25692499740703,-223.1176635106402L211.9924867234096,-205.12335629690526" style="fill:none;stroke:rgb(0,0,0);stroke-opacity:1;stroke-width:2;stroke-linecap:round"></path><path d="M-394.89540797517157,-41.79313913719897L-389.8428329776045,-41.258407748558135M-403.9130005454894,-180.29111271234353L-394.89540797517157,-41.79313913719897M-394.89540797517157,-41.79313913719897L-621.6442237849581,-29.410140909647613M738.381285784445,-186.73801128804888L582.7596907192208,-178.54471712970619M582.0234957209441,-179.44644238509886L582.7596907192208,-178.54471712970619" style="fill:none;stroke:rgb(0,102,204);stroke-opacity:1;stroke-width:1;stroke-linecap:round"></path><path d="M270.5989371337439,-194.7734984698291L214.35624636973415,-190.28604676691407M222.7106990292044,-206.1191907365118L149.99971611565243,-224.4810379983116M265.7171079149994,15.902274820899937L261.37397336782084,17.205051035085717M274.98630935389474,-193.65685351119683L265.7171079149994,15.902274820899937" style="fill:none;stroke:rgb(0,0,0);stroke-opacity:1;stroke-width:2;stroke-linecap:round"></path><path d="M-618.0777813859764,-28.615961171757576L-389.8428329776045,-41.258407748558135M-389.8428329776045,-41.258407748558135L-398.830563997261,-181.07448524533964M582.0234957209441,-179.44644238509886L739.5097889576392,-187.83567423100848" style="fill:none;stroke:rgb(0,102,204);stroke-opacity:1;stroke-width:1;stroke-linecap:round"></path><path d="M261.37397336782084,17.205051035085717L270.5989371337439,-194.7734984698291" style="fill:none;stroke:rgb(0,0,0);stroke-opacity:1;stroke-width:2;stroke-linecap:round"></path><path d="M-398.830563997261,-181.07448524533964L-403.9130005454894,-180.29111271234353M-639.0126305030477,-198.51861386659255L-403.9130005454894,-180.29111271234353M-398.830563997261,-181.07448524533964L-635.549944817382,-199.69383862323733" style="fill:none;stroke:rgb(0,102,204);stroke-opacity:1;stroke-width:1;stroke-linecap:round"></path><path d="M270.5989371337439,-194.7734984698291L274.98630935389474,-193.65685351119683M333.3238901499826,24.18981507499739L337.06899798232473,22.726340704730184M403.3562444958105,29.066026129165373L337.06899798232473,22.726340704730184M337.06899798232473,22.726340704730184L349.553034944633,-199.5157931089591M345.823536030607,-200.77546512247793L333.3238901499826,24.18981507499739M333.3238901499826,24.18981507499739L400.2540452961796,30.687269995845465M349.553034944633,-199.5157931089591L345.823536030607,-200.77546512247793M349.553034944633,-199.5157931089591L419.105512176775,-204.98074761446404M143.88981551994326,30.006782612146374L132.6839418448803,28.667044687356068M132.6839418448803,28.667044687356068L138.25692499740703,-223.1176635106402M416.08827126394056,-206.38169771011692L345.823536030607,-200.77546512247793M403.3562444958105,29.066026129165373L400.2540452961796,30.687269995845465M419.105512176775,-204.98074761446404L403.3562444958105,29.066026129165373M408.862489719817,30.550597026443892L394.8409940569552,29.19957686914094M394.8409940569552,29.19957686914094L410.27451825462106,-205.09609909718606M149.99971611565243,-224.4810379983116L143.88981551994326,30.006782612146374M425.0195145605562,-206.26354220442798L408.862489719817,30.550597026443892M400.2540452961796,30.687269995845465L416.08827126394056,-206.38169771011692M138.25692499740703,-223.1176635106402L149.99971611565243,-224.4810379983116M416.08827126394056,-206.38169771011692L419.105512176775,-204.98074761446404M410.27451825462106,-205.09609909718606L425.0195145605562,-206.26354220442798M90.95560840615492,38.98589003975934L102.60464427688888,40.552760597080855M95.54892613763346,-263.2240673390841L90.95560840615492,38.98589003975934M90.95560840615492,38.98589003975934L-27.578286447256588,68.29769880888865" style="fill:none;stroke:rgb(0,0,0);stroke-opacity:1;stroke-width:2;stroke-linecap:round"></path><path d="M-618.0777813859764,-28.615961171757576L-621.6442237849581,-29.410140909647613M-621.6442237849581,-29.410140909647613L-639.0126305030477,-198.51861386659255" style="fill:none;stroke:rgb(0,102,204);stroke-opacity:1;stroke-width:1;stroke-linecap:round"></path><path d="M-15.055238616824575,70.60806852839586L102.60464427688888,40.552760597080855M102.60464427688888,40.552760597080855L107.84820731797821,-265.19093666553437" style="fill:none;stroke:rgb(0,0,0);stroke-opacity:1;stroke-width:2;stroke-linecap:round"></path><path d="M-635.549944817382,-199.69383862323733L-618.0777813859764,-28.615961171757576M-639.0126305030477,-198.51861386659255L-635.549944817382,-199.69383862323733" style="fill:none;stroke:rgb(0,102,204);stroke-opacity:1;stroke-width:1;stroke-linecap:round"></path><path d="M107.84820731797821,-265.19093666553437L95.54892613763346,-263.2240673390841M-29.285764078783096,-300.3971327617451L95.54892613763346,-263.2240673390841M107.84820731797821,-265.19093666553437L-16.00106871763986,-303.36150174958163M-22.093919188351265,66.94148989909532L-9.598710335120316,69.21424054124162M-23.45005062801279,-298.65938376331115L-22.093919188351265,66.94148989909532M-22.093919188351265,66.94148989909532L-33.15317971312394,69.67629356036882M-26.921590621175493,70.8426254542105L-15.888873374967126,68.07012424387223M200.26400196048607,107.38612063823389L-15.888873374967126,68.07012424387223M-15.888873374967126,68.07012424387223L-16.871191442037144,-300.105413033046M-15.055238616824575,70.60806852839586L-27.578286447256588,68.29769880888865M-27.578286447256588,68.29769880888865L-29.285764078783096,-300.3971327617451M-27.57828649006185,68.29768956596268L-15.055238640515578,70.60805916126421M-29.16309299515288,-273.9088241112916L-27.57828649006185,68.29768956596268M-27.57828649006185,68.29768956596268L-723.6523576747478,240.42726447506487M-20.603089547531066,72.0252241805908L-9.598710335120316,69.21424054124162M-9.598710335120316,69.21424054124162L-10.196467293544977,-301.57251336355625M-20.603089547531066,72.0252241805908L-33.15317971312394,69.67629356036882M-33.15317971312394,69.67629356036882L-35.223819093106286,-302.16535685993546M-16.00106871763986,-303.36150174958163L-15.055238616824575,70.60806852839586M-717.6881899277247,250.0902074128673L-15.055238640515578,70.60805916126421M-15.055238640515578,70.60805916126421L-15.93306296763737,-276.47286595448503M-28.61540219052591,-303.6627391529284L-26.921590621175493,70.8426254542105M-26.921590621175493,70.8426254542105L191.03412679099824,111.63618563798461M-21.908975826355658,-305.1823291296212L-20.603089547531066,72.0252241805908M-10.196467293544977,-301.57251336355625L-23.45005062801279,-298.65938376331115M-35.223819093106286,-302.16535685993546L-23.45005062801279,-298.65938376331115M-15.93306296763737,-276.47286595448503L-29.16309299515288,-273.9088241112916M-813.4047747068479,-476.8005102333303L-29.16309299515288,-273.9088241112916M-16.871191442037144,-300.105413033046L-28.61540219052591,-303.6627391529284M-16.871191442037144,-300.105413033046L215.7895293196335,-351.2440987273926M-29.285764078783096,-300.3971327617451L-16.00106871763986,-303.36150174958163M-10.196467293544977,-301.57251336355625L-21.908975826355658,-305.1823291296212M-35.223819093106286,-302.16535685993546L-21.908975826355658,-305.1823291296212M-15.93306296763737,-276.47286595448503L-809.5615008900872,-488.9502202740402M206.17366561027984,-356.8629227817722L-28.61540219052591,-303.6627391529284M200.26400196048607,107.38612063823389L191.03412679099824,111.63618563798461M215.7895293196335,-351.2440987273926L200.26400196048607,107.38612063823389M191.0341267909984,111.63618563798464L200.26400196048618,107.38612063823389M1356.6503746561852,317.72096993799715L200.26400196048618,107.38612063823389M200.26400196048618,107.38612063823389L215.78952931963366,-351.2440987273926M186.17936989977667,107.73371791190394L205.37617976454234,111.27532597261323M201.10084945458578,-366.37070899801813L186.17936989977667,107.73371791190394M186.17936989977667,107.73371791190394L53.96932148755248,166.85475694009156M75.85322318829783,172.7438209970215L205.37617976454234,111.27532597261323M205.37617976454234,111.27532597261323L222.14158219430095,-371.3359905744665M191.03412679099824,111.63618563798461L206.17366561027984,-356.8629227817722M206.17366561028,-356.8629227817722L191.0341267909984,111.63618563798464M191.0341267909984,111.63618563798464L1386.8094140318442,335.44279977732384M206.17366561027984,-356.8629227817722L215.7895293196335,-351.2440987273926M215.78952931963366,-351.2440987273926L206.17366561028,-356.8629227817722M215.78952931963366,-351.2440987273926L1587.400297634291,-652.723315959234M222.14158219430095,-371.3359905744665L201.10084945458578,-366.37070899801813M59.663926152905724,-451.08770026927766L201.10084945458578,-366.37070899801813M1634.5193289037081,-680.5076830954902L206.17366561028,-356.8629227817722M222.14158219430095,-371.3359905744665L84.0535716410868,-459.7448419951212M75.85322318829783,172.7438209970215L53.96932148755248,166.85475694009156M53.96932148755248,166.85475694009156L59.663926152905724,-451.08770026927766M84.0535716410868,-459.7448419951212L75.85322318829783,172.7438209970215M-540.4542152166231,199.89240629946838L-506.66178403321084,191.40043174988784M-295.0071720984606,335.44278965352987L-506.66178403321084,191.40043174988784M-506.66178403321084,191.40043174988784L-565.6382879947486,-487.4408247704188M59.663926152905724,-451.08770026927766L84.0535716410868,-459.7448419951212M-605.4268531115176,-500.18504748330315L-540.4542152166231,199.89240629946838M-540.4542152166231,199.89240629946838L-336.91473299469044,354.739892839351M-55.963689178977795,216.0140502910242L-32.823030669523135,224.31896012866227M-62.34809073623415,-446.48364902906366L-55.963689178977795,216.0140502910242M-55.963689178977795,216.0140502910242L-591.0373335114052,455.28564296807474M-574.8308257988441,481.542878828971L-32.823030669523135,224.31896012866227M-32.823030669523135,224.31896012866227L-36.67792210190197,-456.736473098344M-565.6382879947486,-487.4408247704188L-605.4268531115176,-500.18504748330315M-565.6382879947486,-487.4408247704188L-349.5463131586802,-716.0871734427544M-402.508751807816,-748.8665614825053L-605.4268531115176,-500.18504748330315M-717.6881899277247,250.0902074128673L-723.6523576747478,240.42726447506487M-809.5615008900872,-488.9502202740402L-717.6881899277247,250.0902074128673M-36.67792210190197,-456.736473098344L-62.34809073623415,-446.48364902906366M-720.9894197158587,-768.9524150893285L-62.34809073623415,-446.48364902906366M-36.67792210190197,-456.736473098344L-708.6035253801588,-808.1078414129378M-295.0071720984606,335.44278965352987L-336.91473299469044,354.739892839351M-349.5463131586802,-716.0871734427544L-295.0071720984606,335.44278965352987M-336.91473299469044,354.739892839351L-402.508751807816,-748.8665614825053M-574.8308257988441,481.542878828971L-591.0373335114052,455.28564296807474M-591.0373335114052,455.28564296807474L-720.9894197158587,-768.9524150893285M-708.6035253801588,-808.1078414129378L-574.8308257988441,481.542878828971" style="fill:none;stroke:rgb(0,0,0);stroke-opacity:1;stroke-width:2;stroke-linecap:round"></path></svg>