<svg viewBox="0 0 1440 1080" width="1440" height="1080" style="background-color: rgb(255, 255, 255);" xmlns="http://www.w3.org/2000/svg"><rect width="100%" height="100%" fill="#ffffff"></rect><path d="M-468.6851670918607,-64.94008757742766L-464.3529722203288,-63.48750298906363M-500.7016111436766,-315.0362894760759L-468.6851670918607,-64.94008757742766M-468.6851670918607,-64.94008757742766L-1932.7203822544361,82.44054874309175M-473.733840345992,-63.487502989063614L-459.404272694002,-64.94008757742765M131988.4000568165,43343.07452642146L-459.404272694002,-64.94008757742765M-459.404272694002,-64.94008757742765L-490.7867277546928,-315.0362894760759" style="fill:none;stroke:rgb(0,0,0);stroke-opacity:1;stroke-width:2;stroke-linecap:round"></path><path d="M128991.57470385826,43343.0745264215L-466.5306737495006,-64.21768613482148M-466.5306737495006,-64.21768613482148L-12503.02205648657,1155.918350426782" style="fill:none;stroke:rgb(102,102,102);stroke-opacity:1;stroke-width:1;stroke-linecap:round"></path><path d="M-1956.9453965036073,88.87923100028523L-464.3529722203288,-63.48750298906363M-464.3529722203288,-63.48750298906363L-496.438782201004,-316.36352094569804M-506.46784850809513,-316.3635209456981L-473.733840345992,-63.487502989063614M-473.733840345992,-63.487502989063614L125994.74935089776,43343.07452642069M-496.438782201004,-316.36352094569804L-500.7016111436766,-315.0362894760759M-2231.3381237186404,-460.45642762192495L-500.7016111436766,-315.0362894760759M-490.7867277546928,-315.0362894760759L-506.46784850809513,-316.3635209456981M-490.7867277546928,-315.0362894760759L114007.44793906904,-35034.07866349276M-496.438782201004,-316.36352094569804L-2267.297970398453,-467.3463325758819M108013.79723314664,-35034.07866349092L-506.46784850809513,-316.3635209456981" style="fill:none;stroke:rgb(0,0,0);stroke-opacity:1;stroke-width:2;stroke-linecap:round"></path><path d="M-502.41764865330833,-345.78754072596246L109012.73901747382,-43742.65124015081M-43760.5771977028,-4944.761832381217L-502.41764865330833,-345.78754072596246" style="fill:none;stroke:rgb(102,102,102);stroke-opacity:1;stroke-width:1;stroke-linecap:round"></path><path d="M-827.2152083066317,-113.31959193418784L-623.0381582899143,-123.7166378175187M-620.0221043421354,-122.79081567902331L-623.0381582899143,-123.7166378175187M-623.0381582899143,-123.7166378175187L-654.5179810245625,-311.66983670766734M-620.0221043421354,-122.79081567902331L-826.6104685926487,-112.12141043400725M-651.7503143724367,-313.1011562792296L-620.0221043421354,-122.79081567902331M-654.5179810245625,-311.66983670766734L-875.0541601123164,-327.84547234773163M-654.5179810245625,-311.66983670766734L-651.7503143724367,-313.1011562792296M-875.1157283633664,-329.7240608389372L-651.7503143724367,-313.1011562792296M-310.1998147358157,-99.63060540178132L-291.7937304905967,-101.19150542456744M-99.4404481071599,-68.43961013676493L-291.7937304905967,-101.19150542456744M-291.7937304905967,-101.19150542456744L-311.19275966448686,-347.0008303425449M-331.17106981654695,-349.48892848584603L-310.1998147358157,-99.63060540178132M-310.1998147358157,-99.63060540178132L-120.0121309150658,-65.65483105421107M-311.19275966448686,-347.0008303425449L-331.17106981654695,-349.48892848584603M-311.19275966448686,-347.0008303425449L-108.44637548290267,-400.33063205556715M-131.13294613499468,-404.9763990484245L-331.17106981654695,-349.48892848584603M-99.4404481071599,-68.43961013676493L-120.0121309150658,-65.65483105421107M-108.44637548290267,-400.33063205556715L-99.4404481071599,-68.43961013676493M-120.0121309150658,-65.65483105421107L-131.13294613499468,-404.9763990484245M-131.13294613499468,-404.9763990484245L-108.44637548290267,-400.33063205556715" style="fill:none;stroke:rgb(0,102,204);stroke-opacity:1;stroke-width:1;stroke-linecap:round"></path><path d="M31.225957383738265,102.68007884044968L53.31779117642476,110.08746908742113M37.63371024001636,-614.2090981558538L31.225957383738265,102.68007884044968M31.225957383738265,102.68007884044968L-2097.4167606771293,869.5014597121037M-2210.637637003882,968.2051343261536L53.31779117642476,110.08746908742113M53.31779117642476,110.08746908742113L64.58348140792387,-626.5026096376449" style="fill:none;stroke:rgb(0,0,0);stroke-opacity:1;stroke-width:2;stroke-linecap:round"></path><path d="M536.3557944563804,51.600966342329L549.139289865655,41.99373106056267M2783.8879548330924,422.5032464826522L549.139289865655,41.99373106056267M549.139289865655,41.99373106056267L648.2320940519387,-599.3650705916687M637.71436978672,-618.2427106103038L536.3557944563804,51.600966342329M536.3557944563804,51.600966342329L2992.5822127058955,490.38960321136585" style="fill:none;stroke:rgb(0,102,204);stroke-opacity:1;stroke-width:1;stroke-linecap:round"></path></svg>