<svg viewBox="0 0 1440 1080" width="1440" height="1080" style="background-color: rgb(255, 255, 255);" xmlns="http://www.w3.org/2000/svg"><rect width="100%" height="100%" fill="#ffffff"></rect><path d="M-645.9780029943076,-157.55561048641653L-637.3071573165317,-155.4407700772029M-637.3071573165317,124.3526160617623L-645.9780029943076,126.04448838913322M-637.3071573165317,-155.4407700772029L-637.3071573165317,124.3526160617623M-948.1886974709375,-155.4407700772029L-637.3071573165317,-155.4407700772029M-637.3071573165317,124.3526160617623L-948.1886974709375,124.3526160617623M-544.04269527021,-155.4407700772029L-551.4446367024576,-157.55561048641653M220.5778546809833,-157.55561048641653L217.61707810808423,-155.4407700772029M-551.4446367024576,126.04448838913322L-544.04269527021,124.3526160617623M217.61707810808423,124.3526160617623L220.5778546809833,126.04448838913322M217.61707810808423,-155.4407700772029L217.61707810808423,124.3526160617623M-544.04269527021,-155.4407700772029L217.61707810808423,-155.4407700772029M217.61707810808423,124.3526160617623L-544.04269527021,124.3526160617623M-544.04269527021,124.3526160617623L-544.04269527021,-155.4407700772029" style="fill:none;stroke:rgb(0,0,0);stroke-opacity:1;stroke-width:2;stroke-linecap:round"></path><path d="M77.7203850386016,-139.89669306948264L-77.72038503860134,-139.89669306948264M-77.72038503860134,46.63223102316089L77.7203850386016,46.63223102316089M77.7203850386016,-139.89669306948264L78.77780524320843,-141.80004943777493M78.77780524320843,47.26668314592498L77.7203850386016,46.63223102316089M77.7203850386016,46.63223102316089L77.7203850386016,-139.89669306948264M-77.72038503860134,-139.89669306948264L-77.72038503860134,46.63223102316089M-78.77780524320816,-141.80004943777493L-77.72038503860134,-139.89669306948264M-77.72038503860134,46.63223102316089L-78.77780524320816,47.26668314592498" style="fill:none;stroke:rgb(0,102,204);stroke-opacity:1;stroke-width:1;stroke-linecap:round"></path><path d="M-211.26291149344146,-156.49104555069755L-226.91201604851122,-156.49104555069755M-226.91201604851122,125.19283644055803L-211.26291149344146,125.19283644055803M-211.26291149344146,-156.49104555069755L-289.5084342687902,-214.45069205095587M-289.5084342687902,171.56055364076468L-211.26291149344146,125.19283644055803M-211.26291149344146,125.19283644055803L-211.26291149344146,-156.49104555069755M-226.91201604851122,-156.49104555069755L-226.91201604851122,125.19283644055803M-310.9535034738858,-214.45069205095587L-226.91201604851122,-156.49104555069755M-226.91201604851122,125.19283644055803L-310.9535034738858,171.56055364076468M-461.6485843745575,-156.49104555069755L-477.29768892962727,-156.49104555069755M-477.29768892962727,125.19283644055803L-461.6485843745575,125.19283644055803M-461.6485843745575,-156.49104555069755L-632.6295415503196,-214.45069205095587M-632.6295415503196,171.56055364076468L-461.6485843745575,125.19283644055803M-461.6485843745575,125.19283644055803L-461.6485843745575,-156.49104555069755M-477.29768892962727,-156.49104555069755L-477.29768892962727,125.19283644055803M-654.0746107554152,-214.45069205095587L-477.29768892962727,-156.49104555069755M-477.29768892962727,125.19283644055803L-654.0746107554152,171.56055364076468" style="fill:none;stroke:rgb(0,0,0);stroke-opacity:1;stroke-width:2;stroke-linecap:round"></path><path d="M81062.3615952602,46321.34948300586L219.08746377097697,125.1928364405582M219.08746377097697,125.1928364405582L-1095.4373188548823,125.19283644055783M219.08746377097697,-187.7892546608372L81062.36159525732,-69482.0242245063M-1095.4373188548823,-187.7892546608368L219.08746377097697,-187.7892546608372" style="fill:none;stroke:rgb(102,102,102);stroke-opacity:1;stroke-width:1;stroke-linecap:round"></path><path d="M-680.7360481455339,-156.4910455506975L-696.3851527006036,-156.4910455506975M-696.3851527006036,125.192836440558L-680.7360481455339,125.192836440558M-680.7360481455339,-156.4910455506975L-932.8605104216576,-214.45069205095584M-932.8605104216576,171.56055364076462L-680.7360481455339,125.192836440558M-680.7360481455339,125.192836440558L-680.7360481455339,-156.4910455506975M-696.3851527006036,-156.4910455506975L-696.3851527006036,125.192836440558M-954.3055796267531,-214.45069205095584L-696.3851527006036,-156.4910455506975M-696.3851527006036,125.192836440558L-954.3055796267531,171.56055364076462M226.91201604851173,-156.49104555069755L211.262911493442,-156.49104555069755M211.262911493442,125.19283644055803L226.91201604851173,125.19283644055803M226.91201604851173,-156.49104555069755L83957.44593794507,-57901.68685375521M83957.44593794807,46321.349483005804L226.91201604851173,125.19283644055803M226.91201604851173,125.19283644055803L226.91201604851173,-156.49104555069755M211.262911493442,-156.49104555069755L211.262911493442,125.19283644055803M78167.27725257234,-57901.686853757274L211.262911493442,-156.49104555069755M211.262911493442,125.19283644055803L78167.27725256956,46321.34948300416M-645.9780029943076,-157.55561048641653L-961.0892239671408,-157.55561048641653M-961.0892239671408,126.04448838913322L-645.9780029943076,126.04448838913322M-645.9780029943076,126.04448838913322L-645.9780029943076,-157.55561048641653M-551.4446367024576,-157.55561048641653L-551.4446367024576,126.04448838913322M220.5778546809833,-157.55561048641653L-551.4446367024576,-157.55561048641653M-551.4446367024576,126.04448838913322L220.5778546809833,126.04448838913322M220.5778546809833,126.04448838913322L220.5778546809833,-157.55561048641653" style="fill:none;stroke:rgb(0,0,0);stroke-opacity:1;stroke-width:2;stroke-linecap:round"></path><path d="M-78.77780524320816,-141.80004943777493L78.77780524320843,-141.80004943777493M78.77780524320843,47.26668314592498L-78.77780524320816,47.26668314592498M78.77780524320843,-141.80004943777493L78.77780524320843,47.26668314592498M-78.77780524320816,47.26668314592498L-78.77780524320816,-141.80004943777493" style="fill:none;stroke:rgb(0,102,204);stroke-opacity:1;stroke-width:1;stroke-linecap:round"></path><path d="M-637.4497635276118,-212.483254509204L-649.3647123785952,-216.45490412619844M-541.137260315496,-216.45490412619844L-531.2081362730098,-212.483254509204M-649.3647123785952,173.16392330095874L-637.4497635276118,169.9866036073632M-531.2081362730098,169.9866036073632L-541.137260315496,173.16392330095874M-531.2081362730098,-212.483254509204L-531.2081362730098,169.9866036073632M-637.4497635276118,-212.483254509204L-531.2081362730098,-212.483254509204M-531.2081362730098,169.9866036073632L-637.4497635276118,169.9866036073632M-637.4497635276118,169.9866036073632L-637.4497635276118,-212.483254509204M-403.7181835674873,-212.483254509204L-411.2643178397767,-216.45490412619844M-303.0368657766775,-216.45490412619844L-297.47655631288524,-212.483254509204M-411.2643178397767,173.16392330095874L-403.7181835674873,169.9866036073632M-297.47655631288524,169.9866036073632L-303.0368657766775,173.16392330095874M-297.47655631288524,-212.483254509204L-297.47655631288524,169.9866036073632M-403.7181835674873,-212.483254509204L-297.47655631288524,-212.483254509204M-297.47655631288524,169.9866036073632L-403.7181835674873,169.9866036073632M-403.7181835674873,169.9866036073632L-403.7181835674873,-212.483254509204M-310.9535034738858,-214.45069205095587L-289.5084342687902,-214.45069205095587M-289.5084342687902,171.56055364076468L-310.9535034738858,171.56055364076468M-289.5084342687902,-214.45069205095587L-289.5084342687902,171.56055364076468M-310.9535034738858,171.56055364076468L-310.9535034738858,-214.45069205095587M-654.0746107554152,-214.45069205095587L-632.6295415503196,-214.45069205095587M-632.6295415503196,171.56055364076468L-654.0746107554152,171.56055364076468M-632.6295415503196,-214.45069205095587L-632.6295415503196,171.56055364076468M-654.0746107554152,171.56055364076468L-654.0746107554152,-214.45069205095587M-632.6295415503195,-243.79658160835288L-654.0746107554152,-243.79658160835288M-654.0746107554152,171.56055902276776L-632.6295415503195,171.56055902276776M-632.6295415503195,-243.79658160835288L-833.2193961882259,-321.0979367524648M-833.2193961882259,225.95780944462098L-632.6295415503195,171.56055902276776M-632.6295415503195,171.56055902276776L-632.6295415503195,-243.79658160835288M-654.0746107554152,-243.79658160835288L-654.0746107554152,171.56055902276776M-861.464121482742,-321.0979367524648L-654.0746107554152,-243.79658160835288M-654.0746107554152,171.56055902276776L-861.464121482742,225.95780944462098M-649.3647123785952,-216.45490412619844L-649.3647123785952,173.16392330095874M-541.137260315496,-216.45490412619844L-649.3647123785952,-216.45490412619844M-649.3647123785952,173.16392330095874L-541.137260315496,173.16392330095874M-541.137260315496,173.16392330095874L-541.137260315496,-216.45490412619844M-411.2643178397767,-216.45490412619844L-411.2643178397767,173.16392330095874M-303.0368657766775,-216.45490412619844L-411.2643178397767,-216.45490412619844M-411.2643178397767,173.16392330095874L-303.0368657766775,173.16392330095874M-303.0368657766775,173.16392330095874L-303.0368657766775,-216.45490412619844" style="fill:none;stroke:rgb(0,0,0);stroke-opacity:1;stroke-width:2;stroke-linecap:round"></path><path d="M365.0323736432577,-226.5718181234012L339.857727185102,-226.5718181234012M339.857727185102,75.52393937446706L365.0323736432577,75.52393937446706M365.0323736432577,-226.5718181234012L559.7163062529951,-347.4101211225485M559.7163062529951,115.80337370751617L365.0323736432577,75.52393937446706M365.0323736432577,75.52393937446706L365.0323736432577,-226.5718181234012M339.857727185102,-226.5718181234012L339.857727185102,75.52393937446706M521.1151816838229,-347.4101211225485L339.857727185102,-226.5718181234012M339.857727185102,75.52393937446706L521.1151816838229,115.80337370751617M521.1151816838229,-347.4101211225485L559.7163062529951,-347.4101211225485M559.7163062529951,115.80337370751617L521.1151816838229,115.80337370751617M559.7163062529951,-347.4101211225485L559.7163062529951,115.80337370751617M521.1151816838229,115.80337370751617L521.1151816838229,-347.4101211225485" style="fill:none;stroke:rgb(0,102,204);stroke-opacity:1;stroke-width:1;stroke-linecap:round"></path><path d="M720.5543252912119,411.74534165464274L-823.4906574756703,411.74534165464274M-861.7925485210504,430.89628777811447L754.0684799559193,430.89628777811447" style="fill:none;stroke:rgb(0,0,0);stroke-opacity:1;stroke-width:2;stroke-linecap:round"></path></svg>