<svg viewBox="0 0 1440 1080" width="1440" height="1080" style="background-color: rgb(255, 255, 255);" xmlns="http://www.w3.org/2000/svg"><rect width="100%" height="100%" fill="#ffffff"></rect><path d="M-421.7482588538204,-79.73254102994356L-413.44275773801115,-80.78912027826138M2054.423687865647,0.5599425407452723L-413.44275773801115,-80.78912027826138M-413.44275773801115,-80.78912027826138L-426.52179049597976,-315.0370569356881M-422.8727828990203,-80.43933535331972L-412.2573914071277,-80.08715053180896M-436.2973156894654,-315.5024391089226L-422.8727828990203,-80.43933535331972M-422.8727828990203,-80.43933535331972L-5485.766722863275,558.3456675735176" style="fill:none;stroke:rgb(0,0,0);stroke-opacity:1;stroke-width:2;stroke-linecap:round"></path><path d="M-417.57417567318686,-80.26354447066502L-5510.373064364244,567.6137535534838M2069.827549787463,2.2605087756010946L-417.57417567318686,-80.26354447066502" style="fill:none;stroke:rgb(102,102,102);stroke-opacity:1;stroke-width:1;stroke-linecap:round"></path><path d="M-5535.602351219668,577.1164746215485L-412.2573914071277,-80.08715053180896M-412.2573914071277,-80.08715053180896L-425.391255204169,-315.97111602320655M-435.23221739621613,-316.4431227912332L-421.7482588538204,-79.73254102994356M-421.7482588538204,-79.73254102994356L2085.519334362023,3.99286129522096M-426.52179049597976,-315.0370569356881L-435.23221739621613,-316.4431227912332M-426.52179049597976,-315.0370569356881L2174.0988541490833,-426.0510374829884M-425.391255204169,-315.97111602320655L-436.2973156894654,-315.5024391089226M-7053.128643681352,-1374.7122653906683L-436.2973156894654,-315.5024391089226M-425.391255204169,-315.97111602320655L-7169.0587827271065,-1413.7814802945022" style="fill:none;stroke:rgb(0,0,0);stroke-opacity:1;stroke-width:2;stroke-linecap:round"></path><path d="M-7347.164085818996,-1684.531139578081L-432.38177055521476,-342.8277989890633M-432.38177055521476,-342.8277989890633L2206.0004149050596,-479.4360651831203" style="fill:none;stroke:rgb(102,102,102);stroke-opacity:1;stroke-width:1;stroke-linecap:round"></path><path d="M2209.411572046896,-430.8619251396078L-435.23221739621613,-316.4431227912332M-149.2969034890305,-70.63454949378858L-143.29575344682436,-71.88417906412099M-130.75313765002562,-71.47073284940134L-143.29575344682436,-71.88417906412099M-143.29575344682436,-71.88417906412099L-148.23698632430109,-326.91633809902766M-494.9239309735961,-70.42354262450172L-485.0642219055094,-71.6778394875726M-306.34937823870115,-65.11064667797744L-485.0642219055094,-71.6778394875726M-485.0642219055094,-71.6778394875726L-501.8226787083869,-327.1923748116482M-130.75313765002562,-71.47073284940134L-136.6353903337799,-70.21174249630769M-135.27920779944958,-327.46947320393275L-130.75313765002562,-71.47073284940134M-146.27956547898273,-71.26285486434675L-133.67777169465862,-70.84476755234917M-151.3528452065775,-327.74763941275785L-146.27956547898273,-71.26285486434675M-146.27956547898273,-71.26285486434675L-366.18886170734646,-25.47077210933422M-349.560521121181,-24.638949213743878L-133.67777169465862,-70.84476755234917M-133.67777169465862,-70.84476755234917L-138.33193009021736,-328.3072000649398M-154.5049350060897,-328.5886070208337L-149.2969034890305,-70.63454949378858M-149.2969034890305,-70.63454949378858L-136.6353903337799,-70.21174249630769M-512.2222431241295,-328.8711068192748L-494.9239309735961,-70.42354262450172M-494.9239309735961,-70.42354262450172L-314.6653541259563,-63.703204560931006M-136.6353903337799,-70.21174249630769L-141.42028727153874,-329.1547058387214M-148.23698632430109,-326.91633809902766L-154.5049350060897,-328.5886070208337M-148.23698632430109,-326.91633809902766L-135.27920779944958,-327.46947320393275M-501.8226787083869,-327.1923748116482L-512.2222431241295,-328.8711068192748M-501.8226787083869,-327.1923748116482L-317.5801090091627,-335.99631558484236M-141.42028727153874,-329.1547058387214L-135.27920779944958,-327.46947320393275M-138.33193009021736,-328.3072000649398L-151.3528452065775,-327.74763941275785M-384.34698708126444,-389.909740955161L-151.3528452065775,-327.74763941275785" style="fill:none;stroke:rgb(0,0,0);stroke-opacity:1;stroke-width:2;stroke-linecap:round"></path><path d="M-38.92800120270624,-139.11400587972852L-33.95038033576925,-139.6235101840989M195.40330015476044,-136.76078092387797L-33.95038033576925,-139.6235101840989M-33.95038033576925,-139.6235101840989L-34.755527695510814,-316.62758788684044" style="fill:none;stroke:rgb(0,102,204);stroke-opacity:1;stroke-width:1;stroke-linecap:round"></path><path d="M-138.33193009021736,-328.3072000649398L-366.99013159259727,-391.0554945846981M-141.42028727153874,-329.1547058387214L-154.5049350060897,-328.5886070208337M-326.3436559285691,-337.88780141693894L-512.2222431241295,-328.8711068192748" style="fill:none;stroke:rgb(0,0,0);stroke-opacity:1;stroke-width:2;stroke-linecap:round"></path><path d="M-39.862273231571194,-318.22990441159817L-38.92800120270624,-139.11400587972852M-38.92800120270624,-139.11400587972852L192.96075890282594,-136.18152555013017" style="fill:none;stroke:rgb(0,102,204);stroke-opacity:1;stroke-width:1;stroke-linecap:round"></path><path d="M-306.34937823870115,-65.11064667797744L-314.6653541259563,-63.703204560931006M-317.5801090091627,-335.99631558484236L-306.34937823870115,-65.11064667797744" style="fill:none;stroke:rgb(0,0,0);stroke-opacity:1;stroke-width:2;stroke-linecap:round"></path><path d="M-34.755527695510814,-316.62758788684044L-39.862273231571194,-318.22990441159817M-34.755527695510814,-316.62758788684044L200.3502191460202,-325.6420268446893" style="fill:none;stroke:rgb(0,102,204);stroke-opacity:1;stroke-width:1;stroke-linecap:round"></path><path d="M-314.6653541259563,-63.703204560931006L-326.3436559285691,-337.88780141693894" style="fill:none;stroke:rgb(0,0,0);stroke-opacity:1;stroke-width:2;stroke-linecap:round"></path><path d="M197.90847066956505,-327.46947320393275L-39.862273231571194,-318.22990441159817" style="fill:none;stroke:rgb(0,102,204);stroke-opacity:1;stroke-width:1;stroke-linecap:round"></path><path d="M-236.39421648050458,-60.785127014793915L-228.82237563394492,-62.26177993804033M-188.6378091107057,-60.785127014793915L-228.82237563394492,-62.26177993804033M-228.82237563394492,-62.26177993804033L-237.42112878929152,-339.82667311539274M-326.3436559285691,-337.88780141693894L-317.5801090091627,-335.99631558484236M-188.6378091107057,-60.785127014793915L-195.80619355714154,-59.271938349116695M-245.39019089202492,-341.8147339478455L-236.39421648050458,-60.785127014793915M-236.39421648050458,-60.785127014793915L-195.80619355714154,-59.271938349116695M-195.8164149542421,-341.8147339478455L-188.6378091107057,-60.785127014793915" style="fill:none;stroke:rgb(0,0,0);stroke-opacity:1;stroke-width:2;stroke-linecap:round"></path><path d="M195.40330015476044,-136.76078092387797L192.96075890282594,-136.18152555013017M200.3502191460202,-325.6420268446893L195.40330015476044,-136.76078092387797" style="fill:none;stroke:rgb(0,102,204);stroke-opacity:1;stroke-width:1;stroke-linecap:round"></path><path d="M-195.80619355714154,-59.271938349116695L-203.35332735591786,-343.85387985522203" style="fill:none;stroke:rgb(0,0,0);stroke-opacity:1;stroke-width:2;stroke-linecap:round"></path><path d="M192.96075890282594,-136.18152555013017L197.90847066956505,-327.46947320393275" style="fill:none;stroke:rgb(0,102,204);stroke-opacity:1;stroke-width:1;stroke-linecap:round"></path><path d="M-237.42112878929152,-339.82667311539274L-245.39019089202492,-341.8147339478455M-237.42112878929152,-339.82667311539274L-195.8164149542421,-341.8147339478455" style="fill:none;stroke:rgb(0,0,0);stroke-opacity:1;stroke-width:2;stroke-linecap:round"></path><path d="M197.90847066956505,-327.46947320393275L200.3502191460202,-325.6420268446893" style="fill:none;stroke:rgb(0,102,204);stroke-opacity:1;stroke-width:1;stroke-linecap:round"></path><path d="M-203.35332735591786,-343.85387985522203L-195.8164149542421,-341.8147339478455M-203.35332735591786,-343.85387985522203L-245.39019089202492,-341.8147339478455" style="fill:none;stroke:rgb(0,0,0);stroke-opacity:1;stroke-width:2;stroke-linecap:round"></path><path d="M354.27467897623967,-134.14153923388776L354.74504706207597,-134.7719212715249M640.2384627190539,-131.20847135062687L354.74504706207597,-134.7719212715249M354.74504706207597,-134.7719212715249L364.1215681297959,-331.92135794693536M363.76417930596045,-333.9144849173358L354.27467897623967,-134.14153923388776M354.27467897623967,-134.14153923388776L643.7351710705896,-130.48100304025664M364.1215681297959,-331.92135794693536L363.76417930596045,-333.9144849173358M364.1215681297959,-331.92135794693536L658.4442957821551,-343.206298013152M662.3044548514719,-345.5155060014613L363.76417930596045,-333.9144849173358M640.2384627190539,-131.20847135062687L643.7351710705896,-130.48100304025664M658.4442957821551,-343.206298013152L640.2384627190539,-131.20847135062687" style="fill:none;stroke:rgb(0,102,204);stroke-opacity:1;stroke-width:1;stroke-linecap:round"></path><path d="M-720.0036895114235,-41.79015870564551L-704.5399731798094,-43.75736592770665M-581.9517171679308,-37.68426857146463L-704.5399731798094,-43.75736592770665M-704.5399731798094,-43.75736592770665L-735.2463158365565,-364.8723886390041" style="fill:none;stroke:rgb(0,0,0);stroke-opacity:1;stroke-width:2;stroke-linecap:round"></path><path d="M643.7351710705896,-130.48100304025664L662.3044548514719,-345.5155060014613" style="fill:none;stroke:rgb(0,102,204);stroke-opacity:1;stroke-width:1;stroke-linecap:round"></path><path d="M-720.0036895114235,-41.79015870564551L-596.2921346246009,-35.5405298650434" style="fill:none;stroke:rgb(0,0,0);stroke-opacity:1;stroke-width:2;stroke-linecap:round"></path><path d="M662.3044548514719,-345.5155060014613L658.4442957821551,-343.206298013152" style="fill:none;stroke:rgb(0,102,204);stroke-opacity:1;stroke-width:1;stroke-linecap:round"></path><path d="M-581.9517171679308,-37.68426857146463L-596.2921346246009,-35.5405298650434M-608.4710359249505,-373.1556321850177L-581.9517171679308,-37.68426857146463M-735.2463158365565,-364.8723886390041L-608.4710359249505,-373.1556321850177M-623.8840585918061,-376.0870628486884L-751.8466045266706,-367.5520620220305M-596.2921346246009,-35.5405298650434L-623.8840585918061,-376.0870628486884M-507.55388850325136,-31.057673734653687L-494.1120856781225,-33.33263937688386M-352.0320551090986,-26.293907559539836L-494.1120856781225,-33.33263937688386M-494.1120856781225,-33.33263937688386L-517.33406359511,-379.11033990390996M-623.8840585918061,-376.0870628486884L-608.4710359249505,-373.1556321850177M-531.7872306599052,-382.2298485895366L-507.55388850325136,-31.057673734653687M-507.55388850325136,-31.057673734653687L-363.85442097782993,-23.79830061103855M-372.19676219954385,-24.219736881442426L-360.2748346603397,-26.702259911790264M-343.7461196439766,-25.88341723685878L-360.2748346603397,-26.702259911790264M-360.2748346603397,-26.702259911790264L-377.9932691518317,-388.2145890688376M-517.33406359511,-379.11033990390996L-531.7872306599052,-382.2298485895366M-352.0320551090986,-26.293907559539836L-363.85442097782993,-23.79830061103855M-369.39254001858836,-388.7765435297831L-352.0320551090986,-26.293907559539836M-517.33406359511,-379.11033990390996L-369.39254001858836,-388.7765435297831M-343.7461196439766,-25.88341723685878L-355.4677056006814,-23.374622658345295M-360.7445541318655,-389.34158565260196L-343.7461196439766,-25.88341723685878M-349.560521121181,-24.638949213743878L-366.18886170734646,-25.47077210933422M-366.18886170734646,-25.47077210933422L-384.34698708126444,-389.909740955161M-366.99013159259727,-391.0554945846981L-349.560521121181,-24.638949213743878M-390.80660030952095,-391.6331453729231L-372.19676219954385,-24.219736881442426M-372.19676219954385,-24.219736881442426L-355.4677056006814,-23.374622658345295M-382.09781812992173,-392.2140142713889L-531.7872306599052,-382.2298485895366M-363.85442097782993,-23.79830061103855L-382.09781812992173,-392.2140142713889M-355.4677056006814,-23.374622658345295L-373.34038353591114,-392.7981282474998M-377.9932691518317,-388.2145890688376L-390.80660030952095,-391.6331453729231M-377.9932691518317,-388.2145890688376L-360.7445541318655,-389.34158565260196M-382.09781812992173,-392.2140142713889L-369.39254001858836,-388.7765435297831M-373.34038353591114,-392.7981282474998L-360.7445541318655,-389.34158565260196M-384.34698708126444,-389.909740955161L-366.99013159259727,-391.0554945846981M-373.34038353591114,-392.7981282474998L-390.80660030952095,-391.6331453729231M-637.7658200490882,12.52483852539991L-763.3512099503728,3.992861295220921M-785.3351682410374,7.556557907009967L-658.2689247738444,16.424361103787362M-637.7658200490882,12.52483852539991L-658.2689247738444,16.424361103787362M-677.4882586680625,-442.8641742760184L-637.7658200490882,12.52483852539991M-658.2689247738444,16.424361103787405L-637.765820049088,12.524838525399947M-302.6974758761018,35.28859699511386L-637.765820049088,12.524838525399947M-637.765820049088,12.524838525399947L-677.4882586680624,-442.86417427601833M-657.3238883894568,13.8076322916235L-638.4464262482276,15.107360629018402M-698.5497768598757,-444.674369143282L-657.3238883894568,13.8076322916235M-657.3238883894568,13.8076322916235L-824.7059436189513,45.25315096403331M-808.6988065810881,-430.8619251396078L-677.4882586680625,-442.8641742760184M-804.0733500621179,47.002992816812906L-638.4464262482276,15.107360629018402M-638.4464262482276,15.107360629018402L-678.769358432326,-446.50997025429643M-658.2689247738444,16.424361103787362L-700.1376196357851,-448.3715162573396M-700.137619635785,-448.37151625733947L-658.2689247738444,16.424361103787405M-658.2689247738444,16.424361103787405L-318.1659682817291,40.159745124901626M-700.1376196357851,-448.3715162573396L-832.9312390435246,-435.86719209548465M-700.1376196357851,-448.3715162573396L-677.4882586680625,-442.8641742760184M-677.4882586680624,-442.86417427601833L-700.137619635785,-448.37151625733947M-677.4882586680624,-442.86417427601833L-323.89807729933074,-475.2082008537384M-678.769358432326,-446.50997025429643L-698.5497768598757,-444.674369143282M-885.2965843746292,-489.51548199806666L-698.5497768598757,-444.674369143282M-678.769358432326,-446.50997025429643L-863.6343389556083,-492.03741015588025M-340.9826512660761,-482.1908380656116L-700.137619635785,-448.37151625733947M-330.0144624835957,39.33285269546234L-314.34443937939744,34.497329575480464M-290.9654980406654,36.08564008934313L-314.34443937939744,34.497329575480464M-314.34443937939744,34.497329575480464L-337.58391155141516,-504.41889985674175M-302.6974758761018,35.28859699511386L-318.1659682817291,40.159745124901626M-323.89807729933074,-475.2082008537384L-302.6974758761018,35.28859699511386M-318.16596828172914,40.159745124901626L-302.6974758761018,35.28859699511386M-181.39325221913631,43.52972181846548L-302.6974758761018,35.28859699511386M-302.6974758761018,35.28859699511386L-325.1633041637812,-505.6740470795271M-290.9654980406654,36.08564008934313L-306.2290524813413,40.99280839336657M-312.64528024761694,-506.9390385942558L-290.9654980406654,36.08564008934313M-322.09335190345166,36.88852232711988L-298.5127906423281,38.51206279317763M-346.18694909307993,-508.2139906720926L-322.09335190345166,36.88852232711988M-322.09335190345166,36.88852232711988L-708.7509531037081,156.20498776485505M-676.653713678771,160.0827728915814L-298.5127906423281,38.51206279317763M-298.5127906423281,38.51206279317763L-321.01970739710686,-510.7942508296195M-354.99563693454513,-512.0998007898024L-330.0144624835957,39.33285269546234M-330.0144624835957,39.33285269546234L-306.2290524813413,40.99280839336657M-318.1659682817291,40.159745124901626L-340.9826512660761,-482.1908380656116M-342.34658187114053,-513.4157951496668L-318.16596828172914,40.159745124901626M-318.16596828172914,40.159745124901626L-194.64884725841023,48.77985925419142M-306.2290524813413,40.99280839336657L-329.5959279718853,-514.7423597453535M-181.39325221913631,43.52972181846548L-194.64884725841023,48.77985925419142M-195.40330015476064,-518.7867640004955L-181.39325221913631,43.52972181846548M-194.64884725841023,48.77985925419142L-210.05854766636773,-527.1789028299154M-337.58391155141516,-504.41889985674175L-354.99563693454513,-512.0998007898024M-337.58391155141516,-504.41889985674175L-312.64528024761694,-506.9390385942558M-340.9826512660761,-482.1908380656116L-323.89807729933074,-475.2082008537384M-325.1633041637812,-505.6740470795271L-342.34658187114053,-513.4157951496668M-325.1633041637812,-505.6740470795271L-195.40330015476064,-518.7867640004955M-329.5959279718853,-514.7423597453535L-312.64528024761694,-506.9390385942558M-321.01970739710686,-510.7942508296195L-346.18694909307993,-508.2139906720926M-793.9804980971919,-705.750869567316L-346.18694909307993,-508.2139906720926M-33.226472133855786,60.04532699415232L-23.17035182612057,54.27900593193808M1111.0365671270097,131.33436437877094L-23.17035182612057,54.27900593193808M-23.17035182612057,54.27900593193808L-25.15022808715541,-566.9132841014119M-321.01970739710686,-510.7942508296195L-759.0666659858009,-712.4515062178751M-329.5959279718853,-514.7423597453535L-354.99563693454513,-512.0998007898024M-210.05854766636773,-527.1789028299154L-342.34658187114053,-513.4157951496668M-36.14064702390238,-577.0543737297825L-33.226472133855786,60.04532699415232M-33.226472133855786,60.04532699415232L1134.395376901769,141.5322749434016M-210.05854766636773,-527.1789028299154L-195.40330015476064,-518.7867640004955M102.16106149170037,66.0987773512957L132.44909884967015,68.18413290087729M112.4238165273963,-663.0103204712216L102.16106149170037,66.0987773512957M102.16106149170037,66.0987773512957L-52.27349430891697,199.42870733027658M-7.563998715668315,204.36457724194088L132.44909884967015,68.18413290087729M132.44909884967015,68.18413290087729L145.87711808788555,-667.4334459057609M-674.632622880682,152.41385705436835L-1105.7418975582186,101.53005529086921M-1149.5433170080062,109.86072649422258L-711.5842722398797,164.05021779002402M-640.0778372637023,141.53228728534978L-607.6940329420304,131.33437634998685M-446.9445649948669,148.70650823803604L-607.6940329420304,131.33437634998685M-607.6940329420304,131.33437634998685L-674.8230249530684,-663.2096182742312M-713.3397583962948,-680.562934206178L-640.0778372637023,141.53228728534978M-640.0778372637023,141.53228728534978L-475.6674620910174,160.0827728915814M-446.9445649948669,148.70650823803604L-475.6674620910174,160.0827728915814M-499.3639892843883,-692.8459397217947L-446.9445649948669,148.70650823803604M-674.632622880682,152.41385705436835L-711.5842722398797,164.05021779002402M-750.0573881716898,-649.3837973933861L-674.632622880682,152.41385705436835M-676.653713678771,160.0827728915814L-708.7509531037081,156.20498776485505M-708.7509531037081,156.20498776485505L-793.9804980971919,-705.750869567316M-708.7509531037077,156.20498776485496L-676.6537136787707,160.08277289158133M-793.9804980971915,-705.7508695673156L-708.7509531037077,156.20498776485496M-708.7509531037077,156.20498776485496L-21233.825283483868,6489.920694751262M-759.0666659858009,-712.4515062178751L-676.653713678771,160.0827728915814M-475.6674620910174,160.0827728915814L-533.6013196533848,-712.451506217875M-26295.701249397607,8396.498382058386L-676.6537136787707,160.08277289158133M-676.6537136787707,160.08277289158133L-759.0666659858006,-712.4515062178747M-711.5842722398797,164.05021779002402L-794.219865145156,-667.4334459057609M-251.74658351244094,185.34783752502696L-228.93404439892808,172.26680619809957M424.06673746215466,242.83634165231197L-228.93404439892808,172.26680619809957M-228.93404439892808,172.26680619809957L-259.518300826008,-783.169611121522M-286.7887683727345,-808.332642411827L-251.74658351244094,185.34783752502696M-251.74658351244094,185.34783752502696L425.5449657835304,261.76689958471167M-7.563998715668315,204.36457724194088L-52.27349430891697,199.42870733027658M-52.27349430891697,199.42870733027658L-60.79213782592567,-961.6204331407879M-8.815186473147282,-973.3274891154808L-7.563998715668315,204.36457724194088M424.06673746215466,242.83634165231197L425.5449657835304,261.76689958471167M493.8203140292529,-921.9328471646929L424.06673746215466,242.83634165231197M425.5449657835304,261.76689958471167L499.1910507181255,-960.4526716901164" style="fill:none;stroke:rgb(0,0,0);stroke-opacity:1;stroke-width:2;stroke-linecap:round"></path></svg>